<?xml version="1.0" encoding="utf-8" standalone="no"?>
<!DOCTYPE svg PUBLIC "-//W3C//DTD SVG 1.1//EN"
  "http://www.w3.org/Graphics/SVG/1.1/DTD/svg11.dtd">
<svg xmlns:xlink="http://www.w3.org/1999/xlink" width="720pt" height="360pt" viewBox="0 0 720 360" xmlns="http://www.w3.org/2000/svg" version="1.1">
 <metadata>
  <rdf:RDF xmlns:dc="http://purl.org/dc/elements/1.1/" xmlns:cc="http://creativecommons.org/ns#" xmlns:rdf="http://www.w3.org/1999/02/22-rdf-syntax-ns#">
   <cc:Work>
    <dc:type rdf:resource="http://purl.org/dc/dcmitype/StillImage"/>
    <dc:date>2026-05-07T03:08:57.756497</dc:date>
    <dc:format>image/svg+xml</dc:format>
    <dc:creator>
     <cc:Agent>
      <dc:title>Matplotlib v3.10.9, https://matplotlib.org/</dc:title>
     </cc:Agent>
    </dc:creator>
   </cc:Work>
  </rdf:RDF>
 </metadata>
 <defs>
  <style type="text/css">*{stroke-linejoin: round; stroke-linecap: butt}</style>
 </defs>
 <g id="figure_1">
  <g id="patch_1">
   <path d="M 0 360 
L 720 360 
L 720 0 
L 0 0 
z
" style="fill: #ffffff"/>
  </g>
  <g id="axes_1">
   <g id="patch_2">
    <path d="M 47.72 318.04 
L 709.2 318.04 
L 709.2 26.88 
L 47.72 26.88 
z
" style="fill: #ffffff"/>
   </g>
   <g id="matplotlib.axis_1">
    <g id="xtick_1">
     <g id="line2d_1">
      <defs>
       <path id="m38d877001b" d="M 0 0 
L 0 3.5 
" style="stroke: #000000; stroke-width: 0.8"/>
      </defs>
      <g>
       <use xlink:href="#m38d877001b" x="77.787273" y="318.04" style="stroke: #000000; stroke-width: 0.8"/>
      </g>
     </g>
     <g id="text_1">
      <text style="font-size: 10px; font-family: 'DejaVu Sans', 'Bitstream Vera Sans', 'Computer Modern Sans Serif', 'Lucida Grande', 'Verdana', 'Geneva', 'Lucid', 'Arial', 'Helvetica', 'Avant Garde', sans-serif; text-anchor: middle" x="77.787273" y="332.638438" transform="rotate(-0 77.787273 332.638438)">0</text>
     </g>
    </g>
    <g id="xtick_2">
     <g id="line2d_2">
      <g>
       <use xlink:href="#m38d877001b" x="201.776026" y="318.04" style="stroke: #000000; stroke-width: 0.8"/>
      </g>
     </g>
     <g id="text_2">
      <text style="font-size: 10px; font-family: 'DejaVu Sans', 'Bitstream Vera Sans', 'Computer Modern Sans Serif', 'Lucida Grande', 'Verdana', 'Geneva', 'Lucid', 'Arial', 'Helvetica', 'Avant Garde', sans-serif; text-anchor: middle" x="201.776026" y="332.638438" transform="rotate(-0 201.776026 332.638438)">20</text>
     </g>
    </g>
    <g id="xtick_3">
     <g id="line2d_3">
      <g>
       <use xlink:href="#m38d877001b" x="325.76478" y="318.04" style="stroke: #000000; stroke-width: 0.8"/>
      </g>
     </g>
     <g id="text_3">
      <text style="font-size: 10px; font-family: 'DejaVu Sans', 'Bitstream Vera Sans', 'Computer Modern Sans Serif', 'Lucida Grande', 'Verdana', 'Geneva', 'Lucid', 'Arial', 'Helvetica', 'Avant Garde', sans-serif; text-anchor: middle" x="325.76478" y="332.638438" transform="rotate(-0 325.76478 332.638438)">40</text>
     </g>
    </g>
    <g id="xtick_4">
     <g id="line2d_4">
      <g>
       <use xlink:href="#m38d877001b" x="449.753533" y="318.04" style="stroke: #000000; stroke-width: 0.8"/>
      </g>
     </g>
     <g id="text_4">
      <text style="font-size: 10px; font-family: 'DejaVu Sans', 'Bitstream Vera Sans', 'Computer Modern Sans Serif', 'Lucida Grande', 'Verdana', 'Geneva', 'Lucid', 'Arial', 'Helvetica', 'Avant Garde', sans-serif; text-anchor: middle" x="449.753533" y="332.638438" transform="rotate(-0 449.753533 332.638438)">60</text>
     </g>
    </g>
    <g id="xtick_5">
     <g id="line2d_5">
      <g>
       <use xlink:href="#m38d877001b" x="573.742287" y="318.04" style="stroke: #000000; stroke-width: 0.8"/>
      </g>
     </g>
     <g id="text_5">
      <text style="font-size: 10px; font-family: 'DejaVu Sans', 'Bitstream Vera Sans', 'Computer Modern Sans Serif', 'Lucida Grande', 'Verdana', 'Geneva', 'Lucid', 'Arial', 'Helvetica', 'Avant Garde', sans-serif; text-anchor: middle" x="573.742287" y="332.638438" transform="rotate(-0 573.742287 332.638438)">80</text>
     </g>
    </g>
    <g id="xtick_6">
     <g id="line2d_6">
      <g>
       <use xlink:href="#m38d877001b" x="697.73104" y="318.04" style="stroke: #000000; stroke-width: 0.8"/>
      </g>
     </g>
     <g id="text_6">
      <text style="font-size: 10px; font-family: 'DejaVu Sans', 'Bitstream Vera Sans', 'Computer Modern Sans Serif', 'Lucida Grande', 'Verdana', 'Geneva', 'Lucid', 'Arial', 'Helvetica', 'Avant Garde', sans-serif; text-anchor: middle" x="697.73104" y="332.638438" transform="rotate(-0 697.73104 332.638438)">100</text>
     </g>
    </g>
    <g id="text_7">
     <text style="font-size: 10px; font-family: 'DejaVu Sans', 'Bitstream Vera Sans', 'Computer Modern Sans Serif', 'Lucida Grande', 'Verdana', 'Geneva', 'Lucid', 'Arial', 'Helvetica', 'Avant Garde', sans-serif; text-anchor: middle" x="378.46" y="346.316563" transform="rotate(-0 378.46 346.316563)">Decode step</text>
    </g>
   </g>
   <g id="matplotlib.axis_2">
    <g id="ytick_1">
     <g id="line2d_7">
      <defs>
       <path id="m44a9518ae2" d="M 0 0 
L -3.5 0 
" style="stroke: #000000; stroke-width: 0.8"/>
      </defs>
      <g>
       <use xlink:href="#m44a9518ae2" x="47.72" y="318.04" style="stroke: #000000; stroke-width: 0.8"/>
      </g>
     </g>
     <g id="text_8">
      <text style="font-size: 10px; font-family: 'DejaVu Sans', 'Bitstream Vera Sans', 'Computer Modern Sans Serif', 'Lucida Grande', 'Verdana', 'Geneva', 'Lucid', 'Arial', 'Helvetica', 'Avant Garde', sans-serif; text-anchor: end" x="40.72" y="321.839219" transform="rotate(-0 40.72 321.839219)">0.0</text>
     </g>
    </g>
    <g id="ytick_2">
     <g id="line2d_8">
      <g>
       <use xlink:href="#m44a9518ae2" x="47.72" y="262.580952" style="stroke: #000000; stroke-width: 0.8"/>
      </g>
     </g>
     <g id="text_9">
      <text style="font-size: 10px; font-family: 'DejaVu Sans', 'Bitstream Vera Sans', 'Computer Modern Sans Serif', 'Lucida Grande', 'Verdana', 'Geneva', 'Lucid', 'Arial', 'Helvetica', 'Avant Garde', sans-serif; text-anchor: end" x="40.72" y="266.380171" transform="rotate(-0 40.72 266.380171)">0.2</text>
     </g>
    </g>
    <g id="ytick_3">
     <g id="line2d_9">
      <g>
       <use xlink:href="#m44a9518ae2" x="47.72" y="207.121905" style="stroke: #000000; stroke-width: 0.8"/>
      </g>
     </g>
     <g id="text_10">
      <text style="font-size: 10px; font-family: 'DejaVu Sans', 'Bitstream Vera Sans', 'Computer Modern Sans Serif', 'Lucida Grande', 'Verdana', 'Geneva', 'Lucid', 'Arial', 'Helvetica', 'Avant Garde', sans-serif; text-anchor: end" x="40.72" y="210.921124" transform="rotate(-0 40.72 210.921124)">0.4</text>
     </g>
    </g>
    <g id="ytick_4">
     <g id="line2d_10">
      <g>
       <use xlink:href="#m44a9518ae2" x="47.72" y="151.662857" style="stroke: #000000; stroke-width: 0.8"/>
      </g>
     </g>
     <g id="text_11">
      <text style="font-size: 10px; font-family: 'DejaVu Sans', 'Bitstream Vera Sans', 'Computer Modern Sans Serif', 'Lucida Grande', 'Verdana', 'Geneva', 'Lucid', 'Arial', 'Helvetica', 'Avant Garde', sans-serif; text-anchor: end" x="40.72" y="155.462076" transform="rotate(-0 40.72 155.462076)">0.6</text>
     </g>
    </g>
    <g id="ytick_5">
     <g id="line2d_11">
      <g>
       <use xlink:href="#m44a9518ae2" x="47.72" y="96.20381" style="stroke: #000000; stroke-width: 0.8"/>
      </g>
     </g>
     <g id="text_12">
      <text style="font-size: 10px; font-family: 'DejaVu Sans', 'Bitstream Vera Sans', 'Computer Modern Sans Serif', 'Lucida Grande', 'Verdana', 'Geneva', 'Lucid', 'Arial', 'Helvetica', 'Avant Garde', sans-serif; text-anchor: end" x="40.72" y="100.003028" transform="rotate(-0 40.72 100.003028)">0.8</text>
     </g>
    </g>
    <g id="ytick_6">
     <g id="line2d_12">
      <g>
       <use xlink:href="#m44a9518ae2" x="47.72" y="40.744762" style="stroke: #000000; stroke-width: 0.8"/>
      </g>
     </g>
     <g id="text_13">
      <text style="font-size: 10px; font-family: 'DejaVu Sans', 'Bitstream Vera Sans', 'Computer Modern Sans Serif', 'Lucida Grande', 'Verdana', 'Geneva', 'Lucid', 'Arial', 'Helvetica', 'Avant Garde', sans-serif; text-anchor: end" x="40.72" y="44.543981" transform="rotate(-0 40.72 44.543981)">1.0</text>
     </g>
    </g>
    <g id="text_14">
     <text style="font-size: 10px; font-family: 'DejaVu Sans', 'Bitstream Vera Sans', 'Computer Modern Sans Serif', 'Lucida Grande', 'Verdana', 'Geneva', 'Lucid', 'Arial', 'Helvetica', 'Avant Garde', sans-serif; text-anchor: middle" x="18.737188" y="172.46" transform="rotate(-90 18.737188 172.46)">L2 retained fraction</text>
    </g>
   </g>
   <g id="line2d_13">
    <path d="M 77.787273 40.744762 
L 83.98671 40.744762 
L 90.186148 40.744762 
L 96.385586 40.744762 
L 102.585023 40.744762 
L 108.784461 40.744762 
L 114.983899 40.744762 
L 121.183336 40.744762 
L 127.382774 40.744762 
L 133.582212 40.744762 
L 139.781649 40.744762 
L 145.981087 40.744762 
L 152.180525 40.744762 
L 158.379963 40.744762 
L 164.5794 40.744762 
L 170.778838 40.744762 
L 176.978276 40.744762 
L 183.177713 40.744762 
L 189.377151 40.744762 
L 195.576589 40.744762 
L 201.776026 40.744762 
L 207.975464 40.744762 
L 214.174902 40.744762 
L 220.374339 40.744762 
L 226.573777 40.744762 
L 232.773215 40.744762 
L 238.972652 40.744762 
L 245.17209 40.744762 
L 251.371528 40.744762 
L 257.570965 40.744762 
L 263.770403 40.744762 
L 269.969841 40.744762 
L 276.169278 40.744762 
L 282.368716 40.744762 
L 288.568154 40.744762 
L 294.767591 40.744762 
L 300.967029 40.744762 
L 307.166467 40.744762 
L 313.365904 40.744762 
L 319.565342 40.744762 
L 325.76478 40.744762 
L 331.964217 40.744762 
L 338.163655 40.744762 
L 344.363093 40.744762 
L 350.56253 40.744762 
L 356.761968 40.744762 
L 362.961406 40.744762 
L 369.160843 40.744762 
L 375.360281 40.744762 
L 381.559719 40.744762 
L 387.759157 40.744762 
L 393.958594 40.744762 
L 400.158032 40.744762 
L 406.35747 40.744762 
L 412.556907 40.744762 
L 418.756345 40.744762 
L 424.955783 40.744762 
L 431.15522 40.744762 
L 437.354658 40.744762 
L 443.554096 40.744762 
L 449.753533 40.744762 
L 455.952971 40.744762 
L 462.152409 40.744762 
L 468.351846 40.744762 
L 474.551284 40.744762 
L 480.750722 40.744762 
L 486.950159 40.744762 
L 493.149597 40.744762 
L 499.349035 40.744762 
L 505.548472 40.744762 
L 511.74791 40.744762 
L 517.947348 40.744762 
L 524.146785 40.744762 
L 530.346223 40.744762 
L 536.545661 40.744762 
L 542.745098 40.744762 
L 548.944536 40.744762 
L 555.143974 40.744762 
L 561.343411 40.744762 
L 567.542849 40.744762 
L 573.742287 40.744762 
L 579.941724 40.744762 
L 586.141162 40.744762 
L 592.3406 40.744762 
L 598.540037 40.744762 
L 604.739475 40.744762 
L 610.938913 40.744762 
L 617.138351 40.744762 
L 623.337788 40.744762 
L 629.537226 40.744762 
L 635.736664 40.744762 
L 641.936101 40.744762 
L 648.135539 40.744762 
L 654.334977 40.744762 
L 660.534414 40.744762 
L 666.733852 40.744762 
L 672.93329 40.744762 
L 679.132727 40.744762 
" clip-path="url(#p27794e1188)" style="fill: none; stroke: #1f77b4; stroke-opacity: 0.85; stroke-width: 1.5; stroke-linecap: square"/>
   </g>
   <g id="line2d_14">
    <path d="M 77.787273 71.227071 
L 83.98671 40.924023 
L 90.186148 40.923494 
L 96.385586 40.986442 
L 102.585023 40.985071 
L 108.784461 40.987955 
L 114.983899 40.983705 
L 121.183336 41.023255 
L 127.382774 41.009156 
L 133.582212 41.023101 
L 139.781649 41.014326 
L 145.981087 41.020439 
L 152.180525 40.998357 
L 158.379963 41.024517 
L 164.5794 40.992947 
L 170.778838 41.022274 
L 176.978276 41.012647 
L 183.177713 41.051757 
L 189.377151 41.047102 
L 195.576589 41.051839 
L 201.776026 41.043732 
L 207.975464 41.055083 
L 214.174902 41.049629 
L 220.374339 41.050217 
L 226.573777 41.055817 
L 232.773215 41.037738 
L 238.972652 41.045284 
L 245.17209 41.039902 
L 251.371528 41.037123 
L 257.570965 41.050158 
L 263.770403 41.050938 
L 269.969841 41.052553 
L 276.169278 41.046779 
L 282.368716 41.047833 
L 288.568154 41.033073 
L 294.767591 41.04888 
L 300.967029 41.036159 
L 307.166467 41.057198 
L 313.365904 41.044534 
L 319.565342 41.052042 
L 325.76478 41.052562 
L 331.964217 41.033335 
L 338.163655 41.048169 
L 344.363093 41.030169 
L 350.56253 41.081579 
L 356.761968 41.095006 
L 362.961406 41.073675 
L 369.160843 41.107421 
L 375.360281 41.0759 
L 381.559719 41.103041 
L 387.759157 41.100087 
L 393.958594 41.088847 
L 400.158032 41.105952 
L 406.35747 41.094967 
L 412.556907 41.092717 
L 418.756345 41.082051 
L 424.955783 41.073655 
L 431.15522 41.075721 
L 437.354658 41.093082 
L 443.554096 41.094544 
L 449.753533 41.122819 
L 455.952971 41.111685 
L 462.152409 41.101391 
L 468.351846 41.104935 
L 474.551284 41.101004 
L 480.750722 41.383792 
L 486.950159 41.390923 
L 493.149597 41.607086 
L 499.349035 41.671213 
L 505.548472 41.605609 
L 511.74791 41.74499 
L 517.947348 41.722806 
L 524.146785 41.794138 
L 530.346223 42.241876 
L 536.545661 41.790516 
L 542.745098 41.795789 
L 548.944536 41.77434 
L 555.143974 41.778161 
L 561.343411 41.799851 
L 567.542849 41.778123 
L 573.742287 41.799019 
L 579.941724 41.793642 
L 586.141162 41.761359 
L 592.3406 41.794723 
L 598.540037 41.701551 
L 604.739475 41.392027 
L 610.938913 41.721614 
L 617.138351 41.749151 
L 623.337788 41.82604 
L 629.537226 41.845409 
L 635.736664 41.866289 
L 641.936101 41.842716 
L 648.135539 41.828471 
L 654.334977 41.85522 
L 660.534414 41.837399 
L 666.733852 41.825641 
L 672.93329 41.879542 
L 679.132727 41.853795 
" clip-path="url(#p27794e1188)" style="fill: none; stroke: #ff7f0e; stroke-opacity: 0.85; stroke-width: 1.5; stroke-linecap: square"/>
   </g>
   <g id="line2d_15">
    <path d="M 77.787273 71.375171 
L 83.98671 40.92863 
L 90.186148 40.927095 
L 96.385586 40.974226 
L 102.585023 41.002247 
L 108.784461 41.005546 
L 114.983899 40.967741 
L 121.183336 41.004754 
L 127.382774 41.018116 
L 133.582212 41.023374 
L 139.781649 41.020982 
L 145.981087 40.957338 
L 152.180525 41.003092 
L 158.379963 41.001031 
L 164.5794 41.010097 
L 170.778838 41.028191 
L 176.978276 41.026622 
L 183.177713 41.016662 
L 189.377151 41.066975 
L 195.576589 41.05675 
L 201.776026 41.040744 
L 207.975464 41.050473 
L 214.174902 41.037996 
L 220.374339 41.051632 
L 226.573777 41.063198 
L 232.773215 41.056126 
L 238.972652 41.059283 
L 245.17209 41.047479 
L 251.371528 41.079213 
L 257.570965 41.048586 
L 263.770403 41.055196 
L 269.969841 41.051867 
L 276.169278 41.063683 
L 282.368716 41.050544 
L 288.568154 41.051461 
L 294.767591 41.035363 
L 300.967029 41.063792 
L 307.166467 41.054105 
L 313.365904 41.040013 
L 319.565342 41.0644 
L 325.76478 41.06557 
L 331.964217 41.065832 
L 338.163655 41.05734 
L 344.363093 41.059389 
L 350.56253 41.104369 
L 356.761968 41.088762 
L 362.961406 41.100568 
L 369.160843 41.105517 
L 375.360281 41.074831 
L 381.559719 41.096034 
L 387.759157 41.136381 
L 393.958594 41.11567 
L 400.158032 41.102945 
L 406.35747 41.110727 
L 412.556907 41.123488 
L 418.756345 41.111697 
L 424.955783 40.963427 
L 431.15522 41.125529 
L 437.354658 41.108329 
L 443.554096 41.12748 
L 449.753533 40.958131 
L 455.952971 40.94526 
L 462.152409 40.966225 
L 468.351846 40.953632 
L 474.551284 40.939371 
L 480.750722 41.38105 
L 486.950159 41.367158 
L 493.149597 41.859216 
L 499.349035 41.851764 
L 505.548472 41.808465 
L 511.74791 41.595104 
L 517.947348 41.750737 
L 524.146785 41.843917 
L 530.346223 41.845767 
L 536.545661 41.752429 
L 542.745098 41.835518 
L 548.944536 41.847918 
L 555.143974 41.841418 
L 561.343411 41.855552 
L 567.542849 41.846991 
L 573.742287 41.858515 
L 579.941724 41.829307 
L 586.141162 41.417091 
L 592.3406 41.840178 
L 598.540037 41.815824 
L 604.739475 41.809224 
L 610.938913 41.711579 
L 617.138351 41.679719 
L 623.337788 41.738487 
L 629.537226 41.781535 
L 635.736664 41.845976 
L 641.936101 41.801884 
L 648.135539 41.738605 
L 654.334977 41.851615 
L 660.534414 41.851991 
L 666.733852 41.842306 
L 672.93329 41.81584 
L 679.132727 41.878952 
" clip-path="url(#p27794e1188)" style="fill: none; stroke: #2ca02c; stroke-opacity: 0.85; stroke-width: 1.5; stroke-linecap: square"/>
   </g>
   <g id="line2d_16">
    <path d="M 77.787273 71.424127 
L 83.98671 40.926886 
L 90.186148 40.921605 
L 96.385586 40.987385 
L 102.585023 40.97615 
L 108.784461 40.988008 
L 114.983899 40.989308 
L 121.183336 41.01443 
L 127.382774 41.012479 
L 133.582212 41.007548 
L 139.781649 41.014167 
L 145.981087 41.007786 
L 152.180525 41.004883 
L 158.379963 41.01544 
L 164.5794 41.010726 
L 170.778838 41.01559 
L 176.978276 41.029145 
L 183.177713 41.053219 
L 189.377151 41.043875 
L 195.576589 41.062107 
L 201.776026 40.986712 
L 207.975464 41.05027 
L 214.174902 40.998928 
L 220.374339 41.052745 
L 226.573777 41.053709 
L 232.773215 41.06694 
L 238.972652 41.054992 
L 245.17209 41.059578 
L 251.371528 41.055996 
L 257.570965 41.058378 
L 263.770403 41.052286 
L 269.969841 41.066011 
L 276.169278 41.052321 
L 282.368716 41.06252 
L 288.568154 41.055106 
L 294.767591 41.055934 
L 300.967029 41.054908 
L 307.166467 41.059265 
L 313.365904 41.05748 
L 319.565342 41.061239 
L 325.76478 41.055515 
L 331.964217 41.066827 
L 338.163655 41.050474 
L 344.363093 41.066598 
L 350.56253 41.108406 
L 356.761968 41.116928 
L 362.961406 41.087007 
L 369.160843 41.122415 
L 375.360281 41.079696 
L 381.559719 41.119295 
L 387.759157 41.106501 
L 393.958594 41.107547 
L 400.158032 41.102073 
L 406.35747 41.107641 
L 412.556907 41.0978 
L 418.756345 41.111227 
L 424.955783 41.104971 
L 431.15522 41.10533 
L 437.354658 41.111824 
L 443.554096 41.090302 
L 449.753533 41.099082 
L 455.952971 41.092654 
L 462.152409 41.089448 
L 468.351846 41.104636 
L 474.551284 41.105699 
L 480.750722 41.430832 
L 486.950159 43.205324 
L 493.149597 41.771408 
L 499.349035 43.463417 
L 505.548472 41.798665 
L 511.74791 41.717867 
L 517.947348 41.7658 
L 524.146785 41.789935 
L 530.346223 41.752919 
L 536.545661 41.807675 
L 542.745098 41.775476 
L 548.944536 41.8156 
L 555.143974 41.787424 
L 561.343411 41.767632 
L 567.542849 41.832955 
L 573.742287 41.73006 
L 579.941724 41.814374 
L 586.141162 41.746394 
L 592.3406 41.778614 
L 598.540037 41.804344 
L 604.739475 41.743194 
L 610.938913 41.804977 
L 617.138351 41.757925 
L 623.337788 41.809118 
L 629.537226 41.771661 
L 635.736664 41.814778 
L 641.936101 41.764344 
L 648.135539 41.799072 
L 654.334977 41.802551 
L 660.534414 41.789924 
L 666.733852 41.797759 
L 672.93329 41.785408 
L 679.132727 41.807194 
" clip-path="url(#p27794e1188)" style="fill: none; stroke: #d62728; stroke-opacity: 0.85; stroke-width: 1.5; stroke-linecap: square"/>
   </g>
   <g id="line2d_17">
    <path d="M 77.787273 71.292232 
L 83.98671 40.913566 
L 90.186148 40.930537 
L 96.385586 40.970549 
L 102.585023 40.989325 
L 108.784461 40.986513 
L 114.983899 40.979227 
L 121.183336 41.02269 
L 127.382774 41.013637 
L 133.582212 41.012494 
L 139.781649 41.004466 
L 145.981087 41.011891 
L 152.180525 40.999522 
L 158.379963 41.012351 
L 164.5794 41.013813 
L 170.778838 41.008322 
L 176.978276 41.006208 
L 183.177713 41.037978 
L 189.377151 41.045452 
L 195.576589 41.038164 
L 201.776026 41.034917 
L 207.975464 41.046666 
L 214.174902 41.041208 
L 220.374339 41.046708 
L 226.573777 41.061807 
L 232.773215 41.045661 
L 238.972652 41.036414 
L 245.17209 41.054261 
L 251.371528 40.980506 
L 257.570965 41.04232 
L 263.770403 40.992167 
L 269.969841 41.044422 
L 276.169278 41.045213 
L 282.368716 41.057985 
L 288.568154 41.046197 
L 294.767591 41.050633 
L 300.967029 41.047236 
L 307.166467 41.049319 
L 313.365904 41.043349 
L 319.565342 41.056566 
L 325.76478 41.043248 
L 331.964217 41.052893 
L 338.163655 41.045757 
L 344.363093 41.046649 
L 350.56253 41.095936 
L 356.761968 41.100826 
L 362.961406 41.098694 
L 369.160843 41.10277 
L 375.360281 41.096375 
L 381.559719 41.109033 
L 387.759157 41.090493 
L 393.958594 41.108462 
L 400.158032 41.097122 
L 406.35747 41.105112 
L 412.556907 41.076136 
L 418.756345 41.110293 
L 424.955783 41.068753 
L 431.15522 41.106994 
L 437.354658 41.094527 
L 443.554096 41.095443 
L 449.753533 41.090121 
L 455.952971 41.095594 
L 462.152409 41.086115 
L 468.351846 41.098891 
L 474.551284 41.092675 
L 480.750722 41.303956 
L 486.950159 41.29213 
L 493.149597 41.532179 
L 499.349035 41.554759 
L 505.548472 41.59869 
L 511.74791 41.587874 
L 517.947348 41.678242 
L 524.146785 41.635987 
L 530.346223 41.722385 
L 536.545661 43.457327 
L 542.745098 41.744667 
L 548.944536 43.403264 
L 555.143974 41.770244 
L 561.343411 41.690919 
L 567.542849 41.737038 
L 573.742287 41.756559 
L 579.941724 41.719963 
L 586.141162 41.773237 
L 592.3406 41.742001 
L 598.540037 41.780454 
L 604.739475 41.752513 
L 610.938913 41.733338 
L 617.138351 41.796144 
L 623.337788 41.696355 
L 629.537226 41.782491 
L 635.736664 41.710959 
L 641.936101 41.747677 
L 648.135539 41.770839 
L 654.334977 41.728296 
L 660.534414 41.790155 
L 666.733852 41.679821 
L 672.93329 41.7466 
L 679.132727 41.786982 
" clip-path="url(#p27794e1188)" style="fill: none; stroke: #9467bd; stroke-opacity: 0.85; stroke-width: 1.5; stroke-linecap: square"/>
   </g>
   <g id="line2d_18">
    <path d="M 77.787273 71.372756 
L 83.98671 40.906246 
L 90.186148 40.911381 
L 96.385586 40.97748 
L 102.585023 40.998676 
L 108.784461 40.977091 
L 114.983899 40.989626 
L 121.183336 41.005043 
L 127.382774 40.993735 
L 133.582212 41.029806 
L 139.781649 40.992586 
L 145.981087 40.988654 
L 152.180525 41.020965 
L 158.379963 41.043975 
L 164.5794 40.993884 
L 170.778838 41.011101 
L 176.978276 41.018007 
L 183.177713 41.073167 
L 189.377151 41.067223 
L 195.576589 41.069204 
L 201.776026 41.054028 
L 207.975464 41.081598 
L 214.174902 41.079053 
L 220.374339 41.073995 
L 226.573777 41.067316 
L 232.773215 41.067749 
L 238.972652 41.041408 
L 245.17209 41.072339 
L 251.371528 41.071453 
L 257.570965 41.074888 
L 263.770403 41.064318 
L 269.969841 41.051587 
L 276.169278 41.03053 
L 282.368716 41.080468 
L 288.568154 41.068816 
L 294.767591 41.069111 
L 300.967029 41.042383 
L 307.166467 41.0737 
L 313.365904 41.030399 
L 319.565342 41.069897 
L 325.76478 41.068325 
L 331.964217 41.058262 
L 338.163655 41.043225 
L 344.363093 41.060466 
L 350.56253 41.07709 
L 356.761968 41.126873 
L 362.961406 41.107709 
L 369.160843 41.096255 
L 375.360281 41.114436 
L 381.559719 41.079093 
L 387.759157 41.101317 
L 393.958594 41.106064 
L 400.158032 41.080058 
L 406.35747 41.128086 
L 412.556907 41.123541 
L 418.756345 41.10931 
L 424.955783 41.105476 
L 431.15522 41.113981 
L 437.354658 41.106777 
L 443.554096 41.120158 
L 449.753533 41.080324 
L 455.952971 41.132409 
L 462.152409 41.106469 
L 468.351846 41.112024 
L 474.551284 41.121464 
L 480.750722 41.404983 
L 486.950159 43.200358 
L 493.149597 41.77712 
L 499.349035 43.481852 
L 505.548472 41.801702 
L 511.74791 41.711231 
L 517.947348 41.776063 
L 524.146785 41.79449 
L 530.346223 41.749144 
L 536.545661 41.818665 
L 542.745098 41.786843 
L 548.944536 41.834957 
L 555.143974 41.828496 
L 561.343411 41.775386 
L 567.542849 41.810813 
L 573.742287 41.750239 
L 579.941724 41.804786 
L 586.141162 41.764681 
L 592.3406 41.781618 
L 598.540037 41.780688 
L 604.739475 41.732707 
L 610.938913 41.786826 
L 617.138351 41.764984 
L 623.337788 41.788707 
L 629.537226 41.765144 
L 635.736664 41.83254 
L 641.936101 41.806294 
L 648.135539 41.782556 
L 654.334977 41.808941 
L 660.534414 41.757473 
L 666.733852 41.740648 
L 672.93329 41.798341 
L 679.132727 41.756963 
" clip-path="url(#p27794e1188)" style="fill: none; stroke: #8c564b; stroke-opacity: 0.85; stroke-width: 1.5; stroke-linecap: square"/>
   </g>
   <g id="patch_3">
    <path d="M 47.72 318.04 
L 47.72 26.88 
" style="fill: none; stroke: #000000; stroke-width: 0.8; stroke-linejoin: miter; stroke-linecap: square"/>
   </g>
   <g id="patch_4">
    <path d="M 709.2 318.04 
L 709.2 26.88 
" style="fill: none; stroke: #000000; stroke-width: 0.8; stroke-linejoin: miter; stroke-linecap: square"/>
   </g>
   <g id="patch_5">
    <path d="M 47.72 318.04 
L 709.2 318.04 
" style="fill: none; stroke: #000000; stroke-width: 0.8; stroke-linejoin: miter; stroke-linecap: square"/>
   </g>
   <g id="patch_6">
    <path d="M 47.72 26.88 
L 709.2 26.88 
" style="fill: none; stroke: #000000; stroke-width: 0.8; stroke-linejoin: miter; stroke-linecap: square"/>
   </g>
   <g id="text_15">
    <text style="font-size: 12px; font-family: 'DejaVu Sans', 'Bitstream Vera Sans', 'Computer Modern Sans Serif', 'Lucida Grande', 'Verdana', 'Geneva', 'Lucid', 'Arial', 'Helvetica', 'Avant Garde', sans-serif; text-anchor: middle" x="378.46" y="20.88" transform="rotate(-0 378.46 20.88)">Cache L2 Retained Fraction Over Decoding</text>
   </g>
   <g id="legend_1">
    <g id="patch_7">
     <path d="M 54.72 313.04 
L 292.12625 313.04 
Q 294.12625 313.04 294.12625 311.04 
L 294.12625 222.580625 
Q 294.12625 220.580625 292.12625 220.580625 
L 54.72 220.580625 
Q 52.72 220.580625 52.72 222.580625 
L 52.72 311.04 
Q 52.72 313.04 54.72 313.04 
z
" style="fill: #ffffff; opacity: 0.8; stroke: #cccccc; stroke-linejoin: miter"/>
    </g>
    <g id="line2d_19">
     <path d="M 56.72 228.679063 
L 66.72 228.679063 
L 76.72 228.679063 
" style="fill: none; stroke: #1f77b4; stroke-opacity: 0.85; stroke-width: 1.5; stroke-linecap: square"/>
    </g>
    <g id="text_16">
     <text style="font-size: 10px; font-family: 'DejaVu Sans', 'Bitstream Vera Sans', 'Computer Modern Sans Serif', 'Lucida Grande', 'Verdana', 'Geneva', 'Lucid', 'Arial', 'Helvetica', 'Avant Garde', sans-serif; text-anchor: start" x="84.72" y="232.179063" transform="rotate(-0 84.72 232.179063)">none</text>
    </g>
    <g id="line2d_20">
     <path d="M 56.72 243.357188 
L 66.72 243.357188 
L 76.72 243.357188 
" style="fill: none; stroke: #ff7f0e; stroke-opacity: 0.85; stroke-width: 1.5; stroke-linecap: square"/>
    </g>
    <g id="text_17">
     <text style="font-size: 10px; font-family: 'DejaVu Sans', 'Bitstream Vera Sans', 'Computer Modern Sans Serif', 'Lucida Grande', 'Verdana', 'Geneva', 'Lucid', 'Arial', 'Helvetica', 'Avant Garde', sans-serif; text-anchor: start" x="84.72" y="246.857188" transform="rotate(-0 84.72 246.857188)">policy_pinned__budget128__sink8</text>
    </g>
    <g id="line2d_21">
     <path d="M 56.72 258.313438 
L 66.72 258.313438 
L 76.72 258.313438 
" style="fill: none; stroke: #2ca02c; stroke-opacity: 0.85; stroke-width: 1.5; stroke-linecap: square"/>
    </g>
    <g id="text_18">
     <text style="font-size: 10px; font-family: 'DejaVu Sans', 'Bitstream Vera Sans', 'Computer Modern Sans Serif', 'Lucida Grande', 'Verdana', 'Geneva', 'Lucid', 'Arial', 'Helvetica', 'Avant Garde', sans-serif; text-anchor: start" x="84.72" y="261.813438" transform="rotate(-0 84.72 261.813438)">random_matched__budget128__seed991</text>
    </g>
    <g id="line2d_22">
     <path d="M 56.72 273.269688 
L 66.72 273.269688 
L 76.72 273.269688 
" style="fill: none; stroke: #d62728; stroke-opacity: 0.85; stroke-width: 1.5; stroke-linecap: square"/>
    </g>
    <g id="text_19">
     <text style="font-size: 10px; font-family: 'DejaVu Sans', 'Bitstream Vera Sans', 'Computer Modern Sans Serif', 'Lucida Grande', 'Verdana', 'Geneva', 'Lucid', 'Arial', 'Helvetica', 'Avant Garde', sans-serif; text-anchor: start" x="84.72" y="276.769688" transform="rotate(-0 84.72 276.769688)">sink_recent__budget128__sink8</text>
    </g>
    <g id="line2d_23">
     <path d="M 56.72 288.225937 
L 66.72 288.225937 
L 76.72 288.225937 
" style="fill: none; stroke: #9467bd; stroke-opacity: 0.85; stroke-width: 1.5; stroke-linecap: square"/>
    </g>
    <g id="text_20">
     <text style="font-size: 10px; font-family: 'DejaVu Sans', 'Bitstream Vera Sans', 'Computer Modern Sans Serif', 'Lucida Grande', 'Verdana', 'Geneva', 'Lucid', 'Arial', 'Helvetica', 'Avant Garde', sans-serif; text-anchor: start" x="84.72" y="291.725937" transform="rotate(-0 84.72 291.725937)">sliding_window__budget128</text>
    </g>
    <g id="line2d_24">
     <path d="M 56.72 303.182187 
L 66.72 303.182187 
L 76.72 303.182187 
" style="fill: none; stroke: #8c564b; stroke-opacity: 0.85; stroke-width: 1.5; stroke-linecap: square"/>
    </g>
    <g id="text_21">
     <text style="font-size: 10px; font-family: 'DejaVu Sans', 'Bitstream Vera Sans', 'Computer Modern Sans Serif', 'Lucida Grande', 'Verdana', 'Geneva', 'Lucid', 'Arial', 'Helvetica', 'Avant Garde', sans-serif; text-anchor: start" x="84.72" y="306.682187" transform="rotate(-0 84.72 306.682187)">user_pinned__budget128__sink8</text>
    </g>
   </g>
  </g>
 </g>
 <defs>
  <clipPath id="p27794e1188">
   <rect x="47.72" y="26.88" width="661.48" height="291.16"/>
  </clipPath>
 </defs>
</svg>
