<?xml version="1.0" encoding="utf-8" standalone="no"?>
<!DOCTYPE svg PUBLIC "-//W3C//DTD SVG 1.1//EN"
  "http://www.w3.org/Graphics/SVG/1.1/DTD/svg11.dtd">
<svg xmlns:xlink="http://www.w3.org/1999/xlink" width="648pt" height="504pt" viewBox="0 0 648 504" xmlns="http://www.w3.org/2000/svg" version="1.1">
 <metadata>
  <rdf:RDF xmlns:dc="http://purl.org/dc/elements/1.1/" xmlns:cc="http://creativecommons.org/ns#" xmlns:rdf="http://www.w3.org/1999/02/22-rdf-syntax-ns#">
   <cc:Work>
    <dc:type rdf:resource="http://purl.org/dc/dcmitype/StillImage"/>
    <dc:date>2026-05-07T03:08:52.876374</dc:date>
    <dc:format>image/svg+xml</dc:format>
    <dc:creator>
     <cc:Agent>
      <dc:title>Matplotlib v3.10.9, https://matplotlib.org/</dc:title>
     </cc:Agent>
    </dc:creator>
   </cc:Work>
  </rdf:RDF>
 </metadata>
 <defs>
  <style type="text/css">*{stroke-linejoin: round; stroke-linecap: butt}</style>
 </defs>
 <g id="figure_1">
  <g id="patch_1">
   <path d="M 0 504 
L 648 504 
L 648 0 
L 0 0 
z
" style="fill: #ffffff"/>
  </g>
  <g id="axes_1">
   <g id="patch_2">
    <path d="M 56 462.04 
L 512.387273 462.04 
L 512.387273 26.88 
L 56 26.88 
z
" style="fill: #ffffff"/>
   </g>
   <g id="PathCollection_1">
    <path d="M 146.930221 65.919506 
C 147.985529 65.919506 148.997757 65.500228 149.743972 64.754012 
C 150.490188 64.007797 150.909466 62.995569 150.909466 61.940261 
C 150.909466 60.884953 150.490188 59.872725 149.743972 59.12651 
C 148.997757 58.380294 147.985529 57.961016 146.930221 57.961016 
C 145.874913 57.961016 144.862685 58.380294 144.11647 59.12651 
C 143.370254 59.872725 142.950976 60.884953 142.950976 61.940261 
C 142.950976 62.995569 143.370254 64.007797 144.11647 64.754012 
C 144.862685 65.500228 145.874913 65.919506 146.930221 65.919506 
z
" clip-path="url(#p4b1f32ca45)" style="fill: #1f77b4; fill-opacity: 0.9; stroke: #ffffff; stroke-opacity: 0.9; stroke-width: 0.7"/>
    <path d="M 117.504745 224.573385 
C 118.348783 224.573385 119.158365 224.238045 119.75519 223.64122 
C 120.352015 223.044395 120.687355 222.234813 120.687355 221.390775 
C 120.687355 220.546737 120.352015 219.737155 119.75519 219.14033 
C 119.158365 218.543505 118.348783 218.208165 117.504745 218.208165 
C 116.660707 218.208165 115.851125 218.543505 115.2543 219.14033 
C 114.657475 219.737155 114.322135 220.546737 114.322135 221.390775 
C 114.322135 222.234813 114.657475 223.044395 115.2543 223.64122 
C 115.851125 224.238045 116.660707 224.573385 117.504745 224.573385 
z
" clip-path="url(#p4b1f32ca45)" style="fill: #1f77b4; fill-opacity: 0.9; stroke: #ffffff; stroke-opacity: 0.9; stroke-width: 0.7"/>
    <path d="M 149.750086 50.707363 
C 150.823459 50.707363 151.853014 50.280907 152.612004 49.521918 
C 153.370993 48.762928 153.797449 47.733373 153.797449 46.66 
C 153.797449 45.586627 153.370993 44.557072 152.612004 43.798082 
C 151.853014 43.039093 150.823459 42.612637 149.750086 42.612637 
C 148.676713 42.612637 147.647158 43.039093 146.888169 43.798082 
C 146.129179 44.557072 145.702723 45.586627 145.702723 46.66 
C 145.702723 47.733373 146.129179 48.762928 146.888169 49.521918 
C 147.647158 50.280907 148.676713 50.707363 149.750086 50.707363 
z
" clip-path="url(#p4b1f32ca45)" style="fill: #1f77b4; fill-opacity: 0.9; stroke: #ffffff; stroke-opacity: 0.9; stroke-width: 0.7"/>
    <path d="M 116.534272 229.802476 
C 117.370433 229.802476 118.17246 229.470265 118.763716 228.87901 
C 119.354971 228.287754 119.687181 227.485727 119.687181 226.649566 
C 119.687181 225.813405 119.354971 225.011378 118.763716 224.420122 
C 118.17246 223.828867 117.370433 223.496657 116.534272 223.496657 
C 115.698111 223.496657 114.896084 223.828867 114.304828 224.420122 
C 113.713573 225.011378 113.381362 225.813405 113.381362 226.649566 
C 113.381362 227.485727 113.713573 228.287754 114.304828 228.87901 
C 114.896084 229.470265 115.698111 229.802476 116.534272 229.802476 
z
" clip-path="url(#p4b1f32ca45)" style="fill: #1f77b4; fill-opacity: 0.9; stroke: #ffffff; stroke-opacity: 0.9; stroke-width: 0.7"/>
    <path d="M 491.642397 181.060638 
C 493.130845 181.060638 494.558531 180.469271 495.611024 179.416779 
C 496.663516 178.364287 497.254883 176.936601 497.254883 175.448152 
C 497.254883 173.959704 496.663516 172.532018 495.611024 171.479525 
C 494.558531 170.427033 493.130845 169.835666 491.642397 169.835666 
C 490.153948 169.835666 488.726262 170.427033 487.67377 171.479525 
C 486.621278 172.532018 486.029911 173.959704 486.029911 175.448152 
C 486.029911 176.936601 486.621278 178.364287 487.67377 179.416779 
C 488.726262 180.469271 490.153948 181.060638 491.642397 181.060638 
z
" clip-path="url(#p4b1f32ca45)" style="fill: #1f77b4; fill-opacity: 0.9; stroke: #ffffff; stroke-opacity: 0.9; stroke-width: 0.7"/>
    <path d="M 76.744876 446.231654 
C 77.798171 446.231654 78.808468 445.813176 79.55326 445.068384 
C 80.298052 444.323592 80.71653 443.313295 80.71653 442.26 
C 80.71653 441.206705 80.298052 440.196408 79.55326 439.451616 
C 78.808468 438.706824 77.798171 438.288346 76.744876 438.288346 
C 75.691581 438.288346 74.681284 438.706824 73.936492 439.451616 
C 73.1917 440.196408 72.773222 441.206705 72.773222 442.26 
C 72.773222 443.313295 73.1917 444.323592 73.936492 445.068384 
C 74.681284 445.813176 75.691581 446.231654 76.744876 446.231654 
z
" clip-path="url(#p4b1f32ca45)" style="fill: #1f77b4; fill-opacity: 0.9; stroke: #ffffff; stroke-opacity: 0.9; stroke-width: 0.7"/>
    <path d="M 149.750086 50.707363 
C 150.823459 50.707363 151.853014 50.280907 152.612004 49.521918 
C 153.370993 48.762928 153.797449 47.733373 153.797449 46.66 
C 153.797449 45.586627 153.370993 44.557072 152.612004 43.798082 
C 151.853014 43.039093 150.823459 42.612637 149.750086 42.612637 
C 148.676713 42.612637 147.647158 43.039093 146.888169 43.798082 
C 146.129179 44.557072 145.702723 45.586627 145.702723 46.66 
C 145.702723 47.733373 146.129179 48.762928 146.888169 49.521918 
C 147.647158 50.280907 148.676713 50.707363 149.750086 50.707363 
z
" clip-path="url(#p4b1f32ca45)" style="fill: #1f77b4; fill-opacity: 0.9; stroke: #ffffff; stroke-opacity: 0.9; stroke-width: 0.7"/>
    <path d="M 104.888595 292.967095 
C 105.740437 292.967095 106.557504 292.628654 107.159847 292.026311 
C 107.76219 291.423968 108.100631 290.606901 108.100631 289.755059 
C 108.100631 288.903217 107.76219 288.08615 107.159847 287.483807 
C 106.557504 286.881464 105.740437 286.543023 104.888595 286.543023 
C 104.036753 286.543023 103.219686 286.881464 102.617343 287.483807 
C 102.015 288.08615 101.676559 288.903217 101.676559 289.755059 
C 101.676559 290.606901 102.015 291.423968 102.617343 292.026311 
C 103.219686 292.628654 104.036753 292.967095 104.888595 292.967095 
z
" clip-path="url(#p4b1f32ca45)" style="fill: #1f77b4; fill-opacity: 0.9; stroke: #ffffff; stroke-opacity: 0.9; stroke-width: 0.7"/>
    <path d="M 483.182801 226.845325 
C 484.656373 226.845325 486.06979 226.259869 487.111763 225.217896 
C 488.153735 224.175923 488.739192 222.762507 488.739192 221.288935 
C 488.739192 219.815363 488.153735 218.401946 487.111763 217.359974 
C 486.06979 216.318001 484.656373 215.732545 483.182801 215.732545 
C 481.709229 215.732545 480.295813 216.318001 479.25384 217.359974 
C 478.211867 218.401946 477.626411 219.815363 477.626411 221.288935 
C 477.626411 222.762507 478.211867 224.175923 479.25384 225.217896 
C 480.295813 226.259869 481.709229 226.845325 483.182801 226.845325 
z
" clip-path="url(#p4b1f32ca45)" style="fill: #1f77b4; fill-opacity: 0.9; stroke: #ffffff; stroke-opacity: 0.9; stroke-width: 0.7"/>
    <path d="M 445.645635 430.125831 
C 447.085907 430.125831 448.467383 429.553605 449.485809 428.535179 
C 450.504235 427.516753 451.076461 426.135277 451.076461 424.695005 
C 451.076461 423.254733 450.504235 421.873257 449.485809 420.854831 
C 448.467383 419.836405 447.085907 419.264178 445.645635 419.264178 
C 444.205363 419.264178 442.823887 419.836405 441.805461 420.854831 
C 440.787035 421.873257 440.214809 423.254733 440.214809 424.695005 
C 440.214809 426.135277 440.787035 427.516753 441.805461 428.535179 
C 442.823887 429.553605 444.205363 430.125831 445.645635 430.125831 
z
" clip-path="url(#p4b1f32ca45)" style="fill: #1f77b4; fill-opacity: 0.9; stroke: #ffffff; stroke-opacity: 0.9; stroke-width: 0.7"/>
   </g>
   <g id="PathCollection_2">
    <path d="M 113.674611 245.209189 
C 114.487119 245.209189 115.266458 244.886376 115.840987 244.311847 
C 116.415517 243.737317 116.73833 242.957978 116.73833 242.14547 
C 116.73833 241.332963 116.415517 240.553624 115.840987 239.979094 
C 115.266458 239.404565 114.487119 239.081752 113.674611 239.081752 
C 112.862104 239.081752 112.082765 239.404565 111.508235 239.979094 
C 110.933705 240.553624 110.610893 241.332963 110.610893 242.14547 
C 110.610893 242.957978 110.933705 243.737317 111.508235 244.311847 
C 112.082765 244.886376 112.862104 245.209189 113.674611 245.209189 
z
" clip-path="url(#p4b1f32ca45)" style="fill: #ff7f0e; fill-opacity: 0.9; stroke: #ffffff; stroke-opacity: 0.9; stroke-width: 0.7"/>
    <path d="M 110.685554 261.374574 
C 111.489657 261.374574 112.260934 261.0551 112.829521 260.486514 
C 113.398107 259.917927 113.717581 259.14665 113.717581 258.342547 
C 113.717581 257.538444 113.398107 256.767167 112.829521 256.19858 
C 112.260934 255.629994 111.489657 255.31052 110.685554 255.31052 
C 109.881451 255.31052 109.110174 255.629994 108.541588 256.19858 
C 107.973001 256.767167 107.653528 257.538444 107.653528 258.342547 
C 107.653528 259.14665 107.973001 259.917927 108.541588 260.486514 
C 109.110174 261.0551 109.881451 261.374574 110.685554 261.374574 
z
" clip-path="url(#p4b1f32ca45)" style="fill: #ff7f0e; fill-opacity: 0.9; stroke: #ffffff; stroke-opacity: 0.9; stroke-width: 0.7"/>
    <path d="M 112.678259 250.576523 
C 113.482362 250.576523 114.253639 250.257049 114.822226 249.688463 
C 115.390812 249.119876 115.710286 248.348599 115.710286 247.544496 
C 115.710286 246.740393 115.390812 245.969116 114.822226 245.400529 
C 114.253639 244.831943 113.482362 244.512469 112.678259 244.512469 
C 111.874156 244.512469 111.102879 244.831943 110.534292 245.400529 
C 109.965706 245.969116 109.646232 246.740393 109.646232 247.544496 
C 109.646232 248.348599 109.965706 249.119876 110.534292 249.688463 
C 111.102879 250.257049 111.874156 250.576523 112.678259 250.576523 
z
" clip-path="url(#p4b1f32ca45)" style="fill: #ff7f0e; fill-opacity: 0.9; stroke: #ffffff; stroke-opacity: 0.9; stroke-width: 0.7"/>
    <path d="M 108.69285 272.235684 
C 109.513676 272.235684 110.300994 271.909566 110.881406 271.329154 
C 111.461818 270.748742 111.787935 269.961424 111.787935 269.140598 
C 111.787935 268.319772 111.461818 267.532454 110.881406 266.952042 
C 110.300994 266.37163 109.513676 266.045512 108.69285 266.045512 
C 107.872023 266.045512 107.084705 266.37163 106.504293 266.952042 
C 105.923881 267.532454 105.597764 268.319772 105.597764 269.140598 
C 105.597764 269.961424 105.923881 270.748742 106.504293 271.329154 
C 107.084705 271.909566 107.872023 272.235684 108.69285 272.235684 
z
" clip-path="url(#p4b1f32ca45)" style="fill: #ff7f0e; fill-opacity: 0.9; stroke: #ffffff; stroke-opacity: 0.9; stroke-width: 0.7"/>
   </g>
   <g id="PathCollection_3">
    <path d="M 106.146616 286.111946 
C 106.988328 286.111946 107.795678 285.777531 108.390859 285.18235 
C 108.986039 284.58717 109.320455 283.779819 109.320455 282.938108 
C 109.320455 282.096396 108.986039 281.289045 108.390859 280.693865 
C 107.795678 280.098684 106.988328 279.764269 106.146616 279.764269 
C 105.304904 279.764269 104.497553 280.098684 103.902373 280.693865 
C 103.307193 281.289045 102.972777 282.096396 102.972777 282.938108 
C 102.972777 283.779819 103.307193 284.58717 103.902373 285.18235 
C 104.497553 285.777531 105.304904 286.111946 106.146616 286.111946 
z
" clip-path="url(#p4b1f32ca45)" style="fill: #2ca02c; fill-opacity: 0.9; stroke: #ffffff; stroke-opacity: 0.9; stroke-width: 0.7"/>
    <path d="M 110.759358 260.972285 
C 111.562835 260.972285 112.333512 260.65306 112.901655 260.084916 
C 113.469799 259.516773 113.789024 258.746096 113.789024 257.942619 
C 113.789024 257.139142 113.469799 256.368466 112.901655 255.800322 
C 112.333512 255.232178 111.562835 254.912953 110.759358 254.912953 
C 109.955881 254.912953 109.185205 255.232178 108.617061 255.800322 
C 108.048917 256.368466 107.729692 257.139142 107.729692 257.942619 
C 107.729692 258.746096 108.048917 259.516773 108.617061 260.084916 
C 109.185205 260.65306 109.955881 260.972285 110.759358 260.972285 
z
" clip-path="url(#p4b1f32ca45)" style="fill: #2ca02c; fill-opacity: 0.9; stroke: #ffffff; stroke-opacity: 0.9; stroke-width: 0.7"/>
    <path d="M 110.759358 260.972285 
C 111.562835 260.972285 112.333512 260.65306 112.901655 260.084916 
C 113.469799 259.516773 113.789024 258.746096 113.789024 257.942619 
C 113.789024 257.139142 113.469799 256.368466 112.901655 255.800322 
C 112.333512 255.232178 111.562835 254.912953 110.759358 254.912953 
C 109.955881 254.912953 109.185205 255.232178 108.617061 255.800322 
C 108.048917 256.368466 107.729692 257.139142 107.729692 257.942619 
C 107.729692 258.746096 108.048917 259.516773 108.617061 260.084916 
C 109.185205 260.65306 109.955881 260.972285 110.759358 260.972285 
z
" clip-path="url(#p4b1f32ca45)" style="fill: #2ca02c; fill-opacity: 0.9; stroke: #ffffff; stroke-opacity: 0.9; stroke-width: 0.7"/>
    <path d="M 109.83681 266.000761 
C 110.648078 266.000761 111.426227 265.678441 111.99988 265.104788 
C 112.573534 264.531135 112.895854 263.752985 112.895854 262.941717 
C 112.895854 262.130449 112.573534 261.352299 111.99988 260.778646 
C 111.426227 260.204993 110.648078 259.882673 109.83681 259.882673 
C 109.025542 259.882673 108.247392 260.204993 107.673739 260.778646 
C 107.100086 261.352299 106.777765 262.130449 106.777765 262.941717 
C 106.777765 263.752985 107.100086 264.531135 107.673739 265.104788 
C 108.247392 265.678441 109.025542 266.000761 109.83681 266.000761 
z
" clip-path="url(#p4b1f32ca45)" style="fill: #2ca02c; fill-opacity: 0.9; stroke: #ffffff; stroke-opacity: 0.9; stroke-width: 0.7"/>
    <path d="M 106.146616 286.111946 
C 106.988328 286.111946 107.795678 285.777531 108.390859 285.18235 
C 108.986039 284.58717 109.320455 283.779819 109.320455 282.938108 
C 109.320455 282.096396 108.986039 281.289045 108.390859 280.693865 
C 107.795678 280.098684 106.988328 279.764269 106.146616 279.764269 
C 105.304904 279.764269 104.497553 280.098684 103.902373 280.693865 
C 103.307193 281.289045 102.972777 282.096396 102.972777 282.938108 
C 102.972777 283.779819 103.307193 284.58717 103.902373 285.18235 
C 104.497553 285.777531 105.304904 286.111946 106.146616 286.111946 
z
" clip-path="url(#p4b1f32ca45)" style="fill: #2ca02c; fill-opacity: 0.9; stroke: #ffffff; stroke-opacity: 0.9; stroke-width: 0.7"/>
    <path d="M 109.83681 266.000761 
C 110.648078 266.000761 111.426227 265.678441 111.99988 265.104788 
C 112.573534 264.531135 112.895854 263.752985 112.895854 262.941717 
C 112.895854 262.130449 112.573534 261.352299 111.99988 260.778646 
C 111.426227 260.204993 110.648078 259.882673 109.83681 259.882673 
C 109.025542 259.882673 108.247392 260.204993 107.673739 260.778646 
C 107.100086 261.352299 106.777765 262.130449 106.777765 262.941717 
C 106.777765 263.752985 107.100086 264.531135 107.673739 265.104788 
C 108.247392 265.678441 109.025542 266.000761 109.83681 266.000761 
z
" clip-path="url(#p4b1f32ca45)" style="fill: #2ca02c; fill-opacity: 0.9; stroke: #ffffff; stroke-opacity: 0.9; stroke-width: 0.7"/>
    <path d="M 110.759358 260.972285 
C 111.562835 260.972285 112.333512 260.65306 112.901655 260.084916 
C 113.469799 259.516773 113.789024 258.746096 113.789024 257.942619 
C 113.789024 257.139142 113.469799 256.368466 112.901655 255.800322 
C 112.333512 255.232178 111.562835 254.912953 110.759358 254.912953 
C 109.955881 254.912953 109.185205 255.232178 108.617061 255.800322 
C 108.048917 256.368466 107.729692 257.139142 107.729692 257.942619 
C 107.729692 258.746096 108.048917 259.516773 108.617061 260.084916 
C 109.185205 260.65306 109.955881 260.972285 110.759358 260.972285 
z
" clip-path="url(#p4b1f32ca45)" style="fill: #2ca02c; fill-opacity: 0.9; stroke: #ffffff; stroke-opacity: 0.9; stroke-width: 0.7"/>
    <path d="M 110.759358 260.972285 
C 111.562835 260.972285 112.333512 260.65306 112.901655 260.084916 
C 113.469799 259.516773 113.789024 258.746096 113.789024 257.942619 
C 113.789024 257.139142 113.469799 256.368466 112.901655 255.800322 
C 112.333512 255.232178 111.562835 254.912953 110.759358 254.912953 
C 109.955881 254.912953 109.185205 255.232178 108.617061 255.800322 
C 108.048917 256.368466 107.729692 257.139142 107.729692 257.942619 
C 107.729692 258.746096 108.048917 259.516773 108.617061 260.084916 
C 109.185205 260.65306 109.955881 260.972285 110.759358 260.972285 
z
" clip-path="url(#p4b1f32ca45)" style="fill: #2ca02c; fill-opacity: 0.9; stroke: #ffffff; stroke-opacity: 0.9; stroke-width: 0.7"/>
   </g>
   <g id="matplotlib.axis_1">
    <g id="xtick_1">
     <g id="line2d_1">
      <defs>
       <path id="m38d877001b" d="M 0 0 
L 0 3.5 
" style="stroke: #000000; stroke-width: 0.8"/>
      </defs>
      <g>
       <use xlink:href="#m38d877001b" x="102.191532" y="462.04" style="stroke: #000000; stroke-width: 0.8"/>
      </g>
     </g>
     <g id="text_1">
      <text style="font-size: 10px; font-family: 'DejaVu Sans', 'Bitstream Vera Sans', 'Computer Modern Sans Serif', 'Lucida Grande', 'Verdana', 'Geneva', 'Lucid', 'Arial', 'Helvetica', 'Avant Garde', sans-serif; text-anchor: middle" x="102.191532" y="476.638438" transform="rotate(-0 102.191532 476.638438)">−0.25</text>
     </g>
    </g>
    <g id="xtick_2">
     <g id="line2d_2">
      <g>
       <use xlink:href="#m38d877001b" x="163.786785" y="462.04" style="stroke: #000000; stroke-width: 0.8"/>
      </g>
     </g>
     <g id="text_2">
      <text style="font-size: 10px; font-family: 'DejaVu Sans', 'Bitstream Vera Sans', 'Computer Modern Sans Serif', 'Lucida Grande', 'Verdana', 'Geneva', 'Lucid', 'Arial', 'Helvetica', 'Avant Garde', sans-serif; text-anchor: middle" x="163.786785" y="476.638438" transform="rotate(-0 163.786785 476.638438)">0.00</text>
     </g>
    </g>
    <g id="xtick_3">
     <g id="line2d_3">
      <g>
       <use xlink:href="#m38d877001b" x="225.382038" y="462.04" style="stroke: #000000; stroke-width: 0.8"/>
      </g>
     </g>
     <g id="text_3">
      <text style="font-size: 10px; font-family: 'DejaVu Sans', 'Bitstream Vera Sans', 'Computer Modern Sans Serif', 'Lucida Grande', 'Verdana', 'Geneva', 'Lucid', 'Arial', 'Helvetica', 'Avant Garde', sans-serif; text-anchor: middle" x="225.382038" y="476.638438" transform="rotate(-0 225.382038 476.638438)">0.25</text>
     </g>
    </g>
    <g id="xtick_4">
     <g id="line2d_4">
      <g>
       <use xlink:href="#m38d877001b" x="286.977291" y="462.04" style="stroke: #000000; stroke-width: 0.8"/>
      </g>
     </g>
     <g id="text_4">
      <text style="font-size: 10px; font-family: 'DejaVu Sans', 'Bitstream Vera Sans', 'Computer Modern Sans Serif', 'Lucida Grande', 'Verdana', 'Geneva', 'Lucid', 'Arial', 'Helvetica', 'Avant Garde', sans-serif; text-anchor: middle" x="286.977291" y="476.638438" transform="rotate(-0 286.977291 476.638438)">0.50</text>
     </g>
    </g>
    <g id="xtick_5">
     <g id="line2d_5">
      <g>
       <use xlink:href="#m38d877001b" x="348.572544" y="462.04" style="stroke: #000000; stroke-width: 0.8"/>
      </g>
     </g>
     <g id="text_5">
      <text style="font-size: 10px; font-family: 'DejaVu Sans', 'Bitstream Vera Sans', 'Computer Modern Sans Serif', 'Lucida Grande', 'Verdana', 'Geneva', 'Lucid', 'Arial', 'Helvetica', 'Avant Garde', sans-serif; text-anchor: middle" x="348.572544" y="476.638438" transform="rotate(-0 348.572544 476.638438)">0.75</text>
     </g>
    </g>
    <g id="xtick_6">
     <g id="line2d_6">
      <g>
       <use xlink:href="#m38d877001b" x="410.167797" y="462.04" style="stroke: #000000; stroke-width: 0.8"/>
      </g>
     </g>
     <g id="text_6">
      <text style="font-size: 10px; font-family: 'DejaVu Sans', 'Bitstream Vera Sans', 'Computer Modern Sans Serif', 'Lucida Grande', 'Verdana', 'Geneva', 'Lucid', 'Arial', 'Helvetica', 'Avant Garde', sans-serif; text-anchor: middle" x="410.167797" y="476.638438" transform="rotate(-0 410.167797 476.638438)">1.00</text>
     </g>
    </g>
    <g id="xtick_7">
     <g id="line2d_7">
      <g>
       <use xlink:href="#m38d877001b" x="471.76305" y="462.04" style="stroke: #000000; stroke-width: 0.8"/>
      </g>
     </g>
     <g id="text_7">
      <text style="font-size: 10px; font-family: 'DejaVu Sans', 'Bitstream Vera Sans', 'Computer Modern Sans Serif', 'Lucida Grande', 'Verdana', 'Geneva', 'Lucid', 'Arial', 'Helvetica', 'Avant Garde', sans-serif; text-anchor: middle" x="471.76305" y="476.638438" transform="rotate(-0 471.76305 476.638438)">1.25</text>
     </g>
    </g>
    <g id="text_8">
     <text style="font-size: 10px; font-family: 'DejaVu Sans', 'Bitstream Vera Sans', 'Computer Modern Sans Serif', 'Lucida Grande', 'Verdana', 'Geneva', 'Lucid', 'Arial', 'Helvetica', 'Avant Garde', sans-serif; text-anchor: middle" x="284.193636" y="490.316563" transform="rotate(-0 284.193636 490.316563)">Effect direction 1</text>
    </g>
   </g>
   <g id="matplotlib.axis_2">
    <g id="ytick_1">
     <g id="line2d_8">
      <defs>
       <path id="m44a9518ae2" d="M 0 0 
L -3.5 0 
" style="stroke: #000000; stroke-width: 0.8"/>
      </defs>
      <g>
       <use xlink:href="#m44a9518ae2" x="56" y="410.770548" style="stroke: #000000; stroke-width: 0.8"/>
      </g>
     </g>
     <g id="text_9">
      <text style="font-size: 10px; font-family: 'DejaVu Sans', 'Bitstream Vera Sans', 'Computer Modern Sans Serif', 'Lucida Grande', 'Verdana', 'Geneva', 'Lucid', 'Arial', 'Helvetica', 'Avant Garde', sans-serif; text-anchor: end" x="49" y="414.569767" transform="rotate(-0 49 414.569767)">−0.4</text>
     </g>
    </g>
    <g id="ytick_2">
     <g id="line2d_9">
      <g>
       <use xlink:href="#m44a9518ae2" x="56" y="325.781887" style="stroke: #000000; stroke-width: 0.8"/>
      </g>
     </g>
     <g id="text_10">
      <text style="font-size: 10px; font-family: 'DejaVu Sans', 'Bitstream Vera Sans', 'Computer Modern Sans Serif', 'Lucida Grande', 'Verdana', 'Geneva', 'Lucid', 'Arial', 'Helvetica', 'Avant Garde', sans-serif; text-anchor: end" x="49" y="329.581106" transform="rotate(-0 49 329.581106)">−0.2</text>
     </g>
    </g>
    <g id="ytick_3">
     <g id="line2d_10">
      <g>
       <use xlink:href="#m44a9518ae2" x="56" y="240.793227" style="stroke: #000000; stroke-width: 0.8"/>
      </g>
     </g>
     <g id="text_11">
      <text style="font-size: 10px; font-family: 'DejaVu Sans', 'Bitstream Vera Sans', 'Computer Modern Sans Serif', 'Lucida Grande', 'Verdana', 'Geneva', 'Lucid', 'Arial', 'Helvetica', 'Avant Garde', sans-serif; text-anchor: end" x="49" y="244.592446" transform="rotate(-0 49 244.592446)">0.0</text>
     </g>
    </g>
    <g id="ytick_4">
     <g id="line2d_11">
      <g>
       <use xlink:href="#m44a9518ae2" x="56" y="155.804566" style="stroke: #000000; stroke-width: 0.8"/>
      </g>
     </g>
     <g id="text_12">
      <text style="font-size: 10px; font-family: 'DejaVu Sans', 'Bitstream Vera Sans', 'Computer Modern Sans Serif', 'Lucida Grande', 'Verdana', 'Geneva', 'Lucid', 'Arial', 'Helvetica', 'Avant Garde', sans-serif; text-anchor: end" x="49" y="159.603785" transform="rotate(-0 49 159.603785)">0.2</text>
     </g>
    </g>
    <g id="ytick_5">
     <g id="line2d_12">
      <g>
       <use xlink:href="#m44a9518ae2" x="56" y="70.815906" style="stroke: #000000; stroke-width: 0.8"/>
      </g>
     </g>
     <g id="text_13">
      <text style="font-size: 10px; font-family: 'DejaVu Sans', 'Bitstream Vera Sans', 'Computer Modern Sans Serif', 'Lucida Grande', 'Verdana', 'Geneva', 'Lucid', 'Arial', 'Helvetica', 'Avant Garde', sans-serif; text-anchor: end" x="49" y="74.615124" transform="rotate(-0 49 74.615124)">0.4</text>
     </g>
    </g>
    <g id="text_14">
     <text style="font-size: 10px; font-family: 'DejaVu Sans', 'Bitstream Vera Sans', 'Computer Modern Sans Serif', 'Lucida Grande', 'Verdana', 'Geneva', 'Lucid', 'Arial', 'Helvetica', 'Avant Garde', sans-serif; text-anchor: middle" x="18.6375" y="244.46" transform="rotate(-90 18.6375 244.46)">Effect direction 2</text>
    </g>
   </g>
   <g id="line2d_13">
    <path d="M 56 240.793227 
L 512.387273 240.793227 
" clip-path="url(#p4b1f32ca45)" style="fill: none; stroke: #404040; stroke-width: 0.8; stroke-linecap: square"/>
   </g>
   <g id="line2d_14">
    <path d="M 163.786785 462.04 
L 163.786785 26.88 
" clip-path="url(#p4b1f32ca45)" style="fill: none; stroke: #404040; stroke-width: 0.8; stroke-linecap: square"/>
   </g>
   <g id="patch_3">
    <path d="M 56 462.04 
L 56 26.88 
" style="fill: none; stroke: #000000; stroke-width: 0.8; stroke-linejoin: miter; stroke-linecap: square"/>
   </g>
   <g id="patch_4">
    <path d="M 512.387273 462.04 
L 512.387273 26.88 
" style="fill: none; stroke: #000000; stroke-width: 0.8; stroke-linejoin: miter; stroke-linecap: square"/>
   </g>
   <g id="patch_5">
    <path d="M 56 462.04 
L 512.387273 462.04 
" style="fill: none; stroke: #000000; stroke-width: 0.8; stroke-linejoin: miter; stroke-linecap: square"/>
   </g>
   <g id="patch_6">
    <path d="M 56 26.88 
L 512.387273 26.88 
" style="fill: none; stroke: #000000; stroke-width: 0.8; stroke-linejoin: miter; stroke-linecap: square"/>
   </g>
   <g id="patch_7">
    <path d="M 163.786785 240.793227 
Q 155.358503 151.366744 147.093812 63.676005 
" style="fill: none; opacity: 0.553751; stroke: #1f77b4; stroke-width: 1.559377; stroke-linecap: round"/>
    <path d="M 145.477965 67.846022 
L 147.093812 63.676005 
L 149.460317 67.470693 
" style="fill: none; opacity: 0.553751; stroke: #1f77b4; stroke-width: 1.559377; stroke-linecap: round"/>
   </g>
   <g id="patch_8">
    <path d="M 163.786785 240.793227 
Q 140.645765 231.092001 118.458965 221.790805 
" style="fill: none; opacity: 0.300178; stroke: #1f77b4; stroke-width: 0.925445; stroke-linecap: round"/>
    <path d="M 121.374673 225.181771 
L 118.458965 221.790805 
L 122.921163 221.492819 
" style="fill: none; opacity: 0.300178; stroke: #1f77b4; stroke-width: 0.925445; stroke-linecap: round"/>
   </g>
   <g id="patch_9">
    <path d="M 163.786785 240.793227 
Q 156.768436 143.726613 149.880714 48.466641 
" style="fill: none; opacity: 0.578051; stroke: #1f77b4; stroke-width: 1.620127; stroke-linecap: round"/>
    <path d="M 148.174387 52.600458 
L 149.880714 48.466641 
L 152.163972 52.311993 
" style="fill: none; opacity: 0.578051; stroke: #1f77b4; stroke-width: 1.620127; stroke-linecap: round"/>
   </g>
   <g id="patch_10">
    <path d="M 163.786785 240.793227 
Q 140.160528 233.721396 117.503106 226.939558 
" style="fill: none; opacity: 0.291815; stroke: #1f77b4; stroke-width: 0.904538; stroke-linecap: round"/>
    <path d="M 120.761625 230.002572 
L 117.503106 226.939558 
L 121.908629 226.170552 
" style="fill: none; opacity: 0.291815; stroke: #1f77b4; stroke-width: 0.904538; stroke-linecap: round"/>
   </g>
   <g id="patch_11">
    <path d="M 163.786785 240.793227 
Q 327.714591 208.12069 488.024053 176.169326 
" style="fill: none; opacity: 0.85; stroke: #1f77b4; stroke-width: 3.3; stroke-linecap: round"/>
    <path d="M 483.71028 174.989769 
L 488.024053 176.169326 
L 484.492143 178.912611 
" style="fill: none; opacity: 0.85; stroke: #1f77b4; stroke-width: 3.3; stroke-linecap: round"/>
   </g>
   <g id="patch_12">
    <path d="M 163.786785 240.793227 
Q 120.265831 341.526613 77.433364 440.666429 
" style="fill: none; opacity: 0.551068; stroke: #1f77b4; stroke-width: 1.552671; stroke-linecap: round"/>
    <path d="M 80.855773 437.787695 
L 77.433364 440.666429 
L 77.183822 436.201261 
" style="fill: none; opacity: 0.551068; stroke: #1f77b4; stroke-width: 1.552671; stroke-linecap: round"/>
   </g>
   <g id="patch_13">
    <path d="M 163.786785 240.793227 
Q 156.768436 143.726613 149.880714 48.466641 
" style="fill: none; opacity: 0.578051; stroke: #1f77b4; stroke-width: 1.620127; stroke-linecap: round"/>
    <path d="M 148.174387 52.600458 
L 149.880714 48.466641 
L 152.163972 52.311993 
" style="fill: none; opacity: 0.578051; stroke: #1f77b4; stroke-width: 1.620127; stroke-linecap: round"/>
   </g>
   <g id="patch_14">
    <path d="M 163.786785 240.793227 
Q 134.33769 265.274143 105.70223 289.078688 
" style="fill: none; opacity: 0.308541; stroke: #1f77b4; stroke-width: 0.946353; stroke-linecap: round"/>
    <path d="M 110.056713 288.059633 
L 105.70223 289.078688 
L 107.499676 284.983668 
" style="fill: none; opacity: 0.308541; stroke: #1f77b4; stroke-width: 0.946353; stroke-linecap: round"/>
   </g>
   <g id="patch_15">
    <path d="M 163.786785 240.793227 
Q 323.484793 231.041081 479.577835 221.509076 
" style="fill: none; opacity: 0.85; stroke: #1f77b4; stroke-width: 3.230386; stroke-linecap: round"/>
    <path d="M 475.463367 219.756606 
L 479.577835 221.509076 
L 475.707178 223.749168 
" style="fill: none; opacity: 0.85; stroke: #1f77b4; stroke-width: 3.230386; stroke-linecap: round"/>
   </g>
   <g id="patch_16">
    <path d="M 163.786785 240.793227 
Q 304.71621 332.744116 442.764382 422.815101 
" style="fill: none; opacity: 0.85; stroke: #1f77b4; stroke-width: 3.077097; stroke-linecap: round"/>
    <path d="M 440.507252 418.954355 
L 442.764382 422.815101 
L 438.321507 422.304358 
" style="fill: none; opacity: 0.85; stroke: #1f77b4; stroke-width: 3.077097; stroke-linecap: round"/>
   </g>
   <g id="patch_17">
    <path d="M 163.786785 240.793227 
Q 138.730698 241.469349 114.616693 242.120049 
" style="fill: none; opacity: 0.267172; stroke: #ff7f0e; stroke-width: 0.84293; stroke-linecap: round"/>
    <path d="M 118.669186 244.011423 
L 114.616693 242.120049 
L 118.561288 240.012879 
" style="fill: none; opacity: 0.267172; stroke: #ff7f0e; stroke-width: 0.84293; stroke-linecap: round"/>
   </g>
   <g id="patch_18">
    <path d="M 163.786785 240.793227 
Q 137.23617 249.567887 111.557591 258.054349 
" style="fill: none; opacity: 0.258586; stroke: #ff7f0e; stroke-width: 0.821465; stroke-linecap: round"/>
    <path d="M 115.983144 258.698149 
L 111.557591 258.054349 
L 114.727963 254.900187 
" style="fill: none; opacity: 0.258586; stroke: #ff7f0e; stroke-width: 0.821465; stroke-linecap: round"/>
   </g>
   <g id="patch_19">
    <path d="M 163.786785 240.793227 
Q 138.232522 244.168861 113.588775 247.42422 
" style="fill: none; opacity: 0.258586; stroke: #ff7f0e; stroke-width: 0.821465; stroke-linecap: round"/>
    <path d="M 117.816244 248.883159 
L 113.588775 247.42422 
L 117.292408 244.917608 
" style="fill: none; opacity: 0.258586; stroke: #ff7f0e; stroke-width: 0.821465; stroke-linecap: round"/>
   </g>
   <g id="patch_20">
    <path d="M 163.786785 240.793227 
Q 136.239817 254.966912 109.552193 268.698442 
" style="fill: none; opacity: 0.275758; stroke: #ff7f0e; stroke-width: 0.864395; stroke-linecap: round"/>
    <path d="M 114.024031 268.646768 
L 109.552193 268.698442 
L 112.193957 265.089968 
" style="fill: none; opacity: 0.275758; stroke: #ff7f0e; stroke-width: 0.864395; stroke-linecap: round"/>
   </g>
   <g id="patch_21">
    <path d="M 163.786785 240.793227 
Q 134.9667 261.865667 106.976255 282.331498 
" style="fill: none; opacity: 0.2977; stroke: #2ca02c; stroke-width: 0.91925; stroke-linecap: round"/>
    <path d="M 111.385657 281.585057 
L 106.976255 282.331498 
L 109.024743 278.356112 
" style="fill: none; opacity: 0.2977; stroke: #2ca02c; stroke-width: 0.91925; stroke-linecap: round"/>
   </g>
   <g id="patch_22">
    <path d="M 163.786785 240.793227 
Q 137.273072 249.367923 111.631529 257.660554 
" style="fill: none; opacity: 0.25795; stroke: #2ca02c; stroke-width: 0.819875; stroke-linecap: round"/>
    <path d="M 116.052873 258.332655 
L 111.631529 257.660554 
L 114.822017 254.52674 
" style="fill: none; opacity: 0.25795; stroke: #2ca02c; stroke-width: 0.819875; stroke-linecap: round"/>
   </g>
   <g id="patch_23">
    <path d="M 163.786785 240.793227 
Q 137.273072 249.367923 111.631529 257.660554 
" style="fill: none; opacity: 0.25795; stroke: #2ca02c; stroke-width: 0.819875; stroke-linecap: round"/>
    <path d="M 116.052873 258.332655 
L 111.631529 257.660554 
L 114.822017 254.52674 
" style="fill: none; opacity: 0.25795; stroke: #2ca02c; stroke-width: 0.819875; stroke-linecap: round"/>
   </g>
   <g id="patch_24">
    <path d="M 163.786785 240.793227 
Q 136.811797 251.867472 110.705336 262.585154 
" style="fill: none; opacity: 0.2659; stroke: #2ca02c; stroke-width: 0.83975; stroke-linecap: round"/>
    <path d="M 115.165203 262.916193 
L 110.705336 262.585154 
L 113.646087 259.215884 
" style="fill: none; opacity: 0.2659; stroke: #2ca02c; stroke-width: 0.83975; stroke-linecap: round"/>
   </g>
   <g id="patch_25">
    <path d="M 163.786785 240.793227 
Q 134.9667 261.865667 106.976255 282.331498 
" style="fill: none; opacity: 0.2977; stroke: #2ca02c; stroke-width: 0.91925; stroke-linecap: round"/>
    <path d="M 111.385657 281.585057 
L 106.976255 282.331498 
L 109.024743 278.356112 
" style="fill: none; opacity: 0.2977; stroke: #2ca02c; stroke-width: 0.91925; stroke-linecap: round"/>
   </g>
   <g id="patch_26">
    <path d="M 163.786785 240.793227 
Q 136.811797 251.867472 110.705336 262.585154 
" style="fill: none; opacity: 0.2659; stroke: #2ca02c; stroke-width: 0.83975; stroke-linecap: round"/>
    <path d="M 115.165203 262.916193 
L 110.705336 262.585154 
L 113.646087 259.215884 
" style="fill: none; opacity: 0.2659; stroke: #2ca02c; stroke-width: 0.83975; stroke-linecap: round"/>
   </g>
   <g id="patch_27">
    <path d="M 163.786785 240.793227 
Q 137.273072 249.367923 111.631529 257.660554 
" style="fill: none; opacity: 0.25795; stroke: #2ca02c; stroke-width: 0.819875; stroke-linecap: round"/>
    <path d="M 116.052873 258.332655 
L 111.631529 257.660554 
L 114.822017 254.52674 
" style="fill: none; opacity: 0.25795; stroke: #2ca02c; stroke-width: 0.819875; stroke-linecap: round"/>
   </g>
   <g id="patch_28">
    <path d="M 163.786785 240.793227 
Q 137.273072 249.367923 111.631529 257.660554 
" style="fill: none; opacity: 0.25795; stroke: #2ca02c; stroke-width: 0.819875; stroke-linecap: round"/>
    <path d="M 116.052873 258.332655 
L 111.631529 257.660554 
L 114.822017 254.52674 
" style="fill: none; opacity: 0.25795; stroke: #2ca02c; stroke-width: 0.819875; stroke-linecap: round"/>
   </g>
   <g id="text_15">
    <text style="font-size: 7px; font-family: 'DejaVu Sans', 'Bitstream Vera Sans', 'Computer Modern Sans Serif', 'Lucida Grande', 'Verdana', 'Geneva', 'Lucid', 'Arial', 'Helvetica', 'Avant Garde', sans-serif; text-anchor: start" x="495.642397" y="171.448152" transform="rotate(-0 495.642397 171.448152)">random_matched / budget128 / seed991</text>
   </g>
   <g id="text_16">
    <text style="font-size: 7px; font-family: 'DejaVu Sans', 'Bitstream Vera Sans', 'Computer Modern Sans Serif', 'Lucida Grande', 'Verdana', 'Geneva', 'Lucid', 'Arial', 'Helvetica', 'Avant Garde', sans-serif; text-anchor: start" x="487.182801" y="217.288935" transform="rotate(-0 487.182801 217.288935)">user_pinned / budget128 / sink8</text>
   </g>
   <g id="text_17">
    <text style="font-size: 7px; font-family: 'DejaVu Sans', 'Bitstream Vera Sans', 'Computer Modern Sans Serif', 'Lucida Grande', 'Verdana', 'Geneva', 'Lucid', 'Arial', 'Helvetica', 'Avant Garde', sans-serif; text-anchor: start" x="449.645635" y="420.695005" transform="rotate(-0 449.645635 420.695005)">user_pinned / budget128 / sink8</text>
   </g>
   <g id="text_18">
    <text style="font-size: 7px; font-family: 'DejaVu Sans', 'Bitstream Vera Sans', 'Computer Modern Sans Serif', 'Lucida Grande', 'Verdana', 'Geneva', 'Lucid', 'Arial', 'Helvetica', 'Avant Garde', sans-serif; text-anchor: start" x="153.750086" y="42.66" transform="rotate(-0 153.750086 42.66)">sink_recent / budget128 / sink8</text>
   </g>
   <g id="text_19">
    <text style="font-size: 7px; font-family: 'DejaVu Sans', 'Bitstream Vera Sans', 'Computer Modern Sans Serif', 'Lucida Grande', 'Verdana', 'Geneva', 'Lucid', 'Arial', 'Helvetica', 'Avant Garde', sans-serif; text-anchor: start" x="153.750086" y="42.66" transform="rotate(-0 153.750086 42.66)">policy_pinned / budget128 / sink8</text>
   </g>
   <g id="text_20">
    <text style="font-size: 7px; font-family: 'DejaVu Sans', 'Bitstream Vera Sans', 'Computer Modern Sans Serif', 'Lucida Grande', 'Verdana', 'Geneva', 'Lucid', 'Arial', 'Helvetica', 'Avant Garde', sans-serif; text-anchor: start" x="150.930221" y="57.940261" transform="rotate(-0 150.930221 57.940261)">sliding_window / budget128</text>
   </g>
   <g id="text_21">
    <text style="font-size: 7px; font-family: 'DejaVu Sans', 'Bitstream Vera Sans', 'Computer Modern Sans Serif', 'Lucida Grande', 'Verdana', 'Geneva', 'Lucid', 'Arial', 'Helvetica', 'Avant Garde', sans-serif; text-anchor: start" x="80.744876" y="438.26" transform="rotate(-0 80.744876 438.26)">random_matched / budget128 / seed991</text>
   </g>
   <g id="text_22">
    <text style="font-size: 7px; font-family: 'DejaVu Sans', 'Bitstream Vera Sans', 'Computer Modern Sans Serif', 'Lucida Grande', 'Verdana', 'Geneva', 'Lucid', 'Arial', 'Helvetica', 'Avant Garde', sans-serif; text-anchor: start" x="108.888595" y="285.755059" transform="rotate(-0 108.888595 285.755059)">policy_pinned / budget128 / sink8</text>
   </g>
   <g id="text_23">
    <text style="font-size: 12px; font-family: 'DejaVu Sans', 'Bitstream Vera Sans', 'Computer Modern Sans Serif', 'Lucida Grande', 'Verdana', 'Geneva', 'Lucid', 'Arial', 'Helvetica', 'Avant Garde', sans-serif; text-anchor: middle" x="284.193636" y="20.88" transform="rotate(-0 284.193636 20.88)">Prompt-Level Effect Constellation</text>
   </g>
   <g id="legend_1">
    <g id="patch_29">
     <path d="M 376.663523 82.853125 
L 506.787273 82.853125 
Q 508.387273 82.853125 508.387273 81.253125 
L 508.387273 32.48 
Q 508.387273 30.88 506.787273 30.88 
L 376.663523 30.88 
Q 375.063523 30.88 375.063523 32.48 
L 375.063523 81.253125 
Q 375.063523 82.853125 376.663523 82.853125 
z
" style="fill: #ffffff; opacity: 0.8; stroke: #cccccc; stroke-linejoin: miter"/>
    </g>
    <g id="text_24">
     <text style="font-size: 10px; font-family: 'DejaVu Sans', 'Bitstream Vera Sans', 'Computer Modern Sans Serif', 'Lucida Grande', 'Verdana', 'Geneva', 'Lucid', 'Arial', 'Helvetica', 'Avant Garde', sans-serif; text-anchor: start" x="429.526179" y="41.678437" transform="rotate(-0 429.526179 41.678437)">suite</text>
    </g>
    <g id="PathCollection_4">
     <defs>
      <path id="m1e916bbbb5" d="M 0 4.551969 
C 1.207196 4.551969 2.365111 4.072345 3.218728 3.218728 
C 4.072345 2.365111 4.551969 1.207196 4.551969 0 
C 4.551969 -1.207196 4.072345 -2.365111 3.218728 -3.218728 
C 2.365111 -4.072345 1.207196 -4.551969 0 -4.551969 
C -1.207196 -4.551969 -2.365111 -4.072345 -3.218728 -3.218728 
C -4.072345 -2.365111 -4.551969 -1.207196 -4.551969 0 
C -4.551969 1.207196 -4.072345 2.365111 -3.218728 3.218728 
C -2.365111 4.072345 -1.207196 4.551969 0 4.551969 
z
" style="stroke: #ffffff; stroke-opacity: 0.9; stroke-width: 0.7"/>
     </defs>
     <g>
      <use xlink:href="#m1e916bbbb5" x="386.263523" y="51.736875" style="fill: #1f77b4; fill-opacity: 0.9; stroke: #ffffff; stroke-opacity: 0.9; stroke-width: 0.7"/>
     </g>
    </g>
    <g id="text_25">
     <text style="font-size: 8px; font-family: 'DejaVu Sans', 'Bitstream Vera Sans', 'Computer Modern Sans Serif', 'Lucida Grande', 'Verdana', 'Geneva', 'Lucid', 'Arial', 'Helvetica', 'Avant Garde', sans-serif; text-anchor: start" x="400.663523" y="53.836875" transform="rotate(-0 400.663523 53.836875)">adversarial_refusal_safety</text>
    </g>
    <g id="PathCollection_5">
     <defs>
      <path id="mcb0fec1b6c" d="M 0 3.063718 
C 0.812508 3.063718 1.591846 2.740906 2.166376 2.166376 
C 2.740906 1.591846 3.063718 0.812508 3.063718 0 
C 3.063718 -0.812508 2.740906 -1.591846 2.166376 -2.166376 
C 1.591846 -2.740906 0.812508 -3.063718 0 -3.063718 
C -0.812508 -3.063718 -1.591846 -2.740906 -2.166376 -2.166376 
C -2.740906 -1.591846 -3.063718 -0.812508 -3.063718 0 
C -3.063718 0.812508 -2.740906 1.591846 -2.166376 2.166376 
C -1.591846 2.740906 -0.812508 3.063718 0 3.063718 
z
" style="stroke: #ffffff; stroke-opacity: 0.9; stroke-width: 0.7"/>
     </defs>
     <g>
      <use xlink:href="#mcb0fec1b6c" x="386.263523" y="63.701875" style="fill: #ff7f0e; fill-opacity: 0.9; stroke: #ffffff; stroke-opacity: 0.9; stroke-width: 0.7"/>
     </g>
    </g>
    <g id="text_26">
     <text style="font-size: 8px; font-family: 'DejaVu Sans', 'Bitstream Vera Sans', 'Computer Modern Sans Serif', 'Lucida Grande', 'Verdana', 'Geneva', 'Lucid', 'Arial', 'Helvetica', 'Avant Garde', sans-serif; text-anchor: start" x="400.663523" y="65.801875" transform="rotate(-0 400.663523 65.801875)">benign_overrefusal</text>
    </g>
    <g id="PathCollection_6">
     <defs>
      <path id="mfdc8e88c04" d="M 0 3.10259 
C 0.822816 3.10259 1.612043 2.775681 2.193862 2.193862 
C 2.775681 1.612043 3.10259 0.822816 3.10259 0 
C 3.10259 -0.822816 2.775681 -1.612043 2.193862 -2.193862 
C 1.612043 -2.775681 0.822816 -3.10259 0 -3.10259 
C -0.822816 -3.10259 -1.612043 -2.775681 -2.193862 -2.193862 
C -2.775681 -1.612043 -3.10259 -0.822816 -3.10259 0 
C -3.10259 0.822816 -2.775681 1.612043 -2.193862 2.193862 
C -1.612043 2.775681 -0.822816 3.10259 0 3.10259 
z
" style="stroke: #ffffff; stroke-opacity: 0.9; stroke-width: 0.7"/>
     </defs>
     <g>
      <use xlink:href="#mfdc8e88c04" x="386.263523" y="75.666875" style="fill: #2ca02c; fill-opacity: 0.9; stroke: #ffffff; stroke-opacity: 0.9; stroke-width: 0.7"/>
     </g>
    </g>
    <g id="text_27">
     <text style="font-size: 8px; font-family: 'DejaVu Sans', 'Bitstream Vera Sans', 'Computer Modern Sans Serif', 'Lucida Grande', 'Verdana', 'Geneva', 'Lucid', 'Arial', 'Helvetica', 'Avant Garde', sans-serif; text-anchor: start" x="400.663523" y="77.766875" transform="rotate(-0 400.663523 77.766875)">refusal_safety</text>
    </g>
   </g>
  </g>
 </g>
 <defs>
  <clipPath id="p4b1f32ca45">
   <rect x="56" y="26.88" width="456.387273" height="435.16"/>
  </clipPath>
 </defs>
</svg>
