<?xml version="1.0" encoding="utf-8" standalone="no"?>
<!DOCTYPE svg PUBLIC "-//W3C//DTD SVG 1.1//EN"
  "http://www.w3.org/Graphics/SVG/1.1/DTD/svg11.dtd">
<svg xmlns:xlink="http://www.w3.org/1999/xlink" width="720pt" height="360pt" viewBox="0 0 720 360" xmlns="http://www.w3.org/2000/svg" version="1.1">
 <metadata>
  <rdf:RDF xmlns:dc="http://purl.org/dc/elements/1.1/" xmlns:cc="http://creativecommons.org/ns#" xmlns:rdf="http://www.w3.org/1999/02/22-rdf-syntax-ns#">
   <cc:Work>
    <dc:type rdf:resource="http://purl.org/dc/dcmitype/StillImage"/>
    <dc:date>2026-05-07T16:38:15.750645</dc:date>
    <dc:format>image/svg+xml</dc:format>
    <dc:creator>
     <cc:Agent>
      <dc:title>Matplotlib v3.10.9, https://matplotlib.org/</dc:title>
     </cc:Agent>
    </dc:creator>
   </cc:Work>
  </rdf:RDF>
 </metadata>
 <defs>
  <style type="text/css">*{stroke-linejoin: round; stroke-linecap: butt}</style>
 </defs>
 <g id="figure_1">
  <g id="patch_1">
   <path d="M 0 360 
L 720 360 
L 720 0 
L 0 0 
z
" style="fill: #ffffff"/>
  </g>
  <g id="axes_1">
   <g id="patch_2">
    <path d="M 47.72 318.04 
L 709.2 318.04 
L 709.2 26.88 
L 47.72 26.88 
z
" style="fill: #ffffff"/>
   </g>
   <g id="matplotlib.axis_1">
    <g id="xtick_1">
     <g id="line2d_1">
      <defs>
       <path id="m38d877001b" d="M 0 0 
L 0 3.5 
" style="stroke: #000000; stroke-width: 0.8"/>
      </defs>
      <g>
       <use xlink:href="#m38d877001b" x="77.787273" y="318.04" style="stroke: #000000; stroke-width: 0.8"/>
      </g>
     </g>
     <g id="text_1">
      <text style="font-size: 10px; font-family: 'DejaVu Sans', 'Bitstream Vera Sans', 'Computer Modern Sans Serif', 'Lucida Grande', 'Verdana', 'Geneva', 'Lucid', 'Arial', 'Helvetica', 'Avant Garde', sans-serif; text-anchor: middle" x="77.787273" y="332.638438" transform="rotate(-0 77.787273 332.638438)">0</text>
     </g>
    </g>
    <g id="xtick_2">
     <g id="line2d_2">
      <g>
       <use xlink:href="#m38d877001b" x="171.019126" y="318.04" style="stroke: #000000; stroke-width: 0.8"/>
      </g>
     </g>
     <g id="text_2">
      <text style="font-size: 10px; font-family: 'DejaVu Sans', 'Bitstream Vera Sans', 'Computer Modern Sans Serif', 'Lucida Grande', 'Verdana', 'Geneva', 'Lucid', 'Arial', 'Helvetica', 'Avant Garde', sans-serif; text-anchor: middle" x="171.019126" y="332.638438" transform="rotate(-0 171.019126 332.638438)">20</text>
     </g>
    </g>
    <g id="xtick_3">
     <g id="line2d_3">
      <g>
       <use xlink:href="#m38d877001b" x="264.25098" y="318.04" style="stroke: #000000; stroke-width: 0.8"/>
      </g>
     </g>
     <g id="text_3">
      <text style="font-size: 10px; font-family: 'DejaVu Sans', 'Bitstream Vera Sans', 'Computer Modern Sans Serif', 'Lucida Grande', 'Verdana', 'Geneva', 'Lucid', 'Arial', 'Helvetica', 'Avant Garde', sans-serif; text-anchor: middle" x="264.25098" y="332.638438" transform="rotate(-0 264.25098 332.638438)">40</text>
     </g>
    </g>
    <g id="xtick_4">
     <g id="line2d_4">
      <g>
       <use xlink:href="#m38d877001b" x="357.482833" y="318.04" style="stroke: #000000; stroke-width: 0.8"/>
      </g>
     </g>
     <g id="text_4">
      <text style="font-size: 10px; font-family: 'DejaVu Sans', 'Bitstream Vera Sans', 'Computer Modern Sans Serif', 'Lucida Grande', 'Verdana', 'Geneva', 'Lucid', 'Arial', 'Helvetica', 'Avant Garde', sans-serif; text-anchor: middle" x="357.482833" y="332.638438" transform="rotate(-0 357.482833 332.638438)">60</text>
     </g>
    </g>
    <g id="xtick_5">
     <g id="line2d_5">
      <g>
       <use xlink:href="#m38d877001b" x="450.714686" y="318.04" style="stroke: #000000; stroke-width: 0.8"/>
      </g>
     </g>
     <g id="text_5">
      <text style="font-size: 10px; font-family: 'DejaVu Sans', 'Bitstream Vera Sans', 'Computer Modern Sans Serif', 'Lucida Grande', 'Verdana', 'Geneva', 'Lucid', 'Arial', 'Helvetica', 'Avant Garde', sans-serif; text-anchor: middle" x="450.714686" y="332.638438" transform="rotate(-0 450.714686 332.638438)">80</text>
     </g>
    </g>
    <g id="xtick_6">
     <g id="line2d_6">
      <g>
       <use xlink:href="#m38d877001b" x="543.94654" y="318.04" style="stroke: #000000; stroke-width: 0.8"/>
      </g>
     </g>
     <g id="text_6">
      <text style="font-size: 10px; font-family: 'DejaVu Sans', 'Bitstream Vera Sans', 'Computer Modern Sans Serif', 'Lucida Grande', 'Verdana', 'Geneva', 'Lucid', 'Arial', 'Helvetica', 'Avant Garde', sans-serif; text-anchor: middle" x="543.94654" y="332.638438" transform="rotate(-0 543.94654 332.638438)">100</text>
     </g>
    </g>
    <g id="xtick_7">
     <g id="line2d_7">
      <g>
       <use xlink:href="#m38d877001b" x="637.178393" y="318.04" style="stroke: #000000; stroke-width: 0.8"/>
      </g>
     </g>
     <g id="text_7">
      <text style="font-size: 10px; font-family: 'DejaVu Sans', 'Bitstream Vera Sans', 'Computer Modern Sans Serif', 'Lucida Grande', 'Verdana', 'Geneva', 'Lucid', 'Arial', 'Helvetica', 'Avant Garde', sans-serif; text-anchor: middle" x="637.178393" y="332.638438" transform="rotate(-0 637.178393 332.638438)">120</text>
     </g>
    </g>
    <g id="text_8">
     <text style="font-size: 10px; font-family: 'DejaVu Sans', 'Bitstream Vera Sans', 'Computer Modern Sans Serif', 'Lucida Grande', 'Verdana', 'Geneva', 'Lucid', 'Arial', 'Helvetica', 'Avant Garde', sans-serif; text-anchor: middle" x="378.46" y="346.316563" transform="rotate(-0 378.46 346.316563)">Decode step</text>
    </g>
   </g>
   <g id="matplotlib.axis_2">
    <g id="ytick_1">
     <g id="line2d_8">
      <defs>
       <path id="m44a9518ae2" d="M 0 0 
L -3.5 0 
" style="stroke: #000000; stroke-width: 0.8"/>
      </defs>
      <g>
       <use xlink:href="#m44a9518ae2" x="47.72" y="318.04" style="stroke: #000000; stroke-width: 0.8"/>
      </g>
     </g>
     <g id="text_9">
      <text style="font-size: 10px; font-family: 'DejaVu Sans', 'Bitstream Vera Sans', 'Computer Modern Sans Serif', 'Lucida Grande', 'Verdana', 'Geneva', 'Lucid', 'Arial', 'Helvetica', 'Avant Garde', sans-serif; text-anchor: end" x="40.72" y="321.839219" transform="rotate(-0 40.72 321.839219)">0.0</text>
     </g>
    </g>
    <g id="ytick_2">
     <g id="line2d_9">
      <g>
       <use xlink:href="#m44a9518ae2" x="47.72" y="262.580952" style="stroke: #000000; stroke-width: 0.8"/>
      </g>
     </g>
     <g id="text_10">
      <text style="font-size: 10px; font-family: 'DejaVu Sans', 'Bitstream Vera Sans', 'Computer Modern Sans Serif', 'Lucida Grande', 'Verdana', 'Geneva', 'Lucid', 'Arial', 'Helvetica', 'Avant Garde', sans-serif; text-anchor: end" x="40.72" y="266.380171" transform="rotate(-0 40.72 266.380171)">0.2</text>
     </g>
    </g>
    <g id="ytick_3">
     <g id="line2d_10">
      <g>
       <use xlink:href="#m44a9518ae2" x="47.72" y="207.121905" style="stroke: #000000; stroke-width: 0.8"/>
      </g>
     </g>
     <g id="text_11">
      <text style="font-size: 10px; font-family: 'DejaVu Sans', 'Bitstream Vera Sans', 'Computer Modern Sans Serif', 'Lucida Grande', 'Verdana', 'Geneva', 'Lucid', 'Arial', 'Helvetica', 'Avant Garde', sans-serif; text-anchor: end" x="40.72" y="210.921124" transform="rotate(-0 40.72 210.921124)">0.4</text>
     </g>
    </g>
    <g id="ytick_4">
     <g id="line2d_11">
      <g>
       <use xlink:href="#m44a9518ae2" x="47.72" y="151.662857" style="stroke: #000000; stroke-width: 0.8"/>
      </g>
     </g>
     <g id="text_12">
      <text style="font-size: 10px; font-family: 'DejaVu Sans', 'Bitstream Vera Sans', 'Computer Modern Sans Serif', 'Lucida Grande', 'Verdana', 'Geneva', 'Lucid', 'Arial', 'Helvetica', 'Avant Garde', sans-serif; text-anchor: end" x="40.72" y="155.462076" transform="rotate(-0 40.72 155.462076)">0.6</text>
     </g>
    </g>
    <g id="ytick_5">
     <g id="line2d_12">
      <g>
       <use xlink:href="#m44a9518ae2" x="47.72" y="96.20381" style="stroke: #000000; stroke-width: 0.8"/>
      </g>
     </g>
     <g id="text_13">
      <text style="font-size: 10px; font-family: 'DejaVu Sans', 'Bitstream Vera Sans', 'Computer Modern Sans Serif', 'Lucida Grande', 'Verdana', 'Geneva', 'Lucid', 'Arial', 'Helvetica', 'Avant Garde', sans-serif; text-anchor: end" x="40.72" y="100.003028" transform="rotate(-0 40.72 100.003028)">0.8</text>
     </g>
    </g>
    <g id="ytick_6">
     <g id="line2d_13">
      <g>
       <use xlink:href="#m44a9518ae2" x="47.72" y="40.744762" style="stroke: #000000; stroke-width: 0.8"/>
      </g>
     </g>
     <g id="text_14">
      <text style="font-size: 10px; font-family: 'DejaVu Sans', 'Bitstream Vera Sans', 'Computer Modern Sans Serif', 'Lucida Grande', 'Verdana', 'Geneva', 'Lucid', 'Arial', 'Helvetica', 'Avant Garde', sans-serif; text-anchor: end" x="40.72" y="44.543981" transform="rotate(-0 40.72 44.543981)">1.0</text>
     </g>
    </g>
    <g id="text_15">
     <text style="font-size: 10px; font-family: 'DejaVu Sans', 'Bitstream Vera Sans', 'Computer Modern Sans Serif', 'Lucida Grande', 'Verdana', 'Geneva', 'Lucid', 'Arial', 'Helvetica', 'Avant Garde', sans-serif; text-anchor: middle" x="18.737188" y="172.46" transform="rotate(-90 18.737188 172.46)">L2 retained fraction</text>
    </g>
   </g>
   <g id="line2d_14">
    <path d="M 77.787273 40.744762 
L 679.132727 40.744762 
L 679.132727 40.744762 
" clip-path="url(#p27794e1188)" style="fill: none; stroke: #1f77b4; stroke-opacity: 0.85; stroke-width: 1.5; stroke-linecap: square"/>
   </g>
   <g id="line2d_15">
    <path d="M 77.787273 50.896094 
L 82.448865 40.871643 
L 87.110458 40.744762 
L 91.772051 40.744762 
L 96.433643 40.744762 
L 101.095236 40.744762 
L 105.756829 40.744762 
L 110.418421 40.744762 
L 115.080014 40.744762 
L 119.741607 40.744762 
L 124.403199 40.744762 
L 129.064792 40.744762 
L 133.726385 40.744762 
L 138.387977 40.744762 
L 143.04957 40.744762 
L 147.711163 40.744762 
L 152.372755 40.744762 
L 157.034348 40.744762 
L 161.695941 40.744762 
L 166.357533 40.744762 
L 171.019126 40.744762 
L 175.680719 40.744762 
L 180.342311 40.744762 
L 185.003904 40.744762 
L 189.665497 40.744762 
L 194.327089 40.744762 
L 198.988682 40.744762 
L 203.650275 40.744762 
L 208.311868 40.744762 
L 212.97346 40.744762 
L 217.635053 40.744762 
L 222.296646 40.744762 
L 226.958238 40.744762 
L 231.619831 40.744762 
L 236.281424 40.744762 
L 240.943016 40.744762 
L 245.604609 40.744762 
L 250.266202 40.744762 
L 254.927794 40.744762 
L 259.589387 40.744762 
L 264.25098 40.744762 
L 268.912572 40.744762 
L 273.574165 40.744762 
L 278.235758 41.815721 
L 282.89735 41.808921 
L 287.558943 41.814999 
L 292.220536 41.818912 
L 296.882128 41.807389 
L 301.543721 41.813068 
L 306.205314 41.823848 
L 310.866906 41.810829 
L 315.528499 41.826686 
L 320.190092 41.817019 
L 324.851684 41.822799 
L 329.513277 41.82994 
L 334.17487 41.825873 
L 338.836462 41.813693 
L 343.498055 41.825307 
L 348.159648 41.818262 
L 352.82124 41.829924 
L 357.482833 41.823844 
L 362.144426 41.82343 
L 366.806018 41.811915 
" clip-path="url(#p27794e1188)" style="fill: none; stroke: #ff7f0e; stroke-opacity: 0.85; stroke-width: 1.5; stroke-linecap: square"/>
   </g>
   <g id="line2d_16">
    <path d="M 77.787273 50.899506 
L 82.448865 40.871513 
L 87.110458 40.744762 
L 91.772051 40.744762 
L 96.433643 40.744762 
L 101.095236 40.744762 
L 105.756829 40.744762 
L 110.418421 40.744762 
L 115.080014 40.744762 
L 119.741607 40.744762 
L 124.403199 40.744762 
L 129.064792 40.744762 
L 133.726385 40.744762 
L 138.387977 40.744762 
L 143.04957 40.744762 
L 147.711163 40.744762 
L 152.372755 40.744762 
L 157.034348 40.744762 
L 161.695941 40.744762 
L 166.357533 40.744762 
L 171.019126 40.744762 
L 175.680719 40.744762 
L 180.342311 40.744762 
L 185.003904 40.744762 
L 189.665497 40.744762 
L 194.327089 40.744762 
L 198.988682 40.744762 
L 203.650275 40.744762 
L 208.311868 40.744762 
L 212.97346 40.744762 
L 217.635053 40.744762 
L 222.296646 40.744762 
L 226.958238 40.744762 
L 231.619831 40.744762 
L 236.281424 40.744762 
L 240.943016 40.744762 
L 245.604609 40.744762 
L 250.266202 40.744762 
L 254.927794 40.744762 
L 259.589387 40.744762 
L 264.25098 40.744762 
L 268.912572 40.744762 
L 273.574165 40.744762 
L 278.235758 41.824947 
L 282.89735 41.820026 
L 287.558943 41.823369 
L 292.220536 41.813402 
L 296.882128 41.818091 
L 301.543721 41.824142 
L 306.205314 41.809173 
L 310.866906 41.81633 
L 315.528499 41.831422 
L 320.190092 41.814349 
L 324.851684 41.823518 
L 329.513277 41.824313 
L 334.17487 41.818729 
L 338.836462 41.81848 
L 343.498055 41.831212 
L 348.159648 41.821217 
L 352.82124 41.815619 
L 357.482833 41.820447 
L 362.144426 41.812557 
L 366.806018 41.836823 
" clip-path="url(#p27794e1188)" style="fill: none; stroke: #2ca02c; stroke-opacity: 0.85; stroke-width: 1.5; stroke-linecap: square"/>
   </g>
   <g id="line2d_17">
    <path d="M 77.787273 50.893245 
L 82.448865 40.871601 
L 87.110458 40.744762 
L 91.772051 40.744762 
L 96.433643 40.744762 
L 101.095236 40.744762 
L 105.756829 40.744762 
L 110.418421 40.744762 
L 115.080014 40.744762 
L 119.741607 40.744762 
L 124.403199 40.744762 
L 129.064792 40.744762 
L 133.726385 40.744762 
L 138.387977 40.744762 
L 143.04957 40.744762 
L 147.711163 40.744762 
L 152.372755 40.744762 
L 157.034348 40.744762 
L 161.695941 40.744762 
L 166.357533 40.744762 
L 171.019126 40.744762 
L 175.680719 40.744762 
L 180.342311 40.744762 
L 185.003904 40.744762 
L 189.665497 40.744762 
L 194.327089 40.744762 
L 198.988682 40.744762 
L 203.650275 40.744762 
L 208.311868 40.744762 
L 212.97346 40.744762 
L 217.635053 40.744762 
L 222.296646 40.744762 
L 226.958238 40.744762 
L 231.619831 40.744762 
L 236.281424 40.744762 
L 240.943016 40.744762 
L 245.604609 40.744762 
L 250.266202 40.744762 
L 254.927794 40.744762 
L 259.589387 40.744762 
L 264.25098 40.744762 
L 268.912572 40.744762 
L 273.574165 40.744762 
L 278.235758 41.821402 
L 282.89735 41.808341 
L 287.558943 41.822088 
L 292.220536 41.809339 
L 296.882128 41.822242 
L 301.543721 41.824122 
L 306.205314 41.80907 
L 310.866906 41.823629 
L 315.528499 41.816131 
L 320.190092 41.817925 
L 324.851684 41.825573 
L 329.513277 41.827182 
L 334.17487 41.823952 
L 338.836462 41.81392 
L 343.498055 41.830302 
L 348.159648 41.813402 
L 352.82124 41.81592 
L 357.482833 41.826644 
L 362.144426 41.824352 
L 366.806018 41.821235 
" clip-path="url(#p27794e1188)" style="fill: none; stroke: #d62728; stroke-opacity: 0.85; stroke-width: 1.5; stroke-linecap: square"/>
   </g>
   <g id="line2d_18">
    <path d="M 77.787273 50.888044 
L 82.448865 40.871421 
L 87.110458 40.744762 
L 91.772051 40.744762 
L 96.433643 40.744762 
L 101.095236 40.744762 
L 105.756829 40.744762 
L 110.418421 40.744762 
L 115.080014 40.744762 
L 119.741607 40.744762 
L 124.403199 40.744762 
L 129.064792 40.744762 
L 133.726385 40.744762 
L 138.387977 40.744762 
L 143.04957 40.744762 
L 147.711163 40.744762 
L 152.372755 40.744762 
L 157.034348 40.744762 
L 161.695941 40.744762 
L 166.357533 40.744762 
L 171.019126 40.744762 
L 175.680719 40.744762 
L 180.342311 40.744762 
L 185.003904 40.744762 
L 189.665497 40.744762 
L 194.327089 40.744762 
L 198.988682 40.744762 
L 203.650275 40.744762 
L 208.311868 40.744762 
L 212.97346 40.744762 
L 217.635053 40.744762 
L 222.296646 40.744762 
L 226.958238 40.744762 
L 231.619831 40.744762 
L 236.281424 40.744762 
L 240.943016 40.744762 
L 245.604609 40.744762 
L 250.266202 40.744762 
L 254.927794 40.744762 
L 259.589387 40.744762 
L 264.25098 40.744762 
L 268.912572 40.744762 
L 273.574165 40.744762 
L 278.235758 41.822252 
L 282.89735 41.807017 
L 287.558943 41.807283 
L 292.220536 41.814236 
L 296.882128 41.812423 
L 301.543721 41.809041 
L 306.205314 41.821166 
L 310.866906 41.820804 
L 315.528499 41.820551 
L 320.190092 41.807638 
L 324.851684 41.821314 
L 329.513277 41.808511 
L 334.17487 41.821364 
L 338.836462 41.823347 
" clip-path="url(#p27794e1188)" style="fill: none; stroke: #9467bd; stroke-opacity: 0.85; stroke-width: 1.5; stroke-linecap: square"/>
   </g>
   <g id="line2d_19">
    <path d="M 77.787273 50.90438 
L 82.448865 40.871541 
L 87.110458 40.744762 
L 91.772051 40.744762 
L 96.433643 40.744762 
L 101.095236 40.744762 
L 105.756829 40.744762 
L 110.418421 40.744762 
L 115.080014 40.744762 
L 119.741607 40.744762 
L 124.403199 40.744762 
L 129.064792 40.744762 
L 133.726385 40.744762 
L 138.387977 40.744762 
L 143.04957 40.744762 
L 147.711163 40.744762 
L 152.372755 40.744762 
L 157.034348 40.744762 
L 161.695941 40.744762 
L 166.357533 40.744762 
L 171.019126 40.744762 
L 175.680719 40.744762 
L 180.342311 40.744762 
L 185.003904 40.744762 
L 189.665497 40.744762 
L 194.327089 40.744762 
L 198.988682 40.744762 
L 203.650275 40.744762 
L 208.311868 40.744762 
L 212.97346 40.744762 
L 217.635053 40.744762 
L 222.296646 40.744762 
L 226.958238 40.744762 
L 231.619831 40.744762 
L 236.281424 40.744762 
L 240.943016 40.744762 
L 245.604609 40.744762 
L 250.266202 40.744762 
L 254.927794 40.744762 
L 259.589387 40.744762 
L 264.25098 40.744762 
L 268.912572 40.744762 
L 273.574165 40.744762 
L 278.235758 41.821402 
L 282.89735 41.808341 
L 287.558943 41.822088 
L 292.220536 41.809339 
L 296.882128 41.822242 
L 301.543721 41.824122 
L 306.205314 41.80907 
L 310.866906 41.823629 
L 315.528499 41.816131 
L 320.190092 41.817925 
L 324.851684 41.825573 
L 329.513277 41.827182 
L 334.17487 41.823952 
L 338.836462 41.81392 
L 343.498055 41.830302 
L 348.159648 41.813402 
L 352.82124 41.81592 
L 357.482833 41.826644 
L 362.144426 41.824352 
L 366.806018 41.821235 
" clip-path="url(#p27794e1188)" style="fill: none; stroke: #8c564b; stroke-opacity: 0.85; stroke-width: 1.5; stroke-linecap: square"/>
   </g>
   <g id="patch_3">
    <path d="M 47.72 318.04 
L 47.72 26.88 
" style="fill: none; stroke: #000000; stroke-width: 0.8; stroke-linejoin: miter; stroke-linecap: square"/>
   </g>
   <g id="patch_4">
    <path d="M 709.2 318.04 
L 709.2 26.88 
" style="fill: none; stroke: #000000; stroke-width: 0.8; stroke-linejoin: miter; stroke-linecap: square"/>
   </g>
   <g id="patch_5">
    <path d="M 47.72 318.04 
L 709.2 318.04 
" style="fill: none; stroke: #000000; stroke-width: 0.8; stroke-linejoin: miter; stroke-linecap: square"/>
   </g>
   <g id="patch_6">
    <path d="M 47.72 26.88 
L 709.2 26.88 
" style="fill: none; stroke: #000000; stroke-width: 0.8; stroke-linejoin: miter; stroke-linecap: square"/>
   </g>
   <g id="text_16">
    <text style="font-size: 12px; font-family: 'DejaVu Sans', 'Bitstream Vera Sans', 'Computer Modern Sans Serif', 'Lucida Grande', 'Verdana', 'Geneva', 'Lucid', 'Arial', 'Helvetica', 'Avant Garde', sans-serif; text-anchor: middle" x="378.46" y="20.88" transform="rotate(-0 378.46 20.88)">Cache L2 Retained Fraction Over Decoding</text>
   </g>
   <g id="legend_1">
    <g id="patch_7">
     <path d="M 54.72 313.04 
L 292.12625 313.04 
Q 294.12625 313.04 294.12625 311.04 
L 294.12625 222.580625 
Q 294.12625 220.580625 292.12625 220.580625 
L 54.72 220.580625 
Q 52.72 220.580625 52.72 222.580625 
L 52.72 311.04 
Q 52.72 313.04 54.72 313.04 
z
" style="fill: #ffffff; opacity: 0.8; stroke: #cccccc; stroke-linejoin: miter"/>
    </g>
    <g id="line2d_20">
     <path d="M 56.72 228.679063 
L 66.72 228.679063 
L 76.72 228.679063 
" style="fill: none; stroke: #1f77b4; stroke-opacity: 0.85; stroke-width: 1.5; stroke-linecap: square"/>
    </g>
    <g id="text_17">
     <text style="font-size: 10px; font-family: 'DejaVu Sans', 'Bitstream Vera Sans', 'Computer Modern Sans Serif', 'Lucida Grande', 'Verdana', 'Geneva', 'Lucid', 'Arial', 'Helvetica', 'Avant Garde', sans-serif; text-anchor: start" x="84.72" y="232.179063" transform="rotate(-0 84.72 232.179063)">none</text>
    </g>
    <g id="line2d_21">
     <path d="M 56.72 243.357188 
L 66.72 243.357188 
L 76.72 243.357188 
" style="fill: none; stroke: #ff7f0e; stroke-opacity: 0.85; stroke-width: 1.5; stroke-linecap: square"/>
    </g>
    <g id="text_18">
     <text style="font-size: 10px; font-family: 'DejaVu Sans', 'Bitstream Vera Sans', 'Computer Modern Sans Serif', 'Lucida Grande', 'Verdana', 'Geneva', 'Lucid', 'Arial', 'Helvetica', 'Avant Garde', sans-serif; text-anchor: start" x="84.72" y="246.857188" transform="rotate(-0 84.72 246.857188)">policy_pinned__budget128__sink8</text>
    </g>
    <g id="line2d_22">
     <path d="M 56.72 258.313438 
L 66.72 258.313438 
L 76.72 258.313438 
" style="fill: none; stroke: #2ca02c; stroke-opacity: 0.85; stroke-width: 1.5; stroke-linecap: square"/>
    </g>
    <g id="text_19">
     <text style="font-size: 10px; font-family: 'DejaVu Sans', 'Bitstream Vera Sans', 'Computer Modern Sans Serif', 'Lucida Grande', 'Verdana', 'Geneva', 'Lucid', 'Arial', 'Helvetica', 'Avant Garde', sans-serif; text-anchor: start" x="84.72" y="261.813438" transform="rotate(-0 84.72 261.813438)">random_matched__budget128__seed991</text>
    </g>
    <g id="line2d_23">
     <path d="M 56.72 273.269688 
L 66.72 273.269688 
L 76.72 273.269688 
" style="fill: none; stroke: #d62728; stroke-opacity: 0.85; stroke-width: 1.5; stroke-linecap: square"/>
    </g>
    <g id="text_20">
     <text style="font-size: 10px; font-family: 'DejaVu Sans', 'Bitstream Vera Sans', 'Computer Modern Sans Serif', 'Lucida Grande', 'Verdana', 'Geneva', 'Lucid', 'Arial', 'Helvetica', 'Avant Garde', sans-serif; text-anchor: start" x="84.72" y="276.769688" transform="rotate(-0 84.72 276.769688)">sink_recent__budget128__sink8</text>
    </g>
    <g id="line2d_24">
     <path d="M 56.72 288.225937 
L 66.72 288.225937 
L 76.72 288.225937 
" style="fill: none; stroke: #9467bd; stroke-opacity: 0.85; stroke-width: 1.5; stroke-linecap: square"/>
    </g>
    <g id="text_21">
     <text style="font-size: 10px; font-family: 'DejaVu Sans', 'Bitstream Vera Sans', 'Computer Modern Sans Serif', 'Lucida Grande', 'Verdana', 'Geneva', 'Lucid', 'Arial', 'Helvetica', 'Avant Garde', sans-serif; text-anchor: start" x="84.72" y="291.725937" transform="rotate(-0 84.72 291.725937)">sliding_window__budget128</text>
    </g>
    <g id="line2d_25">
     <path d="M 56.72 303.182187 
L 66.72 303.182187 
L 76.72 303.182187 
" style="fill: none; stroke: #8c564b; stroke-opacity: 0.85; stroke-width: 1.5; stroke-linecap: square"/>
    </g>
    <g id="text_22">
     <text style="font-size: 10px; font-family: 'DejaVu Sans', 'Bitstream Vera Sans', 'Computer Modern Sans Serif', 'Lucida Grande', 'Verdana', 'Geneva', 'Lucid', 'Arial', 'Helvetica', 'Avant Garde', sans-serif; text-anchor: start" x="84.72" y="306.682187" transform="rotate(-0 84.72 306.682187)">user_pinned__budget128__sink8</text>
    </g>
   </g>
  </g>
 </g>
 <defs>
  <clipPath id="p27794e1188">
   <rect x="47.72" y="26.88" width="661.48" height="291.16"/>
  </clipPath>
 </defs>
</svg>
