<?xml version="1.0" encoding="utf-8" standalone="no"?>
<!DOCTYPE svg PUBLIC "-//W3C//DTD SVG 1.1//EN"
  "http://www.w3.org/Graphics/SVG/1.1/DTD/svg11.dtd">
<svg xmlns:xlink="http://www.w3.org/1999/xlink" width="712.96375pt" height="341.811031pt" viewBox="0 0 712.96375 341.811031" xmlns="http://www.w3.org/2000/svg" version="1.1">
 <metadata>
  <rdf:RDF xmlns:dc="http://purl.org/dc/elements/1.1/" xmlns:cc="http://creativecommons.org/ns#" xmlns:rdf="http://www.w3.org/1999/02/22-rdf-syntax-ns#">
   <cc:Work>
    <dc:type rdf:resource="http://purl.org/dc/dcmitype/StillImage"/>
    <dc:date>2026-05-14T01:16:37.372886</dc:date>
    <dc:format>image/svg+xml</dc:format>
    <dc:creator>
     <cc:Agent>
      <dc:title>Matplotlib v3.10.9, https://matplotlib.org/</dc:title>
     </cc:Agent>
    </dc:creator>
   </cc:Work>
  </rdf:RDF>
 </metadata>
 <defs>
  <style type="text/css">*{stroke-linejoin: round; stroke-linecap: butt}</style>
 </defs>
 <g id="figure_1">
  <g id="patch_1">
   <path d="M 0 341.811031 
L 712.96375 341.811031 
L 712.96375 0 
L 0 0 
z
" style="fill: #ffffff"/>
  </g>
  <g id="axes_1">
   <g id="patch_2">
    <path d="M 43.15875 246.397969 
L 705.76375 246.397969 
L 705.76375 23.077969 
L 43.15875 23.077969 
z
" style="fill: #ffffff"/>
   </g>
   <g id="matplotlib.axis_1">
    <g id="xtick_1">
     <g id="line2d_1">
      <path d="M 73.277159 246.397969 
L 73.277159 23.077969 
" clip-path="url(#p6d960f1954)" style="fill: none; stroke: #b0b0b0; stroke-opacity: 0.22; stroke-width: 0.8; stroke-linecap: square"/>
     </g>
     <g id="line2d_2">
      <defs>
       <path id="m38d877001b" d="M 0 0 
L 0 3.5 
" style="stroke: #000000; stroke-width: 0.8"/>
      </defs>
      <g>
       <use xlink:href="#m38d877001b" x="73.277159" y="246.397969" style="stroke: #000000; stroke-width: 0.8"/>
      </g>
     </g>
     <g id="text_1">
      <text style="font-size: 9px; font-family: 'DejaVu Sans', 'Bitstream Vera Sans', 'Computer Modern Sans Serif', 'Lucida Grande', 'Verdana', 'Geneva', 'Lucid', 'Arial', 'Helvetica', 'Avant Garde', sans-serif; text-anchor: middle" x="73.277159" y="260.236562" transform="rotate(-0 73.277159 260.236562)">0</text>
     </g>
    </g>
    <g id="xtick_2">
     <g id="line2d_3">
      <path d="M 166.667575 246.397969 
L 166.667575 23.077969 
" clip-path="url(#p6d960f1954)" style="fill: none; stroke: #b0b0b0; stroke-opacity: 0.22; stroke-width: 0.8; stroke-linecap: square"/>
     </g>
     <g id="line2d_4">
      <g>
       <use xlink:href="#m38d877001b" x="166.667575" y="246.397969" style="stroke: #000000; stroke-width: 0.8"/>
      </g>
     </g>
     <g id="text_2">
      <text style="font-size: 9px; font-family: 'DejaVu Sans', 'Bitstream Vera Sans', 'Computer Modern Sans Serif', 'Lucida Grande', 'Verdana', 'Geneva', 'Lucid', 'Arial', 'Helvetica', 'Avant Garde', sans-serif; text-anchor: middle" x="166.667575" y="260.236562" transform="rotate(-0 166.667575 260.236562)">20</text>
     </g>
    </g>
    <g id="xtick_3">
     <g id="line2d_5">
      <path d="M 260.057991 246.397969 
L 260.057991 23.077969 
" clip-path="url(#p6d960f1954)" style="fill: none; stroke: #b0b0b0; stroke-opacity: 0.22; stroke-width: 0.8; stroke-linecap: square"/>
     </g>
     <g id="line2d_6">
      <g>
       <use xlink:href="#m38d877001b" x="260.057991" y="246.397969" style="stroke: #000000; stroke-width: 0.8"/>
      </g>
     </g>
     <g id="text_3">
      <text style="font-size: 9px; font-family: 'DejaVu Sans', 'Bitstream Vera Sans', 'Computer Modern Sans Serif', 'Lucida Grande', 'Verdana', 'Geneva', 'Lucid', 'Arial', 'Helvetica', 'Avant Garde', sans-serif; text-anchor: middle" x="260.057991" y="260.236562" transform="rotate(-0 260.057991 260.236562)">40</text>
     </g>
    </g>
    <g id="xtick_4">
     <g id="line2d_7">
      <path d="M 353.448406 246.397969 
L 353.448406 23.077969 
" clip-path="url(#p6d960f1954)" style="fill: none; stroke: #b0b0b0; stroke-opacity: 0.22; stroke-width: 0.8; stroke-linecap: square"/>
     </g>
     <g id="line2d_8">
      <g>
       <use xlink:href="#m38d877001b" x="353.448406" y="246.397969" style="stroke: #000000; stroke-width: 0.8"/>
      </g>
     </g>
     <g id="text_4">
      <text style="font-size: 9px; font-family: 'DejaVu Sans', 'Bitstream Vera Sans', 'Computer Modern Sans Serif', 'Lucida Grande', 'Verdana', 'Geneva', 'Lucid', 'Arial', 'Helvetica', 'Avant Garde', sans-serif; text-anchor: middle" x="353.448406" y="260.236562" transform="rotate(-0 353.448406 260.236562)">60</text>
     </g>
    </g>
    <g id="xtick_5">
     <g id="line2d_9">
      <path d="M 446.838822 246.397969 
L 446.838822 23.077969 
" clip-path="url(#p6d960f1954)" style="fill: none; stroke: #b0b0b0; stroke-opacity: 0.22; stroke-width: 0.8; stroke-linecap: square"/>
     </g>
     <g id="line2d_10">
      <g>
       <use xlink:href="#m38d877001b" x="446.838822" y="246.397969" style="stroke: #000000; stroke-width: 0.8"/>
      </g>
     </g>
     <g id="text_5">
      <text style="font-size: 9px; font-family: 'DejaVu Sans', 'Bitstream Vera Sans', 'Computer Modern Sans Serif', 'Lucida Grande', 'Verdana', 'Geneva', 'Lucid', 'Arial', 'Helvetica', 'Avant Garde', sans-serif; text-anchor: middle" x="446.838822" y="260.236562" transform="rotate(-0 446.838822 260.236562)">80</text>
     </g>
    </g>
    <g id="xtick_6">
     <g id="line2d_11">
      <path d="M 540.229238 246.397969 
L 540.229238 23.077969 
" clip-path="url(#p6d960f1954)" style="fill: none; stroke: #b0b0b0; stroke-opacity: 0.22; stroke-width: 0.8; stroke-linecap: square"/>
     </g>
     <g id="line2d_12">
      <g>
       <use xlink:href="#m38d877001b" x="540.229238" y="246.397969" style="stroke: #000000; stroke-width: 0.8"/>
      </g>
     </g>
     <g id="text_6">
      <text style="font-size: 9px; font-family: 'DejaVu Sans', 'Bitstream Vera Sans', 'Computer Modern Sans Serif', 'Lucida Grande', 'Verdana', 'Geneva', 'Lucid', 'Arial', 'Helvetica', 'Avant Garde', sans-serif; text-anchor: middle" x="540.229238" y="260.236562" transform="rotate(-0 540.229238 260.236562)">100</text>
     </g>
    </g>
    <g id="xtick_7">
     <g id="line2d_13">
      <path d="M 633.619654 246.397969 
L 633.619654 23.077969 
" clip-path="url(#p6d960f1954)" style="fill: none; stroke: #b0b0b0; stroke-opacity: 0.22; stroke-width: 0.8; stroke-linecap: square"/>
     </g>
     <g id="line2d_14">
      <g>
       <use xlink:href="#m38d877001b" x="633.619654" y="246.397969" style="stroke: #000000; stroke-width: 0.8"/>
      </g>
     </g>
     <g id="text_7">
      <text style="font-size: 9px; font-family: 'DejaVu Sans', 'Bitstream Vera Sans', 'Computer Modern Sans Serif', 'Lucida Grande', 'Verdana', 'Geneva', 'Lucid', 'Arial', 'Helvetica', 'Avant Garde', sans-serif; text-anchor: middle" x="633.619654" y="260.236562" transform="rotate(-0 633.619654 260.236562)">120</text>
     </g>
    </g>
    <g id="text_8">
     <text style="font-size: 11px; font-family: 'DejaVu Sans', 'Bitstream Vera Sans', 'Computer Modern Sans Serif', 'Lucida Grande', 'Verdana', 'Geneva', 'Lucid', 'Arial', 'Helvetica', 'Avant Garde', sans-serif; text-anchor: middle" x="374.46125" y="274.466562" transform="rotate(-0 374.46125 274.466562)">Decode step</text>
    </g>
   </g>
   <g id="matplotlib.axis_2">
    <g id="ytick_1">
     <g id="line2d_15">
      <path d="M 43.15875 246.397969 
L 705.76375 246.397969 
" clip-path="url(#p6d960f1954)" style="fill: none; stroke: #b0b0b0; stroke-opacity: 0.22; stroke-width: 0.8; stroke-linecap: square"/>
     </g>
     <g id="line2d_16">
      <defs>
       <path id="m44a9518ae2" d="M 0 0 
L -3.5 0 
" style="stroke: #000000; stroke-width: 0.8"/>
      </defs>
      <g>
       <use xlink:href="#m44a9518ae2" x="43.15875" y="246.397969" style="stroke: #000000; stroke-width: 0.8"/>
      </g>
     </g>
     <g id="text_9">
      <text style="font-size: 9px; font-family: 'DejaVu Sans', 'Bitstream Vera Sans', 'Computer Modern Sans Serif', 'Lucida Grande', 'Verdana', 'Geneva', 'Lucid', 'Arial', 'Helvetica', 'Avant Garde', sans-serif; text-anchor: end" x="36.15875" y="249.817266" transform="rotate(-0 36.15875 249.817266)">0.0</text>
     </g>
    </g>
    <g id="ytick_2">
     <g id="line2d_17">
      <path d="M 43.15875 203.860826 
L 705.76375 203.860826 
" clip-path="url(#p6d960f1954)" style="fill: none; stroke: #b0b0b0; stroke-opacity: 0.22; stroke-width: 0.8; stroke-linecap: square"/>
     </g>
     <g id="line2d_18">
      <g>
       <use xlink:href="#m44a9518ae2" x="43.15875" y="203.860826" style="stroke: #000000; stroke-width: 0.8"/>
      </g>
     </g>
     <g id="text_10">
      <text style="font-size: 9px; font-family: 'DejaVu Sans', 'Bitstream Vera Sans', 'Computer Modern Sans Serif', 'Lucida Grande', 'Verdana', 'Geneva', 'Lucid', 'Arial', 'Helvetica', 'Avant Garde', sans-serif; text-anchor: end" x="36.15875" y="207.280123" transform="rotate(-0 36.15875 207.280123)">0.2</text>
     </g>
    </g>
    <g id="ytick_3">
     <g id="line2d_19">
      <path d="M 43.15875 161.323683 
L 705.76375 161.323683 
" clip-path="url(#p6d960f1954)" style="fill: none; stroke: #b0b0b0; stroke-opacity: 0.22; stroke-width: 0.8; stroke-linecap: square"/>
     </g>
     <g id="line2d_20">
      <g>
       <use xlink:href="#m44a9518ae2" x="43.15875" y="161.323683" style="stroke: #000000; stroke-width: 0.8"/>
      </g>
     </g>
     <g id="text_11">
      <text style="font-size: 9px; font-family: 'DejaVu Sans', 'Bitstream Vera Sans', 'Computer Modern Sans Serif', 'Lucida Grande', 'Verdana', 'Geneva', 'Lucid', 'Arial', 'Helvetica', 'Avant Garde', sans-serif; text-anchor: end" x="36.15875" y="164.74298" transform="rotate(-0 36.15875 164.74298)">0.4</text>
     </g>
    </g>
    <g id="ytick_4">
     <g id="line2d_21">
      <path d="M 43.15875 118.78654 
L 705.76375 118.78654 
" clip-path="url(#p6d960f1954)" style="fill: none; stroke: #b0b0b0; stroke-opacity: 0.22; stroke-width: 0.8; stroke-linecap: square"/>
     </g>
     <g id="line2d_22">
      <g>
       <use xlink:href="#m44a9518ae2" x="43.15875" y="118.78654" style="stroke: #000000; stroke-width: 0.8"/>
      </g>
     </g>
     <g id="text_12">
      <text style="font-size: 9px; font-family: 'DejaVu Sans', 'Bitstream Vera Sans', 'Computer Modern Sans Serif', 'Lucida Grande', 'Verdana', 'Geneva', 'Lucid', 'Arial', 'Helvetica', 'Avant Garde', sans-serif; text-anchor: end" x="36.15875" y="122.205837" transform="rotate(-0 36.15875 122.205837)">0.6</text>
     </g>
    </g>
    <g id="ytick_5">
     <g id="line2d_23">
      <path d="M 43.15875 76.249397 
L 705.76375 76.249397 
" clip-path="url(#p6d960f1954)" style="fill: none; stroke: #b0b0b0; stroke-opacity: 0.22; stroke-width: 0.8; stroke-linecap: square"/>
     </g>
     <g id="line2d_24">
      <g>
       <use xlink:href="#m44a9518ae2" x="43.15875" y="76.249397" style="stroke: #000000; stroke-width: 0.8"/>
      </g>
     </g>
     <g id="text_13">
      <text style="font-size: 9px; font-family: 'DejaVu Sans', 'Bitstream Vera Sans', 'Computer Modern Sans Serif', 'Lucida Grande', 'Verdana', 'Geneva', 'Lucid', 'Arial', 'Helvetica', 'Avant Garde', sans-serif; text-anchor: end" x="36.15875" y="79.668694" transform="rotate(-0 36.15875 79.668694)">0.8</text>
     </g>
    </g>
    <g id="ytick_6">
     <g id="line2d_25">
      <path d="M 43.15875 33.712254 
L 705.76375 33.712254 
" clip-path="url(#p6d960f1954)" style="fill: none; stroke: #b0b0b0; stroke-opacity: 0.22; stroke-width: 0.8; stroke-linecap: square"/>
     </g>
     <g id="line2d_26">
      <g>
       <use xlink:href="#m44a9518ae2" x="43.15875" y="33.712254" style="stroke: #000000; stroke-width: 0.8"/>
      </g>
     </g>
     <g id="text_14">
      <text style="font-size: 9px; font-family: 'DejaVu Sans', 'Bitstream Vera Sans', 'Computer Modern Sans Serif', 'Lucida Grande', 'Verdana', 'Geneva', 'Lucid', 'Arial', 'Helvetica', 'Avant Garde', sans-serif; text-anchor: end" x="36.15875" y="37.131551" transform="rotate(-0 36.15875 37.131551)">1.0</text>
     </g>
    </g>
    <g id="text_15">
     <text style="font-size: 11px; font-family: 'DejaVu Sans', 'Bitstream Vera Sans', 'Computer Modern Sans Serif', 'Lucida Grande', 'Verdana', 'Geneva', 'Lucid', 'Arial', 'Helvetica', 'Avant Garde', sans-serif; text-anchor: middle" x="15.558281" y="134.737969" transform="rotate(-90 15.558281 134.737969)">L2 retained fraction</text>
    </g>
   </g>
   <g id="line2d_27">
    <path d="M 73.277159 33.712254 
L 675.645341 33.712254 
L 675.645341 33.712254 
" clip-path="url(#p6d960f1954)" style="fill: none; stroke: #1f77b4; stroke-opacity: 0.85; stroke-width: 1.5; stroke-linecap: square"/>
   </g>
   <g id="line2d_28">
    <path d="M 73.277159 41.498336 
L 77.94668 33.809573 
L 82.616201 33.712254 
L 87.285721 33.712254 
L 91.955242 33.712254 
L 96.624763 33.712254 
L 101.294284 33.712254 
L 105.963805 33.712254 
L 110.633325 33.712254 
L 115.302846 33.712254 
L 119.972367 33.712254 
L 124.641888 33.712254 
L 129.311409 33.712254 
L 133.980929 33.712254 
L 138.65045 33.712254 
L 143.319971 33.712254 
L 147.989492 33.712254 
L 152.659013 33.712254 
L 157.328533 33.712254 
L 161.998054 33.712254 
L 166.667575 33.712254 
L 171.337096 33.712254 
L 176.006616 33.712254 
L 180.676137 33.712254 
L 185.345658 33.712254 
L 190.015179 33.712254 
L 194.6847 33.712254 
L 199.35422 33.712254 
L 204.023741 33.712254 
L 208.693262 33.712254 
L 213.362783 33.712254 
L 218.032304 33.712254 
L 222.701824 33.712254 
L 227.371345 33.712254 
L 232.040866 33.712254 
L 236.710387 33.712254 
L 241.379908 33.712254 
L 246.049428 33.712254 
L 250.718949 33.712254 
L 255.38847 33.712254 
L 260.057991 33.712254 
L 264.727511 33.712254 
L 269.397032 33.712254 
L 274.066553 34.533681 
L 278.736074 34.528466 
L 283.405595 34.533127 
L 288.075115 34.536129 
L 292.744636 34.527291 
L 297.414157 34.531646 
L 302.083678 34.539915 
L 306.753199 34.529929 
L 311.422719 34.542091 
L 316.09224 34.534677 
L 320.761761 34.53911 
L 325.431282 34.544587 
L 330.100803 34.541468 
L 334.770323 34.532126 
L 339.439844 34.541034 
L 344.109365 34.53563 
L 348.778886 34.544575 
L 353.448406 34.539912 
L 358.117927 34.539594 
L 362.787448 34.530762 
" clip-path="url(#p6d960f1954)" style="fill: none; stroke: #ff7f0e; stroke-opacity: 0.85; stroke-width: 1.5; stroke-linecap: square"/>
   </g>
   <g id="line2d_29">
    <path d="M 73.277159 41.500953 
L 77.94668 33.809473 
L 82.616201 33.712254 
L 87.285721 33.712254 
L 91.955242 33.712254 
L 96.624763 33.712254 
L 101.294284 33.712254 
L 105.963805 33.712254 
L 110.633325 33.712254 
L 115.302846 33.712254 
L 119.972367 33.712254 
L 124.641888 33.712254 
L 129.311409 33.712254 
L 133.980929 33.712254 
L 138.65045 33.712254 
L 143.319971 33.712254 
L 147.989492 33.712254 
L 152.659013 33.712254 
L 157.328533 33.712254 
L 161.998054 33.712254 
L 166.667575 33.712254 
L 171.337096 33.712254 
L 176.006616 33.712254 
L 180.676137 33.712254 
L 185.345658 33.712254 
L 190.015179 33.712254 
L 194.6847 33.712254 
L 199.35422 33.712254 
L 204.023741 33.712254 
L 208.693262 33.712254 
L 213.362783 33.712254 
L 218.032304 33.712254 
L 222.701824 33.712254 
L 227.371345 33.712254 
L 232.040866 33.712254 
L 236.710387 33.712254 
L 241.379908 33.712254 
L 246.049428 33.712254 
L 250.718949 33.712254 
L 255.38847 33.712254 
L 260.057991 33.712254 
L 264.727511 33.712254 
L 269.397032 33.712254 
L 274.066553 34.540758 
L 278.736074 34.536983 
L 283.405595 34.539547 
L 288.075115 34.531903 
L 292.744636 34.535499 
L 297.414157 34.54014 
L 302.083678 34.528658 
L 306.753199 34.534148 
L 311.422719 34.545724 
L 316.09224 34.532629 
L 320.761761 34.539661 
L 325.431282 34.540271 
L 330.100803 34.535988 
L 334.770323 34.535797 
L 339.439844 34.545562 
L 344.109365 34.537896 
L 348.778886 34.533603 
L 353.448406 34.537306 
L 358.117927 34.531254 
L 362.787448 34.549866 
" clip-path="url(#p6d960f1954)" style="fill: none; stroke: #2ca02c; stroke-opacity: 0.85; stroke-width: 1.5; stroke-linecap: square"/>
   </g>
   <g id="line2d_30">
    <path d="M 73.277159 41.496151 
L 77.94668 33.80954 
L 82.616201 33.712254 
L 87.285721 33.712254 
L 91.955242 33.712254 
L 96.624763 33.712254 
L 101.294284 33.712254 
L 105.963805 33.712254 
L 110.633325 33.712254 
L 115.302846 33.712254 
L 119.972367 33.712254 
L 124.641888 33.712254 
L 129.311409 33.712254 
L 133.980929 33.712254 
L 138.65045 33.712254 
L 143.319971 33.712254 
L 147.989492 33.712254 
L 152.659013 33.712254 
L 157.328533 33.712254 
L 161.998054 33.712254 
L 166.667575 33.712254 
L 171.337096 33.712254 
L 176.006616 33.712254 
L 180.676137 33.712254 
L 185.345658 33.712254 
L 190.015179 33.712254 
L 194.6847 33.712254 
L 199.35422 33.712254 
L 204.023741 33.712254 
L 208.693262 33.712254 
L 213.362783 33.712254 
L 218.032304 33.712254 
L 222.701824 33.712254 
L 227.371345 33.712254 
L 232.040866 33.712254 
L 236.710387 33.712254 
L 241.379908 33.712254 
L 246.049428 33.712254 
L 250.718949 33.712254 
L 255.38847 33.712254 
L 260.057991 33.712254 
L 264.727511 33.712254 
L 269.397032 33.712254 
L 274.066553 34.538038 
L 278.736074 34.528021 
L 283.405595 34.538564 
L 288.075115 34.528786 
L 292.744636 34.538683 
L 297.414157 34.540124 
L 302.083678 34.52858 
L 306.753199 34.539746 
L 311.422719 34.533996 
L 316.09224 34.535372 
L 320.761761 34.541238 
L 325.431282 34.542472 
L 330.100803 34.539994 
L 334.770323 34.5323 
L 339.439844 34.544865 
L 344.109365 34.531902 
L 348.778886 34.533834 
L 353.448406 34.542059 
L 358.117927 34.540301 
L 362.787448 34.537911 
" clip-path="url(#p6d960f1954)" style="fill: none; stroke: #d62728; stroke-opacity: 0.85; stroke-width: 1.5; stroke-linecap: square"/>
   </g>
   <g id="line2d_31">
    <path d="M 73.277159 41.492161 
L 77.94668 33.809402 
L 82.616201 33.712254 
L 87.285721 33.712254 
L 91.955242 33.712254 
L 96.624763 33.712254 
L 101.294284 33.712254 
L 105.963805 33.712254 
L 110.633325 33.712254 
L 115.302846 33.712254 
L 119.972367 33.712254 
L 124.641888 33.712254 
L 129.311409 33.712254 
L 133.980929 33.712254 
L 138.65045 33.712254 
L 143.319971 33.712254 
L 147.989492 33.712254 
L 152.659013 33.712254 
L 157.328533 33.712254 
L 161.998054 33.712254 
L 166.667575 33.712254 
L 171.337096 33.712254 
L 176.006616 33.712254 
L 180.676137 33.712254 
L 185.345658 33.712254 
L 190.015179 33.712254 
L 194.6847 33.712254 
L 199.35422 33.712254 
L 204.023741 33.712254 
L 208.693262 33.712254 
L 213.362783 33.712254 
L 218.032304 33.712254 
L 222.701824 33.712254 
L 227.371345 33.712254 
L 232.040866 33.712254 
L 236.710387 33.712254 
L 241.379908 33.712254 
L 246.049428 33.712254 
L 250.718949 33.712254 
L 255.38847 33.712254 
L 260.057991 33.712254 
L 264.727511 33.712254 
L 269.397032 33.712254 
L 274.066553 34.53869 
L 278.736074 34.527005 
L 283.405595 34.527209 
L 288.075115 34.532543 
L 292.744636 34.531152 
L 297.414157 34.528557 
L 302.083678 34.537858 
L 306.753199 34.53758 
L 311.422719 34.537386 
L 316.09224 34.527482 
L 320.761761 34.537971 
L 325.431282 34.528151 
L 330.100803 34.538009 
L 334.770323 34.53953 
" clip-path="url(#p6d960f1954)" style="fill: none; stroke: #9467bd; stroke-opacity: 0.85; stroke-width: 1.5; stroke-linecap: square"/>
   </g>
   <g id="line2d_32">
    <path d="M 73.277159 41.504692 
L 77.94668 33.809494 
L 82.616201 33.712254 
L 87.285721 33.712254 
L 91.955242 33.712254 
L 96.624763 33.712254 
L 101.294284 33.712254 
L 105.963805 33.712254 
L 110.633325 33.712254 
L 115.302846 33.712254 
L 119.972367 33.712254 
L 124.641888 33.712254 
L 129.311409 33.712254 
L 133.980929 33.712254 
L 138.65045 33.712254 
L 143.319971 33.712254 
L 147.989492 33.712254 
L 152.659013 33.712254 
L 157.328533 33.712254 
L 161.998054 33.712254 
L 166.667575 33.712254 
L 171.337096 33.712254 
L 176.006616 33.712254 
L 180.676137 33.712254 
L 185.345658 33.712254 
L 190.015179 33.712254 
L 194.6847 33.712254 
L 199.35422 33.712254 
L 204.023741 33.712254 
L 208.693262 33.712254 
L 213.362783 33.712254 
L 218.032304 33.712254 
L 222.701824 33.712254 
L 227.371345 33.712254 
L 232.040866 33.712254 
L 236.710387 33.712254 
L 241.379908 33.712254 
L 246.049428 33.712254 
L 250.718949 33.712254 
L 255.38847 33.712254 
L 260.057991 33.712254 
L 264.727511 33.712254 
L 269.397032 33.712254 
L 274.066553 34.538038 
L 278.736074 34.528021 
L 283.405595 34.538564 
L 288.075115 34.528786 
L 292.744636 34.538683 
L 297.414157 34.540124 
L 302.083678 34.52858 
L 306.753199 34.539746 
L 311.422719 34.533996 
L 316.09224 34.535372 
L 320.761761 34.541238 
L 325.431282 34.542472 
L 330.100803 34.539994 
L 334.770323 34.5323 
L 339.439844 34.544865 
L 344.109365 34.531902 
L 348.778886 34.533834 
L 353.448406 34.542059 
L 358.117927 34.540301 
L 362.787448 34.537911 
" clip-path="url(#p6d960f1954)" style="fill: none; stroke: #8c564b; stroke-opacity: 0.85; stroke-width: 1.5; stroke-linecap: square"/>
   </g>
   <g id="patch_3">
    <path d="M 43.15875 246.397969 
L 43.15875 23.077969 
" style="fill: none; stroke: #000000; stroke-width: 0.8; stroke-linejoin: miter; stroke-linecap: square"/>
   </g>
   <g id="patch_4">
    <path d="M 705.76375 246.397969 
L 705.76375 23.077969 
" style="fill: none; stroke: #000000; stroke-width: 0.8; stroke-linejoin: miter; stroke-linecap: square"/>
   </g>
   <g id="patch_5">
    <path d="M 43.15875 246.397969 
L 705.76375 246.397969 
" style="fill: none; stroke: #000000; stroke-width: 0.8; stroke-linejoin: miter; stroke-linecap: square"/>
   </g>
   <g id="patch_6">
    <path d="M 43.15875 23.077969 
L 705.76375 23.077969 
" style="fill: none; stroke: #000000; stroke-width: 0.8; stroke-linejoin: miter; stroke-linecap: square"/>
   </g>
   <g id="text_16">
    <text style="font-size: 13px; font-family: 'DejaVu Sans', 'Bitstream Vera Sans', 'Computer Modern Sans Serif', 'Lucida Grande', 'Verdana', 'Geneva', 'Lucid', 'Arial', 'Helvetica', 'Avant Garde', sans-serif; text-anchor: middle" x="374.46125" y="17.077969" transform="rotate(-0 374.46125 17.077969)">Cache L2 retained fraction over decoding</text>
   </g>
   <g id="legend_1">
    <g id="text_17">
     <text style="font-size: 10px; font-family: 'DejaVu Sans', 'Bitstream Vera Sans', 'Computer Modern Sans Serif', 'Lucida Grande', 'Verdana', 'Geneva', 'Lucid', 'Arial', 'Helvetica', 'Avant Garde', sans-serif; text-anchor: start" x="342.601875" y="302.260406" transform="rotate(-0 342.601875 302.260406)">Cache policy</text>
    </g>
    <g id="line2d_33">
     <path d="M 158.491484 312.528687 
L 167.491484 312.528687 
L 176.491484 312.528687 
" style="fill: none; stroke: #1f77b4; stroke-opacity: 0.85; stroke-width: 1.5; stroke-linecap: square"/>
    </g>
    <g id="text_18">
     <text style="font-size: 9px; font-family: 'DejaVu Sans', 'Bitstream Vera Sans', 'Computer Modern Sans Serif', 'Lucida Grande', 'Verdana', 'Geneva', 'Lucid', 'Arial', 'Helvetica', 'Avant Garde', sans-serif; text-anchor: start" x="183.691484" y="315.678687" transform="rotate(-0 183.691484 315.678687)">Baseline</text>
    </g>
    <g id="line2d_34">
     <path d="M 158.491484 325.739 
L 167.491484 325.739 
L 176.491484 325.739 
" style="fill: none; stroke: #ff7f0e; stroke-opacity: 0.85; stroke-width: 1.5; stroke-linecap: square"/>
    </g>
    <g id="text_19">
     <text style="font-size: 9px; font-family: 'DejaVu Sans', 'Bitstream Vera Sans', 'Computer Modern Sans Serif', 'Lucida Grande', 'Verdana', 'Geneva', 'Lucid', 'Arial', 'Helvetica', 'Avant Garde', sans-serif; text-anchor: start" x="183.691484" y="328.889" transform="rotate(-0 183.691484 328.889)">Policy-pinned cache</text>
    </g>
    <g id="line2d_35">
     <path d="M 291.051641 312.528687 
L 300.051641 312.528687 
L 309.051641 312.528687 
" style="fill: none; stroke: #2ca02c; stroke-opacity: 0.85; stroke-width: 1.5; stroke-linecap: square"/>
    </g>
    <g id="text_20">
     <text style="font-size: 9px; font-family: 'DejaVu Sans', 'Bitstream Vera Sans', 'Computer Modern Sans Serif', 'Lucida Grande', 'Verdana', 'Geneva', 'Lucid', 'Arial', 'Helvetica', 'Avant Garde', sans-serif; text-anchor: start" x="316.251641" y="315.678687" transform="rotate(-0 316.251641 315.678687)">Random matched</text>
    </g>
    <g id="line2d_36">
     <path d="M 291.051641 325.739 
L 300.051641 325.739 
L 309.051641 325.739 
" style="fill: none; stroke: #d62728; stroke-opacity: 0.85; stroke-width: 1.5; stroke-linecap: square"/>
    </g>
    <g id="text_21">
     <text style="font-size: 9px; font-family: 'DejaVu Sans', 'Bitstream Vera Sans', 'Computer Modern Sans Serif', 'Lucida Grande', 'Verdana', 'Geneva', 'Lucid', 'Arial', 'Helvetica', 'Avant Garde', sans-serif; text-anchor: start" x="316.251641" y="328.889" transform="rotate(-0 316.251641 328.889)">Sink+recent</text>
    </g>
    <g id="line2d_37">
     <path d="M 414.083047 312.528687 
L 423.083047 312.528687 
L 432.083047 312.528687 
" style="fill: none; stroke: #9467bd; stroke-opacity: 0.85; stroke-width: 1.5; stroke-linecap: square"/>
    </g>
    <g id="text_22">
     <text style="font-size: 9px; font-family: 'DejaVu Sans', 'Bitstream Vera Sans', 'Computer Modern Sans Serif', 'Lucida Grande', 'Verdana', 'Geneva', 'Lucid', 'Arial', 'Helvetica', 'Avant Garde', sans-serif; text-anchor: start" x="439.283047" y="315.678687" transform="rotate(-0 439.283047 315.678687)">Window 128</text>
    </g>
    <g id="line2d_38">
     <path d="M 414.083047 325.739 
L 423.083047 325.739 
L 432.083047 325.739 
" style="fill: none; stroke: #8c564b; stroke-opacity: 0.85; stroke-width: 1.5; stroke-linecap: square"/>
    </g>
    <g id="text_23">
     <text style="font-size: 9px; font-family: 'DejaVu Sans', 'Bitstream Vera Sans', 'Computer Modern Sans Serif', 'Lucida Grande', 'Verdana', 'Geneva', 'Lucid', 'Arial', 'Helvetica', 'Avant Garde', sans-serif; text-anchor: start" x="439.283047" y="328.889" transform="rotate(-0 439.283047 328.889)">user_pinned / budget 128 / sink 8</text>
    </g>
   </g>
  </g>
 </g>
 <defs>
  <clipPath id="p6d960f1954">
   <rect x="43.15875" y="23.077969" width="662.605" height="223.32"/>
  </clipPath>
 </defs>
</svg>
