<?xml version="1.0" encoding="utf-8" standalone="no"?>
<!DOCTYPE svg PUBLIC "-//W3C//DTD SVG 1.1//EN"
  "http://www.w3.org/Graphics/SVG/1.1/DTD/svg11.dtd">
<svg xmlns:xlink="http://www.w3.org/1999/xlink" width="720pt" height="360pt" viewBox="0 0 720 360" xmlns="http://www.w3.org/2000/svg" version="1.1">
 <metadata>
  <rdf:RDF xmlns:dc="http://purl.org/dc/elements/1.1/" xmlns:cc="http://creativecommons.org/ns#" xmlns:rdf="http://www.w3.org/1999/02/22-rdf-syntax-ns#">
   <cc:Work>
    <dc:type rdf:resource="http://purl.org/dc/dcmitype/StillImage"/>
    <dc:date>2026-05-07T03:20:54.176464</dc:date>
    <dc:format>image/svg+xml</dc:format>
    <dc:creator>
     <cc:Agent>
      <dc:title>Matplotlib v3.10.9, https://matplotlib.org/</dc:title>
     </cc:Agent>
    </dc:creator>
   </cc:Work>
  </rdf:RDF>
 </metadata>
 <defs>
  <style type="text/css">*{stroke-linejoin: round; stroke-linecap: butt}</style>
 </defs>
 <g id="figure_1">
  <g id="patch_1">
   <path d="M 0 360 
L 720 360 
L 720 0 
L 0 0 
z
" style="fill: #ffffff"/>
  </g>
  <g id="axes_1">
   <g id="patch_2">
    <path d="M 47.72 318.04 
L 709.2 318.04 
L 709.2 26.88 
L 47.72 26.88 
z
" style="fill: #ffffff"/>
   </g>
   <g id="matplotlib.axis_1">
    <g id="xtick_1">
     <g id="line2d_1">
      <defs>
       <path id="m38d877001b" d="M 0 0 
L 0 3.5 
" style="stroke: #000000; stroke-width: 0.8"/>
      </defs>
      <g>
       <use xlink:href="#m38d877001b" x="77.787273" y="318.04" style="stroke: #000000; stroke-width: 0.8"/>
      </g>
     </g>
     <g id="text_1">
      <text style="font-size: 10px; font-family: 'DejaVu Sans', 'Bitstream Vera Sans', 'Computer Modern Sans Serif', 'Lucida Grande', 'Verdana', 'Geneva', 'Lucid', 'Arial', 'Helvetica', 'Avant Garde', sans-serif; text-anchor: middle" x="77.787273" y="332.638438" transform="rotate(-0 77.787273 332.638438)">0</text>
     </g>
    </g>
    <g id="xtick_2">
     <g id="line2d_2">
      <g>
       <use xlink:href="#m38d877001b" x="201.776026" y="318.04" style="stroke: #000000; stroke-width: 0.8"/>
      </g>
     </g>
     <g id="text_2">
      <text style="font-size: 10px; font-family: 'DejaVu Sans', 'Bitstream Vera Sans', 'Computer Modern Sans Serif', 'Lucida Grande', 'Verdana', 'Geneva', 'Lucid', 'Arial', 'Helvetica', 'Avant Garde', sans-serif; text-anchor: middle" x="201.776026" y="332.638438" transform="rotate(-0 201.776026 332.638438)">20</text>
     </g>
    </g>
    <g id="xtick_3">
     <g id="line2d_3">
      <g>
       <use xlink:href="#m38d877001b" x="325.76478" y="318.04" style="stroke: #000000; stroke-width: 0.8"/>
      </g>
     </g>
     <g id="text_3">
      <text style="font-size: 10px; font-family: 'DejaVu Sans', 'Bitstream Vera Sans', 'Computer Modern Sans Serif', 'Lucida Grande', 'Verdana', 'Geneva', 'Lucid', 'Arial', 'Helvetica', 'Avant Garde', sans-serif; text-anchor: middle" x="325.76478" y="332.638438" transform="rotate(-0 325.76478 332.638438)">40</text>
     </g>
    </g>
    <g id="xtick_4">
     <g id="line2d_4">
      <g>
       <use xlink:href="#m38d877001b" x="449.753533" y="318.04" style="stroke: #000000; stroke-width: 0.8"/>
      </g>
     </g>
     <g id="text_4">
      <text style="font-size: 10px; font-family: 'DejaVu Sans', 'Bitstream Vera Sans', 'Computer Modern Sans Serif', 'Lucida Grande', 'Verdana', 'Geneva', 'Lucid', 'Arial', 'Helvetica', 'Avant Garde', sans-serif; text-anchor: middle" x="449.753533" y="332.638438" transform="rotate(-0 449.753533 332.638438)">60</text>
     </g>
    </g>
    <g id="xtick_5">
     <g id="line2d_5">
      <g>
       <use xlink:href="#m38d877001b" x="573.742287" y="318.04" style="stroke: #000000; stroke-width: 0.8"/>
      </g>
     </g>
     <g id="text_5">
      <text style="font-size: 10px; font-family: 'DejaVu Sans', 'Bitstream Vera Sans', 'Computer Modern Sans Serif', 'Lucida Grande', 'Verdana', 'Geneva', 'Lucid', 'Arial', 'Helvetica', 'Avant Garde', sans-serif; text-anchor: middle" x="573.742287" y="332.638438" transform="rotate(-0 573.742287 332.638438)">80</text>
     </g>
    </g>
    <g id="xtick_6">
     <g id="line2d_6">
      <g>
       <use xlink:href="#m38d877001b" x="697.73104" y="318.04" style="stroke: #000000; stroke-width: 0.8"/>
      </g>
     </g>
     <g id="text_6">
      <text style="font-size: 10px; font-family: 'DejaVu Sans', 'Bitstream Vera Sans', 'Computer Modern Sans Serif', 'Lucida Grande', 'Verdana', 'Geneva', 'Lucid', 'Arial', 'Helvetica', 'Avant Garde', sans-serif; text-anchor: middle" x="697.73104" y="332.638438" transform="rotate(-0 697.73104 332.638438)">100</text>
     </g>
    </g>
    <g id="text_7">
     <text style="font-size: 10px; font-family: 'DejaVu Sans', 'Bitstream Vera Sans', 'Computer Modern Sans Serif', 'Lucida Grande', 'Verdana', 'Geneva', 'Lucid', 'Arial', 'Helvetica', 'Avant Garde', sans-serif; text-anchor: middle" x="378.46" y="346.316563" transform="rotate(-0 378.46 346.316563)">Decode step</text>
    </g>
   </g>
   <g id="matplotlib.axis_2">
    <g id="ytick_1">
     <g id="line2d_7">
      <defs>
       <path id="m44a9518ae2" d="M 0 0 
L -3.5 0 
" style="stroke: #000000; stroke-width: 0.8"/>
      </defs>
      <g>
       <use xlink:href="#m44a9518ae2" x="47.72" y="318.04" style="stroke: #000000; stroke-width: 0.8"/>
      </g>
     </g>
     <g id="text_8">
      <text style="font-size: 10px; font-family: 'DejaVu Sans', 'Bitstream Vera Sans', 'Computer Modern Sans Serif', 'Lucida Grande', 'Verdana', 'Geneva', 'Lucid', 'Arial', 'Helvetica', 'Avant Garde', sans-serif; text-anchor: end" x="40.72" y="321.839219" transform="rotate(-0 40.72 321.839219)">0.0</text>
     </g>
    </g>
    <g id="ytick_2">
     <g id="line2d_8">
      <g>
       <use xlink:href="#m44a9518ae2" x="47.72" y="262.580952" style="stroke: #000000; stroke-width: 0.8"/>
      </g>
     </g>
     <g id="text_9">
      <text style="font-size: 10px; font-family: 'DejaVu Sans', 'Bitstream Vera Sans', 'Computer Modern Sans Serif', 'Lucida Grande', 'Verdana', 'Geneva', 'Lucid', 'Arial', 'Helvetica', 'Avant Garde', sans-serif; text-anchor: end" x="40.72" y="266.380171" transform="rotate(-0 40.72 266.380171)">0.2</text>
     </g>
    </g>
    <g id="ytick_3">
     <g id="line2d_9">
      <g>
       <use xlink:href="#m44a9518ae2" x="47.72" y="207.121905" style="stroke: #000000; stroke-width: 0.8"/>
      </g>
     </g>
     <g id="text_10">
      <text style="font-size: 10px; font-family: 'DejaVu Sans', 'Bitstream Vera Sans', 'Computer Modern Sans Serif', 'Lucida Grande', 'Verdana', 'Geneva', 'Lucid', 'Arial', 'Helvetica', 'Avant Garde', sans-serif; text-anchor: end" x="40.72" y="210.921124" transform="rotate(-0 40.72 210.921124)">0.4</text>
     </g>
    </g>
    <g id="ytick_4">
     <g id="line2d_10">
      <g>
       <use xlink:href="#m44a9518ae2" x="47.72" y="151.662857" style="stroke: #000000; stroke-width: 0.8"/>
      </g>
     </g>
     <g id="text_11">
      <text style="font-size: 10px; font-family: 'DejaVu Sans', 'Bitstream Vera Sans', 'Computer Modern Sans Serif', 'Lucida Grande', 'Verdana', 'Geneva', 'Lucid', 'Arial', 'Helvetica', 'Avant Garde', sans-serif; text-anchor: end" x="40.72" y="155.462076" transform="rotate(-0 40.72 155.462076)">0.6</text>
     </g>
    </g>
    <g id="ytick_5">
     <g id="line2d_11">
      <g>
       <use xlink:href="#m44a9518ae2" x="47.72" y="96.20381" style="stroke: #000000; stroke-width: 0.8"/>
      </g>
     </g>
     <g id="text_12">
      <text style="font-size: 10px; font-family: 'DejaVu Sans', 'Bitstream Vera Sans', 'Computer Modern Sans Serif', 'Lucida Grande', 'Verdana', 'Geneva', 'Lucid', 'Arial', 'Helvetica', 'Avant Garde', sans-serif; text-anchor: end" x="40.72" y="100.003028" transform="rotate(-0 40.72 100.003028)">0.8</text>
     </g>
    </g>
    <g id="ytick_6">
     <g id="line2d_12">
      <g>
       <use xlink:href="#m44a9518ae2" x="47.72" y="40.744762" style="stroke: #000000; stroke-width: 0.8"/>
      </g>
     </g>
     <g id="text_13">
      <text style="font-size: 10px; font-family: 'DejaVu Sans', 'Bitstream Vera Sans', 'Computer Modern Sans Serif', 'Lucida Grande', 'Verdana', 'Geneva', 'Lucid', 'Arial', 'Helvetica', 'Avant Garde', sans-serif; text-anchor: end" x="40.72" y="44.543981" transform="rotate(-0 40.72 44.543981)">1.0</text>
     </g>
    </g>
    <g id="text_14">
     <text style="font-size: 10px; font-family: 'DejaVu Sans', 'Bitstream Vera Sans', 'Computer Modern Sans Serif', 'Lucida Grande', 'Verdana', 'Geneva', 'Lucid', 'Arial', 'Helvetica', 'Avant Garde', sans-serif; text-anchor: middle" x="18.737188" y="172.46" transform="rotate(-90 18.737188 172.46)">L2 retained fraction</text>
    </g>
   </g>
   <g id="line2d_13">
    <path d="M 77.787273 40.744762 
L 83.98671 40.744762 
L 90.186148 40.744762 
L 96.385586 40.744762 
L 102.585023 40.744762 
L 108.784461 40.744762 
L 114.983899 40.744762 
L 121.183336 40.744762 
L 127.382774 40.744762 
L 133.582212 40.744762 
L 139.781649 40.744762 
L 145.981087 40.744762 
L 152.180525 40.744762 
L 158.379963 40.744762 
L 164.5794 40.744762 
L 170.778838 40.744762 
L 176.978276 40.744762 
L 183.177713 40.744762 
L 189.377151 40.744762 
L 195.576589 40.744762 
L 201.776026 40.744762 
L 207.975464 40.744762 
L 214.174902 40.744762 
L 220.374339 40.744762 
L 226.573777 40.744762 
L 232.773215 40.744762 
L 238.972652 40.744762 
L 245.17209 40.744762 
L 251.371528 40.744762 
L 257.570965 40.744762 
L 263.770403 40.744762 
L 269.969841 40.744762 
L 276.169278 40.744762 
L 282.368716 40.744762 
L 288.568154 40.744762 
L 294.767591 40.744762 
L 300.967029 40.744762 
L 307.166467 40.744762 
L 313.365904 40.744762 
L 319.565342 40.744762 
L 325.76478 40.744762 
L 331.964217 40.744762 
L 338.163655 40.744762 
L 344.363093 40.744762 
L 350.56253 40.744762 
L 356.761968 40.744762 
L 362.961406 40.744762 
L 369.160843 40.744762 
L 375.360281 40.744762 
L 381.559719 40.744762 
L 387.759157 40.744762 
L 393.958594 40.744762 
L 400.158032 40.744762 
L 406.35747 40.744762 
L 412.556907 40.744762 
L 418.756345 40.744762 
L 424.955783 40.744762 
L 431.15522 40.744762 
L 437.354658 40.744762 
L 443.554096 40.744762 
L 449.753533 40.744762 
L 455.952971 40.744762 
L 462.152409 40.744762 
L 468.351846 40.744762 
L 474.551284 40.744762 
L 480.750722 40.744762 
L 486.950159 40.744762 
L 493.149597 40.744762 
L 499.349035 40.744762 
L 505.548472 40.744762 
L 511.74791 40.744762 
L 517.947348 40.744762 
L 524.146785 40.744762 
L 530.346223 40.744762 
L 536.545661 40.744762 
L 542.745098 40.744762 
L 548.944536 40.744762 
L 555.143974 40.744762 
L 561.343411 40.744762 
L 567.542849 40.744762 
L 573.742287 40.744762 
L 579.941724 40.744762 
L 586.141162 40.744762 
L 592.3406 40.744762 
L 598.540037 40.744762 
L 604.739475 40.744762 
L 610.938913 40.744762 
L 617.138351 40.744762 
L 623.337788 40.744762 
L 629.537226 40.744762 
L 635.736664 40.744762 
L 641.936101 40.744762 
L 648.135539 40.744762 
L 654.334977 40.744762 
L 660.534414 40.744762 
L 666.733852 40.744762 
L 672.93329 40.744762 
L 679.132727 40.744762 
" clip-path="url(#p27794e1188)" style="fill: none; stroke: #1f77b4; stroke-opacity: 0.85; stroke-width: 1.5; stroke-linecap: square"/>
   </g>
   <g id="line2d_14">
    <path d="M 77.787273 40.744762 
L 83.98671 40.744762 
L 90.186148 40.744762 
L 96.385586 40.744762 
L 102.585023 40.744762 
L 108.784461 40.744762 
L 114.983899 40.744762 
L 121.183336 40.744762 
L 127.382774 40.744762 
L 133.582212 40.744762 
L 139.781649 40.744762 
L 145.981087 40.744762 
L 152.180525 40.744762 
L 158.379963 40.744762 
L 164.5794 40.744762 
L 170.778838 40.744762 
L 176.978276 40.744762 
L 183.177713 40.744762 
L 189.377151 40.744762 
L 195.576589 40.744762 
L 201.776026 40.744762 
L 207.975464 40.744762 
L 214.174902 40.744762 
L 220.374339 40.744762 
L 226.573777 40.744762 
L 232.773215 40.744762 
L 238.972652 40.744762 
L 245.17209 40.744762 
L 251.371528 40.744762 
L 257.570965 40.744762 
L 263.770403 40.744762 
L 269.969841 40.744762 
L 276.169278 40.744762 
L 282.368716 40.744762 
L 288.568154 40.744762 
L 294.767591 40.744762 
L 300.967029 40.744762 
L 307.166467 40.744762 
L 313.365904 40.744762 
L 319.565342 40.744762 
L 325.76478 40.744762 
L 331.964217 40.744762 
L 338.163655 40.744762 
L 344.363093 40.744762 
L 350.56253 40.744762 
L 356.761968 40.744762 
L 362.961406 40.960421 
L 369.160843 40.957345 
L 375.360281 41.176241 
L 381.559719 41.169692 
L 387.759157 41.176135 
L 393.958594 41.172597 
L 400.158032 41.172254 
L 406.35747 41.176795 
L 412.556907 41.170736 
L 418.756345 41.175726 
L 424.955783 41.17422 
L 431.15522 41.174907 
L 437.354658 41.1754 
L 443.554096 41.172915 
L 449.753533 41.175884 
L 455.952971 41.16969 
L 462.152409 41.173782 
L 468.351846 41.173083 
L 474.551284 41.173676 
L 480.750722 41.176037 
L 486.950159 41.172662 
L 493.149597 41.174693 
L 499.349035 41.172078 
L 505.548472 41.389433 
L 511.74791 41.384971 
L 517.947348 41.3922 
L 524.146785 41.386703 
L 530.346223 41.390695 
L 536.545661 41.391724 
L 542.745098 41.384759 
L 548.944536 41.391183 
L 555.143974 41.387285 
L 561.343411 41.389192 
L 567.542849 41.548018 
L 573.742287 41.552223 
L 579.941724 41.54307 
L 586.141162 41.547612 
L 592.3406 41.547299 
L 598.540037 41.544149 
L 604.739475 41.549703 
L 610.938913 41.462795 
L 617.138351 41.458996 
L 623.337788 41.460759 
L 629.537226 41.454475 
L 635.736664 41.456177 
L 641.936101 41.461105 
L 648.135539 41.459158 
L 654.334977 41.453625 
L 660.534414 41.461334 
L 666.733852 41.457764 
L 672.93329 41.457975 
L 679.132727 41.457732 
" clip-path="url(#p27794e1188)" style="fill: none; stroke: #ff7f0e; stroke-opacity: 0.85; stroke-width: 1.5; stroke-linecap: square"/>
   </g>
   <g id="line2d_15">
    <path d="M 77.787273 40.744762 
L 83.98671 40.744762 
L 90.186148 40.744762 
L 96.385586 40.744762 
L 102.585023 40.744762 
L 108.784461 40.744762 
L 114.983899 40.744762 
L 121.183336 40.744762 
L 127.382774 40.744762 
L 133.582212 40.744762 
L 139.781649 40.744762 
L 145.981087 40.744762 
L 152.180525 40.744762 
L 158.379963 40.744762 
L 164.5794 40.744762 
L 170.778838 40.744762 
L 176.978276 40.744762 
L 183.177713 40.744762 
L 189.377151 40.744762 
L 195.576589 40.744762 
L 201.776026 40.744762 
L 207.975464 40.744762 
L 214.174902 40.744762 
L 220.374339 40.744762 
L 226.573777 40.744762 
L 232.773215 40.744762 
L 238.972652 40.744762 
L 245.17209 40.744762 
L 251.371528 40.744762 
L 257.570965 40.744762 
L 263.770403 40.744762 
L 269.969841 40.744762 
L 276.169278 40.744762 
L 282.368716 40.744762 
L 288.568154 40.744762 
L 294.767591 40.744762 
L 300.967029 40.744762 
L 307.166467 40.744762 
L 313.365904 40.744762 
L 319.565342 40.744762 
L 325.76478 40.744762 
L 331.964217 40.744762 
L 338.163655 40.744762 
L 344.363093 40.744762 
L 350.56253 40.744762 
L 356.761968 40.744762 
L 362.961406 40.956352 
L 369.160843 40.958367 
L 375.360281 41.168744 
L 381.559719 41.173301 
L 387.759157 41.170926 
L 393.958594 41.172544 
L 400.158032 41.174155 
L 406.35747 41.172313 
L 412.556907 41.175823 
L 418.756345 41.171807 
L 424.955783 41.175816 
L 431.15522 41.169221 
L 437.354658 41.175681 
L 443.554096 41.172098 
L 449.753533 41.17177 
L 455.952971 41.17624 
L 462.152409 41.170168 
L 468.351846 41.175143 
L 474.551284 41.173591 
L 480.750722 41.174298 
L 486.950159 41.174758 
L 493.149597 41.172283 
L 499.349035 41.175255 
L 505.548472 41.379266 
L 511.74791 41.386268 
L 517.947348 41.383983 
L 524.146785 41.387316 
L 530.346223 41.388119 
L 536.545661 41.384258 
L 542.745098 41.389057 
L 548.944536 41.385494 
L 555.143974 41.388532 
L 561.343411 41.384065 
L 567.542849 41.552938 
L 573.742287 41.546086 
L 579.941724 41.551072 
L 586.141162 41.552368 
L 592.3406 41.543686 
L 598.540037 41.551709 
L 604.739475 41.546896 
L 610.938913 41.549309 
L 617.138351 41.547054 
L 623.337788 41.55127 
L 629.537226 41.542107 
L 635.736664 41.546656 
L 641.936101 41.546299 
L 648.135539 41.543179 
L 654.334977 41.548595 
L 660.534414 41.548031 
L 666.733852 41.549396 
L 672.93329 41.550536 
L 679.132727 41.542381 
" clip-path="url(#p27794e1188)" style="fill: none; stroke: #2ca02c; stroke-opacity: 0.85; stroke-width: 1.5; stroke-linecap: square"/>
   </g>
   <g id="patch_3">
    <path d="M 47.72 318.04 
L 47.72 26.88 
" style="fill: none; stroke: #000000; stroke-width: 0.8; stroke-linejoin: miter; stroke-linecap: square"/>
   </g>
   <g id="patch_4">
    <path d="M 709.2 318.04 
L 709.2 26.88 
" style="fill: none; stroke: #000000; stroke-width: 0.8; stroke-linejoin: miter; stroke-linecap: square"/>
   </g>
   <g id="patch_5">
    <path d="M 47.72 318.04 
L 709.2 318.04 
" style="fill: none; stroke: #000000; stroke-width: 0.8; stroke-linejoin: miter; stroke-linecap: square"/>
   </g>
   <g id="patch_6">
    <path d="M 47.72 26.88 
L 709.2 26.88 
" style="fill: none; stroke: #000000; stroke-width: 0.8; stroke-linejoin: miter; stroke-linecap: square"/>
   </g>
   <g id="text_15">
    <text style="font-size: 12px; font-family: 'DejaVu Sans', 'Bitstream Vera Sans', 'Computer Modern Sans Serif', 'Lucida Grande', 'Verdana', 'Geneva', 'Lucid', 'Arial', 'Helvetica', 'Avant Garde', sans-serif; text-anchor: middle" x="378.46" y="20.88" transform="rotate(-0 378.46 20.88)">Cache L2 Retained Fraction Over Decoding</text>
   </g>
   <g id="legend_1">
    <g id="patch_7">
     <path d="M 54.72 313.04 
L 244.805937 313.04 
Q 246.805937 313.04 246.805937 311.04 
L 246.805937 267.449375 
Q 246.805937 265.449375 244.805937 265.449375 
L 54.72 265.449375 
Q 52.72 265.449375 52.72 267.449375 
L 52.72 311.04 
Q 52.72 313.04 54.72 313.04 
z
" style="fill: #ffffff; opacity: 0.8; stroke: #cccccc; stroke-linejoin: miter"/>
    </g>
    <g id="line2d_16">
     <path d="M 56.72 273.547813 
L 66.72 273.547813 
L 76.72 273.547813 
" style="fill: none; stroke: #1f77b4; stroke-opacity: 0.85; stroke-width: 1.5; stroke-linecap: square"/>
    </g>
    <g id="text_16">
     <text style="font-size: 10px; font-family: 'DejaVu Sans', 'Bitstream Vera Sans', 'Computer Modern Sans Serif', 'Lucida Grande', 'Verdana', 'Geneva', 'Lucid', 'Arial', 'Helvetica', 'Avant Garde', sans-serif; text-anchor: start" x="84.72" y="277.047813" transform="rotate(-0 84.72 277.047813)">none</text>
    </g>
    <g id="line2d_17">
     <path d="M 56.72 288.225937 
L 66.72 288.225937 
L 76.72 288.225937 
" style="fill: none; stroke: #ff7f0e; stroke-opacity: 0.85; stroke-width: 1.5; stroke-linecap: square"/>
    </g>
    <g id="text_17">
     <text style="font-size: 10px; font-family: 'DejaVu Sans', 'Bitstream Vera Sans', 'Computer Modern Sans Serif', 'Lucida Grande', 'Verdana', 'Geneva', 'Lucid', 'Arial', 'Helvetica', 'Avant Garde', sans-serif; text-anchor: start" x="84.72" y="291.725937" transform="rotate(-0 84.72 291.725937)">sink_recent__budget128__sink8</text>
    </g>
    <g id="line2d_18">
     <path d="M 56.72 303.182187 
L 66.72 303.182187 
L 76.72 303.182187 
" style="fill: none; stroke: #2ca02c; stroke-opacity: 0.85; stroke-width: 1.5; stroke-linecap: square"/>
    </g>
    <g id="text_18">
     <text style="font-size: 10px; font-family: 'DejaVu Sans', 'Bitstream Vera Sans', 'Computer Modern Sans Serif', 'Lucida Grande', 'Verdana', 'Geneva', 'Lucid', 'Arial', 'Helvetica', 'Avant Garde', sans-serif; text-anchor: start" x="84.72" y="306.682187" transform="rotate(-0 84.72 306.682187)">sliding_window__budget128</text>
    </g>
   </g>
  </g>
 </g>
 <defs>
  <clipPath id="p27794e1188">
   <rect x="47.72" y="26.88" width="661.48" height="291.16"/>
  </clipPath>
 </defs>
</svg>
