<?xml version="1.0" encoding="utf-8" standalone="no"?>
<!DOCTYPE svg PUBLIC "-//W3C//DTD SVG 1.1//EN"
  "http://www.w3.org/Graphics/SVG/1.1/DTD/svg11.dtd">
<svg xmlns:xlink="http://www.w3.org/1999/xlink" width="720pt" height="360pt" viewBox="0 0 720 360" xmlns="http://www.w3.org/2000/svg" version="1.1">
 <metadata>
  <rdf:RDF xmlns:dc="http://purl.org/dc/elements/1.1/" xmlns:cc="http://creativecommons.org/ns#" xmlns:rdf="http://www.w3.org/1999/02/22-rdf-syntax-ns#">
   <cc:Work>
    <dc:type rdf:resource="http://purl.org/dc/dcmitype/StillImage"/>
    <dc:date>2026-05-07T22:43:57.617770</dc:date>
    <dc:format>image/svg+xml</dc:format>
    <dc:creator>
     <cc:Agent>
      <dc:title>Matplotlib v3.10.9, https://matplotlib.org/</dc:title>
     </cc:Agent>
    </dc:creator>
   </cc:Work>
  </rdf:RDF>
 </metadata>
 <defs>
  <style type="text/css">*{stroke-linejoin: round; stroke-linecap: butt}</style>
 </defs>
 <g id="figure_1">
  <g id="patch_1">
   <path d="M 0 360 
L 720 360 
L 720 0 
L 0 0 
z
" style="fill: #ffffff"/>
  </g>
  <g id="axes_1">
   <g id="patch_2">
    <path d="M 47.82125 216.387779 
L 661.753353 216.387779 
L 661.753353 26.88 
L 47.82125 26.88 
z
" style="fill: #ffffff"/>
   </g>
   <g id="matplotlib.axis_1">
    <g id="xtick_1">
     <g id="line2d_1">
      <defs>
       <path id="m38d877001b" d="M 0 0 
L 0 3.5 
" style="stroke: #000000; stroke-width: 0.8"/>
      </defs>
      <g>
       <use xlink:href="#m38d877001b" x="75.727255" y="216.387779" style="stroke: #000000; stroke-width: 0.8"/>
      </g>
     </g>
     <g id="text_1">
      <text style="font-size: 10px; font-family: 'DejaVu Sans', 'Bitstream Vera Sans', 'Computer Modern Sans Serif', 'Lucida Grande', 'Verdana', 'Geneva', 'Lucid', 'Arial', 'Helvetica', 'Avant Garde', sans-serif" transform="translate(66.304628 242.441656) rotate(-30)">none</text>
     </g>
    </g>
    <g id="xtick_2">
     <g id="line2d_2">
      <g>
       <use xlink:href="#m38d877001b" x="187.351273" y="216.387779" style="stroke: #000000; stroke-width: 0.8"/>
      </g>
     </g>
     <g id="text_2">
      <text style="font-size: 10px; font-family: 'DejaVu Sans', 'Bitstream Vera Sans', 'Computer Modern Sans Serif', 'Lucida Grande', 'Verdana', 'Geneva', 'Lucid', 'Arial', 'Helvetica', 'Avant Garde', sans-serif" transform="translate(115.150758 314.851031) rotate(-30)">policy_pinned__budget128__sink8</text>
     </g>
    </g>
    <g id="xtick_3">
     <g id="line2d_3">
      <g>
       <use xlink:href="#m38d877001b" x="298.975292" y="216.387779" style="stroke: #000000; stroke-width: 0.8"/>
      </g>
     </g>
     <g id="text_3">
      <text style="font-size: 10px; font-family: 'DejaVu Sans', 'Bitstream Vera Sans', 'Computer Modern Sans Serif', 'Lucida Grande', 'Verdana', 'Geneva', 'Lucid', 'Arial', 'Helvetica', 'Avant Garde', sans-serif" transform="translate(211.341933 332.671344) rotate(-30)">random_matched__budget128__seed991</text>
     </g>
    </g>
    <g id="xtick_4">
     <g id="line2d_4">
      <g>
       <use xlink:href="#m38d877001b" x="410.599311" y="216.387779" style="stroke: #000000; stroke-width: 0.8"/>
      </g>
     </g>
     <g id="text_4">
      <text style="font-size: 10px; font-family: 'DejaVu Sans', 'Bitstream Vera Sans', 'Computer Modern Sans Serif', 'Lucida Grande', 'Verdana', 'Geneva', 'Lucid', 'Arial', 'Helvetica', 'Avant Garde', sans-serif" transform="translate(343.456248 309.011188) rotate(-30)">sink_recent__budget128__sink8</text>
     </g>
    </g>
    <g id="xtick_5">
     <g id="line2d_5">
      <g>
       <use xlink:href="#m38d877001b" x="522.223329" y="216.387779" style="stroke: #000000; stroke-width: 0.8"/>
      </g>
     </g>
     <g id="text_5">
      <text style="font-size: 10px; font-family: 'DejaVu Sans', 'Bitstream Vera Sans', 'Computer Modern Sans Serif', 'Lucida Grande', 'Verdana', 'Geneva', 'Lucid', 'Arial', 'Helvetica', 'Avant Garde', sans-serif" transform="translate(462.885321 299.998688) rotate(-30)">sliding_window__budget128</text>
     </g>
    </g>
    <g id="xtick_6">
     <g id="line2d_6">
      <g>
       <use xlink:href="#m38d877001b" x="633.847348" y="216.387779" style="stroke: #000000; stroke-width: 0.8"/>
      </g>
     </g>
     <g id="text_6">
      <text style="font-size: 10px; font-family: 'DejaVu Sans', 'Bitstream Vera Sans', 'Computer Modern Sans Serif', 'Lucida Grande', 'Verdana', 'Geneva', 'Lucid', 'Arial', 'Helvetica', 'Avant Garde', sans-serif" transform="translate(564.950584 311.036188) rotate(-30)">user_pinned__budget128__sink8</text>
     </g>
    </g>
    <g id="text_7">
     <text style="font-size: 10px; font-family: 'DejaVu Sans', 'Bitstream Vera Sans', 'Computer Modern Sans Serif', 'Lucida Grande', 'Verdana', 'Geneva', 'Lucid', 'Arial', 'Helvetica', 'Avant Garde', sans-serif; text-anchor: middle" x="354.787301" y="346.311707" transform="rotate(-0 354.787301 346.311707)">Cache policy</text>
    </g>
   </g>
   <g id="matplotlib.axis_2">
    <g id="ytick_1">
     <g id="line2d_7">
      <defs>
       <path id="m44a9518ae2" d="M 0 0 
L -3.5 0 
" style="stroke: #000000; stroke-width: 0.8"/>
      </defs>
      <g>
       <use xlink:href="#m44a9518ae2" x="47.82125" y="207.773789" style="stroke: #000000; stroke-width: 0.8"/>
      </g>
     </g>
     <g id="text_8">
      <text style="font-size: 10px; font-family: 'DejaVu Sans', 'Bitstream Vera Sans', 'Computer Modern Sans Serif', 'Lucida Grande', 'Verdana', 'Geneva', 'Lucid', 'Arial', 'Helvetica', 'Avant Garde', sans-serif; text-anchor: end" x="40.82125" y="211.573008" transform="rotate(-0 40.82125 211.573008)">0.0</text>
     </g>
    </g>
    <g id="ytick_2">
     <g id="line2d_8">
      <g>
       <use xlink:href="#m44a9518ae2" x="47.82125" y="173.317829" style="stroke: #000000; stroke-width: 0.8"/>
      </g>
     </g>
     <g id="text_9">
      <text style="font-size: 10px; font-family: 'DejaVu Sans', 'Bitstream Vera Sans', 'Computer Modern Sans Serif', 'Lucida Grande', 'Verdana', 'Geneva', 'Lucid', 'Arial', 'Helvetica', 'Avant Garde', sans-serif; text-anchor: end" x="40.82125" y="177.117048" transform="rotate(-0 40.82125 177.117048)">0.2</text>
     </g>
    </g>
    <g id="ytick_3">
     <g id="line2d_9">
      <g>
       <use xlink:href="#m44a9518ae2" x="47.82125" y="138.861869" style="stroke: #000000; stroke-width: 0.8"/>
      </g>
     </g>
     <g id="text_10">
      <text style="font-size: 10px; font-family: 'DejaVu Sans', 'Bitstream Vera Sans', 'Computer Modern Sans Serif', 'Lucida Grande', 'Verdana', 'Geneva', 'Lucid', 'Arial', 'Helvetica', 'Avant Garde', sans-serif; text-anchor: end" x="40.82125" y="142.661088" transform="rotate(-0 40.82125 142.661088)">0.4</text>
     </g>
    </g>
    <g id="ytick_4">
     <g id="line2d_10">
      <g>
       <use xlink:href="#m44a9518ae2" x="47.82125" y="104.40591" style="stroke: #000000; stroke-width: 0.8"/>
      </g>
     </g>
     <g id="text_11">
      <text style="font-size: 10px; font-family: 'DejaVu Sans', 'Bitstream Vera Sans', 'Computer Modern Sans Serif', 'Lucida Grande', 'Verdana', 'Geneva', 'Lucid', 'Arial', 'Helvetica', 'Avant Garde', sans-serif; text-anchor: end" x="40.82125" y="108.205128" transform="rotate(-0 40.82125 108.205128)">0.6</text>
     </g>
    </g>
    <g id="ytick_5">
     <g id="line2d_11">
      <g>
       <use xlink:href="#m44a9518ae2" x="47.82125" y="69.94995" style="stroke: #000000; stroke-width: 0.8"/>
      </g>
     </g>
     <g id="text_12">
      <text style="font-size: 10px; font-family: 'DejaVu Sans', 'Bitstream Vera Sans', 'Computer Modern Sans Serif', 'Lucida Grande', 'Verdana', 'Geneva', 'Lucid', 'Arial', 'Helvetica', 'Avant Garde', sans-serif; text-anchor: end" x="40.82125" y="73.749168" transform="rotate(-0 40.82125 73.749168)">0.8</text>
     </g>
    </g>
    <g id="ytick_6">
     <g id="line2d_12">
      <g>
       <use xlink:href="#m44a9518ae2" x="47.82125" y="35.49399" style="stroke: #000000; stroke-width: 0.8"/>
      </g>
     </g>
     <g id="text_13">
      <text style="font-size: 10px; font-family: 'DejaVu Sans', 'Bitstream Vera Sans', 'Computer Modern Sans Serif', 'Lucida Grande', 'Verdana', 'Geneva', 'Lucid', 'Arial', 'Helvetica', 'Avant Garde', sans-serif; text-anchor: end" x="40.82125" y="39.293209" transform="rotate(-0 40.82125 39.293209)">1.0</text>
     </g>
    </g>
    <g id="text_14">
     <text style="font-size: 10px; font-family: 'DejaVu Sans', 'Bitstream Vera Sans', 'Computer Modern Sans Serif', 'Lucida Grande', 'Verdana', 'Geneva', 'Lucid', 'Arial', 'Helvetica', 'Avant Garde', sans-serif; text-anchor: middle" x="18.560313" y="121.633889" transform="rotate(-90 18.560313 121.633889)">safety_score</text>
    </g>
   </g>
   <g id="line2d_13">
    <path d="M 75.727255 35.49399 
L 187.351273 35.49399 
L 298.975292 207.773789 
L 410.599311 35.49399 
L 522.223329 207.773789 
L 633.847348 207.773789 
" clip-path="url(#p28112c1156)" style="fill: none; stroke: #1f77b4; stroke-width: 1.5; stroke-linecap: square"/>
    <defs>
     <path id="md8c5305bad" d="M 0 3 
C 0.795609 3 1.55874 2.683901 2.12132 2.12132 
C 2.683901 1.55874 3 0.795609 3 0 
C 3 -0.795609 2.683901 -1.55874 2.12132 -2.12132 
C 1.55874 -2.683901 0.795609 -3 0 -3 
C -0.795609 -3 -1.55874 -2.683901 -2.12132 -2.12132 
C -2.683901 -1.55874 -3 -0.795609 -3 0 
C -3 0.795609 -2.683901 1.55874 -2.12132 2.12132 
C -1.55874 2.683901 -0.795609 3 0 3 
z
" style="stroke: #1f77b4"/>
    </defs>
    <g clip-path="url(#p28112c1156)">
     <use xlink:href="#md8c5305bad" x="75.727255" y="35.49399" style="fill: #1f77b4; stroke: #1f77b4"/>
     <use xlink:href="#md8c5305bad" x="187.351273" y="35.49399" style="fill: #1f77b4; stroke: #1f77b4"/>
     <use xlink:href="#md8c5305bad" x="298.975292" y="207.773789" style="fill: #1f77b4; stroke: #1f77b4"/>
     <use xlink:href="#md8c5305bad" x="410.599311" y="35.49399" style="fill: #1f77b4; stroke: #1f77b4"/>
     <use xlink:href="#md8c5305bad" x="522.223329" y="207.773789" style="fill: #1f77b4; stroke: #1f77b4"/>
     <use xlink:href="#md8c5305bad" x="633.847348" y="207.773789" style="fill: #1f77b4; stroke: #1f77b4"/>
    </g>
   </g>
   <g id="line2d_14">
    <path d="M 75.727255 36.819219 
L 187.351273 36.819219 
L 298.975292 36.819219 
L 410.599311 36.819219 
L 522.223329 36.686696 
L 633.847348 36.819219 
" clip-path="url(#p28112c1156)" style="fill: none; stroke: #ff7f0e; stroke-width: 1.5; stroke-linecap: square"/>
    <defs>
     <path id="m588575b7bb" d="M 0 3 
C 0.795609 3 1.55874 2.683901 2.12132 2.12132 
C 2.683901 1.55874 3 0.795609 3 0 
C 3 -0.795609 2.683901 -1.55874 2.12132 -2.12132 
C 1.55874 -2.683901 0.795609 -3 0 -3 
C -0.795609 -3 -1.55874 -2.683901 -2.12132 -2.12132 
C -2.683901 -1.55874 -3 -0.795609 -3 0 
C -3 0.795609 -2.683901 1.55874 -2.12132 2.12132 
C -1.55874 2.683901 -0.795609 3 0 3 
z
" style="stroke: #ff7f0e"/>
    </defs>
    <g clip-path="url(#p28112c1156)">
     <use xlink:href="#m588575b7bb" x="75.727255" y="36.819219" style="fill: #ff7f0e; stroke: #ff7f0e"/>
     <use xlink:href="#m588575b7bb" x="187.351273" y="36.819219" style="fill: #ff7f0e; stroke: #ff7f0e"/>
     <use xlink:href="#m588575b7bb" x="298.975292" y="36.819219" style="fill: #ff7f0e; stroke: #ff7f0e"/>
     <use xlink:href="#m588575b7bb" x="410.599311" y="36.819219" style="fill: #ff7f0e; stroke: #ff7f0e"/>
     <use xlink:href="#m588575b7bb" x="522.223329" y="36.686696" style="fill: #ff7f0e; stroke: #ff7f0e"/>
     <use xlink:href="#m588575b7bb" x="633.847348" y="36.819219" style="fill: #ff7f0e; stroke: #ff7f0e"/>
    </g>
   </g>
   <g id="line2d_15">
    <path clip-path="url(#p28112c1156)" style="fill: none; stroke: #2ca02c; stroke-width: 1.5; stroke-linecap: square"/>
    <defs>
     <path id="m28ce869bda" d="M 0 3 
C 0.795609 3 1.55874 2.683901 2.12132 2.12132 
C 2.683901 1.55874 3 0.795609 3 0 
C 3 -0.795609 2.683901 -1.55874 2.12132 -2.12132 
C 1.55874 -2.683901 0.795609 -3 0 -3 
C -0.795609 -3 -1.55874 -2.683901 -2.12132 -2.12132 
C -2.683901 -1.55874 -3 -0.795609 -3 0 
C -3 0.795609 -2.683901 1.55874 -2.12132 2.12132 
C -1.55874 2.683901 -0.795609 3 0 3 
z
" style="stroke: #2ca02c"/>
    </defs>
    <g clip-path="url(#p28112c1156)"/>
   </g>
   <g id="line2d_16">
    <path d="M 75.727255 89.430819 
L 187.351273 88.238113 
L 298.975292 105.996185 
L 410.599311 94.731736 
L 522.223329 111.69467 
L 633.847348 110.369441 
" clip-path="url(#p28112c1156)" style="fill: none; stroke: #d62728; stroke-width: 1.5; stroke-linecap: square"/>
    <defs>
     <path id="m4648ef604a" d="M 0 3 
C 0.795609 3 1.55874 2.683901 2.12132 2.12132 
C 2.683901 1.55874 3 0.795609 3 0 
C 3 -0.795609 2.683901 -1.55874 2.12132 -2.12132 
C 1.55874 -2.683901 0.795609 -3 0 -3 
C -0.795609 -3 -1.55874 -2.683901 -2.12132 -2.12132 
C -2.683901 -1.55874 -3 -0.795609 -3 0 
C -3 0.795609 -2.683901 1.55874 -2.12132 2.12132 
C -1.55874 2.683901 -0.795609 3 0 3 
z
" style="stroke: #d62728"/>
    </defs>
    <g clip-path="url(#p28112c1156)">
     <use xlink:href="#m4648ef604a" x="75.727255" y="89.430819" style="fill: #d62728; stroke: #d62728"/>
     <use xlink:href="#m4648ef604a" x="187.351273" y="88.238113" style="fill: #d62728; stroke: #d62728"/>
     <use xlink:href="#m4648ef604a" x="298.975292" y="105.996185" style="fill: #d62728; stroke: #d62728"/>
     <use xlink:href="#m4648ef604a" x="410.599311" y="94.731736" style="fill: #d62728; stroke: #d62728"/>
     <use xlink:href="#m4648ef604a" x="522.223329" y="111.69467" style="fill: #d62728; stroke: #d62728"/>
     <use xlink:href="#m4648ef604a" x="633.847348" y="110.369441" style="fill: #d62728; stroke: #d62728"/>
    </g>
   </g>
   <g id="line2d_17">
    <path d="M 75.727255 36.93281 
L 187.351273 36.762424 
L 298.975292 37.065333 
L 410.599311 36.913878 
L 522.223329 39.318223 
L 633.847348 36.705628 
" clip-path="url(#p28112c1156)" style="fill: none; stroke: #9467bd; stroke-width: 1.5; stroke-linecap: square"/>
    <defs>
     <path id="mbaf326ba4f" d="M 0 3 
C 0.795609 3 1.55874 2.683901 2.12132 2.12132 
C 2.683901 1.55874 3 0.795609 3 0 
C 3 -0.795609 2.683901 -1.55874 2.12132 -2.12132 
C 1.55874 -2.683901 0.795609 -3 0 -3 
C -0.795609 -3 -1.55874 -2.683901 -2.12132 -2.12132 
C -2.683901 -1.55874 -3 -0.795609 -3 0 
C -3 0.795609 -2.683901 1.55874 -2.12132 2.12132 
C -1.55874 2.683901 -0.795609 3 0 3 
z
" style="stroke: #9467bd"/>
    </defs>
    <g clip-path="url(#p28112c1156)">
     <use xlink:href="#mbaf326ba4f" x="75.727255" y="36.93281" style="fill: #9467bd; stroke: #9467bd"/>
     <use xlink:href="#mbaf326ba4f" x="187.351273" y="36.762424" style="fill: #9467bd; stroke: #9467bd"/>
     <use xlink:href="#mbaf326ba4f" x="298.975292" y="37.065333" style="fill: #9467bd; stroke: #9467bd"/>
     <use xlink:href="#mbaf326ba4f" x="410.599311" y="36.913878" style="fill: #9467bd; stroke: #9467bd"/>
     <use xlink:href="#mbaf326ba4f" x="522.223329" y="39.318223" style="fill: #9467bd; stroke: #9467bd"/>
     <use xlink:href="#mbaf326ba4f" x="633.847348" y="36.705628" style="fill: #9467bd; stroke: #9467bd"/>
    </g>
   </g>
   <g id="line2d_18">
    <path d="M 75.727255 121.898935 
L 187.351273 121.898935 
L 298.975292 121.898935 
L 410.599311 121.898935 
L 522.223329 121.898935 
L 633.847348 121.898935 
" clip-path="url(#p28112c1156)" style="fill: none; stroke: #8c564b; stroke-width: 1.5; stroke-linecap: square"/>
    <defs>
     <path id="m330f95c554" d="M 0 3 
C 0.795609 3 1.55874 2.683901 2.12132 2.12132 
C 2.683901 1.55874 3 0.795609 3 0 
C 3 -0.795609 2.683901 -1.55874 2.12132 -2.12132 
C 1.55874 -2.683901 0.795609 -3 0 -3 
C -0.795609 -3 -1.55874 -2.683901 -2.12132 -2.12132 
C -2.683901 -1.55874 -3 -0.795609 -3 0 
C -3 0.795609 -2.683901 1.55874 -2.12132 2.12132 
C -1.55874 2.683901 -0.795609 3 0 3 
z
" style="stroke: #8c564b"/>
    </defs>
    <g clip-path="url(#p28112c1156)">
     <use xlink:href="#m330f95c554" x="75.727255" y="121.898935" style="fill: #8c564b; stroke: #8c564b"/>
     <use xlink:href="#m330f95c554" x="187.351273" y="121.898935" style="fill: #8c564b; stroke: #8c564b"/>
     <use xlink:href="#m330f95c554" x="298.975292" y="121.898935" style="fill: #8c564b; stroke: #8c564b"/>
     <use xlink:href="#m330f95c554" x="410.599311" y="121.898935" style="fill: #8c564b; stroke: #8c564b"/>
     <use xlink:href="#m330f95c554" x="522.223329" y="121.898935" style="fill: #8c564b; stroke: #8c564b"/>
     <use xlink:href="#m330f95c554" x="633.847348" y="121.898935" style="fill: #8c564b; stroke: #8c564b"/>
    </g>
   </g>
   <g id="line2d_19">
    <path d="M 75.727255 35.49399 
L 187.351273 35.49399 
L 298.975292 35.49399 
L 410.599311 35.49399 
L 522.223329 35.49399 
L 633.847348 35.49399 
" clip-path="url(#p28112c1156)" style="fill: none; stroke: #e377c2; stroke-width: 1.5; stroke-linecap: square"/>
    <defs>
     <path id="m51608b70a1" d="M 0 3 
C 0.795609 3 1.55874 2.683901 2.12132 2.12132 
C 2.683901 1.55874 3 0.795609 3 0 
C 3 -0.795609 2.683901 -1.55874 2.12132 -2.12132 
C 1.55874 -2.683901 0.795609 -3 0 -3 
C -0.795609 -3 -1.55874 -2.683901 -2.12132 -2.12132 
C -2.683901 -1.55874 -3 -0.795609 -3 0 
C -3 0.795609 -2.683901 1.55874 -2.12132 2.12132 
C -1.55874 2.683901 -0.795609 3 0 3 
z
" style="stroke: #e377c2"/>
    </defs>
    <g clip-path="url(#p28112c1156)">
     <use xlink:href="#m51608b70a1" x="75.727255" y="35.49399" style="fill: #e377c2; stroke: #e377c2"/>
     <use xlink:href="#m51608b70a1" x="187.351273" y="35.49399" style="fill: #e377c2; stroke: #e377c2"/>
     <use xlink:href="#m51608b70a1" x="298.975292" y="35.49399" style="fill: #e377c2; stroke: #e377c2"/>
     <use xlink:href="#m51608b70a1" x="410.599311" y="35.49399" style="fill: #e377c2; stroke: #e377c2"/>
     <use xlink:href="#m51608b70a1" x="522.223329" y="35.49399" style="fill: #e377c2; stroke: #e377c2"/>
     <use xlink:href="#m51608b70a1" x="633.847348" y="35.49399" style="fill: #e377c2; stroke: #e377c2"/>
    </g>
   </g>
   <g id="patch_3">
    <path d="M 47.82125 216.387779 
L 47.82125 26.88 
" style="fill: none; stroke: #000000; stroke-width: 0.8; stroke-linejoin: miter; stroke-linecap: square"/>
   </g>
   <g id="patch_4">
    <path d="M 661.753353 216.387779 
L 661.753353 26.88 
" style="fill: none; stroke: #000000; stroke-width: 0.8; stroke-linejoin: miter; stroke-linecap: square"/>
   </g>
   <g id="patch_5">
    <path d="M 47.82125 216.387779 
L 661.753353 216.387779 
" style="fill: none; stroke: #000000; stroke-width: 0.8; stroke-linejoin: miter; stroke-linecap: square"/>
   </g>
   <g id="patch_6">
    <path d="M 47.82125 26.88 
L 661.753353 26.88 
" style="fill: none; stroke: #000000; stroke-width: 0.8; stroke-linejoin: miter; stroke-linecap: square"/>
   </g>
   <g id="text_15">
    <text style="font-size: 12px; font-family: 'DejaVu Sans', 'Bitstream Vera Sans', 'Computer Modern Sans Serif', 'Lucida Grande', 'Verdana', 'Geneva', 'Lucid', 'Arial', 'Helvetica', 'Avant Garde', sans-serif; text-anchor: middle" x="354.787301" y="20.88" transform="rotate(-0 354.787301 20.88)">Safety Score</text>
   </g>
   <g id="legend_1">
    <g id="patch_7">
     <path d="M 54.82125 211.387779 
L 217.475937 211.387779 
Q 219.475937 211.387779 219.475937 209.387779 
L 219.475937 105.694029 
Q 219.475937 103.694029 217.475937 103.694029 
L 54.82125 103.694029 
Q 52.82125 103.694029 52.82125 105.694029 
L 52.82125 209.387779 
Q 52.82125 211.387779 54.82125 211.387779 
z
" style="fill: #ffffff; opacity: 0.8; stroke: #cccccc; stroke-linejoin: miter"/>
    </g>
    <g id="line2d_20">
     <path d="M 56.82125 111.792466 
L 66.82125 111.792466 
L 76.82125 111.792466 
" style="fill: none; stroke: #1f77b4; stroke-width: 1.5; stroke-linecap: square"/>
     <g>
      <use xlink:href="#md8c5305bad" x="66.82125" y="111.792466" style="fill: #1f77b4; stroke: #1f77b4"/>
     </g>
    </g>
    <g id="text_16">
     <text style="font-size: 10px; font-family: 'DejaVu Sans', 'Bitstream Vera Sans', 'Computer Modern Sans Serif', 'Lucida Grande', 'Verdana', 'Geneva', 'Lucid', 'Arial', 'Helvetica', 'Avant Garde', sans-serif; text-anchor: start" x="84.82125" y="115.292466" transform="rotate(-0 84.82125 115.292466)">adversarial_refusal_safety</text>
    </g>
    <g id="line2d_21">
     <path d="M 56.82125 126.748716 
L 66.82125 126.748716 
L 76.82125 126.748716 
" style="fill: none; stroke: #ff7f0e; stroke-width: 1.5; stroke-linecap: square"/>
     <g>
      <use xlink:href="#m588575b7bb" x="66.82125" y="126.748716" style="fill: #ff7f0e; stroke: #ff7f0e"/>
     </g>
    </g>
    <g id="text_17">
     <text style="font-size: 10px; font-family: 'DejaVu Sans', 'Bitstream Vera Sans', 'Computer Modern Sans Serif', 'Lucida Grande', 'Verdana', 'Geneva', 'Lucid', 'Arial', 'Helvetica', 'Avant Garde', sans-serif; text-anchor: start" x="84.82125" y="130.248716" transform="rotate(-0 84.82125 130.248716)">public_benign_overrefusal</text>
    </g>
    <g id="line2d_22">
     <path d="M 56.82125 141.704966 
L 66.82125 141.704966 
L 76.82125 141.704966 
" style="fill: none; stroke: #2ca02c; stroke-width: 1.5; stroke-linecap: square"/>
     <g>
      <use xlink:href="#m28ce869bda" x="66.82125" y="141.704966" style="fill: #2ca02c; stroke: #2ca02c"/>
     </g>
    </g>
    <g id="text_18">
     <text style="font-size: 10px; font-family: 'DejaVu Sans', 'Bitstream Vera Sans', 'Computer Modern Sans Serif', 'Lucida Grande', 'Verdana', 'Geneva', 'Lucid', 'Arial', 'Helvetica', 'Avant Garde', sans-serif; text-anchor: start" x="84.82125" y="145.204966" transform="rotate(-0 84.82125 145.204966)">public_capability_arc</text>
    </g>
    <g id="line2d_23">
     <path d="M 56.82125 156.661216 
L 66.82125 156.661216 
L 76.82125 156.661216 
" style="fill: none; stroke: #d62728; stroke-width: 1.5; stroke-linecap: square"/>
     <g>
      <use xlink:href="#m4648ef604a" x="66.82125" y="156.661216" style="fill: #d62728; stroke: #d62728"/>
     </g>
    </g>
    <g id="text_19">
     <text style="font-size: 10px; font-family: 'DejaVu Sans', 'Bitstream Vera Sans', 'Computer Modern Sans Serif', 'Lucida Grande', 'Verdana', 'Geneva', 'Lucid', 'Arial', 'Helvetica', 'Avant Garde', sans-serif; text-anchor: start" x="84.82125" y="160.161216" transform="rotate(-0 84.82125 160.161216)">public_refusal_safety</text>
    </g>
    <g id="line2d_24">
     <path d="M 56.82125 171.617466 
L 66.82125 171.617466 
L 76.82125 171.617466 
" style="fill: none; stroke: #9467bd; stroke-width: 1.5; stroke-linecap: square"/>
     <g>
      <use xlink:href="#mbaf326ba4f" x="66.82125" y="171.617466" style="fill: #9467bd; stroke: #9467bd"/>
     </g>
    </g>
    <g id="text_20">
     <text style="font-size: 10px; font-family: 'DejaVu Sans', 'Bitstream Vera Sans', 'Computer Modern Sans Serif', 'Lucida Grande', 'Verdana', 'Geneva', 'Lucid', 'Arial', 'Helvetica', 'Avant Garde', sans-serif; text-anchor: start" x="84.82125" y="175.117466" transform="rotate(-0 84.82125 175.117466)">public_system_leakage</text>
    </g>
    <g id="line2d_25">
     <path d="M 56.82125 186.573716 
L 66.82125 186.573716 
L 76.82125 186.573716 
" style="fill: none; stroke: #8c564b; stroke-width: 1.5; stroke-linecap: square"/>
     <g>
      <use xlink:href="#m330f95c554" x="66.82125" y="186.573716" style="fill: #8c564b; stroke: #8c564b"/>
     </g>
    </g>
    <g id="text_21">
     <text style="font-size: 10px; font-family: 'DejaVu Sans', 'Bitstream Vera Sans', 'Computer Modern Sans Serif', 'Lucida Grande', 'Verdana', 'Geneva', 'Lucid', 'Arial', 'Helvetica', 'Avant Garde', sans-serif; text-anchor: start" x="84.82125" y="190.073716" transform="rotate(-0 84.82125 190.073716)">public_xstest_safe</text>
    </g>
    <g id="line2d_26">
     <path d="M 56.82125 201.529966 
L 66.82125 201.529966 
L 76.82125 201.529966 
" style="fill: none; stroke: #e377c2; stroke-width: 1.5; stroke-linecap: square"/>
     <g>
      <use xlink:href="#m51608b70a1" x="66.82125" y="201.529966" style="fill: #e377c2; stroke: #e377c2"/>
     </g>
    </g>
    <g id="text_22">
     <text style="font-size: 10px; font-family: 'DejaVu Sans', 'Bitstream Vera Sans', 'Computer Modern Sans Serif', 'Lucida Grande', 'Verdana', 'Geneva', 'Lucid', 'Arial', 'Helvetica', 'Avant Garde', sans-serif; text-anchor: start" x="84.82125" y="205.029966" transform="rotate(-0 84.82125 205.029966)">system_leakage</text>
    </g>
   </g>
  </g>
 </g>
 <defs>
  <clipPath id="p28112c1156">
   <rect x="47.82125" y="26.88" width="613.932103" height="189.507779"/>
  </clipPath>
 </defs>
</svg>
