<?xml version="1.0" encoding="utf-8" standalone="no"?>
<!DOCTYPE svg PUBLIC "-//W3C//DTD SVG 1.1//EN"
  "http://www.w3.org/Graphics/SVG/1.1/DTD/svg11.dtd">
<svg xmlns:xlink="http://www.w3.org/1999/xlink" width="720pt" height="360pt" viewBox="0 0 720 360" xmlns="http://www.w3.org/2000/svg" version="1.1">
 <metadata>
  <rdf:RDF xmlns:dc="http://purl.org/dc/elements/1.1/" xmlns:cc="http://creativecommons.org/ns#" xmlns:rdf="http://www.w3.org/1999/02/22-rdf-syntax-ns#">
   <cc:Work>
    <dc:type rdf:resource="http://purl.org/dc/dcmitype/StillImage"/>
    <dc:date>2026-05-07T03:54:39.971807</dc:date>
    <dc:format>image/svg+xml</dc:format>
    <dc:creator>
     <cc:Agent>
      <dc:title>Matplotlib v3.10.9, https://matplotlib.org/</dc:title>
     </cc:Agent>
    </dc:creator>
   </cc:Work>
  </rdf:RDF>
 </metadata>
 <defs>
  <style type="text/css">*{stroke-linejoin: round; stroke-linecap: butt}</style>
 </defs>
 <g id="figure_1">
  <g id="patch_1">
   <path d="M 0 360 
L 720 360 
L 720 0 
L 0 0 
z
" style="fill: #ffffff"/>
  </g>
  <g id="axes_1">
   <g id="patch_2">
    <path d="M 47.72 318.04 
L 709.2 318.04 
L 709.2 26.88 
L 47.72 26.88 
z
" style="fill: #ffffff"/>
   </g>
   <g id="matplotlib.axis_1">
    <g id="xtick_1">
     <g id="line2d_1">
      <defs>
       <path id="m38d877001b" d="M 0 0 
L 0 3.5 
" style="stroke: #000000; stroke-width: 0.8"/>
      </defs>
      <g>
       <use xlink:href="#m38d877001b" x="77.787273" y="318.04" style="stroke: #000000; stroke-width: 0.8"/>
      </g>
     </g>
     <g id="text_1">
      <text style="font-size: 10px; font-family: 'DejaVu Sans', 'Bitstream Vera Sans', 'Computer Modern Sans Serif', 'Lucida Grande', 'Verdana', 'Geneva', 'Lucid', 'Arial', 'Helvetica', 'Avant Garde', sans-serif; text-anchor: middle" x="77.787273" y="332.638438" transform="rotate(-0 77.787273 332.638438)">0</text>
     </g>
    </g>
    <g id="xtick_2">
     <g id="line2d_2">
      <g>
       <use xlink:href="#m38d877001b" x="201.776026" y="318.04" style="stroke: #000000; stroke-width: 0.8"/>
      </g>
     </g>
     <g id="text_2">
      <text style="font-size: 10px; font-family: 'DejaVu Sans', 'Bitstream Vera Sans', 'Computer Modern Sans Serif', 'Lucida Grande', 'Verdana', 'Geneva', 'Lucid', 'Arial', 'Helvetica', 'Avant Garde', sans-serif; text-anchor: middle" x="201.776026" y="332.638438" transform="rotate(-0 201.776026 332.638438)">20</text>
     </g>
    </g>
    <g id="xtick_3">
     <g id="line2d_3">
      <g>
       <use xlink:href="#m38d877001b" x="325.76478" y="318.04" style="stroke: #000000; stroke-width: 0.8"/>
      </g>
     </g>
     <g id="text_3">
      <text style="font-size: 10px; font-family: 'DejaVu Sans', 'Bitstream Vera Sans', 'Computer Modern Sans Serif', 'Lucida Grande', 'Verdana', 'Geneva', 'Lucid', 'Arial', 'Helvetica', 'Avant Garde', sans-serif; text-anchor: middle" x="325.76478" y="332.638438" transform="rotate(-0 325.76478 332.638438)">40</text>
     </g>
    </g>
    <g id="xtick_4">
     <g id="line2d_4">
      <g>
       <use xlink:href="#m38d877001b" x="449.753533" y="318.04" style="stroke: #000000; stroke-width: 0.8"/>
      </g>
     </g>
     <g id="text_4">
      <text style="font-size: 10px; font-family: 'DejaVu Sans', 'Bitstream Vera Sans', 'Computer Modern Sans Serif', 'Lucida Grande', 'Verdana', 'Geneva', 'Lucid', 'Arial', 'Helvetica', 'Avant Garde', sans-serif; text-anchor: middle" x="449.753533" y="332.638438" transform="rotate(-0 449.753533 332.638438)">60</text>
     </g>
    </g>
    <g id="xtick_5">
     <g id="line2d_5">
      <g>
       <use xlink:href="#m38d877001b" x="573.742287" y="318.04" style="stroke: #000000; stroke-width: 0.8"/>
      </g>
     </g>
     <g id="text_5">
      <text style="font-size: 10px; font-family: 'DejaVu Sans', 'Bitstream Vera Sans', 'Computer Modern Sans Serif', 'Lucida Grande', 'Verdana', 'Geneva', 'Lucid', 'Arial', 'Helvetica', 'Avant Garde', sans-serif; text-anchor: middle" x="573.742287" y="332.638438" transform="rotate(-0 573.742287 332.638438)">80</text>
     </g>
    </g>
    <g id="xtick_6">
     <g id="line2d_6">
      <g>
       <use xlink:href="#m38d877001b" x="697.73104" y="318.04" style="stroke: #000000; stroke-width: 0.8"/>
      </g>
     </g>
     <g id="text_6">
      <text style="font-size: 10px; font-family: 'DejaVu Sans', 'Bitstream Vera Sans', 'Computer Modern Sans Serif', 'Lucida Grande', 'Verdana', 'Geneva', 'Lucid', 'Arial', 'Helvetica', 'Avant Garde', sans-serif; text-anchor: middle" x="697.73104" y="332.638438" transform="rotate(-0 697.73104 332.638438)">100</text>
     </g>
    </g>
    <g id="text_7">
     <text style="font-size: 10px; font-family: 'DejaVu Sans', 'Bitstream Vera Sans', 'Computer Modern Sans Serif', 'Lucida Grande', 'Verdana', 'Geneva', 'Lucid', 'Arial', 'Helvetica', 'Avant Garde', sans-serif; text-anchor: middle" x="378.46" y="346.316563" transform="rotate(-0 378.46 346.316563)">Decode step</text>
    </g>
   </g>
   <g id="matplotlib.axis_2">
    <g id="ytick_1">
     <g id="line2d_7">
      <defs>
       <path id="m44a9518ae2" d="M 0 0 
L -3.5 0 
" style="stroke: #000000; stroke-width: 0.8"/>
      </defs>
      <g>
       <use xlink:href="#m44a9518ae2" x="47.72" y="318.04" style="stroke: #000000; stroke-width: 0.8"/>
      </g>
     </g>
     <g id="text_8">
      <text style="font-size: 10px; font-family: 'DejaVu Sans', 'Bitstream Vera Sans', 'Computer Modern Sans Serif', 'Lucida Grande', 'Verdana', 'Geneva', 'Lucid', 'Arial', 'Helvetica', 'Avant Garde', sans-serif; text-anchor: end" x="40.72" y="321.839219" transform="rotate(-0 40.72 321.839219)">0.0</text>
     </g>
    </g>
    <g id="ytick_2">
     <g id="line2d_8">
      <g>
       <use xlink:href="#m44a9518ae2" x="47.72" y="262.580952" style="stroke: #000000; stroke-width: 0.8"/>
      </g>
     </g>
     <g id="text_9">
      <text style="font-size: 10px; font-family: 'DejaVu Sans', 'Bitstream Vera Sans', 'Computer Modern Sans Serif', 'Lucida Grande', 'Verdana', 'Geneva', 'Lucid', 'Arial', 'Helvetica', 'Avant Garde', sans-serif; text-anchor: end" x="40.72" y="266.380171" transform="rotate(-0 40.72 266.380171)">0.2</text>
     </g>
    </g>
    <g id="ytick_3">
     <g id="line2d_9">
      <g>
       <use xlink:href="#m44a9518ae2" x="47.72" y="207.121905" style="stroke: #000000; stroke-width: 0.8"/>
      </g>
     </g>
     <g id="text_10">
      <text style="font-size: 10px; font-family: 'DejaVu Sans', 'Bitstream Vera Sans', 'Computer Modern Sans Serif', 'Lucida Grande', 'Verdana', 'Geneva', 'Lucid', 'Arial', 'Helvetica', 'Avant Garde', sans-serif; text-anchor: end" x="40.72" y="210.921124" transform="rotate(-0 40.72 210.921124)">0.4</text>
     </g>
    </g>
    <g id="ytick_4">
     <g id="line2d_10">
      <g>
       <use xlink:href="#m44a9518ae2" x="47.72" y="151.662857" style="stroke: #000000; stroke-width: 0.8"/>
      </g>
     </g>
     <g id="text_11">
      <text style="font-size: 10px; font-family: 'DejaVu Sans', 'Bitstream Vera Sans', 'Computer Modern Sans Serif', 'Lucida Grande', 'Verdana', 'Geneva', 'Lucid', 'Arial', 'Helvetica', 'Avant Garde', sans-serif; text-anchor: end" x="40.72" y="155.462076" transform="rotate(-0 40.72 155.462076)">0.6</text>
     </g>
    </g>
    <g id="ytick_5">
     <g id="line2d_11">
      <g>
       <use xlink:href="#m44a9518ae2" x="47.72" y="96.20381" style="stroke: #000000; stroke-width: 0.8"/>
      </g>
     </g>
     <g id="text_12">
      <text style="font-size: 10px; font-family: 'DejaVu Sans', 'Bitstream Vera Sans', 'Computer Modern Sans Serif', 'Lucida Grande', 'Verdana', 'Geneva', 'Lucid', 'Arial', 'Helvetica', 'Avant Garde', sans-serif; text-anchor: end" x="40.72" y="100.003028" transform="rotate(-0 40.72 100.003028)">0.8</text>
     </g>
    </g>
    <g id="ytick_6">
     <g id="line2d_12">
      <g>
       <use xlink:href="#m44a9518ae2" x="47.72" y="40.744762" style="stroke: #000000; stroke-width: 0.8"/>
      </g>
     </g>
     <g id="text_13">
      <text style="font-size: 10px; font-family: 'DejaVu Sans', 'Bitstream Vera Sans', 'Computer Modern Sans Serif', 'Lucida Grande', 'Verdana', 'Geneva', 'Lucid', 'Arial', 'Helvetica', 'Avant Garde', sans-serif; text-anchor: end" x="40.72" y="44.543981" transform="rotate(-0 40.72 44.543981)">1.0</text>
     </g>
    </g>
    <g id="text_14">
     <text style="font-size: 10px; font-family: 'DejaVu Sans', 'Bitstream Vera Sans', 'Computer Modern Sans Serif', 'Lucida Grande', 'Verdana', 'Geneva', 'Lucid', 'Arial', 'Helvetica', 'Avant Garde', sans-serif; text-anchor: middle" x="18.737188" y="172.46" transform="rotate(-90 18.737188 172.46)">L2 retained fraction</text>
    </g>
   </g>
   <g id="line2d_13">
    <path d="M 77.787273 40.744762 
L 83.98671 40.744762 
L 90.186148 40.744762 
L 96.385586 40.744762 
L 102.585023 40.744762 
L 108.784461 40.744762 
L 114.983899 40.744762 
L 121.183336 40.744762 
L 127.382774 40.744762 
L 133.582212 40.744762 
L 139.781649 40.744762 
L 145.981087 40.744762 
L 152.180525 40.744762 
L 158.379963 40.744762 
L 164.5794 40.744762 
L 170.778838 40.744762 
L 176.978276 40.744762 
L 183.177713 40.744762 
L 189.377151 40.744762 
L 195.576589 40.744762 
L 201.776026 40.744762 
L 207.975464 40.744762 
L 214.174902 40.744762 
L 220.374339 40.744762 
L 226.573777 40.744762 
L 232.773215 40.744762 
L 238.972652 40.744762 
L 245.17209 40.744762 
L 251.371528 40.744762 
L 257.570965 40.744762 
L 263.770403 40.744762 
L 269.969841 40.744762 
L 276.169278 40.744762 
L 282.368716 40.744762 
L 288.568154 40.744762 
L 294.767591 40.744762 
L 300.967029 40.744762 
L 307.166467 40.744762 
L 313.365904 40.744762 
L 319.565342 40.744762 
L 325.76478 40.744762 
L 331.964217 40.744762 
L 338.163655 40.744762 
L 344.363093 40.744762 
L 350.56253 40.744762 
L 356.761968 40.744762 
L 362.961406 40.744762 
L 369.160843 40.744762 
L 375.360281 40.744762 
L 381.559719 40.744762 
L 387.759157 40.744762 
L 393.958594 40.744762 
L 400.158032 40.744762 
L 406.35747 40.744762 
L 412.556907 40.744762 
L 418.756345 40.744762 
L 424.955783 40.744762 
L 431.15522 40.744762 
L 437.354658 40.744762 
L 443.554096 40.744762 
L 449.753533 40.744762 
L 455.952971 40.744762 
L 462.152409 40.744762 
L 468.351846 40.744762 
L 474.551284 40.744762 
L 480.750722 40.744762 
L 486.950159 40.744762 
L 493.149597 40.744762 
L 499.349035 40.744762 
L 505.548472 40.744762 
L 511.74791 40.744762 
L 517.947348 40.744762 
L 524.146785 40.744762 
L 530.346223 40.744762 
L 536.545661 40.744762 
L 542.745098 40.744762 
L 548.944536 40.744762 
L 555.143974 40.744762 
L 561.343411 40.744762 
L 567.542849 40.744762 
L 573.742287 40.744762 
L 579.941724 40.744762 
L 586.141162 40.744762 
L 592.3406 40.744762 
L 598.540037 40.744762 
L 604.739475 40.744762 
L 610.938913 40.744762 
L 617.138351 40.744762 
L 623.337788 40.744762 
L 629.537226 40.744762 
L 635.736664 40.744762 
L 641.936101 40.744762 
L 648.135539 40.744762 
L 654.334977 40.744762 
L 660.534414 40.744762 
L 666.733852 40.744762 
L 672.93329 40.744762 
L 679.132727 40.744762 
" clip-path="url(#p27794e1188)" style="fill: none; stroke: #1f77b4; stroke-opacity: 0.85; stroke-width: 1.5; stroke-linecap: square"/>
   </g>
   <g id="line2d_14">
    <path d="M 77.787273 73.524613 
L 83.98671 40.985287 
L 90.186148 40.983734 
L 96.385586 40.98794 
L 102.585023 41.015505 
L 108.784461 41.052393 
L 114.983899 41.078599 
L 121.183336 41.070722 
L 127.382774 41.079896 
L 133.582212 41.067134 
L 139.781649 41.092577 
L 145.981087 41.081947 
L 152.180525 41.087744 
L 158.379963 41.094403 
L 164.5794 41.079232 
L 170.778838 41.086826 
L 176.978276 41.097234 
L 183.177713 41.101688 
L 189.377151 41.133112 
L 195.576589 41.138271 
L 201.776026 41.1208 
L 207.975464 41.15851 
L 214.174902 41.153171 
L 220.374339 41.153658 
L 226.573777 41.147776 
L 232.773215 41.14525 
L 238.972652 41.154797 
L 245.17209 41.152047 
L 251.371528 41.165199 
L 257.570965 41.156071 
L 263.770403 41.170876 
L 269.969841 41.15667 
L 276.169278 41.158259 
L 282.368716 41.225053 
L 288.568154 41.229367 
L 294.767591 41.37699 
L 300.967029 41.361941 
L 307.166467 41.396184 
L 313.365904 41.379884 
L 319.565342 41.354036 
L 325.76478 41.382658 
L 331.964217 41.404395 
L 338.163655 41.413356 
L 344.363093 41.3255 
L 350.56253 41.36318 
L 356.761968 41.406734 
L 362.961406 41.418231 
L 369.160843 41.426826 
L 375.360281 41.366737 
L 381.559719 41.416468 
L 387.759157 41.377382 
L 393.958594 41.323431 
L 400.158032 41.287465 
L 406.35747 41.312312 
L 412.556907 41.296823 
L 418.756345 41.266722 
L 424.955783 41.220532 
L 431.15522 41.22795 
L 437.354658 41.272192 
L 443.554096 41.281674 
L 449.753533 41.240824 
L 455.952971 41.254516 
L 462.152409 41.263841 
L 468.351846 41.302175 
L 474.551284 41.292611 
L 480.750722 41.334944 
L 486.950159 41.351995 
L 493.149597 41.377986 
L 499.349035 41.437816 
L 505.548472 41.53753 
L 511.74791 41.542848 
L 517.947348 41.502669 
L 524.146785 41.556272 
L 530.346223 41.741719 
L 536.545661 41.907375 
L 542.745098 41.775547 
L 548.944536 41.89682 
L 555.143974 41.888574 
L 561.343411 41.871294 
L 567.542849 41.899462 
L 573.742287 41.839865 
L 579.941724 41.856503 
L 586.141162 41.851464 
L 592.3406 41.842773 
L 598.540037 41.820919 
L 604.739475 41.712283 
L 610.938913 41.837784 
L 617.138351 41.701406 
L 623.337788 41.850292 
L 629.537226 41.882033 
L 635.736664 41.861381 
L 641.936101 41.882105 
L 648.135539 41.846476 
L 654.334977 41.898662 
L 660.534414 41.898778 
L 666.733852 41.913997 
L 672.93329 41.97233 
L 679.132727 41.851889 
" clip-path="url(#p27794e1188)" style="fill: none; stroke: #ff7f0e; stroke-opacity: 0.85; stroke-width: 1.5; stroke-linecap: square"/>
   </g>
   <g id="line2d_15">
    <path d="M 77.787273 72.284804 
L 83.98671 40.921186 
L 90.186148 40.948139 
L 96.385586 40.871605 
L 102.585023 40.894478 
L 108.784461 40.897296 
L 114.983899 40.968787 
L 121.183336 40.993741 
L 127.382774 40.978892 
L 133.582212 41.004517 
L 139.781649 40.992087 
L 145.981087 41.016151 
L 152.180525 40.907656 
L 158.379963 41.017432 
L 164.5794 41.021904 
L 170.778838 41.006744 
L 176.978276 40.952253 
L 183.177713 40.994525 
L 189.377151 40.990615 
L 195.576589 41.05376 
L 201.776026 41.008399 
L 207.975464 40.911342 
L 214.174902 41.017887 
L 220.374339 41.015936 
L 226.573777 41.013672 
L 232.773215 41.027891 
L 238.972652 40.918207 
L 245.17209 41.001421 
L 251.371528 41.02331 
L 257.570965 41.011143 
L 263.770403 41.052105 
L 269.969841 41.037982 
L 276.169278 41.049604 
L 282.368716 41.050418 
L 288.568154 41.062462 
L 294.767591 41.113848 
L 300.967029 41.202546 
L 307.166467 41.258464 
L 313.365904 41.196496 
L 319.565342 41.274848 
L 325.76478 41.25008 
L 331.964217 41.241677 
L 338.163655 41.228169 
L 344.363093 41.169112 
L 350.56253 41.199171 
L 356.761968 41.23694 
L 362.961406 41.172496 
L 369.160843 41.168964 
L 375.360281 41.160986 
L 381.559719 41.149396 
L 387.759157 41.275102 
L 393.958594 41.271422 
L 400.158032 41.075817 
L 406.35747 41.224815 
L 412.556907 41.185933 
L 418.756345 41.275107 
L 424.955783 41.198695 
L 431.15522 41.191211 
L 437.354658 41.170648 
L 443.554096 41.212815 
L 449.753533 41.287058 
L 455.952971 41.086293 
L 462.152409 41.117161 
L 468.351846 41.204531 
L 474.551284 41.174787 
L 480.750722 41.332081 
L 486.950159 41.275955 
L 493.149597 41.4987 
L 499.349035 41.551999 
L 505.548472 41.545116 
L 511.74791 41.446917 
L 517.947348 41.49533 
L 524.146785 41.82244 
L 530.346223 41.942473 
L 536.545661 41.926659 
L 542.745098 41.860093 
L 548.944536 41.837803 
L 555.143974 41.854646 
L 561.343411 41.915417 
L 567.542849 41.934067 
L 573.742287 41.899182 
L 579.941724 41.981075 
L 586.141162 41.00876 
L 592.3406 41.882577 
L 598.540037 41.888928 
L 604.739475 41.941173 
L 610.938913 41.762133 
L 617.138351 41.496692 
L 623.337788 41.677708 
L 629.537226 41.776658 
L 635.736664 41.890176 
L 641.936101 41.714658 
L 648.135539 41.960069 
L 654.334977 41.901028 
L 660.534414 41.823588 
L 666.733852 41.900672 
L 672.93329 41.904876 
L 679.132727 41.908501 
" clip-path="url(#p27794e1188)" style="fill: none; stroke: #2ca02c; stroke-opacity: 0.85; stroke-width: 1.5; stroke-linecap: square"/>
   </g>
   <g id="line2d_16">
    <path d="M 77.787273 72.513418 
L 83.98671 40.926965 
L 90.186148 40.943258 
L 96.385586 40.956895 
L 102.585023 40.969945 
L 108.784461 40.992304 
L 114.983899 41.033976 
L 121.183336 41.035326 
L 127.382774 40.983565 
L 133.582212 41.040628 
L 139.781649 41.03316 
L 145.981087 41.038377 
L 152.180525 41.021323 
L 158.379963 40.973327 
L 164.5794 41.029489 
L 170.778838 41.032887 
L 176.978276 41.045322 
L 183.177713 41.016291 
L 189.377151 41.070347 
L 195.576589 41.063369 
L 201.776026 41.083628 
L 207.975464 41.085907 
L 214.174902 41.075095 
L 220.374339 41.089352 
L 226.573777 41.084889 
L 232.773215 41.102794 
L 238.972652 41.085446 
L 245.17209 41.089727 
L 251.371528 41.051998 
L 257.570965 41.0872 
L 263.770403 41.091766 
L 269.969841 41.088105 
L 276.169278 41.092458 
L 282.368716 41.099521 
L 288.568154 41.138486 
L 294.767591 41.283811 
L 300.967029 41.296855 
L 307.166467 41.283348 
L 313.365904 41.299911 
L 319.565342 41.28978 
L 325.76478 41.296208 
L 331.964217 41.316232 
L 338.163655 41.292909 
L 344.363093 41.307048 
L 350.56253 41.305491 
L 356.761968 41.284516 
L 362.961406 41.325084 
L 369.160843 41.304413 
L 375.360281 41.312395 
L 381.559719 41.327647 
L 387.759157 41.307696 
L 393.958594 41.316539 
L 400.158032 41.336134 
L 406.35747 41.341587 
L 412.556907 41.325042 
L 418.756345 41.329902 
L 424.955783 41.293362 
L 431.15522 41.360478 
L 437.354658 41.337069 
L 443.554096 41.340976 
L 449.753533 41.341935 
L 455.952971 41.338576 
L 462.152409 41.352893 
L 468.351846 41.342016 
L 474.551284 41.367332 
L 480.750722 41.459864 
L 486.950159 41.476367 
L 493.149597 41.607351 
L 499.349035 41.614503 
L 505.548472 41.622417 
L 511.74791 41.637685 
L 517.947348 41.496282 
L 524.146785 41.930191 
L 530.346223 41.943402 
L 536.545661 41.921779 
L 542.745098 41.957522 
L 548.944536 41.950077 
L 555.143974 41.959968 
L 561.343411 41.997387 
L 567.542849 41.847455 
L 573.742287 41.958066 
L 579.941724 41.965093 
L 586.141162 41.971807 
L 592.3406 42.010188 
L 598.540037 41.910366 
L 604.739475 41.888486 
L 610.938913 41.838456 
L 617.138351 41.755127 
L 623.337788 41.707167 
L 629.537226 41.789763 
L 635.736664 41.814204 
L 641.936101 41.807054 
L 648.135539 41.836717 
L 654.334977 41.78521 
L 660.534414 41.875828 
L 666.733852 41.84244 
L 672.93329 41.819881 
L 679.132727 41.805926 
" clip-path="url(#p27794e1188)" style="fill: none; stroke: #d62728; stroke-opacity: 0.85; stroke-width: 1.5; stroke-linecap: square"/>
   </g>
   <g id="line2d_17">
    <path d="M 77.787273 72.246621 
L 83.98671 40.947378 
L 90.186148 40.940158 
L 96.385586 40.901074 
L 102.585023 40.910989 
L 108.784461 40.970278 
L 114.983899 41.003451 
L 121.183336 40.98857 
L 127.382774 40.965381 
L 133.582212 40.978599 
L 139.781649 40.998885 
L 145.981087 41.015449 
L 152.180525 41.007367 
L 158.379963 41.006566 
L 164.5794 41.019271 
L 170.778838 41.01979 
L 176.978276 40.970272 
L 183.177713 41.023151 
L 189.377151 41.049074 
L 195.576589 41.053615 
L 201.776026 41.034911 
L 207.975464 40.983665 
L 214.174902 41.041815 
L 220.374339 41.044499 
L 226.573777 41.056419 
L 232.773215 41.025426 
L 238.972652 41.04308 
L 245.17209 41.035854 
L 251.371528 41.05347 
L 257.570965 41.054565 
L 263.770403 41.043874 
L 269.969841 41.055947 
L 276.169278 41.050952 
L 282.368716 41.11213 
L 288.568154 41.093271 
L 294.767591 41.11026 
L 300.967029 41.070902 
L 307.166467 41.181341 
L 313.365904 41.217777 
L 319.565342 41.232192 
L 325.76478 41.21524 
L 331.964217 41.177994 
L 338.163655 41.225797 
L 344.363093 41.223855 
L 350.56253 41.233832 
L 356.761968 41.220568 
L 362.961406 41.23492 
L 369.160843 41.223334 
L 375.360281 41.227394 
L 381.559719 41.243467 
L 387.759157 41.22111 
L 393.958594 41.233767 
L 400.158032 41.229459 
L 406.35747 41.210023 
L 412.556907 41.242637 
L 418.756345 41.223229 
L 424.955783 41.227652 
L 431.15522 41.239063 
L 437.354658 41.220833 
L 443.554096 41.226445 
L 449.753533 41.24092 
L 455.952971 41.243628 
L 462.152409 41.228275 
L 468.351846 41.230096 
L 474.551284 41.197456 
L 480.750722 41.336346 
L 486.950159 41.310622 
L 493.149597 41.328365 
L 499.349035 41.327722 
L 505.548472 41.413914 
L 511.74791 41.465158 
L 517.947348 41.475507 
L 524.146785 41.505478 
L 530.346223 41.496404 
L 536.545661 41.704963 
L 542.745098 41.744658 
L 548.944536 41.793709 
L 555.143974 41.748688 
L 561.343411 41.765341 
L 567.542849 41.677139 
L 573.742287 41.747093 
L 579.941724 41.755804 
L 586.141162 41.732859 
L 592.3406 41.771404 
L 598.540037 41.753997 
L 604.739475 41.755926 
L 610.938913 41.785361 
L 617.138351 41.663548 
L 623.337788 41.75239 
L 629.537226 41.748502 
L 635.736664 41.748175 
L 641.936101 41.777566 
L 648.135539 41.711779 
L 654.334977 41.754428 
L 660.534414 41.731511 
L 666.733852 41.679004 
L 672.93329 41.634924 
L 679.132727 41.695842 
" clip-path="url(#p27794e1188)" style="fill: none; stroke: #9467bd; stroke-opacity: 0.85; stroke-width: 1.5; stroke-linecap: square"/>
   </g>
   <g id="line2d_18">
    <path d="M 77.787273 74.397541 
L 83.98671 40.909943 
L 90.186148 40.903497 
L 96.385586 40.888336 
L 102.585023 40.904902 
L 108.784461 40.920834 
L 114.983899 40.936194 
L 121.183336 40.969891 
L 127.382774 40.958946 
L 133.582212 40.985652 
L 139.781649 40.951825 
L 145.981087 40.948449 
L 152.180525 40.950446 
L 158.379963 40.947511 
L 164.5794 40.938339 
L 170.778838 40.946694 
L 176.978276 40.940545 
L 183.177713 40.955335 
L 189.377151 40.96109 
L 195.576589 40.964262 
L 201.776026 40.961227 
L 207.975464 40.969133 
L 214.174902 40.978007 
L 220.374339 40.983802 
L 226.573777 40.989272 
L 232.773215 40.951014 
L 238.972652 40.981354 
L 245.17209 40.981348 
L 251.371528 40.969192 
L 257.570965 40.953946 
L 263.770403 40.976035 
L 269.969841 40.980832 
L 276.169278 40.949752 
L 282.368716 40.993981 
L 288.568154 40.996854 
L 294.767591 41.119517 
L 300.967029 41.120834 
L 307.166467 41.12962 
L 313.365904 41.147441 
L 319.565342 41.11129 
L 325.76478 41.120103 
L 331.964217 41.146763 
L 338.163655 41.129947 
L 344.363093 41.158223 
L 350.56253 41.136119 
L 356.761968 41.1319 
L 362.961406 41.112851 
L 369.160843 41.130644 
L 375.360281 41.136788 
L 381.559719 41.123204 
L 387.759157 41.139665 
L 393.958594 41.136943 
L 400.158032 41.147106 
L 406.35747 41.121053 
L 412.556907 41.129747 
L 418.756345 41.133407 
L 424.955783 41.108131 
L 431.15522 41.128042 
L 437.354658 41.118863 
L 443.554096 41.115241 
L 449.753533 41.119504 
L 455.952971 41.120983 
L 462.152409 41.116758 
L 468.351846 41.117607 
L 474.551284 41.137968 
L 480.750722 41.222923 
L 486.950159 41.177911 
L 493.149597 41.324355 
L 499.349035 41.342649 
L 505.548472 41.332338 
L 511.74791 41.344258 
L 517.947348 41.226557 
L 524.146785 41.674712 
L 530.346223 41.640671 
L 536.545661 41.637157 
L 542.745098 41.715915 
L 548.944536 41.672443 
L 555.143974 41.657417 
L 561.343411 41.69348 
L 567.542849 41.614127 
L 573.742287 41.710003 
L 579.941724 41.618291 
L 586.141162 41.65648 
L 592.3406 41.667959 
L 598.540037 41.665708 
L 604.739475 41.65899 
L 610.938913 41.683397 
L 617.138351 41.678324 
L 623.337788 41.656855 
L 629.537226 41.710185 
L 635.736664 41.696174 
L 641.936101 41.698107 
L 648.135539 41.664106 
L 654.334977 41.645282 
L 660.534414 41.727543 
L 666.733852 41.689492 
L 672.93329 41.721535 
L 679.132727 41.710935 
" clip-path="url(#p27794e1188)" style="fill: none; stroke: #8c564b; stroke-opacity: 0.85; stroke-width: 1.5; stroke-linecap: square"/>
   </g>
   <g id="patch_3">
    <path d="M 47.72 318.04 
L 47.72 26.88 
" style="fill: none; stroke: #000000; stroke-width: 0.8; stroke-linejoin: miter; stroke-linecap: square"/>
   </g>
   <g id="patch_4">
    <path d="M 709.2 318.04 
L 709.2 26.88 
" style="fill: none; stroke: #000000; stroke-width: 0.8; stroke-linejoin: miter; stroke-linecap: square"/>
   </g>
   <g id="patch_5">
    <path d="M 47.72 318.04 
L 709.2 318.04 
" style="fill: none; stroke: #000000; stroke-width: 0.8; stroke-linejoin: miter; stroke-linecap: square"/>
   </g>
   <g id="patch_6">
    <path d="M 47.72 26.88 
L 709.2 26.88 
" style="fill: none; stroke: #000000; stroke-width: 0.8; stroke-linejoin: miter; stroke-linecap: square"/>
   </g>
   <g id="text_15">
    <text style="font-size: 12px; font-family: 'DejaVu Sans', 'Bitstream Vera Sans', 'Computer Modern Sans Serif', 'Lucida Grande', 'Verdana', 'Geneva', 'Lucid', 'Arial', 'Helvetica', 'Avant Garde', sans-serif; text-anchor: middle" x="378.46" y="20.88" transform="rotate(-0 378.46 20.88)">Cache L2 Retained Fraction Over Decoding</text>
   </g>
   <g id="legend_1">
    <g id="patch_7">
     <path d="M 54.72 313.04 
L 292.12625 313.04 
Q 294.12625 313.04 294.12625 311.04 
L 294.12625 222.580625 
Q 294.12625 220.580625 292.12625 220.580625 
L 54.72 220.580625 
Q 52.72 220.580625 52.72 222.580625 
L 52.72 311.04 
Q 52.72 313.04 54.72 313.04 
z
" style="fill: #ffffff; opacity: 0.8; stroke: #cccccc; stroke-linejoin: miter"/>
    </g>
    <g id="line2d_19">
     <path d="M 56.72 228.679063 
L 66.72 228.679063 
L 76.72 228.679063 
" style="fill: none; stroke: #1f77b4; stroke-opacity: 0.85; stroke-width: 1.5; stroke-linecap: square"/>
    </g>
    <g id="text_16">
     <text style="font-size: 10px; font-family: 'DejaVu Sans', 'Bitstream Vera Sans', 'Computer Modern Sans Serif', 'Lucida Grande', 'Verdana', 'Geneva', 'Lucid', 'Arial', 'Helvetica', 'Avant Garde', sans-serif; text-anchor: start" x="84.72" y="232.179063" transform="rotate(-0 84.72 232.179063)">none</text>
    </g>
    <g id="line2d_20">
     <path d="M 56.72 243.357188 
L 66.72 243.357188 
L 76.72 243.357188 
" style="fill: none; stroke: #ff7f0e; stroke-opacity: 0.85; stroke-width: 1.5; stroke-linecap: square"/>
    </g>
    <g id="text_17">
     <text style="font-size: 10px; font-family: 'DejaVu Sans', 'Bitstream Vera Sans', 'Computer Modern Sans Serif', 'Lucida Grande', 'Verdana', 'Geneva', 'Lucid', 'Arial', 'Helvetica', 'Avant Garde', sans-serif; text-anchor: start" x="84.72" y="246.857188" transform="rotate(-0 84.72 246.857188)">policy_pinned__budget128__sink8</text>
    </g>
    <g id="line2d_21">
     <path d="M 56.72 258.313438 
L 66.72 258.313438 
L 76.72 258.313438 
" style="fill: none; stroke: #2ca02c; stroke-opacity: 0.85; stroke-width: 1.5; stroke-linecap: square"/>
    </g>
    <g id="text_18">
     <text style="font-size: 10px; font-family: 'DejaVu Sans', 'Bitstream Vera Sans', 'Computer Modern Sans Serif', 'Lucida Grande', 'Verdana', 'Geneva', 'Lucid', 'Arial', 'Helvetica', 'Avant Garde', sans-serif; text-anchor: start" x="84.72" y="261.813438" transform="rotate(-0 84.72 261.813438)">random_matched__budget128__seed991</text>
    </g>
    <g id="line2d_22">
     <path d="M 56.72 273.269688 
L 66.72 273.269688 
L 76.72 273.269688 
" style="fill: none; stroke: #d62728; stroke-opacity: 0.85; stroke-width: 1.5; stroke-linecap: square"/>
    </g>
    <g id="text_19">
     <text style="font-size: 10px; font-family: 'DejaVu Sans', 'Bitstream Vera Sans', 'Computer Modern Sans Serif', 'Lucida Grande', 'Verdana', 'Geneva', 'Lucid', 'Arial', 'Helvetica', 'Avant Garde', sans-serif; text-anchor: start" x="84.72" y="276.769688" transform="rotate(-0 84.72 276.769688)">sink_recent__budget128__sink8</text>
    </g>
    <g id="line2d_23">
     <path d="M 56.72 288.225937 
L 66.72 288.225937 
L 76.72 288.225937 
" style="fill: none; stroke: #9467bd; stroke-opacity: 0.85; stroke-width: 1.5; stroke-linecap: square"/>
    </g>
    <g id="text_20">
     <text style="font-size: 10px; font-family: 'DejaVu Sans', 'Bitstream Vera Sans', 'Computer Modern Sans Serif', 'Lucida Grande', 'Verdana', 'Geneva', 'Lucid', 'Arial', 'Helvetica', 'Avant Garde', sans-serif; text-anchor: start" x="84.72" y="291.725937" transform="rotate(-0 84.72 291.725937)">sliding_window__budget128</text>
    </g>
    <g id="line2d_24">
     <path d="M 56.72 303.182187 
L 66.72 303.182187 
L 76.72 303.182187 
" style="fill: none; stroke: #8c564b; stroke-opacity: 0.85; stroke-width: 1.5; stroke-linecap: square"/>
    </g>
    <g id="text_21">
     <text style="font-size: 10px; font-family: 'DejaVu Sans', 'Bitstream Vera Sans', 'Computer Modern Sans Serif', 'Lucida Grande', 'Verdana', 'Geneva', 'Lucid', 'Arial', 'Helvetica', 'Avant Garde', sans-serif; text-anchor: start" x="84.72" y="306.682187" transform="rotate(-0 84.72 306.682187)">user_pinned__budget128__sink8</text>
    </g>
   </g>
  </g>
 </g>
 <defs>
  <clipPath id="p27794e1188">
   <rect x="47.72" y="26.88" width="661.48" height="291.16"/>
  </clipPath>
 </defs>
</svg>
