<?xml version="1.0" encoding="utf-8" standalone="no"?>
<!DOCTYPE svg PUBLIC "-//W3C//DTD SVG 1.1//EN"
  "http://www.w3.org/Graphics/SVG/1.1/DTD/svg11.dtd">
<svg xmlns:xlink="http://www.w3.org/1999/xlink" width="648pt" height="504pt" viewBox="0 0 648 504" xmlns="http://www.w3.org/2000/svg" version="1.1">
 <metadata>
  <rdf:RDF xmlns:dc="http://purl.org/dc/elements/1.1/" xmlns:cc="http://creativecommons.org/ns#" xmlns:rdf="http://www.w3.org/1999/02/22-rdf-syntax-ns#">
   <cc:Work>
    <dc:type rdf:resource="http://purl.org/dc/dcmitype/StillImage"/>
    <dc:date>2026-05-07T03:54:35.205329</dc:date>
    <dc:format>image/svg+xml</dc:format>
    <dc:creator>
     <cc:Agent>
      <dc:title>Matplotlib v3.10.9, https://matplotlib.org/</dc:title>
     </cc:Agent>
    </dc:creator>
   </cc:Work>
  </rdf:RDF>
 </metadata>
 <defs>
  <style type="text/css">*{stroke-linejoin: round; stroke-linecap: butt}</style>
 </defs>
 <g id="figure_1">
  <g id="patch_1">
   <path d="M 0 504 
L 648 504 
L 648 0 
L 0 0 
z
" style="fill: #ffffff"/>
  </g>
  <g id="axes_1">
   <g id="patch_2">
    <path d="M 62.39 462.04 
L 512.387273 462.04 
L 512.387273 26.88 
L 62.39 26.88 
z
" style="fill: #ffffff"/>
   </g>
   <g id="PathCollection_1">
    <path d="M 424.422664 327.885155 
C 425.819515 327.885155 427.159343 327.33018 428.147066 326.342457 
C 429.134789 325.354734 429.689764 324.014906 429.689764 322.618055 
C 429.689764 321.221203 429.134789 319.881375 428.147066 318.893652 
C 427.159343 317.905929 425.819515 317.350954 424.422664 317.350954 
C 423.025813 317.350954 421.685985 317.905929 420.698262 318.893652 
C 419.710538 319.881375 419.155564 321.221203 419.155564 322.618055 
C 419.155564 324.014906 419.710538 325.354734 420.698262 326.342457 
C 421.685985 327.33018 423.025813 327.885155 424.422664 327.885155 
z
" clip-path="url(#pe0c55397a7)" style="fill: #1f77b4; fill-opacity: 0.9; stroke: #ffffff; stroke-opacity: 0.9; stroke-width: 0.7"/>
    <path d="M 395.153541 447.772562 
C 396.61549 447.772562 398.017757 447.191724 399.051511 446.15797 
C 400.085265 445.124216 400.666103 443.721949 400.666103 442.26 
C 400.666103 440.798051 400.085265 439.395784 399.051511 438.36203 
C 398.017757 437.328276 396.61549 436.747438 395.153541 436.747438 
C 393.691593 436.747438 392.289325 437.328276 391.255571 438.36203 
C 390.221817 439.395784 389.640979 440.798051 389.640979 442.26 
C 389.640979 443.721949 390.221817 445.124216 391.255571 446.15797 
C 392.289325 447.191724 393.691593 447.772562 395.153541 447.772562 
z
" clip-path="url(#pe0c55397a7)" style="fill: #1f77b4; fill-opacity: 0.9; stroke: #ffffff; stroke-opacity: 0.9; stroke-width: 0.7"/>
    <path d="M 219.225339 198.980884 
C 220.076432 198.980884 220.892781 198.642741 221.494594 198.040927 
C 222.096408 197.439114 222.43455 196.622765 222.43455 195.771672 
C 222.43455 194.920579 222.096408 194.10423 221.494594 193.502417 
C 220.892781 192.900603 220.076432 192.562461 219.225339 192.562461 
C 218.374246 192.562461 217.557897 192.900603 216.956084 193.502417 
C 216.35427 194.10423 216.016127 194.920579 216.016127 195.771672 
C 216.016127 196.622765 216.35427 197.439114 216.956084 198.040927 
C 217.557897 198.642741 218.374246 198.980884 219.225339 198.980884 
z
" clip-path="url(#pe0c55397a7)" style="fill: #1f77b4; fill-opacity: 0.9; stroke: #ffffff; stroke-opacity: 0.9; stroke-width: 0.7"/>
    <path d="M 211.091759 232.527649 
C 212.022288 232.527649 212.914831 232.157945 213.572814 231.499962 
C 214.230798 230.841978 214.600501 229.949435 214.600501 229.018906 
C 214.600501 228.088377 214.230798 227.195834 213.572814 226.537851 
C 212.914831 225.879867 212.022288 225.510164 211.091759 225.510164 
C 210.161229 225.510164 209.268687 225.879867 208.610703 226.537851 
C 207.952719 227.195834 207.583016 228.088377 207.583016 229.018906 
C 207.583016 229.949435 207.952719 230.841978 208.610703 231.499962 
C 209.268687 232.157945 210.161229 232.527649 211.091759 232.527649 
z
" clip-path="url(#pe0c55397a7)" style="fill: #1f77b4; fill-opacity: 0.9; stroke: #ffffff; stroke-opacity: 0.9; stroke-width: 0.7"/>
    <path d="M 491.182738 55.329179 
C 492.668665 55.329179 494.093933 54.738814 495.144642 53.688105 
C 496.195352 52.637396 496.785717 51.212128 496.785717 49.726201 
C 496.785717 48.240273 496.195352 46.815006 495.144642 45.764296 
C 494.093933 44.713587 492.668665 44.123222 491.182738 44.123222 
C 489.696811 44.123222 488.271543 44.713587 487.220834 45.764296 
C 486.170125 46.815006 485.579759 48.240273 485.579759 49.726201 
C 485.579759 51.212128 486.170125 52.637396 487.220834 53.688105 
C 488.271543 54.738814 489.696811 55.329179 491.182738 55.329179 
z
" clip-path="url(#pe0c55397a7)" style="fill: #1f77b4; fill-opacity: 0.9; stroke: #ffffff; stroke-opacity: 0.9; stroke-width: 0.7"/>
    <path d="M 491.932851 52.272486 
C 493.4213 52.272486 494.848986 51.681119 495.901478 50.628627 
C 496.95397 49.576135 497.545337 48.148449 497.545337 46.66 
C 497.545337 45.171551 496.95397 43.743865 495.901478 42.691373 
C 494.848986 41.638881 493.4213 41.047514 491.932851 41.047514 
C 490.444403 41.047514 489.016716 41.638881 487.964224 42.691373 
C 486.911732 43.743865 486.320365 45.171551 486.320365 46.66 
C 486.320365 48.148449 486.911732 49.576135 487.964224 50.628627 
C 489.016716 51.681119 490.444403 52.272486 491.932851 52.272486 
z
" clip-path="url(#pe0c55397a7)" style="fill: #1f77b4; fill-opacity: 0.9; stroke: #ffffff; stroke-opacity: 0.9; stroke-width: 0.7"/>
    <path d="M 222.416997 185.809025 
C 223.234813 185.809025 224.019244 185.484103 224.597527 184.90582 
C 225.175811 184.327536 225.500733 183.543105 225.500733 182.725289 
C 225.500733 181.907473 225.175811 181.123042 224.597527 180.544759 
C 224.019244 179.966475 223.234813 179.641553 222.416997 179.641553 
C 221.599181 179.641553 220.81475 179.966475 220.236466 180.544759 
C 219.658183 181.123042 219.333261 181.907473 219.333261 182.725289 
C 219.333261 183.543105 219.658183 184.327536 220.236466 184.90582 
C 220.81475 185.484103 221.599181 185.809025 222.416997 185.809025 
z
" clip-path="url(#pe0c55397a7)" style="fill: #1f77b4; fill-opacity: 0.9; stroke: #ffffff; stroke-opacity: 0.9; stroke-width: 0.7"/>
    <path d="M 468.679342 147.073694 
C 470.101222 147.073694 471.465057 146.508775 472.470478 145.503354 
C 473.475898 144.497933 474.040817 143.134099 474.040817 141.712219 
C 474.040817 140.290339 473.475898 138.926504 472.470478 137.921084 
C 471.465057 136.915663 470.101222 136.350744 468.679342 136.350744 
C 467.257462 136.350744 465.893628 136.915663 464.888207 137.921084 
C 463.882786 138.926504 463.317867 140.290339 463.317867 141.712219 
C 463.317867 143.134099 463.882786 144.497933 464.888207 145.503354 
C 465.893628 146.508775 467.257462 147.073694 468.679342 147.073694 
z
" clip-path="url(#pe0c55397a7)" style="fill: #1f77b4; fill-opacity: 0.9; stroke: #ffffff; stroke-opacity: 0.9; stroke-width: 0.7"/>
    <path d="M 490.903284 56.467967 
C 492.388277 56.467967 493.812649 55.877973 494.862697 54.827924 
C 495.912746 53.777875 496.50274 52.353504 496.50274 50.868511 
C 496.50274 49.383518 495.912746 47.959146 494.862697 46.909097 
C 493.812649 45.859049 492.388277 45.269055 490.903284 45.269055 
C 489.418291 45.269055 487.993919 45.859049 486.943871 46.909097 
C 485.893822 47.959146 485.303828 49.383518 485.303828 50.868511 
C 485.303828 52.353504 485.893822 53.777875 486.943871 54.827924 
C 487.993919 55.877973 489.418291 56.467967 490.903284 56.467967 
z
" clip-path="url(#pe0c55397a7)" style="fill: #1f77b4; fill-opacity: 0.9; stroke: #ffffff; stroke-opacity: 0.9; stroke-width: 0.7"/>
   </g>
   <g id="PathCollection_2">
    <defs>
     <path id="m0f72428d24" d="M 0 3.065894 
C 0.813085 3.065894 1.592977 2.742852 2.167914 2.167914 
C 2.742852 1.592977 3.065894 0.813085 3.065894 0 
C 3.065894 -0.813085 2.742852 -1.592977 2.167914 -2.167914 
C 1.592977 -2.742852 0.813085 -3.065894 0 -3.065894 
C -0.813085 -3.065894 -1.592977 -2.742852 -2.167914 -2.167914 
C -2.742852 -1.592977 -3.065894 -0.813085 -3.065894 0 
C -3.065894 0.813085 -2.742852 1.592977 -2.167914 2.167914 
C -1.592977 2.742852 -0.813085 3.065894 0 3.065894 
z
" style="stroke: #ffffff; stroke-opacity: 0.9; stroke-width: 0.7"/>
    </defs>
    <g clip-path="url(#pe0c55397a7)">
     <use xlink:href="#m0f72428d24" x="222.860503" y="180.912392" style="fill: #ff7f0e; fill-opacity: 0.9; stroke: #ffffff; stroke-opacity: 0.9; stroke-width: 0.7"/>
    </g>
   </g>
   <g id="PathCollection_3">
    <path d="M 227.276554 165.974448 
C 228.102218 165.974448 228.894177 165.646408 229.47801 165.062575 
C 230.061843 164.478742 230.389883 163.686783 230.389883 162.861119 
C 230.389883 162.035454 230.061843 161.243496 229.47801 160.659662 
C 228.894177 160.075829 228.102218 159.747789 227.276554 159.747789 
C 226.450889 159.747789 225.65893 160.075829 225.075097 160.659662 
C 224.491264 161.243496 224.163224 162.035454 224.163224 162.861119 
C 224.163224 163.686783 224.491264 164.478742 225.075097 165.062575 
C 225.65893 165.646408 226.450889 165.974448 227.276554 165.974448 
z
" clip-path="url(#pe0c55397a7)" style="fill: #2ca02c; fill-opacity: 0.9; stroke: #ffffff; stroke-opacity: 0.9; stroke-width: 0.7"/>
    <path d="M 226.548812 168.920151 
C 227.366773 168.920151 228.151342 168.595171 228.729727 168.016786 
C 229.308113 167.438401 229.633092 166.653832 229.633092 165.835871 
C 229.633092 165.017911 229.308113 164.233342 228.729727 163.654957 
C 228.151342 163.076571 227.366773 162.751592 226.548812 162.751592 
C 225.730852 162.751592 224.946283 163.076571 224.367898 163.654957 
C 223.789512 164.233342 223.464533 165.017911 223.464533 165.835871 
C 223.464533 166.653832 223.789512 167.438401 224.367898 168.016786 
C 224.946283 168.595171 225.730852 168.920151 226.548812 168.920151 
z
" clip-path="url(#pe0c55397a7)" style="fill: #2ca02c; fill-opacity: 0.9; stroke: #ffffff; stroke-opacity: 0.9; stroke-width: 0.7"/>
    <path d="M 226.548812 168.920151 
C 227.366773 168.920151 228.151342 168.595171 228.729727 168.016786 
C 229.308113 167.438401 229.633092 166.653832 229.633092 165.835871 
C 229.633092 165.017911 229.308113 164.233342 228.729727 163.654957 
C 228.151342 163.076571 227.366773 162.751592 226.548812 162.751592 
C 225.730852 162.751592 224.946283 163.076571 224.367898 163.654957 
C 223.789512 164.233342 223.464533 165.017911 223.464533 165.835871 
C 223.464533 166.653832 223.789512 167.438401 224.367898 168.016786 
C 224.946283 168.595171 225.730852 168.920151 226.548812 168.920151 
z
" clip-path="url(#pe0c55397a7)" style="fill: #2ca02c; fill-opacity: 0.9; stroke: #ffffff; stroke-opacity: 0.9; stroke-width: 0.7"/>
    <path d="M 223.07592 183.089032 
C 223.886696 183.089032 224.664374 182.766907 225.23768 182.193602 
C 225.810985 181.620297 226.13311 180.842619 226.13311 180.031842 
C 226.13311 179.221066 225.810985 178.443388 225.23768 177.870083 
C 224.664374 177.296777 223.886696 176.974652 223.07592 176.974652 
C 222.265144 176.974652 221.487466 177.296777 220.91416 177.870083 
C 220.340855 178.443388 220.01873 179.221066 220.01873 180.031842 
C 220.01873 180.842619 220.340855 181.620297 220.91416 182.193602 
C 221.487466 182.766907 222.265144 183.089032 223.07592 183.089032 
z
" clip-path="url(#pe0c55397a7)" style="fill: #2ca02c; fill-opacity: 0.9; stroke: #ffffff; stroke-opacity: 0.9; stroke-width: 0.7"/>
    <path d="M 225.857919 171.716448 
C 226.668497 171.716448 227.445986 171.394402 228.019151 170.821236 
C 228.592317 170.24807 228.914363 169.470582 228.914363 168.660004 
C 228.914363 167.849425 228.592317 167.071937 228.019151 166.498771 
C 227.445986 165.925605 226.668497 165.603559 225.857919 165.603559 
C 225.04734 165.603559 224.269852 165.925605 223.696686 166.498771 
C 223.123521 167.071937 222.801474 167.849425 222.801474 168.660004 
C 222.801474 169.470582 223.123521 170.24807 223.696686 170.821236 
C 224.269852 171.394402 225.04734 171.716448 225.857919 171.716448 
z
" clip-path="url(#pe0c55397a7)" style="fill: #2ca02c; fill-opacity: 0.9; stroke: #ffffff; stroke-opacity: 0.9; stroke-width: 0.7"/>
    <path d="M 226.548812 168.920151 
C 227.366773 168.920151 228.151342 168.595171 228.729727 168.016786 
C 229.308113 167.438401 229.633092 166.653832 229.633092 165.835871 
C 229.633092 165.017911 229.308113 164.233342 228.729727 163.654957 
C 228.151342 163.076571 227.366773 162.751592 226.548812 162.751592 
C 225.730852 162.751592 224.946283 163.076571 224.367898 163.654957 
C 223.789512 164.233342 223.464533 165.017911 223.464533 165.835871 
C 223.464533 166.653832 223.789512 167.438401 224.367898 168.016786 
C 224.946283 168.595171 225.730852 168.920151 226.548812 168.920151 
z
" clip-path="url(#pe0c55397a7)" style="fill: #2ca02c; fill-opacity: 0.9; stroke: #ffffff; stroke-opacity: 0.9; stroke-width: 0.7"/>
    <path d="M 226.548812 168.920151 
C 227.366773 168.920151 228.151342 168.595171 228.729727 168.016786 
C 229.308113 167.438401 229.633092 166.653832 229.633092 165.835871 
C 229.633092 165.017911 229.308113 164.233342 228.729727 163.654957 
C 228.151342 163.076571 227.366773 162.751592 226.548812 162.751592 
C 225.730852 162.751592 224.946283 163.076571 224.367898 163.654957 
C 223.789512 164.233342 223.464533 165.017911 223.464533 165.835871 
C 223.464533 166.653832 223.789512 167.438401 224.367898 168.016786 
C 224.946283 168.595171 225.730852 168.920151 226.548812 168.920151 
z
" clip-path="url(#pe0c55397a7)" style="fill: #2ca02c; fill-opacity: 0.9; stroke: #ffffff; stroke-opacity: 0.9; stroke-width: 0.7"/>
   </g>
   <g id="PathCollection_4">
    <path d="M 102.028484 92.622811 
C 103.279883 92.622811 104.480196 92.125625 105.365069 91.240752 
C 106.249941 90.355879 106.747127 89.155566 106.747127 87.904167 
C 106.747127 86.652768 106.249941 85.452455 105.365069 84.567582 
C 104.480196 83.68271 103.279883 83.185524 102.028484 83.185524 
C 100.777085 83.185524 99.576771 83.68271 98.691899 84.567582 
C 97.807026 85.452455 97.30984 86.652768 97.30984 87.904167 
C 97.30984 89.155566 97.807026 90.355879 98.691899 91.240752 
C 99.576771 92.125625 100.777085 92.622811 102.028484 92.622811 
z
" clip-path="url(#pe0c55397a7)" style="fill: #d62728; fill-opacity: 0.9; stroke: #ffffff; stroke-opacity: 0.9; stroke-width: 0.7"/>
    <path d="M 90.272978 140.69529 
C 91.529703 140.69529 92.735125 140.195988 93.623763 139.30735 
C 94.512402 138.418711 95.011704 137.213289 95.011704 135.956565 
C 95.011704 134.69984 94.512402 133.494418 93.623763 132.60578 
C 92.735125 131.717141 91.529703 131.217839 90.272978 131.217839 
C 89.016254 131.217839 87.810832 131.717141 86.922193 132.60578 
C 86.033555 133.494418 85.534253 134.69984 85.534253 135.956565 
C 85.534253 137.213289 86.033555 138.418711 86.922193 139.30735 
C 87.810832 140.195988 89.016254 140.69529 90.272978 140.69529 
z
" clip-path="url(#pe0c55397a7)" style="fill: #d62728; fill-opacity: 0.9; stroke: #ffffff; stroke-opacity: 0.9; stroke-width: 0.7"/>
    <path d="M 229.553587 200.789101 
C 230.470539 200.789101 231.350058 200.424792 231.99844 199.776409 
C 232.646823 199.128027 233.011132 198.248507 233.011132 197.331556 
C 233.011132 196.414604 232.646823 195.535085 231.99844 194.886702 
C 231.350058 194.23832 230.470539 193.874011 229.553587 193.874011 
C 228.636635 193.874011 227.757116 194.23832 227.108734 194.886702 
C 226.460351 195.535085 226.096042 196.414604 226.096042 197.331556 
C 226.096042 198.248507 226.460351 199.128027 227.108734 199.776409 
C 227.757116 200.424792 228.636635 200.789101 229.553587 200.789101 
z
" clip-path="url(#pe0c55397a7)" style="fill: #d62728; fill-opacity: 0.9; stroke: #ffffff; stroke-opacity: 0.9; stroke-width: 0.7"/>
    <path d="M 82.844421 127.242975 
C 84.090669 127.242975 85.286041 126.747836 86.167271 125.866606 
C 87.048501 124.985376 87.54364 123.790004 87.54364 122.543756 
C 87.54364 121.297509 87.048501 120.102137 86.167271 119.220907 
C 85.286041 118.339677 84.090669 117.844538 82.844421 117.844538 
C 81.598174 117.844538 80.402802 118.339677 79.521572 119.220907 
C 78.640342 120.102137 78.145203 121.297509 78.145203 122.543756 
C 78.145203 123.790004 78.640342 124.985376 79.521572 125.866606 
C 80.402802 126.747836 81.598174 127.242975 82.844421 127.242975 
z
" clip-path="url(#pe0c55397a7)" style="fill: #d62728; fill-opacity: 0.9; stroke: #ffffff; stroke-opacity: 0.9; stroke-width: 0.7"/>
    <path d="M 90.272978 140.69529 
C 91.529703 140.69529 92.735125 140.195988 93.623763 139.30735 
C 94.512402 138.418711 95.011704 137.213289 95.011704 135.956565 
C 95.011704 134.69984 94.512402 133.494418 93.623763 132.60578 
C 92.735125 131.717141 91.529703 131.217839 90.272978 131.217839 
C 89.016254 131.217839 87.810832 131.717141 86.922193 132.60578 
C 86.033555 133.494418 85.534253 134.69984 85.534253 135.956565 
C 85.534253 137.213289 86.033555 138.418711 86.922193 139.30735 
C 87.810832 140.195988 89.016254 140.69529 90.272978 140.69529 
z
" clip-path="url(#pe0c55397a7)" style="fill: #d62728; fill-opacity: 0.9; stroke: #ffffff; stroke-opacity: 0.9; stroke-width: 0.7"/>
   </g>
   <g id="matplotlib.axis_1">
    <g id="xtick_1">
     <g id="line2d_1">
      <defs>
       <path id="m38d877001b" d="M 0 0 
L 0 3.5 
" style="stroke: #000000; stroke-width: 0.8"/>
      </defs>
      <g>
       <use xlink:href="#m38d877001b" x="98.661467" y="462.04" style="stroke: #000000; stroke-width: 0.8"/>
      </g>
     </g>
     <g id="text_1">
      <text style="font-size: 10px; font-family: 'DejaVu Sans', 'Bitstream Vera Sans', 'Computer Modern Sans Serif', 'Lucida Grande', 'Verdana', 'Geneva', 'Lucid', 'Arial', 'Helvetica', 'Avant Garde', sans-serif; text-anchor: middle" x="98.661467" y="476.638438" transform="rotate(-0 98.661467 476.638438)">−1.0</text>
     </g>
    </g>
    <g id="xtick_2">
     <g id="line2d_2">
      <g>
       <use xlink:href="#m38d877001b" x="181.495441" y="462.04" style="stroke: #000000; stroke-width: 0.8"/>
      </g>
     </g>
     <g id="text_2">
      <text style="font-size: 10px; font-family: 'DejaVu Sans', 'Bitstream Vera Sans', 'Computer Modern Sans Serif', 'Lucida Grande', 'Verdana', 'Geneva', 'Lucid', 'Arial', 'Helvetica', 'Avant Garde', sans-serif; text-anchor: middle" x="181.495441" y="476.638438" transform="rotate(-0 181.495441 476.638438)">−0.5</text>
     </g>
    </g>
    <g id="xtick_3">
     <g id="line2d_3">
      <g>
       <use xlink:href="#m38d877001b" x="264.329414" y="462.04" style="stroke: #000000; stroke-width: 0.8"/>
      </g>
     </g>
     <g id="text_3">
      <text style="font-size: 10px; font-family: 'DejaVu Sans', 'Bitstream Vera Sans', 'Computer Modern Sans Serif', 'Lucida Grande', 'Verdana', 'Geneva', 'Lucid', 'Arial', 'Helvetica', 'Avant Garde', sans-serif; text-anchor: middle" x="264.329414" y="476.638438" transform="rotate(-0 264.329414 476.638438)">0.0</text>
     </g>
    </g>
    <g id="xtick_4">
     <g id="line2d_4">
      <g>
       <use xlink:href="#m38d877001b" x="347.163388" y="462.04" style="stroke: #000000; stroke-width: 0.8"/>
      </g>
     </g>
     <g id="text_4">
      <text style="font-size: 10px; font-family: 'DejaVu Sans', 'Bitstream Vera Sans', 'Computer Modern Sans Serif', 'Lucida Grande', 'Verdana', 'Geneva', 'Lucid', 'Arial', 'Helvetica', 'Avant Garde', sans-serif; text-anchor: middle" x="347.163388" y="476.638438" transform="rotate(-0 347.163388 476.638438)">0.5</text>
     </g>
    </g>
    <g id="xtick_5">
     <g id="line2d_5">
      <g>
       <use xlink:href="#m38d877001b" x="429.997361" y="462.04" style="stroke: #000000; stroke-width: 0.8"/>
      </g>
     </g>
     <g id="text_5">
      <text style="font-size: 10px; font-family: 'DejaVu Sans', 'Bitstream Vera Sans', 'Computer Modern Sans Serif', 'Lucida Grande', 'Verdana', 'Geneva', 'Lucid', 'Arial', 'Helvetica', 'Avant Garde', sans-serif; text-anchor: middle" x="429.997361" y="476.638438" transform="rotate(-0 429.997361 476.638438)">1.0</text>
     </g>
    </g>
    <g id="text_6">
     <text style="font-size: 10px; font-family: 'DejaVu Sans', 'Bitstream Vera Sans', 'Computer Modern Sans Serif', 'Lucida Grande', 'Verdana', 'Geneva', 'Lucid', 'Arial', 'Helvetica', 'Avant Garde', sans-serif; text-anchor: middle" x="287.388636" y="490.316563" transform="rotate(-0 287.388636 490.316563)">Effect direction 1</text>
    </g>
   </g>
   <g id="matplotlib.axis_2">
    <g id="ytick_1">
     <g id="line2d_6">
      <defs>
       <path id="m44a9518ae2" d="M 0 0 
L -3.5 0 
" style="stroke: #000000; stroke-width: 0.8"/>
      </defs>
      <g>
       <use xlink:href="#m44a9518ae2" x="62.39" y="453.572064" style="stroke: #000000; stroke-width: 0.8"/>
      </g>
     </g>
     <g id="text_7">
      <text style="font-size: 10px; font-family: 'DejaVu Sans', 'Bitstream Vera Sans', 'Computer Modern Sans Serif', 'Lucida Grande', 'Verdana', 'Geneva', 'Lucid', 'Arial', 'Helvetica', 'Avant Garde', sans-serif; text-anchor: end" x="55.39" y="457.371283" transform="rotate(-0 55.39 457.371283)">−1.25</text>
     </g>
    </g>
    <g id="ytick_2">
     <g id="line2d_7">
      <g>
       <use xlink:href="#m44a9518ae2" x="62.39" y="396.465491" style="stroke: #000000; stroke-width: 0.8"/>
      </g>
     </g>
     <g id="text_8">
      <text style="font-size: 10px; font-family: 'DejaVu Sans', 'Bitstream Vera Sans', 'Computer Modern Sans Serif', 'Lucida Grande', 'Verdana', 'Geneva', 'Lucid', 'Arial', 'Helvetica', 'Avant Garde', sans-serif; text-anchor: end" x="55.39" y="400.264709" transform="rotate(-0 55.39 400.264709)">−1.00</text>
     </g>
    </g>
    <g id="ytick_3">
     <g id="line2d_8">
      <g>
       <use xlink:href="#m44a9518ae2" x="62.39" y="339.358917" style="stroke: #000000; stroke-width: 0.8"/>
      </g>
     </g>
     <g id="text_9">
      <text style="font-size: 10px; font-family: 'DejaVu Sans', 'Bitstream Vera Sans', 'Computer Modern Sans Serif', 'Lucida Grande', 'Verdana', 'Geneva', 'Lucid', 'Arial', 'Helvetica', 'Avant Garde', sans-serif; text-anchor: end" x="55.39" y="343.158136" transform="rotate(-0 55.39 343.158136)">−0.75</text>
     </g>
    </g>
    <g id="ytick_4">
     <g id="line2d_9">
      <g>
       <use xlink:href="#m44a9518ae2" x="62.39" y="282.252343" style="stroke: #000000; stroke-width: 0.8"/>
      </g>
     </g>
     <g id="text_10">
      <text style="font-size: 10px; font-family: 'DejaVu Sans', 'Bitstream Vera Sans', 'Computer Modern Sans Serif', 'Lucida Grande', 'Verdana', 'Geneva', 'Lucid', 'Arial', 'Helvetica', 'Avant Garde', sans-serif; text-anchor: end" x="55.39" y="286.051562" transform="rotate(-0 55.39 286.051562)">−0.50</text>
     </g>
    </g>
    <g id="ytick_5">
     <g id="line2d_10">
      <g>
       <use xlink:href="#m44a9518ae2" x="62.39" y="225.145769" style="stroke: #000000; stroke-width: 0.8"/>
      </g>
     </g>
     <g id="text_11">
      <text style="font-size: 10px; font-family: 'DejaVu Sans', 'Bitstream Vera Sans', 'Computer Modern Sans Serif', 'Lucida Grande', 'Verdana', 'Geneva', 'Lucid', 'Arial', 'Helvetica', 'Avant Garde', sans-serif; text-anchor: end" x="55.39" y="228.944988" transform="rotate(-0 55.39 228.944988)">−0.25</text>
     </g>
    </g>
    <g id="ytick_6">
     <g id="line2d_11">
      <g>
       <use xlink:href="#m44a9518ae2" x="62.39" y="168.039196" style="stroke: #000000; stroke-width: 0.8"/>
      </g>
     </g>
     <g id="text_12">
      <text style="font-size: 10px; font-family: 'DejaVu Sans', 'Bitstream Vera Sans', 'Computer Modern Sans Serif', 'Lucida Grande', 'Verdana', 'Geneva', 'Lucid', 'Arial', 'Helvetica', 'Avant Garde', sans-serif; text-anchor: end" x="55.39" y="171.838414" transform="rotate(-0 55.39 171.838414)">0.00</text>
     </g>
    </g>
    <g id="ytick_7">
     <g id="line2d_12">
      <g>
       <use xlink:href="#m44a9518ae2" x="62.39" y="110.932622" style="stroke: #000000; stroke-width: 0.8"/>
      </g>
     </g>
     <g id="text_13">
      <text style="font-size: 10px; font-family: 'DejaVu Sans', 'Bitstream Vera Sans', 'Computer Modern Sans Serif', 'Lucida Grande', 'Verdana', 'Geneva', 'Lucid', 'Arial', 'Helvetica', 'Avant Garde', sans-serif; text-anchor: end" x="55.39" y="114.731841" transform="rotate(-0 55.39 114.731841)">0.25</text>
     </g>
    </g>
    <g id="ytick_8">
     <g id="line2d_13">
      <g>
       <use xlink:href="#m44a9518ae2" x="62.39" y="53.826048" style="stroke: #000000; stroke-width: 0.8"/>
      </g>
     </g>
     <g id="text_14">
      <text style="font-size: 10px; font-family: 'DejaVu Sans', 'Bitstream Vera Sans', 'Computer Modern Sans Serif', 'Lucida Grande', 'Verdana', 'Geneva', 'Lucid', 'Arial', 'Helvetica', 'Avant Garde', sans-serif; text-anchor: end" x="55.39" y="57.625267" transform="rotate(-0 55.39 57.625267)">0.50</text>
     </g>
    </g>
    <g id="text_15">
     <text style="font-size: 10px; font-family: 'DejaVu Sans', 'Bitstream Vera Sans', 'Computer Modern Sans Serif', 'Lucida Grande', 'Verdana', 'Geneva', 'Lucid', 'Arial', 'Helvetica', 'Avant Garde', sans-serif; text-anchor: middle" x="18.665" y="244.46" transform="rotate(-90 18.665 244.46)">Effect direction 2</text>
    </g>
   </g>
   <g id="line2d_14">
    <path d="M 62.39 168.039196 
L 512.387273 168.039196 
" clip-path="url(#pe0c55397a7)" style="fill: none; stroke: #404040; stroke-width: 0.8; stroke-linecap: square"/>
   </g>
   <g id="line2d_15">
    <path d="M 264.329414 462.04 
L 264.329414 26.88 
" clip-path="url(#pe0c55397a7)" style="fill: none; stroke: #404040; stroke-width: 0.8; stroke-linecap: square"/>
   </g>
   <g id="patch_3">
    <path d="M 62.39 462.04 
L 62.39 26.88 
" style="fill: none; stroke: #000000; stroke-width: 0.8; stroke-linejoin: miter; stroke-linecap: square"/>
   </g>
   <g id="patch_4">
    <path d="M 512.387273 462.04 
L 512.387273 26.88 
" style="fill: none; stroke: #000000; stroke-width: 0.8; stroke-linejoin: miter; stroke-linecap: square"/>
   </g>
   <g id="patch_5">
    <path d="M 62.39 462.04 
L 512.387273 462.04 
" style="fill: none; stroke: #000000; stroke-width: 0.8; stroke-linejoin: miter; stroke-linecap: square"/>
   </g>
   <g id="patch_6">
    <path d="M 62.39 26.88 
L 512.387273 26.88 
" style="fill: none; stroke: #000000; stroke-width: 0.8; stroke-linejoin: miter; stroke-linecap: square"/>
   </g>
   <g id="patch_7">
    <path d="M 264.329414 168.039196 
Q 344.376039 245.328625 422.104283 320.37953 
" style="fill: none; opacity: 0.85; stroke: #1f77b4; stroke-width: 2.882483; stroke-linecap: round"/>
    <path d="M 420.615949 316.16232 
L 422.104283 320.37953 
L 417.837514 319.039871 
" style="fill: none; opacity: 0.85; stroke: #1f77b4; stroke-width: 2.882483; stroke-linecap: round"/>
   </g>
   <g id="patch_8">
    <path d="M 264.329414 168.039196 
Q 329.741478 305.149598 393.624356 439.05467 
" style="fill: none; opacity: 0.85; stroke: #1f77b4; stroke-width: 3.176482; stroke-linecap: round"/>
    <path d="M 393.707116 434.5833 
L 393.624356 439.05467 
L 390.096916 436.305639 
" style="fill: none; opacity: 0.85; stroke: #1f77b4; stroke-width: 3.176482; stroke-linecap: round"/>
   </g>
   <g id="patch_9">
    <path d="M 264.329414 168.039196 
Q 241.777376 181.905434 220.124733 195.218675 
" style="fill: none; opacity: 0.307735; stroke: #1f77b4; stroke-width: 0.944338; stroke-linecap: round"/>
    <path d="M 224.579712 194.827313 
L 220.124733 195.218675 
L 222.484631 191.419874 
" style="fill: none; opacity: 0.307735; stroke: #1f77b4; stroke-width: 0.944338; stroke-linecap: round"/>
   </g>
   <g id="patch_10">
    <path d="M 264.329414 168.039196 
Q 237.710586 198.529051 211.950523 228.035256 
" style="fill: none; opacity: 0.397168; stroke: #1f77b4; stroke-width: 1.167919; stroke-linecap: round"/>
    <path d="M 216.08781 226.337357 
L 211.950523 228.035256 
L 213.074576 223.706688 
" style="fill: none; opacity: 0.397168; stroke: #1f77b4; stroke-width: 1.167919; stroke-linecap: round"/>
   </g>
   <g id="patch_11">
    <path d="M 264.329414 168.039196 
Q 377.756076 108.882698 487.92315 51.426205 
" style="fill: none; opacity: 0.85; stroke: #1f77b4; stroke-width: 3.288152; stroke-linecap: round"/>
    <path d="M 483.451666 51.502598 
L 487.92315 51.426205 
L 485.301374 55.049228 
" style="fill: none; opacity: 0.85; stroke: #1f77b4; stroke-width: 3.288152; stroke-linecap: round"/>
   </g>
   <g id="patch_12">
    <path d="M 264.329414 168.039196 
Q 378.131133 107.349598 488.677344 48.396137 
" style="fill: none; opacity: 0.85; stroke: #1f77b4; stroke-width: 3.3; stroke-linecap: round"/>
    <path d="M 484.206752 48.513642 
L 488.677344 48.396137 
L 486.088993 52.043114 
" style="fill: none; opacity: 0.85; stroke: #1f77b4; stroke-width: 3.3; stroke-linecap: round"/>
   </g>
   <g id="patch_13">
    <path d="M 264.329414 168.039196 
Q 243.373206 175.382242 223.320828 182.408587 
" style="fill: none; opacity: 0.272641; stroke: #1f77b4; stroke-width: 0.856603; stroke-linecap: round"/>
    <path d="M 227.757164 182.973323 
L 223.320828 182.408587 
L 226.434418 179.19836 
" style="fill: none; opacity: 0.272641; stroke: #1f77b4; stroke-width: 0.856603; stroke-linecap: round"/>
   </g>
   <g id="patch_14">
    <path d="M 264.329414 168.039196 
Q 366.504378 154.875707 465.359459 142.139929 
" style="fill: none; opacity: 0.85; stroke: #1f77b4; stroke-width: 2.993935; stroke-linecap: round"/>
    <path d="M 461.136694 140.66743 
L 465.359459 142.139929 
L 461.647801 144.634642 
" style="fill: none; opacity: 0.85; stroke: #1f77b4; stroke-width: 2.993935; stroke-linecap: round"/>
   </g>
   <g id="patch_15">
    <path d="M 264.329414 168.039196 
Q 377.616349 109.453853 487.642181 52.554962 
" style="fill: none; opacity: 0.85; stroke: #1f77b4; stroke-width: 3.283768; stroke-linecap: round"/>
    <path d="M 483.170459 52.615865 
L 487.642181 52.554962 
L 485.00787 56.16888 
" style="fill: none; opacity: 0.85; stroke: #1f77b4; stroke-width: 3.283768; stroke-linecap: round"/>
   </g>
   <g id="patch_16">
    <path d="M 264.329414 168.039196 
Q 243.594958 174.475794 223.762139 180.632497 
" style="fill: none; opacity: 0.267765; stroke: #ff7f0e; stroke-width: 0.844412; stroke-linecap: round"/>
    <path d="M 228.17525 181.356686 
L 223.762139 180.632497 
L 226.989356 177.536521 
" style="fill: none; opacity: 0.267765; stroke: #ff7f0e; stroke-width: 0.844412; stroke-linecap: round"/>
   </g>
   <g id="patch_17">
    <path d="M 264.329414 168.039196 
Q 245.802984 165.450157 228.247611 162.996823 
" style="fill: none; opacity: 0.280792; stroke: #2ca02c; stroke-width: 0.87698; stroke-linecap: round"/>
    <path d="M 231.932308 165.531188 
L 228.247611 162.996823 
L 232.485922 161.569684 
" style="fill: none; opacity: 0.280792; stroke: #2ca02c; stroke-width: 0.87698; stroke-linecap: round"/>
   </g>
   <g id="patch_18">
    <path d="M 264.329414 168.039196 
Q 245.439113 166.937533 227.505315 165.891654 
" style="fill: none; opacity: 0.27279; stroke: #2ca02c; stroke-width: 0.856975; stroke-linecap: round"/>
    <path d="M 231.38209 168.121141 
L 227.505315 165.891654 
L 231.61497 164.127926 
" style="fill: none; opacity: 0.27279; stroke: #2ca02c; stroke-width: 0.856975; stroke-linecap: round"/>
   </g>
   <g id="patch_19">
    <path d="M 264.329414 168.039196 
Q 245.439113 166.937533 227.505315 165.891654 
" style="fill: none; opacity: 0.27279; stroke: #2ca02c; stroke-width: 0.856975; stroke-linecap: round"/>
    <path d="M 231.38209 168.121141 
L 227.505315 165.891654 
L 231.61497 164.127926 
" style="fill: none; opacity: 0.27279; stroke: #2ca02c; stroke-width: 0.856975; stroke-linecap: round"/>
   </g>
   <g id="patch_20">
    <path d="M 264.329414 168.039196 
Q 243.702667 174.035519 223.976114 179.77015 
" style="fill: none; opacity: 0.265396; stroke: #2ca02c; stroke-width: 0.83849; stroke-linecap: round"/>
    <path d="M 228.375404 180.574046 
L 223.976114 179.77015 
L 227.258804 176.733056 
" style="fill: none; opacity: 0.265396; stroke: #2ca02c; stroke-width: 0.83849; stroke-linecap: round"/>
   </g>
   <g id="patch_21">
    <path d="M 264.329414 168.039196 
Q 245.093666 168.3496 226.794691 168.644887 
" style="fill: none; opacity: 0.265193; stroke: #2ca02c; stroke-width: 0.837984; stroke-linecap: round"/>
    <path d="M 230.82644 170.580088 
L 226.794691 168.644887 
L 230.761901 166.580608 
" style="fill: none; opacity: 0.265193; stroke: #2ca02c; stroke-width: 0.837984; stroke-linecap: round"/>
   </g>
   <g id="patch_22">
    <path d="M 264.329414 168.039196 
Q 245.439113 166.937533 227.505315 165.891654 
" style="fill: none; opacity: 0.27279; stroke: #2ca02c; stroke-width: 0.856975; stroke-linecap: round"/>
    <path d="M 231.38209 168.121141 
L 227.505315 165.891654 
L 231.61497 164.127926 
" style="fill: none; opacity: 0.27279; stroke: #2ca02c; stroke-width: 0.856975; stroke-linecap: round"/>
   </g>
   <g id="patch_23">
    <path d="M 264.329414 168.039196 
Q 245.439113 166.937533 227.505315 165.891654 
" style="fill: none; opacity: 0.27279; stroke: #2ca02c; stroke-width: 0.856975; stroke-linecap: round"/>
    <path d="M 231.38209 168.121141 
L 227.505315 165.891654 
L 231.61497 164.127926 
" style="fill: none; opacity: 0.27279; stroke: #2ca02c; stroke-width: 0.856975; stroke-linecap: round"/>
   </g>
   <g id="patch_24">
    <path d="M 264.329414 168.039196 
Q 183.178949 127.971681 104.308115 89.029721 
" style="fill: none; opacity: 0.839582; stroke: #d62728; stroke-width: 2.273955; stroke-linecap: round"/>
    <path d="M 107.009315 92.59392 
L 104.308115 89.029721 
L 108.780195 89.007281 
" style="fill: none; opacity: 0.839582; stroke: #d62728; stroke-width: 2.273955; stroke-linecap: round"/>
   </g>
   <g id="patch_25">
    <path d="M 264.329414 168.039196 
Q 177.301196 151.99788 92.796422 136.421694 
" style="fill: none; opacity: 0.848023; stroke: #d62728; stroke-width: 2.295058; stroke-linecap: round"/>
    <path d="M 96.367616 139.113639 
L 92.796422 136.421694 
L 97.092695 135.179905 
" style="fill: none; opacity: 0.848023; stroke: #d62728; stroke-width: 2.295058; stroke-linecap: round"/>
   </g>
   <g id="patch_26">
    <path d="M 264.329414 168.039196 
Q 246.941501 182.685376 230.518396 196.518879 
" style="fill: none; opacity: 0.381316; stroke: #d62728; stroke-width: 1.128291; stroke-linecap: round"/>
    <path d="M 234.866181 195.471613 
L 230.518396 196.518879 
L 232.289254 192.412291 
" style="fill: none; opacity: 0.381316; stroke: #d62728; stroke-width: 1.128291; stroke-linecap: round"/>
   </g>
   <g id="patch_27">
    <path d="M 264.329414 168.039196 
Q 173.586918 145.291476 85.288431 123.156431 
" style="fill: none; opacity: 0.831451; stroke: #d62728; stroke-width: 2.253628; stroke-linecap: round"/>
    <path d="M 88.682055 126.069044 
L 85.288431 123.156431 
L 89.654696 122.1891 
" style="fill: none; opacity: 0.831451; stroke: #d62728; stroke-width: 2.253628; stroke-linecap: round"/>
   </g>
   <g id="patch_28">
    <path d="M 264.329414 168.039196 
Q 177.301196 151.99788 92.796422 136.421694 
" style="fill: none; opacity: 0.848023; stroke: #d62728; stroke-width: 2.295058; stroke-linecap: round"/>
    <path d="M 96.367616 139.113639 
L 92.796422 136.421694 
L 97.092695 135.179905 
" style="fill: none; opacity: 0.848023; stroke: #d62728; stroke-width: 2.295058; stroke-linecap: round"/>
   </g>
   <g id="text_16">
    <text style="font-size: 7px; font-family: 'DejaVu Sans', 'Bitstream Vera Sans', 'Computer Modern Sans Serif', 'Lucida Grande', 'Verdana', 'Geneva', 'Lucid', 'Arial', 'Helvetica', 'Avant Garde', sans-serif; text-anchor: start" x="495.932851" y="42.66" transform="rotate(-0 495.932851 42.66)">random_matched / budget128 / seed991</text>
   </g>
   <g id="text_17">
    <text style="font-size: 7px; font-family: 'DejaVu Sans', 'Bitstream Vera Sans', 'Computer Modern Sans Serif', 'Lucida Grande', 'Verdana', 'Geneva', 'Lucid', 'Arial', 'Helvetica', 'Avant Garde', sans-serif; text-anchor: start" x="495.182738" y="45.726201" transform="rotate(-0 495.182738 45.726201)">random_matched / budget128 / seed991</text>
   </g>
   <g id="text_18">
    <text style="font-size: 7px; font-family: 'DejaVu Sans', 'Bitstream Vera Sans', 'Computer Modern Sans Serif', 'Lucida Grande', 'Verdana', 'Geneva', 'Lucid', 'Arial', 'Helvetica', 'Avant Garde', sans-serif; text-anchor: start" x="494.903284" y="46.868511" transform="rotate(-0 494.903284 46.868511)">user_pinned / budget128 / sink8</text>
   </g>
   <g id="text_19">
    <text style="font-size: 7px; font-family: 'DejaVu Sans', 'Bitstream Vera Sans', 'Computer Modern Sans Serif', 'Lucida Grande', 'Verdana', 'Geneva', 'Lucid', 'Arial', 'Helvetica', 'Avant Garde', sans-serif; text-anchor: start" x="399.153541" y="438.26" transform="rotate(-0 399.153541 438.26)">sliding_window / budget128</text>
   </g>
   <g id="text_20">
    <text style="font-size: 7px; font-family: 'DejaVu Sans', 'Bitstream Vera Sans', 'Computer Modern Sans Serif', 'Lucida Grande', 'Verdana', 'Geneva', 'Lucid', 'Arial', 'Helvetica', 'Avant Garde', sans-serif; text-anchor: start" x="472.679342" y="137.712219" transform="rotate(-0 472.679342 137.712219)">user_pinned / budget128 / sink8</text>
   </g>
   <g id="text_21">
    <text style="font-size: 7px; font-family: 'DejaVu Sans', 'Bitstream Vera Sans', 'Computer Modern Sans Serif', 'Lucida Grande', 'Verdana', 'Geneva', 'Lucid', 'Arial', 'Helvetica', 'Avant Garde', sans-serif; text-anchor: start" x="428.422664" y="318.618055" transform="rotate(-0 428.422664 318.618055)">sliding_window / budget128</text>
   </g>
   <g id="text_22">
    <text style="font-size: 7px; font-family: 'DejaVu Sans', 'Bitstream Vera Sans', 'Computer Modern Sans Serif', 'Lucida Grande', 'Verdana', 'Geneva', 'Lucid', 'Arial', 'Helvetica', 'Avant Garde', sans-serif; text-anchor: start" x="94.272978" y="131.956565" transform="rotate(-0 94.272978 131.956565)">user_pinned / budget128 / sink8</text>
   </g>
   <g id="text_23">
    <text style="font-size: 7px; font-family: 'DejaVu Sans', 'Bitstream Vera Sans', 'Computer Modern Sans Serif', 'Lucida Grande', 'Verdana', 'Geneva', 'Lucid', 'Arial', 'Helvetica', 'Avant Garde', sans-serif; text-anchor: start" x="94.272978" y="131.956565" transform="rotate(-0 94.272978 131.956565)">sink_recent / budget128 / sink8</text>
   </g>
   <g id="text_24">
    <text style="font-size: 12px; font-family: 'DejaVu Sans', 'Bitstream Vera Sans', 'Computer Modern Sans Serif', 'Lucida Grande', 'Verdana', 'Geneva', 'Lucid', 'Arial', 'Helvetica', 'Avant Garde', sans-serif; text-anchor: middle" x="287.388636" y="20.88" transform="rotate(-0 287.388636 20.88)">Prompt-Level Effect Constellation</text>
   </g>
   <g id="legend_1">
    <g id="patch_29">
     <path d="M 67.99 458.04 
L 198.11375 458.04 
Q 199.71375 458.04 199.71375 456.44 
L 199.71375 395.701875 
Q 199.71375 394.101875 198.11375 394.101875 
L 67.99 394.101875 
Q 66.39 394.101875 66.39 395.701875 
L 66.39 456.44 
Q 66.39 458.04 67.99 458.04 
z
" style="fill: #ffffff; opacity: 0.8; stroke: #cccccc; stroke-linejoin: miter"/>
    </g>
    <g id="text_25">
     <text style="font-size: 10px; font-family: 'DejaVu Sans', 'Bitstream Vera Sans', 'Computer Modern Sans Serif', 'Lucida Grande', 'Verdana', 'Geneva', 'Lucid', 'Arial', 'Helvetica', 'Avant Garde', sans-serif; text-anchor: start" x="120.852656" y="404.900313" transform="rotate(-0 120.852656 404.900313)">suite</text>
    </g>
    <g id="PathCollection_5">
     <defs>
      <path id="mc7e37171a3" d="M 0 4.528213 
C 1.200896 4.528213 2.352768 4.051092 3.20193 3.20193 
C 4.051092 2.352768 4.528213 1.200896 4.528213 0 
C 4.528213 -1.200896 4.051092 -2.352768 3.20193 -3.20193 
C 2.352768 -4.051092 1.200896 -4.528213 0 -4.528213 
C -1.200896 -4.528213 -2.352768 -4.051092 -3.20193 -3.20193 
C -4.051092 -2.352768 -4.528213 -1.200896 -4.528213 0 
C -4.528213 1.200896 -4.051092 2.352768 -3.20193 3.20193 
C -2.352768 4.051092 -1.200896 4.528213 0 4.528213 
z
" style="stroke: #ffffff; stroke-opacity: 0.9; stroke-width: 0.7"/>
     </defs>
     <g>
      <use xlink:href="#mc7e37171a3" x="77.59" y="414.95875" style="fill: #1f77b4; fill-opacity: 0.9; stroke: #ffffff; stroke-opacity: 0.9; stroke-width: 0.7"/>
     </g>
    </g>
    <g id="text_26">
     <text style="font-size: 8px; font-family: 'DejaVu Sans', 'Bitstream Vera Sans', 'Computer Modern Sans Serif', 'Lucida Grande', 'Verdana', 'Geneva', 'Lucid', 'Arial', 'Helvetica', 'Avant Garde', sans-serif; text-anchor: start" x="91.99" y="417.05875" transform="rotate(-0 91.99 417.05875)">adversarial_refusal_safety</text>
    </g>
    <g id="PathCollection_6">
     <g>
      <use xlink:href="#m0f72428d24" x="77.59" y="426.92375" style="fill: #ff7f0e; fill-opacity: 0.9; stroke: #ffffff; stroke-opacity: 0.9; stroke-width: 0.7"/>
     </g>
    </g>
    <g id="text_27">
     <text style="font-size: 8px; font-family: 'DejaVu Sans', 'Bitstream Vera Sans', 'Computer Modern Sans Serif', 'Lucida Grande', 'Verdana', 'Geneva', 'Lucid', 'Arial', 'Helvetica', 'Avant Garde', sans-serif; text-anchor: start" x="91.99" y="429.02375" transform="rotate(-0 91.99 429.02375)">benign_overrefusal</text>
    </g>
    <g id="PathCollection_7">
     <defs>
      <path id="mde34d9f088" d="M 0 3.085018 
C 0.818156 3.085018 1.602913 2.759961 2.181437 2.181437 
C 2.759961 1.602913 3.085018 0.818156 3.085018 0 
C 3.085018 -0.818156 2.759961 -1.602913 2.181437 -2.181437 
C 1.602913 -2.759961 0.818156 -3.085018 0 -3.085018 
C -0.818156 -3.085018 -1.602913 -2.759961 -2.181437 -2.181437 
C -2.759961 -1.602913 -3.085018 -0.818156 -3.085018 0 
C -3.085018 0.818156 -2.759961 1.602913 -2.181437 2.181437 
C -1.602913 2.759961 -0.818156 3.085018 0 3.085018 
z
" style="stroke: #ffffff; stroke-opacity: 0.9; stroke-width: 0.7"/>
     </defs>
     <g>
      <use xlink:href="#mde34d9f088" x="77.59" y="438.88875" style="fill: #2ca02c; fill-opacity: 0.9; stroke: #ffffff; stroke-opacity: 0.9; stroke-width: 0.7"/>
     </g>
    </g>
    <g id="text_28">
     <text style="font-size: 8px; font-family: 'DejaVu Sans', 'Bitstream Vera Sans', 'Computer Modern Sans Serif', 'Lucida Grande', 'Verdana', 'Geneva', 'Lucid', 'Arial', 'Helvetica', 'Avant Garde', sans-serif; text-anchor: start" x="91.99" y="440.98875" transform="rotate(-0 91.99 440.98875)">refusal_safety</text>
    </g>
    <g id="PathCollection_8">
     <defs>
      <path id="md10f4f1334" d="M 0 4.147899 
C 1.100036 4.147899 2.155165 3.71085 2.933008 2.933008 
C 3.71085 2.155165 4.147899 1.100036 4.147899 0 
C 4.147899 -1.100036 3.71085 -2.155165 2.933008 -2.933008 
C 2.155165 -3.71085 1.100036 -4.147899 0 -4.147899 
C -1.100036 -4.147899 -2.155165 -3.71085 -2.933008 -2.933008 
C -3.71085 -2.155165 -4.147899 -1.100036 -4.147899 0 
C -4.147899 1.100036 -3.71085 2.155165 -2.933008 2.933008 
C -2.155165 3.71085 -1.100036 4.147899 0 4.147899 
z
" style="stroke: #ffffff; stroke-opacity: 0.9; stroke-width: 0.7"/>
     </defs>
     <g>
      <use xlink:href="#md10f4f1334" x="77.59" y="450.85375" style="fill: #d62728; fill-opacity: 0.9; stroke: #ffffff; stroke-opacity: 0.9; stroke-width: 0.7"/>
     </g>
    </g>
    <g id="text_29">
     <text style="font-size: 8px; font-family: 'DejaVu Sans', 'Bitstream Vera Sans', 'Computer Modern Sans Serif', 'Lucida Grande', 'Verdana', 'Geneva', 'Lucid', 'Arial', 'Helvetica', 'Avant Garde', sans-serif; text-anchor: start" x="91.99" y="452.95375" transform="rotate(-0 91.99 452.95375)">system_leakage</text>
    </g>
   </g>
  </g>
 </g>
 <defs>
  <clipPath id="pe0c55397a7">
   <rect x="62.39" y="26.88" width="449.997273" height="435.16"/>
  </clipPath>
 </defs>
</svg>
