<?xml version="1.0" encoding="utf-8" standalone="no"?>
<!DOCTYPE svg PUBLIC "-//W3C//DTD SVG 1.1//EN"
  "http://www.w3.org/Graphics/SVG/1.1/DTD/svg11.dtd">
<svg xmlns:xlink="http://www.w3.org/1999/xlink" width="720pt" height="360pt" viewBox="0 0 720 360" xmlns="http://www.w3.org/2000/svg" version="1.1">
 <metadata>
  <rdf:RDF xmlns:dc="http://purl.org/dc/elements/1.1/" xmlns:cc="http://creativecommons.org/ns#" xmlns:rdf="http://www.w3.org/1999/02/22-rdf-syntax-ns#">
   <cc:Work>
    <dc:type rdf:resource="http://purl.org/dc/dcmitype/StillImage"/>
    <dc:date>2026-05-07T03:15:27.553223</dc:date>
    <dc:format>image/svg+xml</dc:format>
    <dc:creator>
     <cc:Agent>
      <dc:title>Matplotlib v3.10.9, https://matplotlib.org/</dc:title>
     </cc:Agent>
    </dc:creator>
   </cc:Work>
  </rdf:RDF>
 </metadata>
 <defs>
  <style type="text/css">*{stroke-linejoin: round; stroke-linecap: butt}</style>
 </defs>
 <g id="figure_1">
  <g id="patch_1">
   <path d="M 0 360 
L 720 360 
L 720 0 
L 0 0 
z
" style="fill: #ffffff"/>
  </g>
  <g id="axes_1">
   <g id="patch_2">
    <path d="M 47.72 318.04 
L 709.2 318.04 
L 709.2 26.88 
L 47.72 26.88 
z
" style="fill: #ffffff"/>
   </g>
   <g id="matplotlib.axis_1">
    <g id="xtick_1">
     <g id="line2d_1">
      <defs>
       <path id="m38d877001b" d="M 0 0 
L 0 3.5 
" style="stroke: #000000; stroke-width: 0.8"/>
      </defs>
      <g>
       <use xlink:href="#m38d877001b" x="77.787273" y="318.04" style="stroke: #000000; stroke-width: 0.8"/>
      </g>
     </g>
     <g id="text_1">
      <text style="font-size: 10px; font-family: 'DejaVu Sans', 'Bitstream Vera Sans', 'Computer Modern Sans Serif', 'Lucida Grande', 'Verdana', 'Geneva', 'Lucid', 'Arial', 'Helvetica', 'Avant Garde', sans-serif; text-anchor: middle" x="77.787273" y="332.638438" transform="rotate(-0 77.787273 332.638438)">0</text>
     </g>
    </g>
    <g id="xtick_2">
     <g id="line2d_2">
      <g>
       <use xlink:href="#m38d877001b" x="201.776026" y="318.04" style="stroke: #000000; stroke-width: 0.8"/>
      </g>
     </g>
     <g id="text_2">
      <text style="font-size: 10px; font-family: 'DejaVu Sans', 'Bitstream Vera Sans', 'Computer Modern Sans Serif', 'Lucida Grande', 'Verdana', 'Geneva', 'Lucid', 'Arial', 'Helvetica', 'Avant Garde', sans-serif; text-anchor: middle" x="201.776026" y="332.638438" transform="rotate(-0 201.776026 332.638438)">20</text>
     </g>
    </g>
    <g id="xtick_3">
     <g id="line2d_3">
      <g>
       <use xlink:href="#m38d877001b" x="325.76478" y="318.04" style="stroke: #000000; stroke-width: 0.8"/>
      </g>
     </g>
     <g id="text_3">
      <text style="font-size: 10px; font-family: 'DejaVu Sans', 'Bitstream Vera Sans', 'Computer Modern Sans Serif', 'Lucida Grande', 'Verdana', 'Geneva', 'Lucid', 'Arial', 'Helvetica', 'Avant Garde', sans-serif; text-anchor: middle" x="325.76478" y="332.638438" transform="rotate(-0 325.76478 332.638438)">40</text>
     </g>
    </g>
    <g id="xtick_4">
     <g id="line2d_4">
      <g>
       <use xlink:href="#m38d877001b" x="449.753533" y="318.04" style="stroke: #000000; stroke-width: 0.8"/>
      </g>
     </g>
     <g id="text_4">
      <text style="font-size: 10px; font-family: 'DejaVu Sans', 'Bitstream Vera Sans', 'Computer Modern Sans Serif', 'Lucida Grande', 'Verdana', 'Geneva', 'Lucid', 'Arial', 'Helvetica', 'Avant Garde', sans-serif; text-anchor: middle" x="449.753533" y="332.638438" transform="rotate(-0 449.753533 332.638438)">60</text>
     </g>
    </g>
    <g id="xtick_5">
     <g id="line2d_5">
      <g>
       <use xlink:href="#m38d877001b" x="573.742287" y="318.04" style="stroke: #000000; stroke-width: 0.8"/>
      </g>
     </g>
     <g id="text_5">
      <text style="font-size: 10px; font-family: 'DejaVu Sans', 'Bitstream Vera Sans', 'Computer Modern Sans Serif', 'Lucida Grande', 'Verdana', 'Geneva', 'Lucid', 'Arial', 'Helvetica', 'Avant Garde', sans-serif; text-anchor: middle" x="573.742287" y="332.638438" transform="rotate(-0 573.742287 332.638438)">80</text>
     </g>
    </g>
    <g id="xtick_6">
     <g id="line2d_6">
      <g>
       <use xlink:href="#m38d877001b" x="697.73104" y="318.04" style="stroke: #000000; stroke-width: 0.8"/>
      </g>
     </g>
     <g id="text_6">
      <text style="font-size: 10px; font-family: 'DejaVu Sans', 'Bitstream Vera Sans', 'Computer Modern Sans Serif', 'Lucida Grande', 'Verdana', 'Geneva', 'Lucid', 'Arial', 'Helvetica', 'Avant Garde', sans-serif; text-anchor: middle" x="697.73104" y="332.638438" transform="rotate(-0 697.73104 332.638438)">100</text>
     </g>
    </g>
    <g id="text_7">
     <text style="font-size: 10px; font-family: 'DejaVu Sans', 'Bitstream Vera Sans', 'Computer Modern Sans Serif', 'Lucida Grande', 'Verdana', 'Geneva', 'Lucid', 'Arial', 'Helvetica', 'Avant Garde', sans-serif; text-anchor: middle" x="378.46" y="346.316563" transform="rotate(-0 378.46 346.316563)">Decode step</text>
    </g>
   </g>
   <g id="matplotlib.axis_2">
    <g id="ytick_1">
     <g id="line2d_7">
      <defs>
       <path id="m44a9518ae2" d="M 0 0 
L -3.5 0 
" style="stroke: #000000; stroke-width: 0.8"/>
      </defs>
      <g>
       <use xlink:href="#m44a9518ae2" x="47.72" y="318.04" style="stroke: #000000; stroke-width: 0.8"/>
      </g>
     </g>
     <g id="text_8">
      <text style="font-size: 10px; font-family: 'DejaVu Sans', 'Bitstream Vera Sans', 'Computer Modern Sans Serif', 'Lucida Grande', 'Verdana', 'Geneva', 'Lucid', 'Arial', 'Helvetica', 'Avant Garde', sans-serif; text-anchor: end" x="40.72" y="321.839219" transform="rotate(-0 40.72 321.839219)">0.0</text>
     </g>
    </g>
    <g id="ytick_2">
     <g id="line2d_8">
      <g>
       <use xlink:href="#m44a9518ae2" x="47.72" y="262.580952" style="stroke: #000000; stroke-width: 0.8"/>
      </g>
     </g>
     <g id="text_9">
      <text style="font-size: 10px; font-family: 'DejaVu Sans', 'Bitstream Vera Sans', 'Computer Modern Sans Serif', 'Lucida Grande', 'Verdana', 'Geneva', 'Lucid', 'Arial', 'Helvetica', 'Avant Garde', sans-serif; text-anchor: end" x="40.72" y="266.380171" transform="rotate(-0 40.72 266.380171)">0.2</text>
     </g>
    </g>
    <g id="ytick_3">
     <g id="line2d_9">
      <g>
       <use xlink:href="#m44a9518ae2" x="47.72" y="207.121905" style="stroke: #000000; stroke-width: 0.8"/>
      </g>
     </g>
     <g id="text_10">
      <text style="font-size: 10px; font-family: 'DejaVu Sans', 'Bitstream Vera Sans', 'Computer Modern Sans Serif', 'Lucida Grande', 'Verdana', 'Geneva', 'Lucid', 'Arial', 'Helvetica', 'Avant Garde', sans-serif; text-anchor: end" x="40.72" y="210.921124" transform="rotate(-0 40.72 210.921124)">0.4</text>
     </g>
    </g>
    <g id="ytick_4">
     <g id="line2d_10">
      <g>
       <use xlink:href="#m44a9518ae2" x="47.72" y="151.662857" style="stroke: #000000; stroke-width: 0.8"/>
      </g>
     </g>
     <g id="text_11">
      <text style="font-size: 10px; font-family: 'DejaVu Sans', 'Bitstream Vera Sans', 'Computer Modern Sans Serif', 'Lucida Grande', 'Verdana', 'Geneva', 'Lucid', 'Arial', 'Helvetica', 'Avant Garde', sans-serif; text-anchor: end" x="40.72" y="155.462076" transform="rotate(-0 40.72 155.462076)">0.6</text>
     </g>
    </g>
    <g id="ytick_5">
     <g id="line2d_11">
      <g>
       <use xlink:href="#m44a9518ae2" x="47.72" y="96.20381" style="stroke: #000000; stroke-width: 0.8"/>
      </g>
     </g>
     <g id="text_12">
      <text style="font-size: 10px; font-family: 'DejaVu Sans', 'Bitstream Vera Sans', 'Computer Modern Sans Serif', 'Lucida Grande', 'Verdana', 'Geneva', 'Lucid', 'Arial', 'Helvetica', 'Avant Garde', sans-serif; text-anchor: end" x="40.72" y="100.003028" transform="rotate(-0 40.72 100.003028)">0.8</text>
     </g>
    </g>
    <g id="ytick_6">
     <g id="line2d_12">
      <g>
       <use xlink:href="#m44a9518ae2" x="47.72" y="40.744762" style="stroke: #000000; stroke-width: 0.8"/>
      </g>
     </g>
     <g id="text_13">
      <text style="font-size: 10px; font-family: 'DejaVu Sans', 'Bitstream Vera Sans', 'Computer Modern Sans Serif', 'Lucida Grande', 'Verdana', 'Geneva', 'Lucid', 'Arial', 'Helvetica', 'Avant Garde', sans-serif; text-anchor: end" x="40.72" y="44.543981" transform="rotate(-0 40.72 44.543981)">1.0</text>
     </g>
    </g>
    <g id="text_14">
     <text style="font-size: 10px; font-family: 'DejaVu Sans', 'Bitstream Vera Sans', 'Computer Modern Sans Serif', 'Lucida Grande', 'Verdana', 'Geneva', 'Lucid', 'Arial', 'Helvetica', 'Avant Garde', sans-serif; text-anchor: middle" x="18.737188" y="172.46" transform="rotate(-90 18.737188 172.46)">L2 retained fraction</text>
    </g>
   </g>
   <g id="line2d_13">
    <path d="M 77.787273 40.744762 
L 83.98671 40.744762 
L 90.186148 40.744762 
L 96.385586 40.744762 
L 102.585023 40.744762 
L 108.784461 40.744762 
L 114.983899 40.744762 
L 121.183336 40.744762 
L 127.382774 40.744762 
L 133.582212 40.744762 
L 139.781649 40.744762 
L 145.981087 40.744762 
L 152.180525 40.744762 
L 158.379963 40.744762 
L 164.5794 40.744762 
L 170.778838 40.744762 
L 176.978276 40.744762 
L 183.177713 40.744762 
L 189.377151 40.744762 
L 195.576589 40.744762 
L 201.776026 40.744762 
L 207.975464 40.744762 
L 214.174902 40.744762 
L 220.374339 40.744762 
L 226.573777 40.744762 
L 232.773215 40.744762 
L 238.972652 40.744762 
L 245.17209 40.744762 
L 251.371528 40.744762 
L 257.570965 40.744762 
L 263.770403 40.744762 
L 269.969841 40.744762 
L 276.169278 40.744762 
L 282.368716 40.744762 
L 288.568154 40.744762 
L 294.767591 40.744762 
L 300.967029 40.744762 
L 307.166467 40.744762 
L 313.365904 40.744762 
L 319.565342 40.744762 
L 325.76478 40.744762 
L 331.964217 40.744762 
L 338.163655 40.744762 
L 344.363093 40.744762 
L 350.56253 40.744762 
L 356.761968 40.744762 
L 362.961406 40.744762 
L 369.160843 40.744762 
L 375.360281 40.744762 
L 381.559719 40.744762 
L 387.759157 40.744762 
L 393.958594 40.744762 
L 400.158032 40.744762 
L 406.35747 40.744762 
L 412.556907 40.744762 
L 418.756345 40.744762 
L 424.955783 40.744762 
L 431.15522 40.744762 
L 437.354658 40.744762 
L 443.554096 40.744762 
L 449.753533 40.744762 
L 455.952971 40.744762 
L 462.152409 40.744762 
L 468.351846 40.744762 
L 474.551284 40.744762 
L 480.750722 40.744762 
L 486.950159 40.744762 
L 493.149597 40.744762 
L 499.349035 40.744762 
L 505.548472 40.744762 
L 511.74791 40.744762 
L 517.947348 40.744762 
L 524.146785 40.744762 
L 530.346223 40.744762 
L 536.545661 40.744762 
L 542.745098 40.744762 
L 548.944536 40.744762 
L 555.143974 40.744762 
L 561.343411 40.744762 
L 567.542849 40.744762 
L 573.742287 40.744762 
L 579.941724 40.744762 
L 586.141162 40.744762 
L 592.3406 40.744762 
L 598.540037 40.744762 
L 604.739475 40.744762 
L 610.938913 40.744762 
L 617.138351 40.744762 
L 623.337788 40.744762 
L 629.537226 40.744762 
L 635.736664 40.744762 
L 641.936101 40.744762 
L 648.135539 40.744762 
L 654.334977 40.744762 
L 660.534414 40.744762 
L 666.733852 40.744762 
L 672.93329 40.744762 
L 679.132727 40.744762 
" clip-path="url(#p27794e1188)" style="fill: none; stroke: #1f77b4; stroke-opacity: 0.85; stroke-width: 1.5; stroke-linecap: square"/>
   </g>
   <g id="line2d_14">
    <path d="M 77.787273 72.139716 
L 83.98671 40.950536 
L 90.186148 40.944401 
L 96.385586 41.035711 
L 102.585023 40.999768 
L 108.784461 41.037484 
L 114.983899 40.995381 
L 121.183336 41.050125 
L 127.382774 41.070545 
L 133.582212 41.05771 
L 139.781649 41.082406 
L 145.981087 41.090753 
L 152.180525 41.074884 
L 158.379963 41.054078 
L 164.5794 41.081196 
L 170.778838 41.047918 
L 176.978276 41.061387 
L 183.177713 41.082605 
L 189.377151 41.060529 
L 195.576589 41.055133 
L 201.776026 41.076356 
L 207.975464 41.060498 
L 214.174902 41.080412 
L 220.374339 41.075812 
L 226.573777 41.081909 
L 232.773215 41.065988 
L 238.972652 41.063675 
L 245.17209 41.057158 
L 251.371528 41.072821 
L 257.570965 41.067434 
L 263.770403 41.091125 
L 269.969841 41.097802 
L 276.169278 41.079707 
L 282.368716 41.080134 
L 288.568154 41.075682 
L 294.767591 41.049978 
L 300.967029 41.089618 
L 307.166467 41.06471 
L 313.365904 41.09962 
L 319.565342 41.073498 
L 325.76478 41.096945 
L 331.964217 41.084059 
L 338.163655 41.066897 
L 344.363093 41.090894 
L 350.56253 41.063122 
L 356.761968 41.20655 
L 362.961406 41.075891 
L 369.160843 41.206482 
L 375.360281 41.221394 
L 381.559719 41.229687 
L 387.759157 41.216934 
L 393.958594 41.264886 
L 400.158032 41.226276 
L 406.35747 41.246206 
L 412.556907 41.131225 
L 418.756345 41.138237 
L 424.955783 41.124926 
L 431.15522 41.078679 
L 437.354658 41.107322 
L 443.554096 40.950953 
L 449.753533 40.961882 
L 455.952971 40.972209 
L 462.152409 40.989514 
L 468.351846 40.966329 
L 474.551284 40.947824 
L 480.750722 40.958262 
L 486.950159 40.958936 
L 493.149597 41.388721 
L 499.349035 41.342834 
L 505.548472 41.810694 
L 511.74791 41.738003 
L 517.947348 41.863438 
L 524.146785 41.781775 
L 530.346223 41.808858 
L 536.545661 41.512241 
L 542.745098 41.805077 
L 548.944536 41.797743 
L 555.143974 41.744014 
L 561.343411 41.770734 
L 567.542849 41.748823 
L 573.742287 41.761778 
L 579.941724 41.774812 
L 586.141162 41.731671 
L 592.3406 41.794797 
L 598.540037 41.915151 
L 604.739475 41.710966 
L 610.938913 41.757837 
L 617.138351 41.832239 
L 623.337788 41.879614 
L 629.537226 41.848989 
L 635.736664 41.862291 
L 641.936101 41.872231 
L 648.135539 41.904986 
L 654.334977 41.891223 
L 660.534414 41.906008 
L 666.733852 41.867284 
L 672.93329 41.868597 
L 679.132727 41.795326 
" clip-path="url(#p27794e1188)" style="fill: none; stroke: #ff7f0e; stroke-opacity: 0.85; stroke-width: 1.5; stroke-linecap: square"/>
   </g>
   <g id="line2d_15">
    <path d="M 77.787273 71.255946 
L 83.98671 40.938532 
L 90.186148 40.852107 
L 96.385586 40.878162 
L 102.585023 40.85701 
L 108.784461 40.879942 
L 114.983899 40.865108 
L 121.183336 40.900328 
L 127.382774 40.918625 
L 133.582212 40.902564 
L 139.781649 40.910527 
L 145.981087 40.919512 
L 152.180525 40.866749 
L 158.379963 40.910838 
L 164.5794 40.911526 
L 170.778838 40.884122 
L 176.978276 40.885032 
L 183.177713 40.911643 
L 189.377151 40.866822 
L 195.576589 40.913249 
L 201.776026 40.882047 
L 207.975464 40.861866 
L 214.174902 40.918499 
L 220.374339 40.904475 
L 226.573777 40.884013 
L 232.773215 40.913526 
L 238.972652 40.855562 
L 245.17209 40.914741 
L 251.371528 40.899206 
L 257.570965 40.901405 
L 263.770403 40.906823 
L 269.969841 40.879395 
L 276.169278 40.903479 
L 282.368716 40.900078 
L 288.568154 40.920227 
L 294.767591 40.90858 
L 300.967029 40.914872 
L 307.166467 40.902683 
L 313.365904 40.881542 
L 319.565342 40.90033 
L 325.76478 40.866783 
L 331.964217 40.895361 
L 338.163655 40.878221 
L 344.363093 40.892631 
L 350.56253 40.903847 
L 356.761968 41.051516 
L 362.961406 41.061091 
L 369.160843 41.256064 
L 375.360281 41.185722 
L 381.559719 41.178358 
L 387.759157 41.270196 
L 393.958594 41.22752 
L 400.158032 41.147531 
L 406.35747 41.2197 
L 412.556907 41.071302 
L 418.756345 41.126722 
L 424.955783 41.083864 
L 431.15522 41.102005 
L 437.354658 41.095646 
L 443.554096 40.950701 
L 449.753533 40.951514 
L 455.952971 40.928086 
L 462.152409 40.975114 
L 468.351846 40.956084 
L 474.551284 40.974876 
L 480.750722 40.94851 
L 486.950159 40.969132 
L 493.149597 41.459062 
L 499.349035 41.411993 
L 505.548472 41.856967 
L 511.74791 41.738451 
L 517.947348 41.422832 
L 524.146785 41.798017 
L 530.346223 41.867421 
L 536.545661 41.889148 
L 542.745098 41.878071 
L 548.944536 41.895565 
L 555.143974 41.871217 
L 561.343411 41.840592 
L 567.542849 41.869203 
L 573.742287 41.903765 
L 579.941724 41.871157 
L 586.141162 41.633185 
L 592.3406 41.895552 
L 598.540037 41.845462 
L 604.739475 41.840785 
L 610.938913 41.760176 
L 617.138351 41.774441 
L 623.337788 41.776951 
L 629.537226 41.790304 
L 635.736664 41.839229 
L 641.936101 41.802732 
L 648.135539 41.867127 
L 654.334977 41.834572 
L 660.534414 41.776844 
L 666.733852 41.877787 
L 672.93329 41.813406 
L 679.132727 41.831961 
" clip-path="url(#p27794e1188)" style="fill: none; stroke: #2ca02c; stroke-opacity: 0.85; stroke-width: 1.5; stroke-linecap: square"/>
   </g>
   <g id="line2d_16">
    <path d="M 77.787273 71.579358 
L 83.98671 40.934224 
L 90.186148 40.936541 
L 96.385586 40.983777 
L 102.585023 40.992993 
L 108.784461 40.992867 
L 114.983899 41.001802 
L 121.183336 41.058742 
L 127.382774 41.04774 
L 133.582212 41.046811 
L 139.781649 41.044151 
L 145.981087 41.042182 
L 152.180525 41.037676 
L 158.379963 41.033997 
L 164.5794 41.046732 
L 170.778838 41.035124 
L 176.978276 41.057142 
L 183.177713 41.055541 
L 189.377151 41.060949 
L 195.576589 41.020366 
L 201.776026 41.070227 
L 207.975464 40.978177 
L 214.174902 41.048848 
L 220.374339 41.003246 
L 226.573777 41.051706 
L 232.773215 41.038679 
L 238.972652 41.061254 
L 245.17209 41.036352 
L 251.371528 41.037936 
L 257.570965 41.035823 
L 263.770403 41.049684 
L 269.969841 41.038959 
L 276.169278 41.063532 
L 282.368716 41.035 
L 288.568154 41.044918 
L 294.767591 41.039994 
L 300.967029 41.030848 
L 307.166467 41.057276 
L 313.365904 41.018544 
L 319.565342 41.058843 
L 325.76478 41.01356 
L 331.964217 41.035735 
L 338.163655 41.054019 
L 344.363093 41.041723 
L 350.56253 41.064952 
L 356.761968 41.198594 
L 362.961406 41.069836 
L 369.160843 41.278685 
L 375.360281 41.074427 
L 381.559719 41.198303 
L 387.759157 41.180425 
L 393.958594 41.197387 
L 400.158032 41.209565 
L 406.35747 41.177049 
L 412.556907 41.110581 
L 418.756345 41.114964 
L 424.955783 41.106235 
L 431.15522 41.101532 
L 437.354658 41.114159 
L 443.554096 40.991997 
L 449.753533 40.975073 
L 455.952971 40.972215 
L 462.152409 41.012278 
L 468.351846 41.006592 
L 474.551284 41.002236 
L 480.750722 41.01766 
L 486.950159 40.994413 
L 493.149597 41.391235 
L 499.349035 41.03615 
L 505.548472 41.775589 
L 511.74791 41.590032 
L 517.947348 41.804247 
L 524.146785 41.832313 
L 530.346223 41.791592 
L 536.545661 41.869314 
L 542.745098 41.855861 
L 548.944536 41.778659 
L 555.143974 41.796785 
L 561.343411 41.77551 
L 567.542849 41.786284 
L 573.742287 41.78176 
L 579.941724 41.782459 
L 586.141162 41.776508 
L 592.3406 41.823407 
L 598.540037 41.824575 
L 604.739475 41.90631 
L 610.938913 41.851415 
L 617.138351 41.872923 
L 623.337788 41.882402 
L 629.537226 41.85171 
L 635.736664 41.819094 
L 641.936101 41.721883 
L 648.135539 41.778233 
L 654.334977 41.761297 
L 660.534414 41.784486 
L 666.733852 41.531788 
L 672.93329 41.793782 
L 679.132727 41.52432 
" clip-path="url(#p27794e1188)" style="fill: none; stroke: #d62728; stroke-opacity: 0.85; stroke-width: 1.5; stroke-linecap: square"/>
   </g>
   <g id="line2d_17">
    <path d="M 77.787273 71.397479 
L 83.98671 40.936245 
L 90.186148 40.921363 
L 96.385586 40.994022 
L 102.585023 40.973573 
L 108.784461 40.997296 
L 114.983899 41.004855 
L 121.183336 41.023582 
L 127.382774 41.043663 
L 133.582212 41.015906 
L 139.781649 41.018265 
L 145.981087 40.999725 
L 152.180525 41.008928 
L 158.379963 41.008119 
L 164.5794 41.017073 
L 170.778838 41.039822 
L 176.978276 41.028495 
L 183.177713 41.027149 
L 189.377151 41.024119 
L 195.576589 41.021608 
L 201.776026 41.016914 
L 207.975464 41.013111 
L 214.174902 41.024396 
L 220.374339 41.013082 
L 226.573777 41.032848 
L 232.773215 41.030634 
L 238.972652 41.034801 
L 245.17209 40.997091 
L 251.371528 41.04204 
L 257.570965 40.957603 
L 263.770403 41.021582 
L 269.969841 40.979449 
L 276.169278 41.022943 
L 282.368716 41.010777 
L 288.568154 41.030713 
L 294.767591 41.007576 
L 300.967029 41.008445 
L 307.166467 41.006027 
L 313.365904 41.017815 
L 319.565342 41.007804 
L 325.76478 41.029211 
L 331.964217 41.003321 
L 338.163655 41.011854 
L 344.363093 41.006752 
L 350.56253 40.998253 
L 356.761968 41.030525 
L 362.961406 41.096667 
L 369.160843 41.143198 
L 375.360281 41.211744 
L 381.559719 41.24049 
L 387.759157 41.25614 
L 393.958594 41.244872 
L 400.158032 41.256609 
L 406.35747 41.264181 
L 412.556907 41.069707 
L 418.756345 41.166319 
L 424.955783 41.190783 
L 431.15522 41.159634 
L 437.354658 41.176545 
L 443.554096 41.113953 
L 449.753533 41.088841 
L 455.952971 41.083075 
L 462.152409 40.96482 
L 468.351846 40.934604 
L 474.551284 40.964464 
L 480.750722 40.973014 
L 486.950159 40.969107 
L 493.149597 40.984363 
L 499.349035 41.324934 
L 505.548472 41.491548 
L 511.74791 41.729887 
L 517.947348 41.761879 
L 524.146785 41.78986 
L 530.346223 41.770823 
L 536.545661 41.748891 
L 542.745098 41.7871 
L 548.944536 41.309572 
L 555.143974 41.728955 
L 561.343411 41.507324 
L 567.542849 41.70546 
L 573.742287 41.76558 
L 579.941724 41.740245 
L 586.141162 41.790268 
L 592.3406 41.739703 
L 598.540037 41.75407 
L 604.739475 41.73928 
L 610.938913 41.65105 
L 617.138351 41.704668 
L 623.337788 41.710038 
L 629.537226 41.731489 
L 635.736664 41.717605 
L 641.936101 41.71578 
L 648.135539 41.724343 
L 654.334977 41.742609 
L 660.534414 41.761999 
L 666.733852 41.806377 
L 672.93329 41.7575 
L 679.132727 41.752225 
" clip-path="url(#p27794e1188)" style="fill: none; stroke: #9467bd; stroke-opacity: 0.85; stroke-width: 1.5; stroke-linecap: square"/>
   </g>
   <g id="line2d_18">
    <path d="M 77.787273 72.356398 
L 83.98671 40.908751 
L 90.186148 40.899659 
L 96.385586 40.967166 
L 102.585023 40.976088 
L 108.784461 40.986448 
L 114.983899 40.969275 
L 121.183336 41.009666 
L 127.382774 40.99979 
L 133.582212 41.005576 
L 139.781649 40.994019 
L 145.981087 40.999742 
L 152.180525 40.996182 
L 158.379963 41.021851 
L 164.5794 40.999879 
L 170.778838 40.989912 
L 176.978276 40.993158 
L 183.177713 41.002618 
L 189.377151 41.00303 
L 195.576589 41.001995 
L 201.776026 40.981997 
L 207.975464 41.003612 
L 214.174902 41.00904 
L 220.374339 40.994814 
L 226.573777 41.005294 
L 232.773215 41.007371 
L 238.972652 40.991402 
L 245.17209 40.997016 
L 251.371528 40.993056 
L 257.570965 40.994177 
L 263.770403 41.001507 
L 269.969841 41.010814 
L 276.169278 40.990306 
L 282.368716 41.001023 
L 288.568154 41.003144 
L 294.767591 41.003486 
L 300.967029 40.993492 
L 307.166467 40.994167 
L 313.365904 40.992864 
L 319.565342 40.994805 
L 325.76478 41.007733 
L 331.964217 40.996051 
L 338.163655 40.990305 
L 344.363093 40.993714 
L 350.56253 40.989754 
L 356.761968 41.123625 
L 362.961406 41.012753 
L 369.160843 41.240643 
L 375.360281 41.119503 
L 381.559719 41.232881 
L 387.759157 41.231063 
L 393.958594 41.236931 
L 400.158032 41.244421 
L 406.35747 41.242367 
L 412.556907 41.170444 
L 418.756345 41.185367 
L 424.955783 41.144134 
L 431.15522 41.157044 
L 437.354658 41.171376 
L 443.554096 41.081827 
L 449.753533 41.084092 
L 455.952971 41.098884 
L 462.152409 41.107582 
L 468.351846 41.072013 
L 474.551284 41.076196 
L 480.750722 41.065646 
L 486.950159 41.071129 
L 493.149597 41.402102 
L 499.349035 41.106933 
L 505.548472 41.751693 
L 511.74791 41.56525 
L 517.947348 41.759692 
L 524.146785 41.76847 
L 530.346223 41.767858 
L 536.545661 41.841351 
L 542.745098 41.796125 
L 548.944536 41.786353 
L 555.143974 41.808146 
L 561.343411 41.745249 
L 567.542849 41.774267 
L 573.742287 41.764504 
L 579.941724 41.799424 
L 586.141162 41.805844 
L 592.3406 41.836267 
L 598.540037 41.803012 
L 604.739475 41.776421 
L 610.938913 41.814282 
L 617.138351 41.839209 
L 623.337788 41.86489 
L 629.537226 41.843119 
L 635.736664 41.911601 
L 641.936101 41.892496 
L 648.135539 41.909011 
L 654.334977 41.860451 
L 660.534414 41.843519 
L 666.733852 41.736676 
L 672.93329 41.863992 
L 679.132727 41.582774 
" clip-path="url(#p27794e1188)" style="fill: none; stroke: #8c564b; stroke-opacity: 0.85; stroke-width: 1.5; stroke-linecap: square"/>
   </g>
   <g id="patch_3">
    <path d="M 47.72 318.04 
L 47.72 26.88 
" style="fill: none; stroke: #000000; stroke-width: 0.8; stroke-linejoin: miter; stroke-linecap: square"/>
   </g>
   <g id="patch_4">
    <path d="M 709.2 318.04 
L 709.2 26.88 
" style="fill: none; stroke: #000000; stroke-width: 0.8; stroke-linejoin: miter; stroke-linecap: square"/>
   </g>
   <g id="patch_5">
    <path d="M 47.72 318.04 
L 709.2 318.04 
" style="fill: none; stroke: #000000; stroke-width: 0.8; stroke-linejoin: miter; stroke-linecap: square"/>
   </g>
   <g id="patch_6">
    <path d="M 47.72 26.88 
L 709.2 26.88 
" style="fill: none; stroke: #000000; stroke-width: 0.8; stroke-linejoin: miter; stroke-linecap: square"/>
   </g>
   <g id="text_15">
    <text style="font-size: 12px; font-family: 'DejaVu Sans', 'Bitstream Vera Sans', 'Computer Modern Sans Serif', 'Lucida Grande', 'Verdana', 'Geneva', 'Lucid', 'Arial', 'Helvetica', 'Avant Garde', sans-serif; text-anchor: middle" x="378.46" y="20.88" transform="rotate(-0 378.46 20.88)">Cache L2 Retained Fraction Over Decoding</text>
   </g>
   <g id="legend_1">
    <g id="patch_7">
     <path d="M 54.72 313.04 
L 292.12625 313.04 
Q 294.12625 313.04 294.12625 311.04 
L 294.12625 222.580625 
Q 294.12625 220.580625 292.12625 220.580625 
L 54.72 220.580625 
Q 52.72 220.580625 52.72 222.580625 
L 52.72 311.04 
Q 52.72 313.04 54.72 313.04 
z
" style="fill: #ffffff; opacity: 0.8; stroke: #cccccc; stroke-linejoin: miter"/>
    </g>
    <g id="line2d_19">
     <path d="M 56.72 228.679063 
L 66.72 228.679063 
L 76.72 228.679063 
" style="fill: none; stroke: #1f77b4; stroke-opacity: 0.85; stroke-width: 1.5; stroke-linecap: square"/>
    </g>
    <g id="text_16">
     <text style="font-size: 10px; font-family: 'DejaVu Sans', 'Bitstream Vera Sans', 'Computer Modern Sans Serif', 'Lucida Grande', 'Verdana', 'Geneva', 'Lucid', 'Arial', 'Helvetica', 'Avant Garde', sans-serif; text-anchor: start" x="84.72" y="232.179063" transform="rotate(-0 84.72 232.179063)">none</text>
    </g>
    <g id="line2d_20">
     <path d="M 56.72 243.357188 
L 66.72 243.357188 
L 76.72 243.357188 
" style="fill: none; stroke: #ff7f0e; stroke-opacity: 0.85; stroke-width: 1.5; stroke-linecap: square"/>
    </g>
    <g id="text_17">
     <text style="font-size: 10px; font-family: 'DejaVu Sans', 'Bitstream Vera Sans', 'Computer Modern Sans Serif', 'Lucida Grande', 'Verdana', 'Geneva', 'Lucid', 'Arial', 'Helvetica', 'Avant Garde', sans-serif; text-anchor: start" x="84.72" y="246.857188" transform="rotate(-0 84.72 246.857188)">policy_pinned__budget128__sink8</text>
    </g>
    <g id="line2d_21">
     <path d="M 56.72 258.313438 
L 66.72 258.313438 
L 76.72 258.313438 
" style="fill: none; stroke: #2ca02c; stroke-opacity: 0.85; stroke-width: 1.5; stroke-linecap: square"/>
    </g>
    <g id="text_18">
     <text style="font-size: 10px; font-family: 'DejaVu Sans', 'Bitstream Vera Sans', 'Computer Modern Sans Serif', 'Lucida Grande', 'Verdana', 'Geneva', 'Lucid', 'Arial', 'Helvetica', 'Avant Garde', sans-serif; text-anchor: start" x="84.72" y="261.813438" transform="rotate(-0 84.72 261.813438)">random_matched__budget128__seed991</text>
    </g>
    <g id="line2d_22">
     <path d="M 56.72 273.269688 
L 66.72 273.269688 
L 76.72 273.269688 
" style="fill: none; stroke: #d62728; stroke-opacity: 0.85; stroke-width: 1.5; stroke-linecap: square"/>
    </g>
    <g id="text_19">
     <text style="font-size: 10px; font-family: 'DejaVu Sans', 'Bitstream Vera Sans', 'Computer Modern Sans Serif', 'Lucida Grande', 'Verdana', 'Geneva', 'Lucid', 'Arial', 'Helvetica', 'Avant Garde', sans-serif; text-anchor: start" x="84.72" y="276.769688" transform="rotate(-0 84.72 276.769688)">sink_recent__budget128__sink8</text>
    </g>
    <g id="line2d_23">
     <path d="M 56.72 288.225937 
L 66.72 288.225937 
L 76.72 288.225937 
" style="fill: none; stroke: #9467bd; stroke-opacity: 0.85; stroke-width: 1.5; stroke-linecap: square"/>
    </g>
    <g id="text_20">
     <text style="font-size: 10px; font-family: 'DejaVu Sans', 'Bitstream Vera Sans', 'Computer Modern Sans Serif', 'Lucida Grande', 'Verdana', 'Geneva', 'Lucid', 'Arial', 'Helvetica', 'Avant Garde', sans-serif; text-anchor: start" x="84.72" y="291.725937" transform="rotate(-0 84.72 291.725937)">sliding_window__budget128</text>
    </g>
    <g id="line2d_24">
     <path d="M 56.72 303.182187 
L 66.72 303.182187 
L 76.72 303.182187 
" style="fill: none; stroke: #8c564b; stroke-opacity: 0.85; stroke-width: 1.5; stroke-linecap: square"/>
    </g>
    <g id="text_21">
     <text style="font-size: 10px; font-family: 'DejaVu Sans', 'Bitstream Vera Sans', 'Computer Modern Sans Serif', 'Lucida Grande', 'Verdana', 'Geneva', 'Lucid', 'Arial', 'Helvetica', 'Avant Garde', sans-serif; text-anchor: start" x="84.72" y="306.682187" transform="rotate(-0 84.72 306.682187)">user_pinned__budget128__sink8</text>
    </g>
   </g>
  </g>
 </g>
 <defs>
  <clipPath id="p27794e1188">
   <rect x="47.72" y="26.88" width="661.48" height="291.16"/>
  </clipPath>
 </defs>
</svg>
