<?xml version="1.0" encoding="utf-8" standalone="no"?>
<!DOCTYPE svg PUBLIC "-//W3C//DTD SVG 1.1//EN"
  "http://www.w3.org/Graphics/SVG/1.1/DTD/svg11.dtd">
<svg xmlns:xlink="http://www.w3.org/1999/xlink" width="648pt" height="504pt" viewBox="0 0 648 504" xmlns="http://www.w3.org/2000/svg" version="1.1">
 <metadata>
  <rdf:RDF xmlns:dc="http://purl.org/dc/elements/1.1/" xmlns:cc="http://creativecommons.org/ns#" xmlns:rdf="http://www.w3.org/1999/02/22-rdf-syntax-ns#">
   <cc:Work>
    <dc:type rdf:resource="http://purl.org/dc/dcmitype/StillImage"/>
    <dc:date>2026-05-07T03:15:22.488196</dc:date>
    <dc:format>image/svg+xml</dc:format>
    <dc:creator>
     <cc:Agent>
      <dc:title>Matplotlib v3.10.9, https://matplotlib.org/</dc:title>
     </cc:Agent>
    </dc:creator>
   </cc:Work>
  </rdf:RDF>
 </metadata>
 <defs>
  <style type="text/css">*{stroke-linejoin: round; stroke-linecap: butt}</style>
 </defs>
 <g id="figure_1">
  <g id="patch_1">
   <path d="M 0 504 
L 648 504 
L 648 0 
L 0 0 
z
" style="fill: #ffffff"/>
  </g>
  <g id="axes_1">
   <g id="patch_2">
    <path d="M 62.39 462.04 
L 512.387273 462.04 
L 512.387273 26.88 
L 62.39 26.88 
z
" style="fill: #ffffff"/>
   </g>
   <g id="PathCollection_1">
    <path d="M 338.846989 321.791209 
C 340.204434 321.791209 341.506464 321.251891 342.466323 320.292032 
C 343.426181 319.332174 343.9655 318.030143 343.9655 316.672698 
C 343.9655 315.315253 343.426181 314.013223 342.466323 313.053365 
C 341.506464 312.093506 340.204434 311.554187 338.846989 311.554187 
C 337.489544 311.554187 336.187514 312.093506 335.227655 313.053365 
C 334.267797 314.013223 333.728478 315.315253 333.728478 316.672698 
C 333.728478 318.030143 334.267797 319.332174 335.227655 320.292032 
C 336.187514 321.251891 337.489544 321.791209 338.846989 321.791209 
z
" clip-path="url(#pd6ffc83f64)" style="fill: #1f77b4; fill-opacity: 0.9; stroke: #ffffff; stroke-opacity: 0.9; stroke-width: 0.7"/>
    <path d="M 444.859938 135.001287 
C 446.26926 135.001287 447.621051 134.441357 448.617593 133.444816 
C 449.614134 132.448274 450.174064 131.096483 450.174064 129.68716 
C 450.174064 128.277838 449.614134 126.926047 448.617593 125.929505 
C 447.621051 124.932964 446.26926 124.373034 444.859938 124.373034 
C 443.450615 124.373034 442.098824 124.932964 441.102282 125.929505 
C 440.105741 126.926047 439.545811 128.277838 439.545811 129.68716 
C 439.545811 131.096483 440.105741 132.448274 441.102282 133.444816 
C 442.098824 134.441357 443.450615 135.001287 444.859938 135.001287 
z
" clip-path="url(#pd6ffc83f64)" style="fill: #1f77b4; fill-opacity: 0.9; stroke: #ffffff; stroke-opacity: 0.9; stroke-width: 0.7"/>
    <path d="M 104.205239 121.871399 
C 105.058945 121.871399 105.877801 121.532218 106.481462 120.928557 
C 107.085123 120.324896 107.424304 119.50604 107.424304 118.652335 
C 107.424304 117.798629 107.085123 116.979773 106.481462 116.376112 
C 105.877801 115.772451 105.058945 115.43327 104.205239 115.43327 
C 103.351534 115.43327 102.532678 115.772451 101.929017 116.376112 
C 101.325356 116.979773 100.986175 117.798629 100.986175 118.652335 
C 100.986175 119.50604 101.325356 120.324896 101.929017 120.928557 
C 102.532678 121.532218 103.351534 121.871399 104.205239 121.871399 
z
" clip-path="url(#pd6ffc83f64)" style="fill: #1f77b4; fill-opacity: 0.9; stroke: #ffffff; stroke-opacity: 0.9; stroke-width: 0.7"/>
    <path d="M 101.119788 127.255685 
C 101.958157 127.255685 102.762301 126.922597 103.355118 126.329781 
C 103.947934 125.736964 104.281022 124.93282 104.281022 124.094451 
C 104.281022 123.256082 103.947934 122.451937 103.355118 121.859121 
C 102.762301 121.266305 101.958157 120.933217 101.119788 120.933217 
C 100.281419 120.933217 99.477275 121.266305 98.884458 121.859121 
C 98.291642 122.451937 97.958554 123.256082 97.958554 124.094451 
C 97.958554 124.93282 98.291642 125.736964 98.884458 126.329781 
C 99.477275 126.922597 100.281419 127.255685 101.119788 127.255685 
z
" clip-path="url(#pd6ffc83f64)" style="fill: #1f77b4; fill-opacity: 0.9; stroke: #ffffff; stroke-opacity: 0.9; stroke-width: 0.7"/>
    <path d="M 267.644262 447.704944 
C 269.088278 447.704944 270.473346 447.13123 271.494419 446.110157 
C 272.515493 445.089083 273.089206 443.704016 273.089206 442.26 
C 273.089206 440.815984 272.515493 439.430917 271.494419 438.409843 
C 270.473346 437.38877 269.088278 436.815056 267.644262 436.815056 
C 266.200246 436.815056 264.815179 437.38877 263.794105 438.409843 
C 262.773032 439.430917 262.199318 440.815984 262.199318 442.26 
C 262.199318 443.704016 262.773032 445.089083 263.794105 446.110157 
C 264.815179 447.13123 266.200246 447.704944 267.644262 447.704944 
z
" clip-path="url(#pd6ffc83f64)" style="fill: #1f77b4; fill-opacity: 0.9; stroke: #ffffff; stroke-opacity: 0.9; stroke-width: 0.7"/>
    <path d="M 491.932851 52.272486 
C 493.4213 52.272486 494.848986 51.681119 495.901478 50.628627 
C 496.95397 49.576135 497.545337 48.148449 497.545337 46.66 
C 497.545337 45.171551 496.95397 43.743865 495.901478 42.691373 
C 494.848986 41.638881 493.4213 41.047514 491.932851 41.047514 
C 490.444403 41.047514 489.016716 41.638881 487.964224 42.691373 
C 486.911732 43.743865 486.320365 45.171551 486.320365 46.66 
C 486.320365 48.148449 486.911732 49.576135 487.964224 50.628627 
C 489.016716 51.681119 490.444403 52.272486 491.932851 52.272486 
z
" clip-path="url(#pd6ffc83f64)" style="fill: #1f77b4; fill-opacity: 0.9; stroke: #ffffff; stroke-opacity: 0.9; stroke-width: 0.7"/>
    <path d="M 82.844421 159.521029 
C 83.691083 159.521029 84.503182 159.184646 85.101862 158.585966 
C 85.700543 157.987286 86.036925 157.175187 86.036925 156.328525 
C 86.036925 155.481863 85.700543 154.669764 85.101862 154.071084 
C 84.503182 153.472404 83.691083 153.136021 82.844421 153.136021 
C 81.99776 153.136021 81.185661 153.472404 80.586981 154.071084 
C 79.9883 154.669764 79.651918 155.481863 79.651918 156.328525 
C 79.651918 157.175187 79.9883 157.987286 80.586981 158.585966 
C 81.185661 159.184646 81.99776 159.521029 82.844421 159.521029 
z
" clip-path="url(#pd6ffc83f64)" style="fill: #1f77b4; fill-opacity: 0.9; stroke: #ffffff; stroke-opacity: 0.9; stroke-width: 0.7"/>
    <path d="M 378.720516 251.43434 
C 380.07054 251.43434 381.365453 250.89797 382.320065 249.943358 
C 383.274676 248.988747 383.811047 247.693834 383.811047 246.34381 
C 383.811047 244.993785 383.274676 243.698872 382.320065 242.744261 
C 381.365453 241.789649 380.07054 241.253279 378.720516 241.253279 
C 377.370491 241.253279 376.075579 241.789649 375.120967 242.744261 
C 374.166356 243.698872 373.629985 244.993785 373.629985 246.34381 
C 373.629985 247.693834 374.166356 248.988747 375.120967 249.943358 
C 376.075579 250.89797 377.370491 251.43434 378.720516 251.43434 
z
" clip-path="url(#pd6ffc83f64)" style="fill: #1f77b4; fill-opacity: 0.9; stroke: #ffffff; stroke-opacity: 0.9; stroke-width: 0.7"/>
    <path d="M 483.625866 66.86656 
C 485.098992 66.86656 486.511981 66.281281 487.553638 65.239624 
C 488.595296 64.197966 489.180575 62.784978 489.180575 61.311852 
C 489.180575 59.838726 488.595296 58.425737 487.553638 57.38408 
C 486.511981 56.342423 485.098992 55.757144 483.625866 55.757144 
C 482.152741 55.757144 480.739752 56.342423 479.698095 57.38408 
C 478.656437 58.425737 478.071158 59.838726 478.071158 61.311852 
C 478.071158 62.784978 478.656437 64.197966 479.698095 65.239624 
C 480.739752 66.281281 482.152741 66.86656 483.625866 66.86656 
z
" clip-path="url(#pd6ffc83f64)" style="fill: #1f77b4; fill-opacity: 0.9; stroke: #ffffff; stroke-opacity: 0.9; stroke-width: 0.7"/>
   </g>
   <g id="PathCollection_2">
    <path d="M 100.142496 128.960893 
C 100.975948 128.960893 101.775376 128.629759 102.364716 128.040419 
C 102.954056 127.451079 103.28519 126.651651 103.28519 125.818198 
C 103.28519 124.984746 102.954056 124.185317 102.364716 123.595978 
C 101.775376 123.006638 100.975948 122.675504 100.142496 122.675504 
C 99.309043 122.675504 98.509615 123.006638 97.920275 123.595978 
C 97.330935 124.185317 96.999801 124.984746 96.999801 125.818198 
C 96.999801 126.651651 97.330935 127.451079 97.920275 128.040419 
C 98.509615 128.629759 99.309043 128.960893 100.142496 128.960893 
z
" clip-path="url(#pd6ffc83f64)" style="fill: #ff7f0e; fill-opacity: 0.9; stroke: #ffffff; stroke-opacity: 0.9; stroke-width: 0.7"/>
    <path d="M 94.278742 139.189759 
C 95.082062 139.189759 95.852589 138.870596 96.420622 138.302563 
C 96.988656 137.734529 97.307818 136.964002 97.307818 136.160682 
C 97.307818 135.357361 96.988656 134.586835 96.420622 134.018801 
C 95.852589 133.450768 95.082062 133.131605 94.278742 133.131605 
C 93.475421 133.131605 92.704894 133.450768 92.136861 134.018801 
C 91.568828 134.586835 91.249665 135.357361 91.249665 136.160682 
C 91.249665 136.964002 91.568828 137.734529 92.136861 138.302563 
C 92.704894 138.870596 93.475421 139.189759 94.278742 139.189759 
z
" clip-path="url(#pd6ffc83f64)" style="fill: #ff7f0e; fill-opacity: 0.9; stroke: #ffffff; stroke-opacity: 0.9; stroke-width: 0.7"/>
   </g>
   <g id="PathCollection_3">
    <defs>
     <path id="m6453989e12" d="M 0 3.170463 
C 0.840817 3.170463 1.647309 2.836403 2.241856 2.241856 
C 2.836403 1.647309 3.170463 0.840817 3.170463 0 
C 3.170463 -0.840817 2.836403 -1.647309 2.241856 -2.241856 
C 1.647309 -2.836403 0.840817 -3.170463 0 -3.170463 
C -0.840817 -3.170463 -1.647309 -2.836403 -2.241856 -2.241856 
C -2.836403 -1.647309 -3.170463 -0.840817 -3.170463 0 
C -3.170463 0.840817 -2.836403 1.647309 -2.241856 2.241856 
C -1.647309 2.836403 -0.840817 3.170463 0 3.170463 
z
" style="stroke: #ffffff; stroke-opacity: 0.9; stroke-width: 0.7"/>
    </defs>
    <g clip-path="url(#pd6ffc83f64)">
     <use xlink:href="#m6453989e12" x="101.608434" y="123.232577" style="fill: #2ca02c; fill-opacity: 0.9; stroke: #ffffff; stroke-opacity: 0.9; stroke-width: 0.7"/>
    </g>
   </g>
   <g id="matplotlib.axis_1">
    <g id="xtick_1">
     <g id="line2d_1">
      <defs>
       <path id="m38d877001b" d="M 0 0 
L 0 3.5 
" style="stroke: #000000; stroke-width: 0.8"/>
      </defs>
      <g>
       <use xlink:href="#m38d877001b" x="85.493969" y="462.04" style="stroke: #000000; stroke-width: 0.8"/>
      </g>
     </g>
     <g id="text_1">
      <text style="font-size: 10px; font-family: 'DejaVu Sans', 'Bitstream Vera Sans', 'Computer Modern Sans Serif', 'Lucida Grande', 'Verdana', 'Geneva', 'Lucid', 'Arial', 'Helvetica', 'Avant Garde', sans-serif; text-anchor: middle" x="85.493969" y="476.638438" transform="rotate(-0 85.493969 476.638438)">−0.75</text>
     </g>
    </g>
    <g id="xtick_2">
     <g id="line2d_2">
      <g>
       <use xlink:href="#m38d877001b" x="140.0468" y="462.04" style="stroke: #000000; stroke-width: 0.8"/>
      </g>
     </g>
     <g id="text_2">
      <text style="font-size: 10px; font-family: 'DejaVu Sans', 'Bitstream Vera Sans', 'Computer Modern Sans Serif', 'Lucida Grande', 'Verdana', 'Geneva', 'Lucid', 'Arial', 'Helvetica', 'Avant Garde', sans-serif; text-anchor: middle" x="140.0468" y="476.638438" transform="rotate(-0 140.0468 476.638438)">−0.50</text>
     </g>
    </g>
    <g id="xtick_3">
     <g id="line2d_3">
      <g>
       <use xlink:href="#m38d877001b" x="194.599631" y="462.04" style="stroke: #000000; stroke-width: 0.8"/>
      </g>
     </g>
     <g id="text_3">
      <text style="font-size: 10px; font-family: 'DejaVu Sans', 'Bitstream Vera Sans', 'Computer Modern Sans Serif', 'Lucida Grande', 'Verdana', 'Geneva', 'Lucid', 'Arial', 'Helvetica', 'Avant Garde', sans-serif; text-anchor: middle" x="194.599631" y="476.638438" transform="rotate(-0 194.599631 476.638438)">−0.25</text>
     </g>
    </g>
    <g id="xtick_4">
     <g id="line2d_4">
      <g>
       <use xlink:href="#m38d877001b" x="249.152462" y="462.04" style="stroke: #000000; stroke-width: 0.8"/>
      </g>
     </g>
     <g id="text_4">
      <text style="font-size: 10px; font-family: 'DejaVu Sans', 'Bitstream Vera Sans', 'Computer Modern Sans Serif', 'Lucida Grande', 'Verdana', 'Geneva', 'Lucid', 'Arial', 'Helvetica', 'Avant Garde', sans-serif; text-anchor: middle" x="249.152462" y="476.638438" transform="rotate(-0 249.152462 476.638438)">0.00</text>
     </g>
    </g>
    <g id="xtick_5">
     <g id="line2d_5">
      <g>
       <use xlink:href="#m38d877001b" x="303.705293" y="462.04" style="stroke: #000000; stroke-width: 0.8"/>
      </g>
     </g>
     <g id="text_5">
      <text style="font-size: 10px; font-family: 'DejaVu Sans', 'Bitstream Vera Sans', 'Computer Modern Sans Serif', 'Lucida Grande', 'Verdana', 'Geneva', 'Lucid', 'Arial', 'Helvetica', 'Avant Garde', sans-serif; text-anchor: middle" x="303.705293" y="476.638438" transform="rotate(-0 303.705293 476.638438)">0.25</text>
     </g>
    </g>
    <g id="xtick_6">
     <g id="line2d_6">
      <g>
       <use xlink:href="#m38d877001b" x="358.258124" y="462.04" style="stroke: #000000; stroke-width: 0.8"/>
      </g>
     </g>
     <g id="text_6">
      <text style="font-size: 10px; font-family: 'DejaVu Sans', 'Bitstream Vera Sans', 'Computer Modern Sans Serif', 'Lucida Grande', 'Verdana', 'Geneva', 'Lucid', 'Arial', 'Helvetica', 'Avant Garde', sans-serif; text-anchor: middle" x="358.258124" y="476.638438" transform="rotate(-0 358.258124 476.638438)">0.50</text>
     </g>
    </g>
    <g id="xtick_7">
     <g id="line2d_7">
      <g>
       <use xlink:href="#m38d877001b" x="412.810955" y="462.04" style="stroke: #000000; stroke-width: 0.8"/>
      </g>
     </g>
     <g id="text_7">
      <text style="font-size: 10px; font-family: 'DejaVu Sans', 'Bitstream Vera Sans', 'Computer Modern Sans Serif', 'Lucida Grande', 'Verdana', 'Geneva', 'Lucid', 'Arial', 'Helvetica', 'Avant Garde', sans-serif; text-anchor: middle" x="412.810955" y="476.638438" transform="rotate(-0 412.810955 476.638438)">0.75</text>
     </g>
    </g>
    <g id="xtick_8">
     <g id="line2d_8">
      <g>
       <use xlink:href="#m38d877001b" x="467.363786" y="462.04" style="stroke: #000000; stroke-width: 0.8"/>
      </g>
     </g>
     <g id="text_8">
      <text style="font-size: 10px; font-family: 'DejaVu Sans', 'Bitstream Vera Sans', 'Computer Modern Sans Serif', 'Lucida Grande', 'Verdana', 'Geneva', 'Lucid', 'Arial', 'Helvetica', 'Avant Garde', sans-serif; text-anchor: middle" x="467.363786" y="476.638438" transform="rotate(-0 467.363786 476.638438)">1.00</text>
     </g>
    </g>
    <g id="text_9">
     <text style="font-size: 10px; font-family: 'DejaVu Sans', 'Bitstream Vera Sans', 'Computer Modern Sans Serif', 'Lucida Grande', 'Verdana', 'Geneva', 'Lucid', 'Arial', 'Helvetica', 'Avant Garde', sans-serif; text-anchor: middle" x="287.388636" y="490.316563" transform="rotate(-0 287.388636 490.316563)">Effect direction 1</text>
    </g>
   </g>
   <g id="matplotlib.axis_2">
    <g id="ytick_1">
     <g id="line2d_9">
      <defs>
       <path id="m44a9518ae2" d="M 0 0 
L -3.5 0 
" style="stroke: #000000; stroke-width: 0.8"/>
      </defs>
      <g>
       <use xlink:href="#m44a9518ae2" x="62.39" y="415.999233" style="stroke: #000000; stroke-width: 0.8"/>
      </g>
     </g>
     <g id="text_10">
      <text style="font-size: 10px; font-family: 'DejaVu Sans', 'Bitstream Vera Sans', 'Computer Modern Sans Serif', 'Lucida Grande', 'Verdana', 'Geneva', 'Lucid', 'Arial', 'Helvetica', 'Avant Garde', sans-serif; text-anchor: end" x="55.39" y="419.798452" transform="rotate(-0 55.39 419.798452)">−1.25</text>
     </g>
    </g>
    <g id="ytick_2">
     <g id="line2d_10">
      <g>
       <use xlink:href="#m44a9518ae2" x="62.39" y="366.586424" style="stroke: #000000; stroke-width: 0.8"/>
      </g>
     </g>
     <g id="text_11">
      <text style="font-size: 10px; font-family: 'DejaVu Sans', 'Bitstream Vera Sans', 'Computer Modern Sans Serif', 'Lucida Grande', 'Verdana', 'Geneva', 'Lucid', 'Arial', 'Helvetica', 'Avant Garde', sans-serif; text-anchor: end" x="55.39" y="370.385643" transform="rotate(-0 55.39 370.385643)">−1.00</text>
     </g>
    </g>
    <g id="ytick_3">
     <g id="line2d_11">
      <g>
       <use xlink:href="#m44a9518ae2" x="62.39" y="317.173616" style="stroke: #000000; stroke-width: 0.8"/>
      </g>
     </g>
     <g id="text_12">
      <text style="font-size: 10px; font-family: 'DejaVu Sans', 'Bitstream Vera Sans', 'Computer Modern Sans Serif', 'Lucida Grande', 'Verdana', 'Geneva', 'Lucid', 'Arial', 'Helvetica', 'Avant Garde', sans-serif; text-anchor: end" x="55.39" y="320.972835" transform="rotate(-0 55.39 320.972835)">−0.75</text>
     </g>
    </g>
    <g id="ytick_4">
     <g id="line2d_12">
      <g>
       <use xlink:href="#m44a9518ae2" x="62.39" y="267.760808" style="stroke: #000000; stroke-width: 0.8"/>
      </g>
     </g>
     <g id="text_13">
      <text style="font-size: 10px; font-family: 'DejaVu Sans', 'Bitstream Vera Sans', 'Computer Modern Sans Serif', 'Lucida Grande', 'Verdana', 'Geneva', 'Lucid', 'Arial', 'Helvetica', 'Avant Garde', sans-serif; text-anchor: end" x="55.39" y="271.560026" transform="rotate(-0 55.39 271.560026)">−0.50</text>
     </g>
    </g>
    <g id="ytick_5">
     <g id="line2d_13">
      <g>
       <use xlink:href="#m44a9518ae2" x="62.39" y="218.347999" style="stroke: #000000; stroke-width: 0.8"/>
      </g>
     </g>
     <g id="text_14">
      <text style="font-size: 10px; font-family: 'DejaVu Sans', 'Bitstream Vera Sans', 'Computer Modern Sans Serif', 'Lucida Grande', 'Verdana', 'Geneva', 'Lucid', 'Arial', 'Helvetica', 'Avant Garde', sans-serif; text-anchor: end" x="55.39" y="222.147218" transform="rotate(-0 55.39 222.147218)">−0.25</text>
     </g>
    </g>
    <g id="ytick_6">
     <g id="line2d_14">
      <g>
       <use xlink:href="#m44a9518ae2" x="62.39" y="168.935191" style="stroke: #000000; stroke-width: 0.8"/>
      </g>
     </g>
     <g id="text_15">
      <text style="font-size: 10px; font-family: 'DejaVu Sans', 'Bitstream Vera Sans', 'Computer Modern Sans Serif', 'Lucida Grande', 'Verdana', 'Geneva', 'Lucid', 'Arial', 'Helvetica', 'Avant Garde', sans-serif; text-anchor: end" x="55.39" y="172.734409" transform="rotate(-0 55.39 172.734409)">0.00</text>
     </g>
    </g>
    <g id="ytick_7">
     <g id="line2d_15">
      <g>
       <use xlink:href="#m44a9518ae2" x="62.39" y="119.522382" style="stroke: #000000; stroke-width: 0.8"/>
      </g>
     </g>
     <g id="text_16">
      <text style="font-size: 10px; font-family: 'DejaVu Sans', 'Bitstream Vera Sans', 'Computer Modern Sans Serif', 'Lucida Grande', 'Verdana', 'Geneva', 'Lucid', 'Arial', 'Helvetica', 'Avant Garde', sans-serif; text-anchor: end" x="55.39" y="123.321601" transform="rotate(-0 55.39 123.321601)">0.25</text>
     </g>
    </g>
    <g id="ytick_8">
     <g id="line2d_16">
      <g>
       <use xlink:href="#m44a9518ae2" x="62.39" y="70.109574" style="stroke: #000000; stroke-width: 0.8"/>
      </g>
     </g>
     <g id="text_17">
      <text style="font-size: 10px; font-family: 'DejaVu Sans', 'Bitstream Vera Sans', 'Computer Modern Sans Serif', 'Lucida Grande', 'Verdana', 'Geneva', 'Lucid', 'Arial', 'Helvetica', 'Avant Garde', sans-serif; text-anchor: end" x="55.39" y="73.908793" transform="rotate(-0 55.39 73.908793)">0.50</text>
     </g>
    </g>
    <g id="text_18">
     <text style="font-size: 10px; font-family: 'DejaVu Sans', 'Bitstream Vera Sans', 'Computer Modern Sans Serif', 'Lucida Grande', 'Verdana', 'Geneva', 'Lucid', 'Arial', 'Helvetica', 'Avant Garde', sans-serif; text-anchor: middle" x="18.665" y="244.46" transform="rotate(-90 18.665 244.46)">Effect direction 2</text>
    </g>
   </g>
   <g id="line2d_17">
    <path d="M 62.39 168.935191 
L 512.387273 168.935191 
" clip-path="url(#pd6ffc83f64)" style="fill: none; stroke: #404040; stroke-width: 0.8; stroke-linecap: square"/>
   </g>
   <g id="line2d_18">
    <path d="M 249.152462 462.04 
L 249.152462 26.88 
" clip-path="url(#pd6ffc83f64)" style="fill: none; stroke: #404040; stroke-width: 0.8; stroke-linecap: square"/>
   </g>
   <g id="patch_3">
    <path d="M 62.39 462.04 
L 62.39 26.88 
" style="fill: none; stroke: #000000; stroke-width: 0.8; stroke-linejoin: miter; stroke-linecap: square"/>
   </g>
   <g id="patch_4">
    <path d="M 512.387273 462.04 
L 512.387273 26.88 
" style="fill: none; stroke: #000000; stroke-width: 0.8; stroke-linejoin: miter; stroke-linecap: square"/>
   </g>
   <g id="patch_5">
    <path d="M 62.39 462.04 
L 512.387273 462.04 
" style="fill: none; stroke: #000000; stroke-width: 0.8; stroke-linejoin: miter; stroke-linecap: square"/>
   </g>
   <g id="patch_6">
    <path d="M 62.39 26.88 
L 512.387273 26.88 
" style="fill: none; stroke: #000000; stroke-width: 0.8; stroke-linejoin: miter; stroke-linecap: square"/>
   </g>
   <g id="patch_7">
    <path d="M 249.152462 168.935191 
Q 293.999725 242.803945 337.274003 314.081804 
" style="fill: none; opacity: 0.85; stroke: #1f77b4; stroke-width: 2.711017; stroke-linecap: round"/>
    <path d="M 336.907737 309.624692 
L 337.274003 314.081804 
L 333.488554 311.70055 
" style="fill: none; opacity: 0.85; stroke: #1f77b4; stroke-width: 2.711017; stroke-linecap: round"/>
   </g>
   <g id="patch_8">
    <path d="M 249.152462 168.935191 
Q 347.0062 149.311176 441.63953 130.332995 
" style="fill: none; opacity: 0.85; stroke: #1f77b4; stroke-width: 2.937772; stroke-linecap: round"/>
    <path d="M 437.32436 129.158557 
L 441.63953 130.332995 
L 438.110877 133.080468 
" style="fill: none; opacity: 0.85; stroke: #1f77b4; stroke-width: 2.937772; stroke-linecap: round"/>
   </g>
   <g id="patch_9">
    <path d="M 249.152462 168.935191 
Q 176.678851 143.793763 105.210159 119.000946 
" style="fill: none; opacity: 0.31055; stroke: #1f77b4; stroke-width: 0.951375; stroke-linecap: round"/>
    <path d="M 108.333738 122.201454 
L 105.210159 119.000946 
L 109.644713 118.422388 
" style="fill: none; opacity: 0.31055; stroke: #1f77b4; stroke-width: 0.951375; stroke-linecap: round"/>
   </g>
   <g id="patch_10">
    <path d="M 249.152462 168.935191 
Q 175.136125 146.514821 102.093911 124.389524 
" style="fill: none; opacity: 0.294151; stroke: #1f77b4; stroke-width: 0.910378; stroke-linecap: round"/>
    <path d="M 105.34233 127.463247 
L 102.093911 124.389524 
L 106.501941 123.635023 
" style="fill: none; opacity: 0.294151; stroke: #1f77b4; stroke-width: 0.910378; stroke-linecap: round"/>
   </g>
   <g id="patch_11">
    <path d="M 249.152462 168.935191 
Q 258.398362 305.597595 267.410752 438.808517 
" style="fill: none; opacity: 0.85; stroke: #1f77b4; stroke-width: 3.094157; stroke-linecap: round"/>
    <path d="M 269.136188 434.682639 
L 267.410752 438.808517 
L 265.145311 434.952642 
" style="fill: none; opacity: 0.85; stroke: #1f77b4; stroke-width: 3.094157; stroke-linecap: round"/>
   </g>
   <g id="patch_12">
    <path d="M 249.152462 168.935191 
Q 370.542657 107.797595 488.63767 48.319602 
" style="fill: none; opacity: 0.85; stroke: #1f77b4; stroke-width: 3.3; stroke-linecap: round"/>
    <path d="M 484.165553 48.332625 
L 488.63767 48.319602 
L 485.964818 51.90511 
" style="fill: none; opacity: 0.85; stroke: #1f77b4; stroke-width: 3.3; stroke-linecap: round"/>
   </g>
   <g id="patch_13">
    <path d="M 249.152462 168.935191 
Q 165.998442 162.631858 83.883954 156.407325 
" style="fill: none; opacity: 0.302981; stroke: #1f77b4; stroke-width: 0.932453; stroke-linecap: round"/>
    <path d="M 87.721338 158.703948 
L 83.883954 156.407325 
L 88.023683 154.715391 
" style="fill: none; opacity: 0.302981; stroke: #1f77b4; stroke-width: 0.932453; stroke-linecap: round"/>
   </g>
   <g id="patch_14">
    <path d="M 249.152462 168.935191 
Q 313.936489 207.6395 376.148971 244.807476 
" style="fill: none; opacity: 0.85; stroke: #1f77b4; stroke-width: 2.679278; stroke-linecap: round"/>
    <path d="M 373.740874 241.039046 
L 376.148971 244.807476 
L 371.689368 244.472895 
" style="fill: none; opacity: 0.85; stroke: #1f77b4; stroke-width: 2.679278; stroke-linecap: round"/>
   </g>
   <g id="patch_15">
    <path d="M 249.152462 168.935191 
Q 366.389164 115.123521 480.345554 62.817516 
" style="fill: none; opacity: 0.85; stroke: #1f77b4; stroke-width: 3.228309; stroke-linecap: round"/>
    <path d="M 475.875902 62.668468 
L 480.345554 62.817516 
L 477.544524 66.303808 
" style="fill: none; opacity: 0.85; stroke: #1f77b4; stroke-width: 3.228309; stroke-linecap: round"/>
   </g>
   <g id="patch_16">
    <path d="M 249.152462 168.935191 
Q 174.647479 147.376694 101.106274 126.097074 
" style="fill: none; opacity: 0.288957; stroke: #ff7f0e; stroke-width: 0.897392; stroke-linecap: round"/>
    <path d="M 104.392743 129.130079 
L 101.106274 126.097074 
L 105.50456 125.287702 
" style="fill: none; opacity: 0.288957; stroke: #ff7f0e; stroke-width: 0.897392; stroke-linecap: round"/>
   </g>
   <g id="patch_17">
    <path d="M 249.152462 168.935191 
Q 171.715602 152.547936 95.175095 136.350369 
" style="fill: none; opacity: 0.257791; stroke: #ff7f0e; stroke-width: 0.819478; stroke-linecap: round"/>
    <path d="M 98.674357 139.135179 
L 95.175095 136.350369 
L 99.5025 135.221845 
" style="fill: none; opacity: 0.257791; stroke: #ff7f0e; stroke-width: 0.819478; stroke-linecap: round"/>
   </g>
   <g id="patch_18">
    <path d="M 249.152462 168.935191 
Q 175.380448 146.083884 102.587626 123.535888 
" style="fill: none; opacity: 0.296748; stroke: #2ca02c; stroke-width: 0.916871; stroke-linecap: round"/>
    <path d="M 105.816748 126.629878 
L 102.587626 123.535888 
L 107.000291 122.808985 
" style="fill: none; opacity: 0.296748; stroke: #2ca02c; stroke-width: 0.916871; stroke-linecap: round"/>
   </g>
   <g id="text_19">
    <text style="font-size: 7px; font-family: 'DejaVu Sans', 'Bitstream Vera Sans', 'Computer Modern Sans Serif', 'Lucida Grande', 'Verdana', 'Geneva', 'Lucid', 'Arial', 'Helvetica', 'Avant Garde', sans-serif; text-anchor: start" x="495.932851" y="42.66" transform="rotate(-0 495.932851 42.66)">random_matched / budget128 / seed991</text>
   </g>
   <g id="text_20">
    <text style="font-size: 7px; font-family: 'DejaVu Sans', 'Bitstream Vera Sans', 'Computer Modern Sans Serif', 'Lucida Grande', 'Verdana', 'Geneva', 'Lucid', 'Arial', 'Helvetica', 'Avant Garde', sans-serif; text-anchor: start" x="487.625866" y="57.311852" transform="rotate(-0 487.625866 57.311852)">user_pinned / budget128 / sink8</text>
   </g>
   <g id="text_21">
    <text style="font-size: 7px; font-family: 'DejaVu Sans', 'Bitstream Vera Sans', 'Computer Modern Sans Serif', 'Lucida Grande', 'Verdana', 'Geneva', 'Lucid', 'Arial', 'Helvetica', 'Avant Garde', sans-serif; text-anchor: start" x="271.644262" y="438.26" transform="rotate(-0 271.644262 438.26)">random_matched / budget128 / seed991</text>
   </g>
   <g id="text_22">
    <text style="font-size: 7px; font-family: 'DejaVu Sans', 'Bitstream Vera Sans', 'Computer Modern Sans Serif', 'Lucida Grande', 'Verdana', 'Geneva', 'Lucid', 'Arial', 'Helvetica', 'Avant Garde', sans-serif; text-anchor: start" x="448.859938" y="125.68716" transform="rotate(-0 448.859938 125.68716)">sliding_window / budget128</text>
   </g>
   <g id="text_23">
    <text style="font-size: 7px; font-family: 'DejaVu Sans', 'Bitstream Vera Sans', 'Computer Modern Sans Serif', 'Lucida Grande', 'Verdana', 'Geneva', 'Lucid', 'Arial', 'Helvetica', 'Avant Garde', sans-serif; text-anchor: start" x="342.846989" y="312.672698" transform="rotate(-0 342.846989 312.672698)">sliding_window / budget128</text>
   </g>
   <g id="text_24">
    <text style="font-size: 7px; font-family: 'DejaVu Sans', 'Bitstream Vera Sans', 'Computer Modern Sans Serif', 'Lucida Grande', 'Verdana', 'Geneva', 'Lucid', 'Arial', 'Helvetica', 'Avant Garde', sans-serif; text-anchor: start" x="382.720516" y="242.34381" transform="rotate(-0 382.720516 242.34381)">user_pinned / budget128 / sink8</text>
   </g>
   <g id="text_25">
    <text style="font-size: 7px; font-family: 'DejaVu Sans', 'Bitstream Vera Sans', 'Computer Modern Sans Serif', 'Lucida Grande', 'Verdana', 'Geneva', 'Lucid', 'Arial', 'Helvetica', 'Avant Garde', sans-serif; text-anchor: start" x="108.205239" y="114.652335" transform="rotate(-0 108.205239 114.652335)">sink_recent / budget128 / sink8</text>
   </g>
   <g id="text_26">
    <text style="font-size: 7px; font-family: 'DejaVu Sans', 'Bitstream Vera Sans', 'Computer Modern Sans Serif', 'Lucida Grande', 'Verdana', 'Geneva', 'Lucid', 'Arial', 'Helvetica', 'Avant Garde', sans-serif; text-anchor: start" x="86.844421" y="152.328525" transform="rotate(-0 86.844421 152.328525)">policy_pinned / budget128 / sink8</text>
   </g>
   <g id="text_27">
    <text style="font-size: 12px; font-family: 'DejaVu Sans', 'Bitstream Vera Sans', 'Computer Modern Sans Serif', 'Lucida Grande', 'Verdana', 'Geneva', 'Lucid', 'Arial', 'Helvetica', 'Avant Garde', sans-serif; text-anchor: middle" x="287.388636" y="20.88" transform="rotate(-0 287.388636 20.88)">Prompt-Level Effect Constellation</text>
   </g>
   <g id="legend_1">
    <g id="patch_19">
     <path d="M 67.99 82.853125 
L 198.11375 82.853125 
Q 199.71375 82.853125 199.71375 81.253125 
L 199.71375 32.48 
Q 199.71375 30.88 198.11375 30.88 
L 67.99 30.88 
Q 66.39 30.88 66.39 32.48 
L 66.39 81.253125 
Q 66.39 82.853125 67.99 82.853125 
z
" style="fill: #ffffff; opacity: 0.8; stroke: #cccccc; stroke-linejoin: miter"/>
    </g>
    <g id="text_28">
     <text style="font-size: 10px; font-family: 'DejaVu Sans', 'Bitstream Vera Sans', 'Computer Modern Sans Serif', 'Lucida Grande', 'Verdana', 'Geneva', 'Lucid', 'Arial', 'Helvetica', 'Avant Garde', sans-serif; text-anchor: start" x="120.852656" y="41.678437" transform="rotate(-0 120.852656 41.678437)">suite</text>
    </g>
    <g id="PathCollection_4">
     <defs>
      <path id="mb770356a4d" d="M 0 4.554855 
C 1.207962 4.554855 2.366611 4.074926 3.220769 3.220769 
C 4.074926 2.366611 4.554855 1.207962 4.554855 0 
C 4.554855 -1.207962 4.074926 -2.366611 3.220769 -3.220769 
C 2.366611 -4.074926 1.207962 -4.554855 0 -4.554855 
C -1.207962 -4.554855 -2.366611 -4.074926 -3.220769 -3.220769 
C -4.074926 -2.366611 -4.554855 -1.207962 -4.554855 0 
C -4.554855 1.207962 -4.074926 2.366611 -3.220769 3.220769 
C -2.366611 4.074926 -1.207962 4.554855 0 4.554855 
z
" style="stroke: #ffffff; stroke-opacity: 0.9; stroke-width: 0.7"/>
     </defs>
     <g>
      <use xlink:href="#mb770356a4d" x="77.59" y="51.736875" style="fill: #1f77b4; fill-opacity: 0.9; stroke: #ffffff; stroke-opacity: 0.9; stroke-width: 0.7"/>
     </g>
    </g>
    <g id="text_29">
     <text style="font-size: 8px; font-family: 'DejaVu Sans', 'Bitstream Vera Sans', 'Computer Modern Sans Serif', 'Lucida Grande', 'Verdana', 'Geneva', 'Lucid', 'Arial', 'Helvetica', 'Avant Garde', sans-serif; text-anchor: start" x="91.99" y="53.836875" transform="rotate(-0 91.99 53.836875)">adversarial_refusal_safety</text>
    </g>
    <g id="PathCollection_5">
     <defs>
      <path id="mf5a2c09ae4" d="M 0 3.086408 
C 0.818525 3.086408 1.603636 2.761205 2.18242 2.18242 
C 2.761205 1.603636 3.086408 0.818525 3.086408 0 
C 3.086408 -0.818525 2.761205 -1.603636 2.18242 -2.18242 
C 1.603636 -2.761205 0.818525 -3.086408 0 -3.086408 
C -0.818525 -3.086408 -1.603636 -2.761205 -2.18242 -2.18242 
C -2.761205 -1.603636 -3.086408 -0.818525 -3.086408 0 
C -3.086408 0.818525 -2.761205 1.603636 -2.18242 2.18242 
C -1.603636 2.761205 -0.818525 3.086408 0 3.086408 
z
" style="stroke: #ffffff; stroke-opacity: 0.9; stroke-width: 0.7"/>
     </defs>
     <g>
      <use xlink:href="#mf5a2c09ae4" x="77.59" y="63.701875" style="fill: #ff7f0e; fill-opacity: 0.9; stroke: #ffffff; stroke-opacity: 0.9; stroke-width: 0.7"/>
     </g>
    </g>
    <g id="text_30">
     <text style="font-size: 8px; font-family: 'DejaVu Sans', 'Bitstream Vera Sans', 'Computer Modern Sans Serif', 'Lucida Grande', 'Verdana', 'Geneva', 'Lucid', 'Arial', 'Helvetica', 'Avant Garde', sans-serif; text-anchor: start" x="91.99" y="65.801875" transform="rotate(-0 91.99 65.801875)">benign_overrefusal</text>
    </g>
    <g id="PathCollection_6">
     <g>
      <use xlink:href="#m6453989e12" x="77.59" y="75.666875" style="fill: #2ca02c; fill-opacity: 0.9; stroke: #ffffff; stroke-opacity: 0.9; stroke-width: 0.7"/>
     </g>
    </g>
    <g id="text_31">
     <text style="font-size: 8px; font-family: 'DejaVu Sans', 'Bitstream Vera Sans', 'Computer Modern Sans Serif', 'Lucida Grande', 'Verdana', 'Geneva', 'Lucid', 'Arial', 'Helvetica', 'Avant Garde', sans-serif; text-anchor: start" x="91.99" y="77.766875" transform="rotate(-0 91.99 77.766875)">refusal_safety</text>
    </g>
   </g>
  </g>
 </g>
 <defs>
  <clipPath id="pd6ffc83f64">
   <rect x="62.39" y="26.88" width="449.997273" height="435.16"/>
  </clipPath>
 </defs>
</svg>
