<?xml version="1.0" encoding="utf-8" standalone="no"?>
<!DOCTYPE svg PUBLIC "-//W3C//DTD SVG 1.1//EN"
  "http://www.w3.org/Graphics/SVG/1.1/DTD/svg11.dtd">
<svg xmlns:xlink="http://www.w3.org/1999/xlink" width="720pt" height="360pt" viewBox="0 0 720 360" xmlns="http://www.w3.org/2000/svg" version="1.1">
 <metadata>
  <rdf:RDF xmlns:dc="http://purl.org/dc/elements/1.1/" xmlns:cc="http://creativecommons.org/ns#" xmlns:rdf="http://www.w3.org/1999/02/22-rdf-syntax-ns#">
   <cc:Work>
    <dc:type rdf:resource="http://purl.org/dc/dcmitype/StillImage"/>
    <dc:date>2026-05-07T03:01:00.799136</dc:date>
    <dc:format>image/svg+xml</dc:format>
    <dc:creator>
     <cc:Agent>
      <dc:title>Matplotlib v3.10.9, https://matplotlib.org/</dc:title>
     </cc:Agent>
    </dc:creator>
   </cc:Work>
  </rdf:RDF>
 </metadata>
 <defs>
  <style type="text/css">*{stroke-linejoin: round; stroke-linecap: butt}</style>
 </defs>
 <g id="figure_1">
  <g id="patch_1">
   <path d="M 0 360 
L 720 360 
L 720 0 
L 0 0 
z
" style="fill: #ffffff"/>
  </g>
  <g id="axes_1">
   <g id="patch_2">
    <path d="M 47.72 318.04 
L 709.2 318.04 
L 709.2 26.88 
L 47.72 26.88 
z
" style="fill: #ffffff"/>
   </g>
   <g id="matplotlib.axis_1">
    <g id="xtick_1">
     <g id="line2d_1">
      <defs>
       <path id="m38d877001b" d="M 0 0 
L 0 3.5 
" style="stroke: #000000; stroke-width: 0.8"/>
      </defs>
      <g>
       <use xlink:href="#m38d877001b" x="77.787273" y="318.04" style="stroke: #000000; stroke-width: 0.8"/>
      </g>
     </g>
     <g id="text_1">
      <text style="font-size: 10px; font-family: 'DejaVu Sans', 'Bitstream Vera Sans', 'Computer Modern Sans Serif', 'Lucida Grande', 'Verdana', 'Geneva', 'Lucid', 'Arial', 'Helvetica', 'Avant Garde', sans-serif; text-anchor: middle" x="77.787273" y="332.638438" transform="rotate(-0 77.787273 332.638438)">0</text>
     </g>
    </g>
    <g id="xtick_2">
     <g id="line2d_2">
      <g>
       <use xlink:href="#m38d877001b" x="201.776026" y="318.04" style="stroke: #000000; stroke-width: 0.8"/>
      </g>
     </g>
     <g id="text_2">
      <text style="font-size: 10px; font-family: 'DejaVu Sans', 'Bitstream Vera Sans', 'Computer Modern Sans Serif', 'Lucida Grande', 'Verdana', 'Geneva', 'Lucid', 'Arial', 'Helvetica', 'Avant Garde', sans-serif; text-anchor: middle" x="201.776026" y="332.638438" transform="rotate(-0 201.776026 332.638438)">20</text>
     </g>
    </g>
    <g id="xtick_3">
     <g id="line2d_3">
      <g>
       <use xlink:href="#m38d877001b" x="325.76478" y="318.04" style="stroke: #000000; stroke-width: 0.8"/>
      </g>
     </g>
     <g id="text_3">
      <text style="font-size: 10px; font-family: 'DejaVu Sans', 'Bitstream Vera Sans', 'Computer Modern Sans Serif', 'Lucida Grande', 'Verdana', 'Geneva', 'Lucid', 'Arial', 'Helvetica', 'Avant Garde', sans-serif; text-anchor: middle" x="325.76478" y="332.638438" transform="rotate(-0 325.76478 332.638438)">40</text>
     </g>
    </g>
    <g id="xtick_4">
     <g id="line2d_4">
      <g>
       <use xlink:href="#m38d877001b" x="449.753533" y="318.04" style="stroke: #000000; stroke-width: 0.8"/>
      </g>
     </g>
     <g id="text_4">
      <text style="font-size: 10px; font-family: 'DejaVu Sans', 'Bitstream Vera Sans', 'Computer Modern Sans Serif', 'Lucida Grande', 'Verdana', 'Geneva', 'Lucid', 'Arial', 'Helvetica', 'Avant Garde', sans-serif; text-anchor: middle" x="449.753533" y="332.638438" transform="rotate(-0 449.753533 332.638438)">60</text>
     </g>
    </g>
    <g id="xtick_5">
     <g id="line2d_5">
      <g>
       <use xlink:href="#m38d877001b" x="573.742287" y="318.04" style="stroke: #000000; stroke-width: 0.8"/>
      </g>
     </g>
     <g id="text_5">
      <text style="font-size: 10px; font-family: 'DejaVu Sans', 'Bitstream Vera Sans', 'Computer Modern Sans Serif', 'Lucida Grande', 'Verdana', 'Geneva', 'Lucid', 'Arial', 'Helvetica', 'Avant Garde', sans-serif; text-anchor: middle" x="573.742287" y="332.638438" transform="rotate(-0 573.742287 332.638438)">80</text>
     </g>
    </g>
    <g id="xtick_6">
     <g id="line2d_6">
      <g>
       <use xlink:href="#m38d877001b" x="697.73104" y="318.04" style="stroke: #000000; stroke-width: 0.8"/>
      </g>
     </g>
     <g id="text_6">
      <text style="font-size: 10px; font-family: 'DejaVu Sans', 'Bitstream Vera Sans', 'Computer Modern Sans Serif', 'Lucida Grande', 'Verdana', 'Geneva', 'Lucid', 'Arial', 'Helvetica', 'Avant Garde', sans-serif; text-anchor: middle" x="697.73104" y="332.638438" transform="rotate(-0 697.73104 332.638438)">100</text>
     </g>
    </g>
    <g id="text_7">
     <text style="font-size: 10px; font-family: 'DejaVu Sans', 'Bitstream Vera Sans', 'Computer Modern Sans Serif', 'Lucida Grande', 'Verdana', 'Geneva', 'Lucid', 'Arial', 'Helvetica', 'Avant Garde', sans-serif; text-anchor: middle" x="378.46" y="346.316563" transform="rotate(-0 378.46 346.316563)">Decode step</text>
    </g>
   </g>
   <g id="matplotlib.axis_2">
    <g id="ytick_1">
     <g id="line2d_7">
      <defs>
       <path id="m44a9518ae2" d="M 0 0 
L -3.5 0 
" style="stroke: #000000; stroke-width: 0.8"/>
      </defs>
      <g>
       <use xlink:href="#m44a9518ae2" x="47.72" y="318.04" style="stroke: #000000; stroke-width: 0.8"/>
      </g>
     </g>
     <g id="text_8">
      <text style="font-size: 10px; font-family: 'DejaVu Sans', 'Bitstream Vera Sans', 'Computer Modern Sans Serif', 'Lucida Grande', 'Verdana', 'Geneva', 'Lucid', 'Arial', 'Helvetica', 'Avant Garde', sans-serif; text-anchor: end" x="40.72" y="321.839219" transform="rotate(-0 40.72 321.839219)">0.0</text>
     </g>
    </g>
    <g id="ytick_2">
     <g id="line2d_8">
      <g>
       <use xlink:href="#m44a9518ae2" x="47.72" y="262.580952" style="stroke: #000000; stroke-width: 0.8"/>
      </g>
     </g>
     <g id="text_9">
      <text style="font-size: 10px; font-family: 'DejaVu Sans', 'Bitstream Vera Sans', 'Computer Modern Sans Serif', 'Lucida Grande', 'Verdana', 'Geneva', 'Lucid', 'Arial', 'Helvetica', 'Avant Garde', sans-serif; text-anchor: end" x="40.72" y="266.380171" transform="rotate(-0 40.72 266.380171)">0.2</text>
     </g>
    </g>
    <g id="ytick_3">
     <g id="line2d_9">
      <g>
       <use xlink:href="#m44a9518ae2" x="47.72" y="207.121905" style="stroke: #000000; stroke-width: 0.8"/>
      </g>
     </g>
     <g id="text_10">
      <text style="font-size: 10px; font-family: 'DejaVu Sans', 'Bitstream Vera Sans', 'Computer Modern Sans Serif', 'Lucida Grande', 'Verdana', 'Geneva', 'Lucid', 'Arial', 'Helvetica', 'Avant Garde', sans-serif; text-anchor: end" x="40.72" y="210.921124" transform="rotate(-0 40.72 210.921124)">0.4</text>
     </g>
    </g>
    <g id="ytick_4">
     <g id="line2d_10">
      <g>
       <use xlink:href="#m44a9518ae2" x="47.72" y="151.662857" style="stroke: #000000; stroke-width: 0.8"/>
      </g>
     </g>
     <g id="text_11">
      <text style="font-size: 10px; font-family: 'DejaVu Sans', 'Bitstream Vera Sans', 'Computer Modern Sans Serif', 'Lucida Grande', 'Verdana', 'Geneva', 'Lucid', 'Arial', 'Helvetica', 'Avant Garde', sans-serif; text-anchor: end" x="40.72" y="155.462076" transform="rotate(-0 40.72 155.462076)">0.6</text>
     </g>
    </g>
    <g id="ytick_5">
     <g id="line2d_11">
      <g>
       <use xlink:href="#m44a9518ae2" x="47.72" y="96.20381" style="stroke: #000000; stroke-width: 0.8"/>
      </g>
     </g>
     <g id="text_12">
      <text style="font-size: 10px; font-family: 'DejaVu Sans', 'Bitstream Vera Sans', 'Computer Modern Sans Serif', 'Lucida Grande', 'Verdana', 'Geneva', 'Lucid', 'Arial', 'Helvetica', 'Avant Garde', sans-serif; text-anchor: end" x="40.72" y="100.003028" transform="rotate(-0 40.72 100.003028)">0.8</text>
     </g>
    </g>
    <g id="ytick_6">
     <g id="line2d_12">
      <g>
       <use xlink:href="#m44a9518ae2" x="47.72" y="40.744762" style="stroke: #000000; stroke-width: 0.8"/>
      </g>
     </g>
     <g id="text_13">
      <text style="font-size: 10px; font-family: 'DejaVu Sans', 'Bitstream Vera Sans', 'Computer Modern Sans Serif', 'Lucida Grande', 'Verdana', 'Geneva', 'Lucid', 'Arial', 'Helvetica', 'Avant Garde', sans-serif; text-anchor: end" x="40.72" y="44.543981" transform="rotate(-0 40.72 44.543981)">1.0</text>
     </g>
    </g>
    <g id="text_14">
     <text style="font-size: 10px; font-family: 'DejaVu Sans', 'Bitstream Vera Sans', 'Computer Modern Sans Serif', 'Lucida Grande', 'Verdana', 'Geneva', 'Lucid', 'Arial', 'Helvetica', 'Avant Garde', sans-serif; text-anchor: middle" x="18.737188" y="172.46" transform="rotate(-90 18.737188 172.46)">L2 retained fraction</text>
    </g>
   </g>
   <g id="line2d_13">
    <path d="M 77.787273 40.744762 
L 83.98671 40.744762 
L 90.186148 40.744762 
L 96.385586 40.744762 
L 102.585023 40.744762 
L 108.784461 40.744762 
L 114.983899 40.744762 
L 121.183336 40.744762 
L 127.382774 40.744762 
L 133.582212 40.744762 
L 139.781649 40.744762 
L 145.981087 40.744762 
L 152.180525 40.744762 
L 158.379963 40.744762 
L 164.5794 40.744762 
L 170.778838 40.744762 
L 176.978276 40.744762 
L 183.177713 40.744762 
L 189.377151 40.744762 
L 195.576589 40.744762 
L 201.776026 40.744762 
L 207.975464 40.744762 
L 214.174902 40.744762 
L 220.374339 40.744762 
L 226.573777 40.744762 
L 232.773215 40.744762 
L 238.972652 40.744762 
L 245.17209 40.744762 
L 251.371528 40.744762 
L 257.570965 40.744762 
L 263.770403 40.744762 
L 269.969841 40.744762 
L 276.169278 40.744762 
L 282.368716 40.744762 
L 288.568154 40.744762 
L 294.767591 40.744762 
L 300.967029 40.744762 
L 307.166467 40.744762 
L 313.365904 40.744762 
L 319.565342 40.744762 
L 325.76478 40.744762 
L 331.964217 40.744762 
L 338.163655 40.744762 
L 344.363093 40.744762 
L 350.56253 40.744762 
L 356.761968 40.744762 
L 362.961406 40.744762 
L 369.160843 40.744762 
L 375.360281 40.744762 
L 381.559719 40.744762 
L 387.759157 40.744762 
L 393.958594 40.744762 
L 400.158032 40.744762 
L 406.35747 40.744762 
L 412.556907 40.744762 
L 418.756345 40.744762 
L 424.955783 40.744762 
L 431.15522 40.744762 
L 437.354658 40.744762 
L 443.554096 40.744762 
L 449.753533 40.744762 
L 455.952971 40.744762 
L 462.152409 40.744762 
L 468.351846 40.744762 
L 474.551284 40.744762 
L 480.750722 40.744762 
L 486.950159 40.744762 
L 493.149597 40.744762 
L 499.349035 40.744762 
L 505.548472 40.744762 
L 511.74791 40.744762 
L 517.947348 40.744762 
L 524.146785 40.744762 
L 530.346223 40.744762 
L 536.545661 40.744762 
L 542.745098 40.744762 
L 548.944536 40.744762 
L 555.143974 40.744762 
L 561.343411 40.744762 
L 567.542849 40.744762 
L 573.742287 40.744762 
L 579.941724 40.744762 
L 586.141162 40.744762 
L 592.3406 40.744762 
L 598.540037 40.744762 
L 604.739475 40.744762 
L 610.938913 40.744762 
L 617.138351 40.744762 
L 623.337788 40.744762 
L 629.537226 40.744762 
L 635.736664 40.744762 
L 641.936101 40.744762 
L 648.135539 40.744762 
L 654.334977 40.744762 
L 660.534414 40.744762 
L 666.733852 40.744762 
L 672.93329 40.744762 
L 679.132727 40.744762 
" clip-path="url(#p27794e1188)" style="fill: none; stroke: #1f77b4; stroke-opacity: 0.85; stroke-width: 1.5; stroke-linecap: square"/>
   </g>
   <g id="line2d_14">
    <path d="M 77.787273 71.386712 
L 83.98671 40.925633 
L 90.186148 40.925354 
L 96.385586 40.98767 
L 102.585023 40.986295 
L 108.784461 40.987827 
L 114.983899 40.987566 
L 121.183336 40.98748 
L 127.382774 40.98576 
L 133.582212 40.9874 
L 139.781649 41.0167 
L 145.981087 41.017462 
L 152.180525 41.016769 
L 158.379963 41.018423 
L 164.5794 41.014795 
L 170.778838 41.017892 
L 176.978276 41.016769 
L 183.177713 41.017567 
L 189.377151 41.01866 
L 195.576589 41.01859 
L 201.776026 41.016918 
L 207.975464 41.018635 
L 214.174902 41.054207 
L 220.374339 41.05747 
L 226.573777 41.055495 
L 232.773215 41.05539 
L 238.972652 41.056637 
L 245.17209 41.05586 
L 251.371528 41.055444 
L 257.570965 41.057901 
L 263.770403 41.056292 
L 269.969841 41.05588 
L 276.169278 41.056714 
L 282.368716 41.055055 
L 288.568154 41.054697 
L 294.767591 41.058095 
L 300.967029 41.054325 
L 307.166467 41.059831 
L 313.365904 41.055659 
L 319.565342 41.058555 
L 325.76478 41.057623 
L 331.964217 41.056289 
L 338.163655 41.05686 
L 344.363093 41.104829 
L 350.56253 41.104726 
L 356.761968 41.106034 
L 362.961406 41.174999 
L 369.160843 41.175902 
L 375.360281 41.176524 
L 381.559719 41.179432 
L 387.759157 41.286143 
L 393.958594 41.28791 
L 400.158032 41.287081 
L 406.35747 41.288496 
L 412.556907 41.288172 
L 418.756345 41.284102 
L 424.955783 41.278796 
L 431.15522 41.285344 
L 437.354658 41.280617 
L 443.554096 41.28621 
L 449.753533 41.286733 
L 455.952971 41.286225 
L 462.152409 41.282379 
L 468.351846 41.101564 
L 474.551284 41.104558 
L 480.750722 41.46104 
L 486.950159 41.462404 
L 493.149597 41.821527 
L 499.349035 41.822425 
L 505.548472 41.814118 
L 511.74791 41.826771 
L 517.947348 41.815232 
L 524.146785 41.829383 
L 530.346223 41.8174 
L 536.545661 41.818794 
L 542.745098 41.826015 
L 548.944536 41.816211 
L 555.143974 41.822134 
L 561.343411 41.820753 
L 567.542849 41.818447 
L 573.742287 41.820551 
L 579.941724 41.819836 
L 586.141162 41.812021 
L 592.3406 41.824181 
L 598.540037 41.814596 
L 604.739475 41.811516 
L 610.938913 41.818394 
L 617.138351 41.807806 
L 623.337788 41.822192 
L 629.537226 41.821111 
L 635.736664 41.8202 
L 641.936101 41.820669 
L 648.135539 41.82781 
L 654.334977 41.814594 
L 660.534414 41.826706 
L 666.733852 41.822163 
L 672.93329 41.819084 
L 679.132727 41.827969 
" clip-path="url(#p27794e1188)" style="fill: none; stroke: #ff7f0e; stroke-opacity: 0.85; stroke-width: 1.5; stroke-linecap: square"/>
   </g>
   <g id="line2d_15">
    <path d="M 77.787273 71.338057 
L 83.98671 40.925475 
L 90.186148 40.925765 
L 96.385586 40.981212 
L 102.585023 40.98205 
L 108.784461 40.987027 
L 114.983899 40.982827 
L 121.183336 40.98373 
L 127.382774 40.983302 
L 133.582212 40.987391 
L 139.781649 41.016377 
L 145.981087 41.007984 
L 152.180525 41.011971 
L 158.379963 41.012019 
L 164.5794 41.008512 
L 170.778838 41.016155 
L 176.978276 41.013368 
L 183.177713 41.012954 
L 189.377151 41.01464 
L 195.576589 41.014875 
L 201.776026 41.013775 
L 207.975464 41.010568 
L 214.174902 41.055002 
L 220.374339 41.052441 
L 226.573777 41.055216 
L 232.773215 41.054476 
L 238.972652 41.050581 
L 245.17209 41.053158 
L 251.371528 41.055952 
L 257.570965 41.055899 
L 263.770403 41.049978 
L 269.969841 41.052537 
L 276.169278 41.05096 
L 282.368716 41.052491 
L 288.568154 41.054279 
L 294.767591 41.053186 
L 300.967029 41.056014 
L 307.166467 41.055565 
L 313.365904 41.049665 
L 319.565342 41.046352 
L 325.76478 41.055123 
L 331.964217 41.05718 
L 338.163655 41.054915 
L 344.363093 41.208681 
L 350.56253 41.21074 
L 356.761968 41.207491 
L 362.961406 41.280497 
L 369.160843 41.287528 
L 375.360281 41.285337 
L 381.559719 41.283408 
L 387.759157 41.387835 
L 393.958594 41.391801 
L 400.158032 41.390102 
L 406.35747 41.397122 
L 412.556907 41.395071 
L 418.756345 41.387404 
L 424.955783 41.385332 
L 431.15522 41.399125 
L 437.354658 41.393984 
L 443.554096 41.39435 
L 449.753533 41.392993 
L 455.952971 41.382048 
L 462.152409 41.398568 
L 468.351846 41.284763 
L 474.551284 41.281154 
L 480.750722 41.557064 
L 486.950159 41.559937 
L 493.149597 41.812771 
L 499.349035 41.814023 
L 505.548472 41.818358 
L 511.74791 41.818182 
L 517.947348 41.830578 
L 524.146785 41.836018 
L 530.346223 41.819087 
L 536.545661 41.82041 
L 542.745098 41.819518 
L 548.944536 41.814427 
L 555.143974 41.807144 
L 561.343411 41.816171 
L 567.542849 41.811502 
L 573.742287 41.824735 
L 579.941724 41.808325 
L 586.141162 41.811089 
L 592.3406 41.823266 
L 598.540037 41.812021 
L 604.739475 41.817659 
L 610.938913 41.824916 
L 617.138351 41.828076 
L 623.337788 41.812855 
L 629.537226 41.827882 
L 635.736664 41.819311 
L 641.936101 41.832786 
L 648.135539 41.824431 
L 654.334977 41.817435 
L 660.534414 41.813274 
L 666.733852 41.816143 
L 672.93329 41.820419 
L 679.132727 41.816256 
" clip-path="url(#p27794e1188)" style="fill: none; stroke: #2ca02c; stroke-opacity: 0.85; stroke-width: 1.5; stroke-linecap: square"/>
   </g>
   <g id="line2d_16">
    <path d="M 77.787273 71.356924 
L 83.98671 40.925147 
L 90.186148 40.924098 
L 96.385586 40.984533 
L 102.585023 40.983777 
L 108.784461 40.985474 
L 114.983899 40.986445 
L 121.183336 40.985799 
L 127.382774 40.986423 
L 133.582212 40.98611 
L 139.781649 41.016045 
L 145.981087 41.014922 
L 152.180525 41.015235 
L 158.379963 41.014338 
L 164.5794 41.016026 
L 170.778838 41.014542 
L 176.978276 41.017417 
L 183.177713 41.01483 
L 189.377151 41.015315 
L 195.576589 41.016713 
L 201.776026 41.013406 
L 207.975464 41.015182 
L 214.174902 41.054609 
L 220.374339 41.053328 
L 226.573777 41.054548 
L 232.773215 41.054796 
L 238.972652 41.053044 
L 245.17209 41.054673 
L 251.371528 41.054532 
L 257.570965 41.055061 
L 263.770403 41.053136 
L 269.969841 41.057111 
L 276.169278 41.054162 
L 282.368716 41.05639 
L 288.568154 41.056221 
L 294.767591 41.054805 
L 300.967029 41.054319 
L 307.166467 41.057015 
L 313.365904 41.055266 
L 319.565342 41.057231 
L 325.76478 41.056922 
L 331.964217 41.056807 
L 338.163655 41.05461 
L 344.363093 41.210505 
L 350.56253 41.207468 
L 356.761968 41.210302 
L 362.961406 41.284815 
L 369.160843 41.289197 
L 375.360281 41.28468 
L 381.559719 41.286318 
L 387.759157 41.395732 
L 393.958594 41.395481 
L 400.158032 41.286936 
L 406.35747 41.105032 
L 412.556907 41.105569 
L 418.756345 41.104492 
L 424.955783 41.101148 
L 431.15522 41.106609 
L 437.354658 41.100975 
L 443.554096 41.101815 
L 449.753533 41.105389 
L 455.952971 41.104625 
L 462.152409 41.103586 
L 468.351846 40.744762 
L 474.551284 40.744762 
L 480.750722 41.284531 
L 486.950159 41.278501 
L 493.149597 41.825779 
L 499.349035 41.812593 
L 505.548472 41.826297 
L 511.74791 41.819878 
L 517.947348 41.819312 
L 524.146785 41.826874 
L 530.346223 41.816239 
L 536.545661 41.825076 
L 542.745098 41.82272 
L 548.944536 41.826565 
L 555.143974 41.828051 
L 561.343411 41.824024 
L 567.542849 41.832075 
L 573.742287 41.816915 
L 579.941724 41.826142 
L 586.141162 41.823629 
L 592.3406 41.823168 
L 598.540037 41.82721 
L 604.739475 41.822194 
L 610.938913 41.823422 
L 617.138351 41.824506 
L 623.337788 41.82626 
L 629.537226 41.825538 
L 635.736664 41.832474 
L 641.936101 41.823841 
L 648.135539 41.837158 
L 654.334977 41.829971 
L 660.534414 41.823497 
L 666.733852 41.825608 
L 672.93329 41.820799 
L 679.132727 41.825697 
" clip-path="url(#p27794e1188)" style="fill: none; stroke: #d62728; stroke-opacity: 0.85; stroke-width: 1.5; stroke-linecap: square"/>
   </g>
   <g id="line2d_17">
    <path d="M 77.787273 71.346957 
L 83.98671 40.924173 
L 90.186148 40.925446 
L 96.385586 40.983078 
L 102.585023 40.98521 
L 108.784461 40.985586 
L 114.983899 40.984739 
L 121.183336 40.986421 
L 127.382774 40.985069 
L 133.582212 40.985085 
L 139.781649 41.013528 
L 145.981087 41.014241 
L 152.180525 41.01339 
L 158.379963 41.015298 
L 164.5794 41.016399 
L 170.778838 41.01566 
L 176.978276 41.016385 
L 183.177713 41.016031 
L 189.377151 41.015808 
L 195.576589 41.014664 
L 201.776026 41.014957 
L 207.975464 41.014065 
L 214.174902 41.05445 
L 220.374339 41.052745 
L 226.573777 41.056001 
L 232.773215 41.053024 
L 238.972652 41.053558 
L 245.17209 40.925517 
L 251.371528 40.744762 
L 257.570965 40.744762 
L 263.770403 40.744762 
L 269.969841 40.744762 
L 276.169278 40.744762 
L 282.368716 40.744762 
L 288.568154 40.744762 
L 294.767591 40.744762 
L 300.967029 40.744762 
L 307.166467 40.744762 
L 313.365904 40.744762 
L 319.565342 40.744762 
L 325.76478 40.744762 
L 331.964217 40.744762 
L 338.163655 40.744762 
L 344.363093 40.96026 
L 350.56253 40.957213 
L 356.761968 40.957266 
L 362.961406 41.012131 
L 369.160843 41.011677 
L 375.360281 41.010832 
L 381.559719 41.013863 
L 387.759157 41.103443 
L 393.958594 41.103358 
L 400.158032 41.099054 
L 406.35747 41.103613 
L 412.556907 41.099345 
L 418.756345 41.103629 
L 424.955783 41.10429 
L 431.15522 40.744762 
L 437.354658 40.744762 
L 443.554096 40.744762 
L 449.753533 40.744762 
L 455.952971 40.744762 
L 462.152409 40.744762 
L 468.351846 40.744762 
L 474.551284 40.744762 
L 480.750722 41.284821 
L 486.950159 41.277464 
L 493.149597 41.817928 
L 499.349035 41.814561 
L 505.548472 41.813969 
L 511.74791 41.815584 
L 517.947348 41.820654 
L 524.146785 41.818865 
L 530.346223 41.824071 
L 536.545661 41.818542 
L 542.745098 41.825282 
L 548.944536 41.812078 
L 555.143974 41.825709 
L 561.343411 41.819222 
L 567.542849 41.825124 
L 573.742287 41.82636 
L 579.941724 41.812463 
L 586.141162 41.826166 
L 592.3406 41.818684 
L 598.540037 41.822759 
L 604.739475 41.825439 
L 610.938913 41.829079 
L 617.138351 41.829508 
L 623.337788 41.81785 
L 629.537226 41.833494 
L 635.736664 41.814811 
L 641.936101 41.81767 
L 648.135539 41.831205 
L 654.334977 41.827769 
L 660.534414 41.82212 
L 666.733852 41.815496 
L 672.93329 41.823613 
L 679.132727 41.832291 
" clip-path="url(#p27794e1188)" style="fill: none; stroke: #9467bd; stroke-opacity: 0.85; stroke-width: 1.5; stroke-linecap: square"/>
   </g>
   <g id="line2d_18">
    <path d="M 77.787273 71.405648 
L 83.98671 40.922098 
L 90.186148 40.921837 
L 96.385586 40.982986 
L 102.585023 40.984856 
L 108.784461 40.982465 
L 114.983899 40.984728 
L 121.183336 40.984538 
L 127.382774 40.981399 
L 133.582212 40.984845 
L 139.781649 41.010766 
L 145.981087 41.010312 
L 152.180525 41.014102 
L 158.379963 41.015179 
L 164.5794 41.01092 
L 170.778838 41.013271 
L 176.978276 41.012388 
L 183.177713 41.012592 
L 189.377151 41.012842 
L 195.576589 41.012959 
L 201.776026 41.009989 
L 207.975464 41.015328 
L 214.174902 41.05136 
L 220.374339 41.049852 
L 226.573777 41.052185 
L 232.773215 41.051796 
L 238.972652 41.047651 
L 245.17209 41.054881 
L 251.371528 41.052097 
L 257.570965 41.051817 
L 263.770403 41.051941 
L 269.969841 41.051548 
L 276.169278 41.047678 
L 282.368716 41.053614 
L 288.568154 41.052827 
L 294.767591 41.050378 
L 300.967029 41.048222 
L 307.166467 41.053846 
L 313.365904 41.047524 
L 319.565342 41.052119 
L 325.76478 41.053037 
L 331.964217 41.053494 
L 338.163655 41.051553 
L 344.363093 41.205511 
L 350.56253 41.199692 
L 356.761968 41.2051 
L 362.961406 41.277044 
L 369.160843 41.282387 
L 375.360281 41.282689 
L 381.559719 41.276603 
L 387.759157 41.391074 
L 393.958594 41.390871 
L 400.158032 41.383164 
L 406.35747 41.392295 
L 412.556907 41.391836 
L 418.756345 41.388733 
L 424.955783 41.384328 
L 431.15522 41.390378 
L 437.354658 41.390205 
L 443.554096 41.392232 
L 449.753533 41.384835 
L 455.952971 41.39439 
L 462.152409 41.388274 
L 468.351846 41.279824 
L 474.551284 41.282862 
L 480.750722 41.544747 
L 486.950159 41.548794 
L 493.149597 41.826455 
L 499.349035 41.818157 
L 505.548472 41.82319 
L 511.74791 41.811784 
L 517.947348 41.819991 
L 524.146785 41.819453 
L 530.346223 41.821399 
L 536.545661 41.827844 
L 542.745098 41.817814 
L 548.944536 41.82582 
L 555.143974 41.826303 
L 561.343411 41.821105 
L 567.542849 41.8212 
L 573.742287 41.822267 
L 579.941724 41.825911 
L 586.141162 41.822588 
L 592.3406 41.823674 
L 598.540037 41.818109 
L 604.739475 41.821829 
L 610.938913 41.82256 
L 617.138351 41.821399 
L 623.337788 41.817807 
L 629.537226 41.819043 
L 635.736664 41.82838 
L 641.936101 41.827109 
L 648.135539 41.821824 
L 654.334977 41.831512 
L 660.534414 41.82319 
L 666.733852 41.817177 
L 672.93329 41.822617 
L 679.132727 41.811115 
" clip-path="url(#p27794e1188)" style="fill: none; stroke: #8c564b; stroke-opacity: 0.85; stroke-width: 1.5; stroke-linecap: square"/>
   </g>
   <g id="patch_3">
    <path d="M 47.72 318.04 
L 47.72 26.88 
" style="fill: none; stroke: #000000; stroke-width: 0.8; stroke-linejoin: miter; stroke-linecap: square"/>
   </g>
   <g id="patch_4">
    <path d="M 709.2 318.04 
L 709.2 26.88 
" style="fill: none; stroke: #000000; stroke-width: 0.8; stroke-linejoin: miter; stroke-linecap: square"/>
   </g>
   <g id="patch_5">
    <path d="M 47.72 318.04 
L 709.2 318.04 
" style="fill: none; stroke: #000000; stroke-width: 0.8; stroke-linejoin: miter; stroke-linecap: square"/>
   </g>
   <g id="patch_6">
    <path d="M 47.72 26.88 
L 709.2 26.88 
" style="fill: none; stroke: #000000; stroke-width: 0.8; stroke-linejoin: miter; stroke-linecap: square"/>
   </g>
   <g id="text_15">
    <text style="font-size: 12px; font-family: 'DejaVu Sans', 'Bitstream Vera Sans', 'Computer Modern Sans Serif', 'Lucida Grande', 'Verdana', 'Geneva', 'Lucid', 'Arial', 'Helvetica', 'Avant Garde', sans-serif; text-anchor: middle" x="378.46" y="20.88" transform="rotate(-0 378.46 20.88)">Cache L2 Retained Fraction Over Decoding</text>
   </g>
   <g id="legend_1">
    <g id="patch_7">
     <path d="M 54.72 313.04 
L 292.12625 313.04 
Q 294.12625 313.04 294.12625 311.04 
L 294.12625 222.580625 
Q 294.12625 220.580625 292.12625 220.580625 
L 54.72 220.580625 
Q 52.72 220.580625 52.72 222.580625 
L 52.72 311.04 
Q 52.72 313.04 54.72 313.04 
z
" style="fill: #ffffff; opacity: 0.8; stroke: #cccccc; stroke-linejoin: miter"/>
    </g>
    <g id="line2d_19">
     <path d="M 56.72 228.679063 
L 66.72 228.679063 
L 76.72 228.679063 
" style="fill: none; stroke: #1f77b4; stroke-opacity: 0.85; stroke-width: 1.5; stroke-linecap: square"/>
    </g>
    <g id="text_16">
     <text style="font-size: 10px; font-family: 'DejaVu Sans', 'Bitstream Vera Sans', 'Computer Modern Sans Serif', 'Lucida Grande', 'Verdana', 'Geneva', 'Lucid', 'Arial', 'Helvetica', 'Avant Garde', sans-serif; text-anchor: start" x="84.72" y="232.179063" transform="rotate(-0 84.72 232.179063)">none</text>
    </g>
    <g id="line2d_20">
     <path d="M 56.72 243.357188 
L 66.72 243.357188 
L 76.72 243.357188 
" style="fill: none; stroke: #ff7f0e; stroke-opacity: 0.85; stroke-width: 1.5; stroke-linecap: square"/>
    </g>
    <g id="text_17">
     <text style="font-size: 10px; font-family: 'DejaVu Sans', 'Bitstream Vera Sans', 'Computer Modern Sans Serif', 'Lucida Grande', 'Verdana', 'Geneva', 'Lucid', 'Arial', 'Helvetica', 'Avant Garde', sans-serif; text-anchor: start" x="84.72" y="246.857188" transform="rotate(-0 84.72 246.857188)">policy_pinned__budget128__sink8</text>
    </g>
    <g id="line2d_21">
     <path d="M 56.72 258.313438 
L 66.72 258.313438 
L 76.72 258.313438 
" style="fill: none; stroke: #2ca02c; stroke-opacity: 0.85; stroke-width: 1.5; stroke-linecap: square"/>
    </g>
    <g id="text_18">
     <text style="font-size: 10px; font-family: 'DejaVu Sans', 'Bitstream Vera Sans', 'Computer Modern Sans Serif', 'Lucida Grande', 'Verdana', 'Geneva', 'Lucid', 'Arial', 'Helvetica', 'Avant Garde', sans-serif; text-anchor: start" x="84.72" y="261.813438" transform="rotate(-0 84.72 261.813438)">random_matched__budget128__seed991</text>
    </g>
    <g id="line2d_22">
     <path d="M 56.72 273.269688 
L 66.72 273.269688 
L 76.72 273.269688 
" style="fill: none; stroke: #d62728; stroke-opacity: 0.85; stroke-width: 1.5; stroke-linecap: square"/>
    </g>
    <g id="text_19">
     <text style="font-size: 10px; font-family: 'DejaVu Sans', 'Bitstream Vera Sans', 'Computer Modern Sans Serif', 'Lucida Grande', 'Verdana', 'Geneva', 'Lucid', 'Arial', 'Helvetica', 'Avant Garde', sans-serif; text-anchor: start" x="84.72" y="276.769688" transform="rotate(-0 84.72 276.769688)">sink_recent__budget128__sink8</text>
    </g>
    <g id="line2d_23">
     <path d="M 56.72 288.225937 
L 66.72 288.225937 
L 76.72 288.225937 
" style="fill: none; stroke: #9467bd; stroke-opacity: 0.85; stroke-width: 1.5; stroke-linecap: square"/>
    </g>
    <g id="text_20">
     <text style="font-size: 10px; font-family: 'DejaVu Sans', 'Bitstream Vera Sans', 'Computer Modern Sans Serif', 'Lucida Grande', 'Verdana', 'Geneva', 'Lucid', 'Arial', 'Helvetica', 'Avant Garde', sans-serif; text-anchor: start" x="84.72" y="291.725937" transform="rotate(-0 84.72 291.725937)">sliding_window__budget128</text>
    </g>
    <g id="line2d_24">
     <path d="M 56.72 303.182187 
L 66.72 303.182187 
L 76.72 303.182187 
" style="fill: none; stroke: #8c564b; stroke-opacity: 0.85; stroke-width: 1.5; stroke-linecap: square"/>
    </g>
    <g id="text_21">
     <text style="font-size: 10px; font-family: 'DejaVu Sans', 'Bitstream Vera Sans', 'Computer Modern Sans Serif', 'Lucida Grande', 'Verdana', 'Geneva', 'Lucid', 'Arial', 'Helvetica', 'Avant Garde', sans-serif; text-anchor: start" x="84.72" y="306.682187" transform="rotate(-0 84.72 306.682187)">user_pinned__budget128__sink8</text>
    </g>
   </g>
  </g>
 </g>
 <defs>
  <clipPath id="p27794e1188">
   <rect x="47.72" y="26.88" width="661.48" height="291.16"/>
  </clipPath>
 </defs>
</svg>
