<?xml version="1.0" encoding="utf-8" standalone="no"?>
<!DOCTYPE svg PUBLIC "-//W3C//DTD SVG 1.1//EN"
  "http://www.w3.org/Graphics/SVG/1.1/DTD/svg11.dtd">
<svg xmlns:xlink="http://www.w3.org/1999/xlink" width="648pt" height="504pt" viewBox="0 0 648 504" xmlns="http://www.w3.org/2000/svg" version="1.1">
 <metadata>
  <rdf:RDF xmlns:dc="http://purl.org/dc/elements/1.1/" xmlns:cc="http://creativecommons.org/ns#" xmlns:rdf="http://www.w3.org/1999/02/22-rdf-syntax-ns#">
   <cc:Work>
    <dc:type rdf:resource="http://purl.org/dc/dcmitype/StillImage"/>
    <dc:date>2026-05-07T03:00:56.346292</dc:date>
    <dc:format>image/svg+xml</dc:format>
    <dc:creator>
     <cc:Agent>
      <dc:title>Matplotlib v3.10.9, https://matplotlib.org/</dc:title>
     </cc:Agent>
    </dc:creator>
   </cc:Work>
  </rdf:RDF>
 </metadata>
 <defs>
  <style type="text/css">*{stroke-linejoin: round; stroke-linecap: butt}</style>
 </defs>
 <g id="figure_1">
  <g id="patch_1">
   <path d="M 0 504 
L 648 504 
L 648 0 
L 0 0 
z
" style="fill: #ffffff"/>
  </g>
  <g id="axes_1">
   <g id="patch_2">
    <path d="M 56.09 462.04 
L 551.821836 462.04 
L 551.821836 26.88 
L 56.09 26.88 
z
" style="fill: #ffffff"/>
   </g>
   <g id="PathCollection_1">
    <path d="M 342.405362 446.220577 
C 343.455719 446.220577 344.463198 445.803266 345.205913 445.060551 
C 345.948627 444.317836 346.365939 443.310357 346.365939 442.26 
C 346.365939 441.209643 345.948627 440.202164 345.205913 439.459449 
C 344.463198 438.716734 343.455719 438.299423 342.405362 438.299423 
C 341.355004 438.299423 340.347525 438.716734 339.604811 439.459449 
C 338.862096 440.202164 338.444784 441.209643 338.444784 442.26 
C 338.444784 443.310357 338.862096 444.317836 339.604811 445.060551 
C 340.347525 445.803266 341.355004 446.220577 342.405362 446.220577 
z
" clip-path="url(#pe94f890833)" style="fill: #1f77b4; fill-opacity: 0.9; stroke: #ffffff; stroke-opacity: 0.9; stroke-width: 0.7"/>
    <path d="M 529.288571 280.473713 
C 530.726105 280.473713 532.104956 279.902574 533.121447 278.886084 
C 534.137937 277.869593 534.709076 276.490742 534.709076 275.053207 
C 534.709076 273.615673 534.137937 272.236822 533.121447 271.220331 
C 532.104956 270.203841 530.726105 269.632702 529.288571 269.632702 
C 527.851036 269.632702 526.472185 270.203841 525.455694 271.220331 
C 524.439204 272.236822 523.868065 273.615673 523.868065 275.053207 
C 523.868065 276.490742 524.439204 277.869593 525.455694 278.886084 
C 526.472185 279.902574 527.851036 280.473713 529.288571 280.473713 
z
" clip-path="url(#pe94f890833)" style="fill: #1f77b4; fill-opacity: 0.9; stroke: #ffffff; stroke-opacity: 0.9; stroke-width: 0.7"/>
    <path d="M 315.888504 321.687604 
C 316.698064 321.687604 317.474575 321.365962 318.047021 320.793517 
C 318.619466 320.221071 318.941108 319.44456 318.941108 318.635 
C 318.941108 317.82544 318.619466 317.048929 318.047021 316.476483 
C 317.474575 315.904038 316.698064 315.582396 315.888504 315.582396 
C 315.078944 315.582396 314.302432 315.904038 313.729987 316.476483 
C 313.157542 317.048929 312.8359 317.82544 312.8359 318.635 
C 312.8359 319.44456 313.157542 320.221071 313.729987 320.793517 
C 314.302432 321.365962 315.078944 321.687604 315.888504 321.687604 
z
" clip-path="url(#pe94f890833)" style="fill: #1f77b4; fill-opacity: 0.9; stroke: #ffffff; stroke-opacity: 0.9; stroke-width: 0.7"/>
    <path d="M 502.771713 156.75377 
C 504.184069 156.75377 505.538768 156.192635 506.537454 155.193949 
C 507.536141 154.195263 508.097276 152.840563 508.097276 151.428207 
C 508.097276 150.015852 507.536141 148.661152 506.537454 147.662466 
C 505.538768 146.663779 504.184069 146.102644 502.771713 146.102644 
C 501.359357 146.102644 500.004658 146.663779 499.005971 147.662466 
C 498.007285 148.661152 497.44615 150.015852 497.44615 151.428207 
C 497.44615 152.840563 498.007285 154.195263 499.005971 155.193949 
C 500.004658 156.192635 501.359357 156.75377 502.771713 156.75377 
z
" clip-path="url(#pe94f890833)" style="fill: #1f77b4; fill-opacity: 0.9; stroke: #ffffff; stroke-opacity: 0.9; stroke-width: 0.7"/>
    <path d="M 82.600794 275.068389 
C 84.078067 275.068389 85.495034 274.481462 86.539623 273.436872 
C 87.584213 272.392282 88.17114 270.975316 88.17114 269.498043 
C 88.17114 268.02077 87.584213 266.603803 86.539623 265.559213 
C 85.495034 264.514623 84.078067 263.927697 82.600794 263.927697 
C 81.123521 263.927697 79.706554 264.514623 78.661964 265.559213 
C 77.617375 266.603803 77.030448 268.02077 77.030448 269.498043 
C 77.030448 270.975316 77.617375 272.392282 78.661964 273.436872 
C 79.706554 274.481462 81.123521 275.068389 82.600794 275.068389 
z
" clip-path="url(#pe94f890833)" style="fill: #1f77b4; fill-opacity: 0.9; stroke: #ffffff; stroke-opacity: 0.9; stroke-width: 0.7"/>
    <path d="M 257.551417 51.423479 
C 258.814706 51.423479 260.026425 50.921569 260.919705 50.028288 
C 261.812986 49.135008 262.314896 47.923289 262.314896 46.66 
C 262.314896 45.396711 261.812986 44.184992 260.919705 43.291712 
C 260.026425 42.398431 258.814706 41.896521 257.551417 41.896521 
C 256.288127 41.896521 255.076409 42.398431 254.183129 43.291712 
C 253.289848 44.184992 252.787938 45.396711 252.787938 46.66 
C 252.787938 47.923289 253.289848 49.135008 254.183129 50.028288 
C 255.076409 50.921569 256.288127 51.423479 257.551417 51.423479 
z
" clip-path="url(#pe94f890833)" style="fill: #1f77b4; fill-opacity: 0.9; stroke: #ffffff; stroke-opacity: 0.9; stroke-width: 0.7"/>
    <path d="M 293.349175 217.307978 
C 294.344808 217.307978 295.299796 216.912409 296.003815 216.20839 
C 296.707833 215.504371 297.103403 214.549383 297.103403 213.55375 
C 297.103403 212.558117 296.707833 211.603129 296.003815 210.89911 
C 295.299796 210.195091 294.344808 209.799522 293.349175 209.799522 
C 292.353542 209.799522 291.398554 210.195091 290.694535 210.89911 
C 289.990516 211.603129 289.594947 212.558117 289.594947 213.55375 
C 289.594947 214.549383 289.990516 215.504371 290.694535 216.20839 
C 291.398554 216.912409 292.353542 217.307978 293.349175 217.307978 
z
" clip-path="url(#pe94f890833)" style="fill: #1f77b4; fill-opacity: 0.9; stroke: #ffffff; stroke-opacity: 0.9; stroke-width: 0.7"/>
    <path d="M 514.704299 212.404784 
C 516.121896 212.404784 517.481623 211.841567 518.484016 210.839174 
C 519.486408 209.836782 520.049626 208.477055 520.049626 207.059457 
C 520.049626 205.64186 519.486408 204.282133 518.484016 203.279741 
C 517.481623 202.277348 516.121896 201.714131 514.704299 201.714131 
C 513.286702 201.714131 511.926975 202.277348 510.924582 203.279741 
C 509.922189 204.282133 509.358972 205.64186 509.358972 207.059457 
C 509.358972 208.477055 509.922189 209.836782 510.924582 210.839174 
C 511.926975 211.841567 513.286702 212.404784 514.704299 212.404784 
z
" clip-path="url(#pe94f890833)" style="fill: #1f77b4; fill-opacity: 0.9; stroke: #ffffff; stroke-opacity: 0.9; stroke-width: 0.7"/>
    <path d="M 78.623265 256.566779 
C 80.111714 256.566779 81.5394 255.975412 82.591892 254.92292 
C 83.644384 253.870427 84.235751 252.442741 84.235751 250.954293 
C 84.235751 249.465844 83.644384 248.038158 82.591892 246.985666 
C 81.5394 245.933173 80.111714 245.341807 78.623265 245.341807 
C 77.134817 245.341807 75.70713 245.933173 74.654638 246.985666 
C 73.602146 248.038158 73.010779 249.465844 73.010779 250.954293 
C 73.010779 252.442741 73.602146 253.870427 74.654638 254.92292 
C 75.70713 255.975412 77.134817 256.566779 78.623265 256.566779 
z
" clip-path="url(#pe94f890833)" style="fill: #1f77b4; fill-opacity: 0.9; stroke: #ffffff; stroke-opacity: 0.9; stroke-width: 0.7"/>
    <path d="M 266.832317 94.452245 
C 268.031962 94.452245 269.182634 93.975621 270.030911 93.127344 
C 270.879188 92.279067 271.355812 91.128395 271.355812 89.92875 
C 271.355812 88.729105 270.879188 87.578433 270.030911 86.730156 
C 269.182634 85.881879 268.031962 85.405255 266.832317 85.405255 
C 265.632672 85.405255 264.482 85.881879 263.633723 86.730156 
C 262.785446 87.578433 262.308822 88.729105 262.308822 89.92875 
C 262.308822 91.128395 262.785446 92.279067 263.633723 93.127344 
C 264.482 93.975621 265.632672 94.452245 266.832317 94.452245 
z
" clip-path="url(#pe94f890833)" style="fill: #1f77b4; fill-opacity: 0.9; stroke: #ffffff; stroke-opacity: 0.9; stroke-width: 0.7"/>
   </g>
   <g id="PathCollection_2">
    <defs>
     <path id="m1e3b657912" d="M 0 3.057948 
C 0.810977 3.057948 1.588848 2.735743 2.162296 2.162296 
C 2.735743 1.588848 3.057948 0.810977 3.057948 0 
C 3.057948 -0.810977 2.735743 -1.588848 2.162296 -2.162296 
C 1.588848 -2.735743 0.810977 -3.057948 0 -3.057948 
C -0.810977 -3.057948 -1.588848 -2.735743 -2.162296 -2.162296 
C -2.735743 -1.588848 -3.057948 -0.810977 -3.057948 0 
C -3.057948 0.810977 -2.735743 1.588848 -2.162296 2.162296 
C -1.588848 2.735743 -0.810977 3.057948 0 3.057948 
z
" style="stroke: #ffffff; stroke-opacity: 0.9; stroke-width: 0.7"/>
    </defs>
    <g clip-path="url(#pe94f890833)">
     <use xlink:href="#m1e3b657912" x="313.100834" y="305.638526" style="fill: #ff7f0e; fill-opacity: 0.9; stroke: #ffffff; stroke-opacity: 0.9; stroke-width: 0.7"/>
    </g>
   </g>
   <g id="PathCollection_3">
    <path d="M 323.222597 356.156088 
C 324.105353 356.156088 324.952072 355.805366 325.576275 355.181163 
C 326.200478 354.55696 326.551201 353.71024 326.551201 352.827484 
C 326.551201 351.944728 326.200478 351.098009 325.576275 350.473806 
C 324.952072 349.849603 324.105353 349.49888 323.222597 349.49888 
C 322.339841 349.49888 321.493121 349.849603 320.868918 350.473806 
C 320.244715 351.098009 319.893993 351.944728 319.893993 352.827484 
C 319.893993 353.71024 320.244715 354.55696 320.868918 355.181163 
C 321.493121 355.805366 322.339841 356.156088 323.222597 356.156088 
z
" clip-path="url(#pe94f890833)" style="fill: #2ca02c; fill-opacity: 0.9; stroke: #ffffff; stroke-opacity: 0.9; stroke-width: 0.7"/>
    <path d="M 318.170968 332.417238 
C 319.003997 332.417238 319.803019 332.086272 320.39206 331.497232 
C 320.9811 330.908191 321.312066 330.109168 321.312066 329.276139 
C 321.312066 328.44311 320.9811 327.644087 320.39206 327.055047 
C 319.803019 326.466006 319.003997 326.13504 318.170968 326.13504 
C 317.337938 326.13504 316.538916 326.466006 315.949875 327.055047 
C 315.360835 327.644087 315.029869 328.44311 315.029869 329.276139 
C 315.029869 330.109168 315.360835 330.908191 315.949875 331.497232 
C 316.538916 332.086272 317.337938 332.417238 318.170968 332.417238 
z
" clip-path="url(#pe94f890833)" style="fill: #2ca02c; fill-opacity: 0.9; stroke: #ffffff; stroke-opacity: 0.9; stroke-width: 0.7"/>
    <path d="M 312.397677 305.44575 
C 313.215944 305.44575 314.000806 305.120649 314.579408 304.542048 
C 315.15801 303.963446 315.483111 303.178583 315.483111 302.360316 
C 315.483111 301.54205 315.15801 300.757187 314.579408 300.178585 
C 314.000806 299.599983 313.215944 299.274883 312.397677 299.274883 
C 311.57941 299.274883 310.794548 299.599983 310.215946 300.178585 
C 309.637344 300.757187 309.312243 301.54205 309.312243 302.360316 
C 309.312243 303.178583 309.637344 303.963446 310.215946 304.542048 
C 310.794548 305.120649 311.57941 305.44575 312.397677 305.44575 
z
" clip-path="url(#pe94f890833)" style="fill: #2ca02c; fill-opacity: 0.9; stroke: #ffffff; stroke-opacity: 0.9; stroke-width: 0.7"/>
   </g>
   <g id="PathCollection_4">
    <defs>
     <path id="m661e403d15" d="M 0 3.252645 
C 0.862612 3.252645 1.690009 2.909926 2.299967 2.299967 
C 2.909926 1.690009 3.252645 0.862612 3.252645 0 
C 3.252645 -0.862612 2.909926 -1.690009 2.299967 -2.299967 
C 1.690009 -2.909926 0.862612 -3.252645 0 -3.252645 
C -0.862612 -3.252645 -1.690009 -2.909926 -2.299967 -2.299967 
C -2.909926 -1.690009 -3.252645 -0.862612 -3.252645 0 
C -3.252645 0.862612 -2.909926 1.690009 -2.299967 2.299967 
C -1.690009 2.909926 -0.862612 3.252645 0 3.252645 
z
" style="stroke: #ffffff; stroke-opacity: 0.9; stroke-width: 0.7"/>
    </defs>
    <g clip-path="url(#pe94f890833)">
     <use xlink:href="#m661e403d15" x="321.140881" y="343.12226" style="fill: #d62728; fill-opacity: 0.9; stroke: #ffffff; stroke-opacity: 0.9; stroke-width: 0.7"/>
    </g>
   </g>
   <g id="matplotlib.axis_1">
    <g id="xtick_1">
     <g id="line2d_1">
      <defs>
       <path id="m38d877001b" d="M 0 0 
L 0 3.5 
" style="stroke: #000000; stroke-width: 0.8"/>
      </defs>
      <g>
       <use xlink:href="#m38d877001b" x="100.964708" y="462.04" style="stroke: #000000; stroke-width: 0.8"/>
      </g>
     </g>
     <g id="text_1">
      <text style="font-size: 10px; font-family: 'DejaVu Sans', 'Bitstream Vera Sans', 'Computer Modern Sans Serif', 'Lucida Grande', 'Verdana', 'Geneva', 'Lucid', 'Arial', 'Helvetica', 'Avant Garde', sans-serif; text-anchor: middle" x="100.964708" y="476.638438" transform="rotate(-0 100.964708 476.638438)">−1.5</text>
     </g>
    </g>
    <g id="xtick_2">
     <g id="line2d_2">
      <g>
       <use xlink:href="#m38d877001b" x="173.355325" y="462.04" style="stroke: #000000; stroke-width: 0.8"/>
      </g>
     </g>
     <g id="text_2">
      <text style="font-size: 10px; font-family: 'DejaVu Sans', 'Bitstream Vera Sans', 'Computer Modern Sans Serif', 'Lucida Grande', 'Verdana', 'Geneva', 'Lucid', 'Arial', 'Helvetica', 'Avant Garde', sans-serif; text-anchor: middle" x="173.355325" y="476.638438" transform="rotate(-0 173.355325 476.638438)">−1.0</text>
     </g>
    </g>
    <g id="xtick_3">
     <g id="line2d_3">
      <g>
       <use xlink:href="#m38d877001b" x="245.745941" y="462.04" style="stroke: #000000; stroke-width: 0.8"/>
      </g>
     </g>
     <g id="text_3">
      <text style="font-size: 10px; font-family: 'DejaVu Sans', 'Bitstream Vera Sans', 'Computer Modern Sans Serif', 'Lucida Grande', 'Verdana', 'Geneva', 'Lucid', 'Arial', 'Helvetica', 'Avant Garde', sans-serif; text-anchor: middle" x="245.745941" y="476.638438" transform="rotate(-0 245.745941 476.638438)">−0.5</text>
     </g>
    </g>
    <g id="xtick_4">
     <g id="line2d_4">
      <g>
       <use xlink:href="#m38d877001b" x="318.136558" y="462.04" style="stroke: #000000; stroke-width: 0.8"/>
      </g>
     </g>
     <g id="text_4">
      <text style="font-size: 10px; font-family: 'DejaVu Sans', 'Bitstream Vera Sans', 'Computer Modern Sans Serif', 'Lucida Grande', 'Verdana', 'Geneva', 'Lucid', 'Arial', 'Helvetica', 'Avant Garde', sans-serif; text-anchor: middle" x="318.136558" y="476.638438" transform="rotate(-0 318.136558 476.638438)">0.0</text>
     </g>
    </g>
    <g id="xtick_5">
     <g id="line2d_5">
      <g>
       <use xlink:href="#m38d877001b" x="390.527175" y="462.04" style="stroke: #000000; stroke-width: 0.8"/>
      </g>
     </g>
     <g id="text_5">
      <text style="font-size: 10px; font-family: 'DejaVu Sans', 'Bitstream Vera Sans', 'Computer Modern Sans Serif', 'Lucida Grande', 'Verdana', 'Geneva', 'Lucid', 'Arial', 'Helvetica', 'Avant Garde', sans-serif; text-anchor: middle" x="390.527175" y="476.638438" transform="rotate(-0 390.527175 476.638438)">0.5</text>
     </g>
    </g>
    <g id="xtick_6">
     <g id="line2d_6">
      <g>
       <use xlink:href="#m38d877001b" x="462.917792" y="462.04" style="stroke: #000000; stroke-width: 0.8"/>
      </g>
     </g>
     <g id="text_6">
      <text style="font-size: 10px; font-family: 'DejaVu Sans', 'Bitstream Vera Sans', 'Computer Modern Sans Serif', 'Lucida Grande', 'Verdana', 'Geneva', 'Lucid', 'Arial', 'Helvetica', 'Avant Garde', sans-serif; text-anchor: middle" x="462.917792" y="476.638438" transform="rotate(-0 462.917792 476.638438)">1.0</text>
     </g>
    </g>
    <g id="xtick_7">
     <g id="line2d_7">
      <g>
       <use xlink:href="#m38d877001b" x="535.308408" y="462.04" style="stroke: #000000; stroke-width: 0.8"/>
      </g>
     </g>
     <g id="text_7">
      <text style="font-size: 10px; font-family: 'DejaVu Sans', 'Bitstream Vera Sans', 'Computer Modern Sans Serif', 'Lucida Grande', 'Verdana', 'Geneva', 'Lucid', 'Arial', 'Helvetica', 'Avant Garde', sans-serif; text-anchor: middle" x="535.308408" y="476.638438" transform="rotate(-0 535.308408 476.638438)">1.5</text>
     </g>
    </g>
    <g id="text_8">
     <text style="font-size: 10px; font-family: 'DejaVu Sans', 'Bitstream Vera Sans', 'Computer Modern Sans Serif', 'Lucida Grande', 'Verdana', 'Geneva', 'Lucid', 'Arial', 'Helvetica', 'Avant Garde', sans-serif; text-anchor: middle" x="303.955918" y="490.316563" transform="rotate(-0 303.955918 490.316563)">Effect direction 1</text>
    </g>
   </g>
   <g id="matplotlib.axis_2">
    <g id="ytick_1">
     <g id="line2d_8">
      <defs>
       <path id="m44a9518ae2" d="M 0 0 
L -3.5 0 
" style="stroke: #000000; stroke-width: 0.8"/>
      </defs>
      <g>
       <use xlink:href="#m44a9518ae2" x="56.09" y="433.377024" style="stroke: #000000; stroke-width: 0.8"/>
      </g>
     </g>
     <g id="text_9">
      <text style="font-size: 10px; font-family: 'DejaVu Sans', 'Bitstream Vera Sans', 'Computer Modern Sans Serif', 'Lucida Grande', 'Verdana', 'Geneva', 'Lucid', 'Arial', 'Helvetica', 'Avant Garde', sans-serif; text-anchor: end" x="49.09" y="437.176242" transform="rotate(-0 49.09 437.176242)">−0.6</text>
     </g>
    </g>
    <g id="ytick_2">
     <g id="line2d_9">
      <g>
       <use xlink:href="#m44a9518ae2" x="56.09" y="375.545914" style="stroke: #000000; stroke-width: 0.8"/>
      </g>
     </g>
     <g id="text_10">
      <text style="font-size: 10px; font-family: 'DejaVu Sans', 'Bitstream Vera Sans', 'Computer Modern Sans Serif', 'Lucida Grande', 'Verdana', 'Geneva', 'Lucid', 'Arial', 'Helvetica', 'Avant Garde', sans-serif; text-anchor: end" x="49.09" y="379.345133" transform="rotate(-0 49.09 379.345133)">−0.4</text>
     </g>
    </g>
    <g id="ytick_3">
     <g id="line2d_10">
      <g>
       <use xlink:href="#m44a9518ae2" x="56.09" y="317.714805" style="stroke: #000000; stroke-width: 0.8"/>
      </g>
     </g>
     <g id="text_11">
      <text style="font-size: 10px; font-family: 'DejaVu Sans', 'Bitstream Vera Sans', 'Computer Modern Sans Serif', 'Lucida Grande', 'Verdana', 'Geneva', 'Lucid', 'Arial', 'Helvetica', 'Avant Garde', sans-serif; text-anchor: end" x="49.09" y="321.514024" transform="rotate(-0 49.09 321.514024)">−0.2</text>
     </g>
    </g>
    <g id="ytick_4">
     <g id="line2d_11">
      <g>
       <use xlink:href="#m44a9518ae2" x="56.09" y="259.883696" style="stroke: #000000; stroke-width: 0.8"/>
      </g>
     </g>
     <g id="text_12">
      <text style="font-size: 10px; font-family: 'DejaVu Sans', 'Bitstream Vera Sans', 'Computer Modern Sans Serif', 'Lucida Grande', 'Verdana', 'Geneva', 'Lucid', 'Arial', 'Helvetica', 'Avant Garde', sans-serif; text-anchor: end" x="49.09" y="263.682914" transform="rotate(-0 49.09 263.682914)">0.0</text>
     </g>
    </g>
    <g id="ytick_5">
     <g id="line2d_12">
      <g>
       <use xlink:href="#m44a9518ae2" x="56.09" y="202.052586" style="stroke: #000000; stroke-width: 0.8"/>
      </g>
     </g>
     <g id="text_13">
      <text style="font-size: 10px; font-family: 'DejaVu Sans', 'Bitstream Vera Sans', 'Computer Modern Sans Serif', 'Lucida Grande', 'Verdana', 'Geneva', 'Lucid', 'Arial', 'Helvetica', 'Avant Garde', sans-serif; text-anchor: end" x="49.09" y="205.851805" transform="rotate(-0 49.09 205.851805)">0.2</text>
     </g>
    </g>
    <g id="ytick_6">
     <g id="line2d_13">
      <g>
       <use xlink:href="#m44a9518ae2" x="56.09" y="144.221477" style="stroke: #000000; stroke-width: 0.8"/>
      </g>
     </g>
     <g id="text_14">
      <text style="font-size: 10px; font-family: 'DejaVu Sans', 'Bitstream Vera Sans', 'Computer Modern Sans Serif', 'Lucida Grande', 'Verdana', 'Geneva', 'Lucid', 'Arial', 'Helvetica', 'Avant Garde', sans-serif; text-anchor: end" x="49.09" y="148.020696" transform="rotate(-0 49.09 148.020696)">0.4</text>
     </g>
    </g>
    <g id="ytick_7">
     <g id="line2d_14">
      <g>
       <use xlink:href="#m44a9518ae2" x="56.09" y="86.390367" style="stroke: #000000; stroke-width: 0.8"/>
      </g>
     </g>
     <g id="text_15">
      <text style="font-size: 10px; font-family: 'DejaVu Sans', 'Bitstream Vera Sans', 'Computer Modern Sans Serif', 'Lucida Grande', 'Verdana', 'Geneva', 'Lucid', 'Arial', 'Helvetica', 'Avant Garde', sans-serif; text-anchor: end" x="49.09" y="90.189586" transform="rotate(-0 49.09 90.189586)">0.6</text>
     </g>
    </g>
    <g id="ytick_8">
     <g id="line2d_15">
      <g>
       <use xlink:href="#m44a9518ae2" x="56.09" y="28.559258" style="stroke: #000000; stroke-width: 0.8"/>
      </g>
     </g>
     <g id="text_16">
      <text style="font-size: 10px; font-family: 'DejaVu Sans', 'Bitstream Vera Sans', 'Computer Modern Sans Serif', 'Lucida Grande', 'Verdana', 'Geneva', 'Lucid', 'Arial', 'Helvetica', 'Avant Garde', sans-serif; text-anchor: end" x="49.09" y="32.358477" transform="rotate(-0 49.09 32.358477)">0.8</text>
     </g>
    </g>
    <g id="text_17">
     <text style="font-size: 10px; font-family: 'DejaVu Sans', 'Bitstream Vera Sans', 'Computer Modern Sans Serif', 'Lucida Grande', 'Verdana', 'Geneva', 'Lucid', 'Arial', 'Helvetica', 'Avant Garde', sans-serif; text-anchor: middle" x="18.7275" y="244.46" transform="rotate(-90 18.7275 244.46)">Effect direction 2</text>
    </g>
   </g>
   <g id="line2d_16">
    <path d="M 56.09 259.883696 
L 551.821836 259.883696 
" clip-path="url(#pe94f890833)" style="fill: none; stroke: #404040; stroke-width: 0.8; stroke-linecap: square"/>
   </g>
   <g id="line2d_17">
    <path d="M 318.136558 462.04 
L 318.136558 26.88 
" clip-path="url(#pe94f890833)" style="fill: none; stroke: #404040; stroke-width: 0.8; stroke-linecap: square"/>
   </g>
   <g id="patch_3">
    <path d="M 56.09 462.04 
L 56.09 26.88 
" style="fill: none; stroke: #000000; stroke-width: 0.8; stroke-linejoin: miter; stroke-linecap: square"/>
   </g>
   <g id="patch_4">
    <path d="M 551.821836 462.04 
L 551.821836 26.88 
" style="fill: none; stroke: #000000; stroke-width: 0.8; stroke-linejoin: miter; stroke-linecap: square"/>
   </g>
   <g id="patch_5">
    <path d="M 56.09 462.04 
L 551.821836 462.04 
" style="fill: none; stroke: #000000; stroke-width: 0.8; stroke-linejoin: miter; stroke-linecap: square"/>
   </g>
   <g id="patch_6">
    <path d="M 56.09 26.88 
L 551.821836 26.88 
" style="fill: none; stroke: #000000; stroke-width: 0.8; stroke-linejoin: miter; stroke-linecap: square"/>
   </g>
   <g id="patch_7">
    <path d="M 318.136558 259.883696 
Q 330.27096 351.071848 342.177819 440.55005 
" style="fill: none; opacity: 0.547163; stroke: #1f77b4; stroke-width: 1.542908; stroke-linecap: round"/>
    <path d="M 343.632714 436.321187 
L 342.177819 440.55005 
L 339.667666 436.848816 
" style="fill: none; opacity: 0.547163; stroke: #1f77b4; stroke-width: 1.542908; stroke-linecap: round"/>
   </g>
   <g id="patch_8">
    <path d="M 318.136558 259.883696 
Q 423.712564 267.468451 525.870992 274.807683 
" style="fill: none; opacity: 0.85; stroke: #1f77b4; stroke-width: 3.064653; stroke-linecap: round"/>
    <path d="M 522.024589 272.526196 
L 525.870992 274.807683 
L 521.737961 276.515914 
" style="fill: none; opacity: 0.85; stroke: #1f77b4; stroke-width: 3.064653; stroke-linecap: round"/>
   </g>
   <g id="patch_9">
    <path d="M 318.136558 259.883696 
Q 317.012531 289.259348 315.924215 317.701704 
" style="fill: none; opacity: 0.264151; stroke: #1f77b4; stroke-width: 0.835377; stroke-linecap: round"/>
    <path d="M 318.075697 313.7811 
L 315.924215 317.701704 
L 314.078622 313.628157 
" style="fill: none; opacity: 0.264151; stroke: #1f77b4; stroke-width: 0.835377; stroke-linecap: round"/>
   </g>
   <g id="patch_10">
    <path d="M 318.136558 259.883696 
Q 410.454135 205.655951 499.926604 153.099436 
" style="fill: none; opacity: 0.85; stroke: #1f77b4; stroke-width: 2.951291; stroke-linecap: round"/>
    <path d="M 495.46464 153.400893 
L 499.926604 153.099436 
L 497.490591 156.849882 
" style="fill: none; opacity: 0.85; stroke: #1f77b4; stroke-width: 2.951291; stroke-linecap: round"/>
   </g>
   <g id="patch_11">
    <path d="M 318.136558 259.883696 
Q 200.368676 264.690869 86.228744 269.349953 
" style="fill: none; opacity: 0.85; stroke: #1f77b4; stroke-width: 3.24764; stroke-linecap: round"/>
    <path d="M 90.306986 271.185149 
L 86.228744 269.349953 
L 90.143846 267.188477 
" style="fill: none; opacity: 0.85; stroke: #1f77b4; stroke-width: 3.24764; stroke-linecap: round"/>
   </g>
   <g id="patch_12">
    <path d="M 318.136558 259.883696 
Q 287.843988 153.271848 258.260729 49.156356 
" style="fill: none; opacity: 0.85; stroke: #1f77b4; stroke-width: 2.321193; stroke-linecap: round"/>
    <path d="M 257.430162 53.550689 
L 258.260729 49.156356 
L 261.277854 52.45741 
" style="fill: none; opacity: 0.85; stroke: #1f77b4; stroke-width: 2.321193; stroke-linecap: round"/>
   </g>
   <g id="patch_13">
    <path d="M 318.136558 259.883696 
Q 305.742866 236.718723 294.069653 214.900391 
" style="fill: none; opacity: 0.47641; stroke: #1f77b4; stroke-width: 1.366025; stroke-linecap: round"/>
    <path d="M 294.193161 219.370821 
L 294.069653 214.900391 
L 297.720102 217.483842 
" style="fill: none; opacity: 0.47641; stroke: #1f77b4; stroke-width: 1.366025; stroke-linecap: round"/>
   </g>
   <g id="patch_14">
    <path d="M 318.136558 259.883696 
Q 416.420428 233.471576 511.492412 207.922597 
" style="fill: none; opacity: 0.85; stroke: #1f77b4; stroke-width: 2.974724; stroke-linecap: round"/>
    <path d="M 507.110416 207.029226 
L 511.492412 207.922597 
L 508.148517 210.892171 
" style="fill: none; opacity: 0.85; stroke: #1f77b4; stroke-width: 2.974724; stroke-linecap: round"/>
   </g>
   <g id="patch_15">
    <path d="M 318.136558 259.883696 
Q 198.379912 255.418994 82.310216 251.091747 
" style="fill: none; opacity: 0.85; stroke: #1f77b4; stroke-width: 3.3; stroke-linecap: round"/>
    <path d="M 86.232928 253.239381 
L 82.310216 251.091747 
L 86.38195 249.242158 
" style="fill: none; opacity: 0.85; stroke: #1f77b4; stroke-width: 3.3; stroke-linecap: round"/>
   </g>
   <g id="patch_16">
    <path d="M 318.136558 259.883696 
Q 292.484438 174.906223 267.502284 92.14814 
" style="fill: none; opacity: 0.759423; stroke: #1f77b4; stroke-width: 2.073557; stroke-linecap: round"/>
    <path d="M 266.743577 96.555448 
L 267.502284 92.14814 
L 270.572906 95.39949 
" style="fill: none; opacity: 0.759423; stroke: #1f77b4; stroke-width: 2.073557; stroke-linecap: round"/>
   </g>
   <g id="patch_17">
    <path d="M 318.136558 259.883696 
Q 315.618696 282.761111 313.203454 304.70612 
" style="fill: none; opacity: 0.265602; stroke: #ff7f0e; stroke-width: 0.839005; stroke-linecap: round"/>
    <path d="M 315.629043 300.948924 
L 313.203454 304.70612 
L 311.653051 300.511331 
" style="fill: none; opacity: 0.265602; stroke: #ff7f0e; stroke-width: 0.839005; stroke-linecap: round"/>
   </g>
   <g id="patch_18">
    <path d="M 318.136558 259.883696 
Q 320.679577 306.35559 323.15961 351.676438 
" style="fill: none; opacity: 0.342427; stroke: #2ca02c; stroke-width: 1.031067; stroke-linecap: round"/>
    <path d="M 324.938062 347.573134 
L 323.15961 351.676438 
L 320.944038 347.791693 
" style="fill: none; opacity: 0.342427; stroke: #2ca02c; stroke-width: 1.031067; stroke-linecap: round"/>
   </g>
   <g id="patch_19">
    <path d="M 318.136558 259.883696 
Q 318.153763 294.579917 318.170471 328.27407 
" style="fill: none; opacity: 0.288511; stroke: #2ca02c; stroke-width: 0.896278; stroke-linecap: round"/>
    <path d="M 320.168487 324.273079 
L 318.170471 328.27407 
L 316.168487 324.275062 
" style="fill: none; opacity: 0.288511; stroke: #2ca02c; stroke-width: 0.896278; stroke-linecap: round"/>
   </g>
   <g id="patch_20">
    <path d="M 318.136558 259.883696 
Q 315.267118 281.122006 312.52608 301.409939 
" style="fill: none; opacity: 0.273107; stroke: #2ca02c; stroke-width: 0.857767; stroke-linecap: round"/>
    <path d="M 315.043633 297.713735 
L 312.52608 301.409939 
L 311.079649 297.178174 
" style="fill: none; opacity: 0.273107; stroke: #2ca02c; stroke-width: 0.857767; stroke-linecap: round"/>
   </g>
   <g id="patch_21">
    <path d="M 318.136558 259.883696 
Q 319.63872 301.502978 321.101542 342.032302 
" style="fill: none; opacity: 0.320209; stroke: #d62728; stroke-width: 0.975522; stroke-linecap: round"/>
    <path d="M 322.955963 337.962766 
L 321.101542 342.032302 
L 318.958565 338.107044 
" style="fill: none; opacity: 0.320209; stroke: #d62728; stroke-width: 0.975522; stroke-linecap: round"/>
   </g>
   <g id="text_18">
    <text style="font-size: 7px; font-family: 'DejaVu Sans', 'Bitstream Vera Sans', 'Computer Modern Sans Serif', 'Lucida Grande', 'Verdana', 'Geneva', 'Lucid', 'Arial', 'Helvetica', 'Avant Garde', sans-serif; text-anchor: start" x="82.623265" y="246.954293" transform="rotate(-0 82.623265 246.954293)">user_pinned / budget128 / sink8</text>
   </g>
   <g id="text_19">
    <text style="font-size: 7px; font-family: 'DejaVu Sans', 'Bitstream Vera Sans', 'Computer Modern Sans Serif', 'Lucida Grande', 'Verdana', 'Geneva', 'Lucid', 'Arial', 'Helvetica', 'Avant Garde', sans-serif; text-anchor: start" x="86.600794" y="265.498043" transform="rotate(-0 86.600794 265.498043)">random_matched / budget128 / seed991</text>
   </g>
   <g id="text_20">
    <text style="font-size: 7px; font-family: 'DejaVu Sans', 'Bitstream Vera Sans', 'Computer Modern Sans Serif', 'Lucida Grande', 'Verdana', 'Geneva', 'Lucid', 'Arial', 'Helvetica', 'Avant Garde', sans-serif; text-anchor: start" x="533.288571" y="271.053207" transform="rotate(-0 533.288571 271.053207)">sliding_window / budget128</text>
   </g>
   <g id="text_21">
    <text style="font-size: 7px; font-family: 'DejaVu Sans', 'Bitstream Vera Sans', 'Computer Modern Sans Serif', 'Lucida Grande', 'Verdana', 'Geneva', 'Lucid', 'Arial', 'Helvetica', 'Avant Garde', sans-serif; text-anchor: start" x="518.704299" y="203.059457" transform="rotate(-0 518.704299 203.059457)">policy_pinned / budget128 / sink8</text>
   </g>
   <g id="text_22">
    <text style="font-size: 7px; font-family: 'DejaVu Sans', 'Bitstream Vera Sans', 'Computer Modern Sans Serif', 'Lucida Grande', 'Verdana', 'Geneva', 'Lucid', 'Arial', 'Helvetica', 'Avant Garde', sans-serif; text-anchor: start" x="506.771713" y="147.428207" transform="rotate(-0 506.771713 147.428207)">sink_recent / budget128 / sink8</text>
   </g>
   <g id="text_23">
    <text style="font-size: 7px; font-family: 'DejaVu Sans', 'Bitstream Vera Sans', 'Computer Modern Sans Serif', 'Lucida Grande', 'Verdana', 'Geneva', 'Lucid', 'Arial', 'Helvetica', 'Avant Garde', sans-serif; text-anchor: start" x="261.551417" y="42.66" transform="rotate(-0 261.551417 42.66)">random_matched / budget128 / seed991</text>
   </g>
   <g id="text_24">
    <text style="font-size: 7px; font-family: 'DejaVu Sans', 'Bitstream Vera Sans', 'Computer Modern Sans Serif', 'Lucida Grande', 'Verdana', 'Geneva', 'Lucid', 'Arial', 'Helvetica', 'Avant Garde', sans-serif; text-anchor: start" x="270.832317" y="85.92875" transform="rotate(-0 270.832317 85.92875)">user_pinned / budget128 / sink8</text>
   </g>
   <g id="text_25">
    <text style="font-size: 7px; font-family: 'DejaVu Sans', 'Bitstream Vera Sans', 'Computer Modern Sans Serif', 'Lucida Grande', 'Verdana', 'Geneva', 'Lucid', 'Arial', 'Helvetica', 'Avant Garde', sans-serif; text-anchor: start" x="346.405362" y="438.26" transform="rotate(-0 346.405362 438.26)">sliding_window / budget128</text>
   </g>
   <g id="text_26">
    <text style="font-size: 12px; font-family: 'DejaVu Sans', 'Bitstream Vera Sans', 'Computer Modern Sans Serif', 'Lucida Grande', 'Verdana', 'Geneva', 'Lucid', 'Arial', 'Helvetica', 'Avant Garde', sans-serif; text-anchor: middle" x="303.955918" y="20.88" transform="rotate(-0 303.955918 20.88)">Prompt-Level Effect Constellation</text>
   </g>
   <g id="legend_1">
    <g id="patch_22">
     <path d="M 416.098086 94.818125 
L 546.221836 94.818125 
Q 547.821836 94.818125 547.821836 93.218125 
L 547.821836 32.48 
Q 547.821836 30.88 546.221836 30.88 
L 416.098086 30.88 
Q 414.498086 30.88 414.498086 32.48 
L 414.498086 93.218125 
Q 414.498086 94.818125 416.098086 94.818125 
z
" style="fill: #ffffff; opacity: 0.8; stroke: #cccccc; stroke-linejoin: miter"/>
    </g>
    <g id="text_27">
     <text style="font-size: 10px; font-family: 'DejaVu Sans', 'Bitstream Vera Sans', 'Computer Modern Sans Serif', 'Lucida Grande', 'Verdana', 'Geneva', 'Lucid', 'Arial', 'Helvetica', 'Avant Garde', sans-serif; text-anchor: start" x="468.960742" y="41.678437" transform="rotate(-0 468.960742 41.678437)">suite</text>
    </g>
    <g id="PathCollection_5">
     <defs>
      <path id="m5259c24b03" d="M 0 4.517654 
C 1.198096 4.517654 2.347282 4.041645 3.194464 3.194464 
C 4.041645 2.347282 4.517654 1.198096 4.517654 0 
C 4.517654 -1.198096 4.041645 -2.347282 3.194464 -3.194464 
C 2.347282 -4.041645 1.198096 -4.517654 0 -4.517654 
C -1.198096 -4.517654 -2.347282 -4.041645 -3.194464 -3.194464 
C -4.041645 -2.347282 -4.517654 -1.198096 -4.517654 0 
C -4.517654 1.198096 -4.041645 2.347282 -3.194464 3.194464 
C -2.347282 4.041645 -1.198096 4.517654 0 4.517654 
z
" style="stroke: #ffffff; stroke-opacity: 0.9; stroke-width: 0.7"/>
     </defs>
     <g>
      <use xlink:href="#m5259c24b03" x="425.698086" y="51.736875" style="fill: #1f77b4; fill-opacity: 0.9; stroke: #ffffff; stroke-opacity: 0.9; stroke-width: 0.7"/>
     </g>
    </g>
    <g id="text_28">
     <text style="font-size: 8px; font-family: 'DejaVu Sans', 'Bitstream Vera Sans', 'Computer Modern Sans Serif', 'Lucida Grande', 'Verdana', 'Geneva', 'Lucid', 'Arial', 'Helvetica', 'Avant Garde', sans-serif; text-anchor: start" x="440.098086" y="53.836875" transform="rotate(-0 440.098086 53.836875)">adversarial_refusal_safety</text>
    </g>
    <g id="PathCollection_6">
     <g>
      <use xlink:href="#m1e3b657912" x="425.698086" y="63.701875" style="fill: #ff7f0e; fill-opacity: 0.9; stroke: #ffffff; stroke-opacity: 0.9; stroke-width: 0.7"/>
     </g>
    </g>
    <g id="text_29">
     <text style="font-size: 8px; font-family: 'DejaVu Sans', 'Bitstream Vera Sans', 'Computer Modern Sans Serif', 'Lucida Grande', 'Verdana', 'Geneva', 'Lucid', 'Arial', 'Helvetica', 'Avant Garde', sans-serif; text-anchor: start" x="440.098086" y="65.801875" transform="rotate(-0 440.098086 65.801875)">benign_overrefusal</text>
    </g>
    <g id="PathCollection_7">
     <defs>
      <path id="meafecf0bff" d="M 0 3.209323 
C 0.851122 3.209323 1.6675 2.871168 2.269334 2.269334 
C 2.871168 1.6675 3.209323 0.851122 3.209323 0 
C 3.209323 -0.851122 2.871168 -1.6675 2.269334 -2.269334 
C 1.6675 -2.871168 0.851122 -3.209323 0 -3.209323 
C -0.851122 -3.209323 -1.6675 -2.871168 -2.269334 -2.269334 
C -2.871168 -1.6675 -3.209323 -0.851122 -3.209323 0 
C -3.209323 0.851122 -2.871168 1.6675 -2.269334 2.269334 
C -1.6675 2.871168 -0.851122 3.209323 0 3.209323 
z
" style="stroke: #ffffff; stroke-opacity: 0.9; stroke-width: 0.7"/>
     </defs>
     <g>
      <use xlink:href="#meafecf0bff" x="425.698086" y="75.666875" style="fill: #2ca02c; fill-opacity: 0.9; stroke: #ffffff; stroke-opacity: 0.9; stroke-width: 0.7"/>
     </g>
    </g>
    <g id="text_30">
     <text style="font-size: 8px; font-family: 'DejaVu Sans', 'Bitstream Vera Sans', 'Computer Modern Sans Serif', 'Lucida Grande', 'Verdana', 'Geneva', 'Lucid', 'Arial', 'Helvetica', 'Avant Garde', sans-serif; text-anchor: start" x="440.098086" y="77.766875" transform="rotate(-0 440.098086 77.766875)">refusal_safety</text>
    </g>
    <g id="PathCollection_8">
     <g>
      <use xlink:href="#m661e403d15" x="425.698086" y="87.631875" style="fill: #d62728; fill-opacity: 0.9; stroke: #ffffff; stroke-opacity: 0.9; stroke-width: 0.7"/>
     </g>
    </g>
    <g id="text_31">
     <text style="font-size: 8px; font-family: 'DejaVu Sans', 'Bitstream Vera Sans', 'Computer Modern Sans Serif', 'Lucida Grande', 'Verdana', 'Geneva', 'Lucid', 'Arial', 'Helvetica', 'Avant Garde', sans-serif; text-anchor: start" x="440.098086" y="89.731875" transform="rotate(-0 440.098086 89.731875)">system_leakage</text>
    </g>
   </g>
  </g>
 </g>
 <defs>
  <clipPath id="pe94f890833">
   <rect x="56.09" y="26.88" width="495.731836" height="435.16"/>
  </clipPath>
 </defs>
</svg>
