<?xml version="1.0" encoding="utf-8" standalone="no"?>
<!DOCTYPE svg PUBLIC "-//W3C//DTD SVG 1.1//EN"
  "http://www.w3.org/Graphics/SVG/1.1/DTD/svg11.dtd">
<svg xmlns:xlink="http://www.w3.org/1999/xlink" width="648pt" height="504pt" viewBox="0 0 648 504" xmlns="http://www.w3.org/2000/svg" version="1.1">
 <metadata>
  <rdf:RDF xmlns:dc="http://purl.org/dc/elements/1.1/" xmlns:cc="http://creativecommons.org/ns#" xmlns:rdf="http://www.w3.org/1999/02/22-rdf-syntax-ns#">
   <cc:Work>
    <dc:type rdf:resource="http://purl.org/dc/dcmitype/StillImage"/>
    <dc:date>2026-05-14T08:47:19.928801</dc:date>
    <dc:format>image/svg+xml</dc:format>
    <dc:creator>
     <cc:Agent>
      <dc:title>Matplotlib v3.10.9, https://matplotlib.org/</dc:title>
     </cc:Agent>
    </dc:creator>
   </cc:Work>
  </rdf:RDF>
 </metadata>
 <defs>
  <style type="text/css">*{stroke-linejoin: round; stroke-linecap: butt}</style>
 </defs>
 <g id="figure_1">
  <g id="patch_1">
   <path d="M 0 504 
L 648 504 
L 648 0 
L 0 0 
z
" style="fill: #ffffff"/>
  </g>
  <g id="axes_1">
   <g id="patch_2">
    <path d="M 62.3 462.04 
L 626.175 462.04 
L 626.175 26.88 
L 62.3 26.88 
z
" style="fill: #ffffff"/>
   </g>
   <g id="line2d_1">
    <path d="M 62.664295 462.04 
L 626.175 26.88 
" clip-path="url(#p279515fcfe)" style="fill: none; stroke-dasharray: 3.7,1.6; stroke-dashoffset: 0; stroke: #bfbfbf"/>
   </g>
   <g id="line2d_2">
    <path d="M 62.3 383.349594 
L 626.175 383.349594 
" clip-path="url(#p279515fcfe)" style="fill: none; stroke: #404040; stroke-width: 0.8; stroke-linecap: square"/>
   </g>
   <g id="line2d_3">
    <path d="M 164.564484 462.04 
L 164.564484 26.88 
" clip-path="url(#p279515fcfe)" style="fill: none; stroke: #404040; stroke-width: 0.8; stroke-linecap: square"/>
   </g>
   <g id="FillBetweenPolyCollection_1">
    <path d="M -1681.877582 -1042.528782 
L -1681.877582 1809.22797 
L 2011.006549 -1042.528782 
L 2011.006549 -3894.285534 
L 2011.006549 -3894.285534 
L -1681.877582 -1042.528782 
z
" clip-path="url(#p279515fcfe)" style="fill: #d73027; fill-opacity: 0.06; stroke: #d73027; stroke-opacity: 0.06"/>
   </g>
   <g id="matplotlib.axis_1">
    <g id="xtick_1">
     <g id="line2d_4">
      <defs>
       <path id="m38d877001b" d="M 0 0 
L 0 3.5 
" style="stroke: #000000; stroke-width: 0.8"/>
      </defs>
      <g>
       <use xlink:href="#m38d877001b" x="72.24238" y="462.04" style="stroke: #000000; stroke-width: 0.8"/>
      </g>
     </g>
     <g id="text_1">
      <text style="font-size: 10px; font-family: 'DejaVu Sans', 'Bitstream Vera Sans', 'Computer Modern Sans Serif', 'Lucida Grande', 'Verdana', 'Geneva', 'Lucid', 'Arial', 'Helvetica', 'Avant Garde', sans-serif; text-anchor: middle" x="72.24238" y="476.638438" transform="rotate(-0 72.24238 476.638438)">−0.05</text>
     </g>
    </g>
    <g id="xtick_2">
     <g id="line2d_5">
      <g>
       <use xlink:href="#m38d877001b" x="164.564484" y="462.04" style="stroke: #000000; stroke-width: 0.8"/>
      </g>
     </g>
     <g id="text_2">
      <text style="font-size: 10px; font-family: 'DejaVu Sans', 'Bitstream Vera Sans', 'Computer Modern Sans Serif', 'Lucida Grande', 'Verdana', 'Geneva', 'Lucid', 'Arial', 'Helvetica', 'Avant Garde', sans-serif; text-anchor: middle" x="164.564484" y="476.638438" transform="rotate(-0 164.564484 476.638438)">0.00</text>
     </g>
    </g>
    <g id="xtick_3">
     <g id="line2d_6">
      <g>
       <use xlink:href="#m38d877001b" x="256.886587" y="462.04" style="stroke: #000000; stroke-width: 0.8"/>
      </g>
     </g>
     <g id="text_3">
      <text style="font-size: 10px; font-family: 'DejaVu Sans', 'Bitstream Vera Sans', 'Computer Modern Sans Serif', 'Lucida Grande', 'Verdana', 'Geneva', 'Lucid', 'Arial', 'Helvetica', 'Avant Garde', sans-serif; text-anchor: middle" x="256.886587" y="476.638438" transform="rotate(-0 256.886587 476.638438)">0.05</text>
     </g>
    </g>
    <g id="xtick_4">
     <g id="line2d_7">
      <g>
       <use xlink:href="#m38d877001b" x="349.20869" y="462.04" style="stroke: #000000; stroke-width: 0.8"/>
      </g>
     </g>
     <g id="text_4">
      <text style="font-size: 10px; font-family: 'DejaVu Sans', 'Bitstream Vera Sans', 'Computer Modern Sans Serif', 'Lucida Grande', 'Verdana', 'Geneva', 'Lucid', 'Arial', 'Helvetica', 'Avant Garde', sans-serif; text-anchor: middle" x="349.20869" y="476.638438" transform="rotate(-0 349.20869 476.638438)">0.10</text>
     </g>
    </g>
    <g id="xtick_5">
     <g id="line2d_8">
      <g>
       <use xlink:href="#m38d877001b" x="441.530793" y="462.04" style="stroke: #000000; stroke-width: 0.8"/>
      </g>
     </g>
     <g id="text_5">
      <text style="font-size: 10px; font-family: 'DejaVu Sans', 'Bitstream Vera Sans', 'Computer Modern Sans Serif', 'Lucida Grande', 'Verdana', 'Geneva', 'Lucid', 'Arial', 'Helvetica', 'Avant Garde', sans-serif; text-anchor: middle" x="441.530793" y="476.638438" transform="rotate(-0 441.530793 476.638438)">0.15</text>
     </g>
    </g>
    <g id="xtick_6">
     <g id="line2d_9">
      <g>
       <use xlink:href="#m38d877001b" x="533.852897" y="462.04" style="stroke: #000000; stroke-width: 0.8"/>
      </g>
     </g>
     <g id="text_6">
      <text style="font-size: 10px; font-family: 'DejaVu Sans', 'Bitstream Vera Sans', 'Computer Modern Sans Serif', 'Lucida Grande', 'Verdana', 'Geneva', 'Lucid', 'Arial', 'Helvetica', 'Avant Garde', sans-serif; text-anchor: middle" x="533.852897" y="476.638438" transform="rotate(-0 533.852897 476.638438)">0.20</text>
     </g>
    </g>
    <g id="xtick_7">
     <g id="line2d_10">
      <g>
       <use xlink:href="#m38d877001b" x="626.175" y="462.04" style="stroke: #000000; stroke-width: 0.8"/>
      </g>
     </g>
     <g id="text_7">
      <text style="font-size: 10px; font-family: 'DejaVu Sans', 'Bitstream Vera Sans', 'Computer Modern Sans Serif', 'Lucida Grande', 'Verdana', 'Geneva', 'Lucid', 'Arial', 'Helvetica', 'Avant Garde', sans-serif; text-anchor: middle" x="626.175" y="476.638438" transform="rotate(-0 626.175 476.638438)">0.25</text>
     </g>
    </g>
    <g id="text_8">
     <text style="font-size: 10px; font-family: 'DejaVu Sans', 'Bitstream Vera Sans', 'Computer Modern Sans Serif', 'Lucida Grande', 'Verdana', 'Geneva', 'Lucid', 'Arial', 'Helvetica', 'Avant Garde', sans-serif; text-anchor: middle" x="344.2375" y="490.316563" transform="rotate(-0 344.2375 490.316563)">Capability degradation</text>
    </g>
   </g>
   <g id="matplotlib.axis_2">
    <g id="ytick_1">
     <g id="line2d_11">
      <defs>
       <path id="m44a9518ae2" d="M 0 0 
L -3.5 0 
" style="stroke: #000000; stroke-width: 0.8"/>
      </defs>
      <g>
       <use xlink:href="#m44a9518ae2" x="62.3" y="454.643513" style="stroke: #000000; stroke-width: 0.8"/>
      </g>
     </g>
     <g id="text_9">
      <text style="font-size: 10px; font-family: 'DejaVu Sans', 'Bitstream Vera Sans', 'Computer Modern Sans Serif', 'Lucida Grande', 'Verdana', 'Geneva', 'Lucid', 'Arial', 'Helvetica', 'Avant Garde', sans-serif; text-anchor: end" x="55.3" y="458.442731" transform="rotate(-0 55.3 458.442731)">−0.05</text>
     </g>
    </g>
    <g id="ytick_2">
     <g id="line2d_12">
      <g>
       <use xlink:href="#m44a9518ae2" x="62.3" y="383.349594" style="stroke: #000000; stroke-width: 0.8"/>
      </g>
     </g>
     <g id="text_10">
      <text style="font-size: 10px; font-family: 'DejaVu Sans', 'Bitstream Vera Sans', 'Computer Modern Sans Serif', 'Lucida Grande', 'Verdana', 'Geneva', 'Lucid', 'Arial', 'Helvetica', 'Avant Garde', sans-serif; text-anchor: end" x="55.3" y="387.148813" transform="rotate(-0 55.3 387.148813)">0.00</text>
     </g>
    </g>
    <g id="ytick_3">
     <g id="line2d_13">
      <g>
       <use xlink:href="#m44a9518ae2" x="62.3" y="312.055675" style="stroke: #000000; stroke-width: 0.8"/>
      </g>
     </g>
     <g id="text_11">
      <text style="font-size: 10px; font-family: 'DejaVu Sans', 'Bitstream Vera Sans', 'Computer Modern Sans Serif', 'Lucida Grande', 'Verdana', 'Geneva', 'Lucid', 'Arial', 'Helvetica', 'Avant Garde', sans-serif; text-anchor: end" x="55.3" y="315.854894" transform="rotate(-0 55.3 315.854894)">0.05</text>
     </g>
    </g>
    <g id="ytick_4">
     <g id="line2d_14">
      <g>
       <use xlink:href="#m44a9518ae2" x="62.3" y="240.761756" style="stroke: #000000; stroke-width: 0.8"/>
      </g>
     </g>
     <g id="text_12">
      <text style="font-size: 10px; font-family: 'DejaVu Sans', 'Bitstream Vera Sans', 'Computer Modern Sans Serif', 'Lucida Grande', 'Verdana', 'Geneva', 'Lucid', 'Arial', 'Helvetica', 'Avant Garde', sans-serif; text-anchor: end" x="55.3" y="244.560975" transform="rotate(-0 55.3 244.560975)">0.10</text>
     </g>
    </g>
    <g id="ytick_5">
     <g id="line2d_15">
      <g>
       <use xlink:href="#m44a9518ae2" x="62.3" y="169.467838" style="stroke: #000000; stroke-width: 0.8"/>
      </g>
     </g>
     <g id="text_13">
      <text style="font-size: 10px; font-family: 'DejaVu Sans', 'Bitstream Vera Sans', 'Computer Modern Sans Serif', 'Lucida Grande', 'Verdana', 'Geneva', 'Lucid', 'Arial', 'Helvetica', 'Avant Garde', sans-serif; text-anchor: end" x="55.3" y="173.267056" transform="rotate(-0 55.3 173.267056)">0.15</text>
     </g>
    </g>
    <g id="ytick_6">
     <g id="line2d_16">
      <g>
       <use xlink:href="#m44a9518ae2" x="62.3" y="98.173919" style="stroke: #000000; stroke-width: 0.8"/>
      </g>
     </g>
     <g id="text_14">
      <text style="font-size: 10px; font-family: 'DejaVu Sans', 'Bitstream Vera Sans', 'Computer Modern Sans Serif', 'Lucida Grande', 'Verdana', 'Geneva', 'Lucid', 'Arial', 'Helvetica', 'Avant Garde', sans-serif; text-anchor: end" x="55.3" y="101.973138" transform="rotate(-0 55.3 101.973138)">0.20</text>
     </g>
    </g>
    <g id="ytick_7">
     <g id="line2d_17">
      <g>
       <use xlink:href="#m44a9518ae2" x="62.3" y="26.88" style="stroke: #000000; stroke-width: 0.8"/>
      </g>
     </g>
     <g id="text_15">
      <text style="font-size: 10px; font-family: 'DejaVu Sans', 'Bitstream Vera Sans', 'Computer Modern Sans Serif', 'Lucida Grande', 'Verdana', 'Geneva', 'Lucid', 'Arial', 'Helvetica', 'Avant Garde', sans-serif; text-anchor: end" x="55.3" y="30.679219" transform="rotate(-0 55.3 30.679219)">0.25</text>
     </g>
    </g>
    <g id="text_16">
     <text style="font-size: 10px; font-family: 'DejaVu Sans', 'Bitstream Vera Sans', 'Computer Modern Sans Serif', 'Lucida Grande', 'Verdana', 'Geneva', 'Lucid', 'Arial', 'Helvetica', 'Avant Garde', sans-serif; text-anchor: middle" x="18.575" y="244.46" transform="rotate(-90 18.575 244.46)">Safety degradation</text>
    </g>
   </g>
   <g id="line2d_18">
    <path d="M 164.564484 368.947968 
" clip-path="url(#p279515fcfe)" style="fill: none; stroke: #1f77b4; stroke-opacity: 0.88; stroke-width: 2; stroke-linecap: square"/>
    <defs>
     <path id="m2135fe901a" d="M 0 3 
C 0.795609 3 1.55874 2.683901 2.12132 2.12132 
C 2.683901 1.55874 3 0.795609 3 0 
C 3 -0.795609 2.683901 -1.55874 2.12132 -2.12132 
C 1.55874 -2.683901 0.795609 -3 0 -3 
C -0.795609 -3 -1.55874 -2.683901 -2.12132 -2.12132 
C -2.683901 -1.55874 -3 -0.795609 -3 0 
C -3 0.795609 -2.683901 1.55874 -2.12132 2.12132 
C -1.55874 2.683901 -0.795609 3 0 3 
z
" style="stroke: #1f77b4; stroke-opacity: 0.88"/>
    </defs>
    <g clip-path="url(#p279515fcfe)">
     <use xlink:href="#m2135fe901a" x="164.564484" y="368.947968" style="fill: #1f77b4; fill-opacity: 0.88; stroke: #1f77b4; stroke-opacity: 0.88"/>
    </g>
   </g>
   <g id="line2d_19">
    <path d="M 156.042443 361.512346 
" clip-path="url(#p279515fcfe)" style="fill: none; stroke: #ff7f0e; stroke-opacity: 0.88; stroke-width: 2; stroke-linecap: square"/>
    <defs>
     <path id="m6b94334b04" d="M 0 3 
C 0.795609 3 1.55874 2.683901 2.12132 2.12132 
C 2.683901 1.55874 3 0.795609 3 0 
C 3 -0.795609 2.683901 -1.55874 2.12132 -2.12132 
C 1.55874 -2.683901 0.795609 -3 0 -3 
C -0.795609 -3 -1.55874 -2.683901 -2.12132 -2.12132 
C -2.683901 -1.55874 -3 -0.795609 -3 0 
C -3 0.795609 -2.683901 1.55874 -2.12132 2.12132 
C -1.55874 2.683901 -0.795609 3 0 3 
z
" style="stroke: #ff7f0e; stroke-opacity: 0.88"/>
    </defs>
    <g clip-path="url(#p279515fcfe)">
     <use xlink:href="#m6b94334b04" x="156.042443" y="361.512346" style="fill: #ff7f0e; fill-opacity: 0.88; stroke: #ff7f0e; stroke-opacity: 0.88"/>
    </g>
   </g>
   <g id="line2d_20">
    <path d="M 164.564484 390.746081 
" clip-path="url(#p279515fcfe)" style="fill: none; stroke: #2ca02c; stroke-opacity: 0.88; stroke-width: 2; stroke-linecap: square"/>
    <defs>
     <path id="mf8f23cc4ec" d="M 0 3 
C 0.795609 3 1.55874 2.683901 2.12132 2.12132 
C 2.683901 1.55874 3 0.795609 3 0 
C 3 -0.795609 2.683901 -1.55874 2.12132 -2.12132 
C 1.55874 -2.683901 0.795609 -3 0 -3 
C -0.795609 -3 -1.55874 -2.683901 -2.12132 -2.12132 
C -2.683901 -1.55874 -3 -0.795609 -3 0 
C -3 0.795609 -2.683901 1.55874 -2.12132 2.12132 
C -1.55874 2.683901 -0.795609 3 0 3 
z
" style="stroke: #2ca02c; stroke-opacity: 0.88"/>
    </defs>
    <g clip-path="url(#p279515fcfe)">
     <use xlink:href="#mf8f23cc4ec" x="164.564484" y="390.746081" style="fill: #2ca02c; fill-opacity: 0.88; stroke: #2ca02c; stroke-opacity: 0.88"/>
    </g>
   </g>
   <g id="line2d_21">
    <path d="M 154.622103 260.153076 
" clip-path="url(#p279515fcfe)" style="fill: none; stroke: #d62728; stroke-opacity: 0.88; stroke-width: 2; stroke-linecap: square"/>
    <defs>
     <path id="m1098b36c1d" d="M 0 3 
C 0.795609 3 1.55874 2.683901 2.12132 2.12132 
C 2.683901 1.55874 3 0.795609 3 0 
C 3 -0.795609 2.683901 -1.55874 2.12132 -2.12132 
C 1.55874 -2.683901 0.795609 -3 0 -3 
C -0.795609 -3 -1.55874 -2.683901 -2.12132 -2.12132 
C -2.683901 -1.55874 -3 -0.795609 -3 0 
C -3 0.795609 -2.683901 1.55874 -2.12132 2.12132 
C -1.55874 2.683901 -0.795609 3 0 3 
z
" style="stroke: #d62728; stroke-opacity: 0.88"/>
    </defs>
    <g clip-path="url(#p279515fcfe)">
     <use xlink:href="#m1098b36c1d" x="154.622103" y="260.153076" style="fill: #d62728; fill-opacity: 0.88; stroke: #d62728; stroke-opacity: 0.88"/>
    </g>
   </g>
   <g id="line2d_22">
    <path d="M 163.144144 387.615293 
" clip-path="url(#p279515fcfe)" style="fill: none; stroke: #9467bd; stroke-opacity: 0.88; stroke-width: 2; stroke-linecap: square"/>
    <defs>
     <path id="m3d9351b3aa" d="M 0 3 
C 0.795609 3 1.55874 2.683901 2.12132 2.12132 
C 2.683901 1.55874 3 0.795609 3 0 
C 3 -0.795609 2.683901 -1.55874 2.12132 -2.12132 
C 1.55874 -2.683901 0.795609 -3 0 -3 
C -0.795609 -3 -1.55874 -2.683901 -2.12132 -2.12132 
C -2.683901 -1.55874 -3 -0.795609 -3 0 
C -3 0.795609 -2.683901 1.55874 -2.12132 2.12132 
C -1.55874 2.683901 -0.795609 3 0 3 
z
" style="stroke: #9467bd; stroke-opacity: 0.88"/>
    </defs>
    <g clip-path="url(#p279515fcfe)">
     <use xlink:href="#m3d9351b3aa" x="163.144144" y="387.615293" style="fill: #9467bd; fill-opacity: 0.88; stroke: #9467bd; stroke-opacity: 0.88"/>
    </g>
   </g>
   <g id="patch_3">
    <path d="M 62.3 462.04 
L 62.3 26.88 
" style="fill: none; stroke: #000000; stroke-width: 0.8; stroke-linejoin: miter; stroke-linecap: square"/>
   </g>
   <g id="patch_4">
    <path d="M 626.175 462.04 
L 626.175 26.88 
" style="fill: none; stroke: #000000; stroke-width: 0.8; stroke-linejoin: miter; stroke-linecap: square"/>
   </g>
   <g id="patch_5">
    <path d="M 62.3 462.04 
L 626.175 462.04 
" style="fill: none; stroke: #000000; stroke-width: 0.8; stroke-linejoin: miter; stroke-linecap: square"/>
   </g>
   <g id="patch_6">
    <path d="M 62.3 26.88 
L 626.175 26.88 
" style="fill: none; stroke: #000000; stroke-width: 0.8; stroke-linejoin: miter; stroke-linecap: square"/>
   </g>
   <g id="text_17">
    <text style="font-size: 7px; font-family: 'DejaVu Sans', 'Bitstream Vera Sans', 'Computer Modern Sans Serif', 'Lucida Grande', 'Verdana', 'Geneva', 'Lucid', 'Arial', 'Helvetica', 'Avant Garde', sans-serif; text-anchor: start; fill: #1f77b4" x="168.564484" y="365.947968" transform="rotate(-0 168.564484 365.947968)">b=128</text>
   </g>
   <g id="text_18">
    <text style="font-size: 7px; font-family: 'DejaVu Sans', 'Bitstream Vera Sans', 'Computer Modern Sans Serif', 'Lucida Grande', 'Verdana', 'Geneva', 'Lucid', 'Arial', 'Helvetica', 'Avant Garde', sans-serif; text-anchor: start; fill: #ff7f0e" x="160.042443" y="358.512346" transform="rotate(-0 160.042443 358.512346)">b=128</text>
   </g>
   <g id="text_19">
    <text style="font-size: 7px; font-family: 'DejaVu Sans', 'Bitstream Vera Sans', 'Computer Modern Sans Serif', 'Lucida Grande', 'Verdana', 'Geneva', 'Lucid', 'Arial', 'Helvetica', 'Avant Garde', sans-serif; text-anchor: start; fill: #2ca02c" x="168.564484" y="387.746081" transform="rotate(-0 168.564484 387.746081)">b=128</text>
   </g>
   <g id="text_20">
    <text style="font-size: 7px; font-family: 'DejaVu Sans', 'Bitstream Vera Sans', 'Computer Modern Sans Serif', 'Lucida Grande', 'Verdana', 'Geneva', 'Lucid', 'Arial', 'Helvetica', 'Avant Garde', sans-serif; text-anchor: start; fill: #d62728" x="158.622103" y="257.153076" transform="rotate(-0 158.622103 257.153076)">b=128</text>
   </g>
   <g id="text_21">
    <text style="font-size: 7px; font-family: 'DejaVu Sans', 'Bitstream Vera Sans', 'Computer Modern Sans Serif', 'Lucida Grande', 'Verdana', 'Geneva', 'Lucid', 'Arial', 'Helvetica', 'Avant Garde', sans-serif; text-anchor: start; fill: #9467bd" x="167.144144" y="384.615293" transform="rotate(-0 167.144144 384.615293)">b=128</text>
   </g>
   <g id="text_22">
    <text style="font-size: 12px; font-family: 'DejaVu Sans', 'Bitstream Vera Sans', 'Computer Modern Sans Serif', 'Lucida Grande', 'Verdana', 'Geneva', 'Lucid', 'Arial', 'Helvetica', 'Avant Garde', sans-serif; text-anchor: middle" x="344.2375" y="20.88" transform="rotate(-0 344.2375 20.88)">Safety-Capability Phase Portrait</text>
   </g>
   <g id="legend_1">
    <g id="patch_7">
     <path d="M 281.602187 458.54 
L 621.275 458.54 
Q 622.675 458.54 622.675 457.14 
L 622.675 426.431875 
Q 622.675 425.031875 621.275 425.031875 
L 281.602187 425.031875 
Q 280.202187 425.031875 280.202187 426.431875 
L 280.202187 457.14 
Q 280.202187 458.54 281.602187 458.54 
z
" style="fill: #ffffff; opacity: 0.8; stroke: #cccccc; stroke-linejoin: miter"/>
    </g>
    <g id="line2d_23">
     <path d="M 283.002187 430.700781 
L 290.002187 430.700781 
L 297.002187 430.700781 
" style="fill: none; stroke: #1f77b4; stroke-opacity: 0.88; stroke-width: 2; stroke-linecap: square"/>
     <g>
      <use xlink:href="#m2135fe901a" x="290.002187" y="430.700781" style="fill: #1f77b4; fill-opacity: 0.88; stroke: #1f77b4; stroke-opacity: 0.88"/>
     </g>
    </g>
    <g id="text_23">
     <text style="font-size: 7px; font-family: 'DejaVu Sans', 'Bitstream Vera Sans', 'Computer Modern Sans Serif', 'Lucida Grande', 'Verdana', 'Geneva', 'Lucid', 'Arial', 'Helvetica', 'Avant Garde', sans-serif; text-anchor: start" x="302.602188" y="433.150781" transform="rotate(-0 302.602188 433.150781)">global_policy_contrast / policy_pinned</text>
    </g>
    <g id="line2d_24">
     <path d="M 283.002187 441.170156 
L 290.002187 441.170156 
L 297.002187 441.170156 
" style="fill: none; stroke: #ff7f0e; stroke-opacity: 0.88; stroke-width: 2; stroke-linecap: square"/>
     <g>
      <use xlink:href="#m6b94334b04" x="290.002187" y="441.170156" style="fill: #ff7f0e; fill-opacity: 0.88; stroke: #ff7f0e; stroke-opacity: 0.88"/>
     </g>
    </g>
    <g id="text_24">
     <text style="font-size: 7px; font-family: 'DejaVu Sans', 'Bitstream Vera Sans', 'Computer Modern Sans Serif', 'Lucida Grande', 'Verdana', 'Geneva', 'Lucid', 'Arial', 'Helvetica', 'Avant Garde', sans-serif; text-anchor: start" x="302.602188" y="443.620156" transform="rotate(-0 302.602188 443.620156)">global_policy_contrast / random_matched</text>
    </g>
    <g id="line2d_25">
     <path d="M 283.002187 451.639531 
L 290.002187 451.639531 
L 297.002187 451.639531 
" style="fill: none; stroke: #2ca02c; stroke-opacity: 0.88; stroke-width: 2; stroke-linecap: square"/>
     <g>
      <use xlink:href="#mf8f23cc4ec" x="290.002187" y="451.639531" style="fill: #2ca02c; fill-opacity: 0.88; stroke: #2ca02c; stroke-opacity: 0.88"/>
     </g>
    </g>
    <g id="text_25">
     <text style="font-size: 7px; font-family: 'DejaVu Sans', 'Bitstream Vera Sans', 'Computer Modern Sans Serif', 'Lucida Grande', 'Verdana', 'Geneva', 'Lucid', 'Arial', 'Helvetica', 'Avant Garde', sans-serif; text-anchor: start" x="302.602188" y="454.089531" transform="rotate(-0 302.602188 454.089531)">global_policy_contrast / sink_recent</text>
    </g>
    <g id="line2d_26">
     <path d="M 462.776406 430.700781 
L 469.776406 430.700781 
L 476.776406 430.700781 
" style="fill: none; stroke: #d62728; stroke-opacity: 0.88; stroke-width: 2; stroke-linecap: square"/>
     <g>
      <use xlink:href="#m1098b36c1d" x="469.776406" y="430.700781" style="fill: #d62728; fill-opacity: 0.88; stroke: #d62728; stroke-opacity: 0.88"/>
     </g>
    </g>
    <g id="text_26">
     <text style="font-size: 7px; font-family: 'DejaVu Sans', 'Bitstream Vera Sans', 'Computer Modern Sans Serif', 'Lucida Grande', 'Verdana', 'Geneva', 'Lucid', 'Arial', 'Helvetica', 'Avant Garde', sans-serif; text-anchor: start" x="482.376406" y="433.150781" transform="rotate(-0 482.376406 433.150781)">global_policy_contrast / sliding_window</text>
    </g>
    <g id="line2d_27">
     <path d="M 462.776406 441.170156 
L 469.776406 441.170156 
L 476.776406 441.170156 
" style="fill: none; stroke: #9467bd; stroke-opacity: 0.88; stroke-width: 2; stroke-linecap: square"/>
     <g>
      <use xlink:href="#m3d9351b3aa" x="469.776406" y="441.170156" style="fill: #9467bd; fill-opacity: 0.88; stroke: #9467bd; stroke-opacity: 0.88"/>
     </g>
    </g>
    <g id="text_27">
     <text style="font-size: 7px; font-family: 'DejaVu Sans', 'Bitstream Vera Sans', 'Computer Modern Sans Serif', 'Lucida Grande', 'Verdana', 'Geneva', 'Lucid', 'Arial', 'Helvetica', 'Avant Garde', sans-serif; text-anchor: start" x="482.376406" y="443.620156" transform="rotate(-0 482.376406 443.620156)">global_policy_contrast / user_pinned</text>
    </g>
    <g id="patch_8">
     <path d="M 462.776406 454.089531 
L 476.776406 454.089531 
L 476.776406 449.189531 
L 462.776406 449.189531 
z
" style="fill: #d73027; fill-opacity: 0.06; stroke: #d73027; stroke-opacity: 0.06; stroke-linejoin: miter"/>
    </g>
    <g id="text_28">
     <text style="font-size: 7px; font-family: 'DejaVu Sans', 'Bitstream Vera Sans', 'Computer Modern Sans Serif', 'Lucida Grande', 'Verdana', 'Geneva', 'Lucid', 'Arial', 'Helvetica', 'Avant Garde', sans-serif; text-anchor: start" x="482.376406" y="454.089531" transform="rotate(-0 482.376406 454.089531)">selective safety-loss region</text>
    </g>
   </g>
  </g>
 </g>
 <defs>
  <clipPath id="p279515fcfe">
   <rect x="62.3" y="26.88" width="563.875" height="435.16"/>
  </clipPath>
 </defs>
</svg>
